<?xml version="1.0" encoding="UTF-8" standalone="no"?>
<!-- Created with Inkscape (http://www.inkscape.org/) -->

<svg
   width="12.684726mm"
   height="20.669916mm"
   viewBox="0 0 12.684726 20.669916"
   version="1.1"
   id="svg1"
   xml:space="preserve"
   xmlns="http://www.w3.org/2000/svg"
   xmlns:svg="http://www.w3.org/2000/svg"><defs
     id="defs1" /><g
     id="layer2"
     transform="translate(-144.83853,-84.474534)"><g
       id="text4651"
       style="font-size:1.05833px;font-family:'ComicShannsMono Nerd Font Mono';-inkscape-font-specification:'ComicShannsMono Nerd Font Mono';text-align:center;text-anchor:middle;stroke-width:0.264583"
       aria-label="designed for stardance&#10;(hackclub)"><path
         d="m 145.06958,95.243429 c -0.0445,0.0011 -0.0783,-0.01482 -0.1016,-0.04868 -0.0243,-0.03387 -0.036,-0.07937 -0.0349,-0.138641 0,-0.04022 0.0127,-0.0762 0.036,-0.10795 0.0233,-0.03175 0.0561,-0.04762 0.0984,-0.04974 0.0286,0 0.055,0.0085 0.0794,0.0254 0.0233,0.01799 0.0423,0.0381 0.0561,0.05927 0,0.01164 -0.001,0.02328 -0.001,0.03387 0,0.01058 0,0.02222 0,0.03281 -0.001,0.01799 -0.001,0.03493 -0.001,0.05186 0,0.01693 0.001,0.03387 0.001,0.04868 -0.006,0.01058 -0.0127,0.02117 -0.0191,0.03175 -0.007,0.01164 -0.0159,0.02223 -0.0254,0.03069 -0.0106,0.0095 -0.0222,0.01693 -0.036,0.02222 -0.0148,0.0064 -0.0318,0.0085 -0.0519,0.0085 z m 0.24553,0.04127 c 0,-0.0064 0,-0.01376 -0.002,-0.02117 -0.002,-0.0063 -0.004,-0.01693 -0.007,-0.03069 -0.002,-0.01376 -0.005,-0.03281 -0.008,-0.05715 -0.002,-0.02434 -0.004,-0.05715 -0.005,-0.09842 0,-0.02857 10e-4,-0.06562 0.002,-0.110067 0.001,-0.04445 0.002,-0.08996 0.003,-0.135466 0.001,-0.04551 0.002,-0.08784 0.004,-0.128058 0.002,-0.03916 0.003,-0.06773 0.003,-0.08572 0.002,-0.0254 -0.002,-0.04128 -0.0106,-0.04868 -0.008,-0.0074 -0.019,-0.01164 -0.0307,-0.0127 -0.0106,0 -0.0222,0.0042 -0.0328,0.01164 -0.0106,0.0085 -0.018,0.02434 -0.0201,0.04974 -0.001,0.01905 -0.002,0.04974 -0.003,0.09207 -0.001,0.04339 -0.002,0.09102 -0.003,0.143933 -0.0169,-0.01164 -0.0392,-0.02117 -0.0646,-0.02963 -0.0254,-0.0085 -0.055,-0.0127 -0.0878,-0.0127 -0.0328,0.0011 -0.0624,0.0074 -0.09,0.01905 -0.0265,0.0127 -0.0487,0.02858 -0.0677,0.04974 -0.019,0.02117 -0.0328,0.04657 -0.0434,0.07514 -0.01,0.02858 -0.0138,0.05927 -0.0127,0.09207 -0.001,0.04657 0.005,0.08784 0.018,0.123825 0.0127,0.03598 0.0296,0.06562 0.0508,0.0889 0.0212,0.02328 0.0445,0.04127 0.072,0.05292 0.0275,0.0127 0.054,0.01799 0.0815,0.01799 0.0402,0 0.0709,-0.0074 0.0931,-0.02328 0.0222,-0.01587 0.0402,-0.03387 0.054,-0.05397 0.002,0.02328 0.007,0.04127 0.0169,0.05609 0.008,0.01482 0.0243,0.02011 0.0466,0.01588 0.0106,-0.0021 0.0201,-0.0053 0.0286,-0.01164 0.008,-0.0064 0.0138,-0.01588 0.0159,-0.02963 z m 0.34819,-0.40534 c 0.0201,0 0.0381,0.0063 0.055,0.01693 0.0169,0.01164 0.0339,0.03281 0.0487,0.0635 -0.0127,0.0127 -0.0317,0.02328 -0.0561,0.03387 -0.0233,0.01058 -0.0476,0.02011 -0.073,0.02857 -0.0243,0.0085 -0.0476,0.01587 -0.0688,0.02117 -0.0212,0.0053 -0.0349,0.0085 -0.0423,0.01058 0.002,-0.03069 0.008,-0.05715 0.0169,-0.07937 0.01,-0.02223 0.0212,-0.04022 0.0339,-0.05503 0.0138,-0.01376 0.0286,-0.02434 0.0434,-0.03069 0.0148,-0.0064 0.0296,-0.0095 0.0423,-0.0095 z m 0.20109,0.378882 c 0.0148,-0.01905 0.0201,-0.03493 0.0159,-0.04762 -0.004,-0.0127 -0.0116,-0.02223 -0.0212,-0.02963 -0.0106,-0.0063 -0.0212,-0.0095 -0.0339,-0.0074 -0.0127,0.0021 -0.0275,0.0127 -0.0423,0.03281 -0.002,0.0021 -0.006,0.0074 -0.0138,0.01376 -0.008,0.0063 -0.018,0.01376 -0.0296,0.02011 -0.0127,0.0064 -0.0265,0.0127 -0.0434,0.01799 -0.0169,0.0053 -0.0339,0.0074 -0.0529,0.0063 -0.037,-0.0011 -0.0635,-0.0127 -0.0804,-0.03387 -0.0169,-0.02117 -0.0275,-0.04762 -0.0317,-0.07832 0.0169,-0.0063 0.0381,-0.01376 0.0635,-0.02222 0.0254,-0.0085 0.0508,-0.01799 0.0783,-0.02858 0.0265,-0.01058 0.0529,-0.02117 0.0783,-0.03281 0.0254,-0.01164 0.0455,-0.02328 0.0625,-0.03598 0.004,-0.0032 0.0106,-0.0085 0.018,-0.01587 0.006,-0.0074 0.0127,-0.01588 0.019,-0.02434 0.005,-0.0085 0.01,-0.01799 0.0127,-0.02858 0.003,-0.0095 0.004,-0.01905 0.002,-0.02857 -0.006,-0.01905 -0.0169,-0.03598 -0.0307,-0.05292 -0.0148,-0.01693 -0.0296,-0.03069 -0.0466,-0.04233 -0.0169,-0.01164 -0.0349,-0.02117 -0.0529,-0.02752 -0.0191,-0.0064 -0.0349,-0.01058 -0.0497,-0.01058 -0.036,0 -0.0688,0.0064 -0.0995,0.01905 -0.0317,0.0127 -0.0582,0.03069 -0.0804,0.05397 -0.0222,0.02328 -0.0402,0.05292 -0.0529,0.08784 -0.0138,0.03598 -0.0212,0.07514 -0.0212,0.119591 -0.001,0.08043 0.0169,0.144991 0.0529,0.191558 0.036,0.04657 0.0878,0.07091 0.15345,0.07091 0.0677,0.0011 0.11854,-0.0063 0.15029,-0.02328 0.0318,-0.01693 0.0572,-0.0381 0.0762,-0.0635 z m 0.15134,-0.0063 c 0.008,0.03493 0.0296,0.06032 0.0635,0.0762 0.0328,0.01693 0.0677,0.02434 0.10371,0.02434 0.0349,0 0.0688,-0.0042 0.1016,-0.0127 0.0318,-0.0085 0.0603,-0.02011 0.0857,-0.03598 0.0243,-0.01482 0.0444,-0.03387 0.0603,-0.05715 0.0169,-0.02328 0.0265,-0.04868 0.0296,-0.07832 0.003,-0.02117 -0.001,-0.04022 -0.0117,-0.05715 -0.0106,-0.01693 -0.0264,-0.03069 -0.0466,-0.04233 -0.0212,-0.01164 -0.0455,-0.02117 -0.073,-0.02963 -0.0275,-0.0085 -0.0572,-0.01587 -0.0878,-0.02222 -0.01,-0.0021 -0.0201,-0.0042 -0.0318,-0.0063 -0.0116,-0.0021 -0.0222,-0.0053 -0.0328,-0.0095 -0.0106,-0.0032 -0.0201,-0.0074 -0.0275,-0.01164 -0.007,-0.0042 -0.0117,-0.0095 -0.0117,-0.01482 -0.002,-0.01482 0.003,-0.02646 0.0159,-0.03704 0.0127,-0.01058 0.0286,-0.02011 0.0476,-0.02646 0.019,-0.0063 0.0392,-0.01164 0.0614,-0.01482 0.0222,-0.0032 0.0423,-0.0042 0.0603,-0.0042 0.004,0.01799 0.008,0.03069 0.0116,0.03916 0.003,0.0085 0.006,0.01693 0.0106,0.0254 0.002,0.0074 0.01,0.01482 0.0201,0.02223 0.0106,0.0074 0.0233,0.0085 0.0381,0.0042 0.0127,-0.0042 0.0212,-0.0127 0.0233,-0.02434 0.002,-0.01164 0.003,-0.02328 0.003,-0.03387 0,-0.0042 -10e-4,-0.0127 -0.003,-0.0254 -0.002,-0.0127 -0.005,-0.02646 -0.008,-0.04022 -0.004,-0.01482 -0.008,-0.02752 -0.0127,-0.0381 -0.005,-0.01058 -0.0106,-0.01588 -0.0169,-0.01588 -0.11853,0 -0.20743,0.01482 -0.26458,0.04657 -0.0572,0.03069 -0.0857,0.07197 -0.0857,0.122767 0,0.02752 0.006,0.04868 0.0201,0.0635 0.0127,0.01482 0.0392,0.02858 0.0773,0.04127 0.0254,0.0085 0.0529,0.01482 0.0804,0.02117 0.0275,0.0063 0.0519,0.01164 0.0741,0.01799 0.0212,0.0064 0.0392,0.0127 0.0529,0.02011 0.0138,0.0074 0.0201,0.01693 0.0201,0.02963 -0.002,0.0127 -0.008,0.02434 -0.0212,0.03704 -0.0127,0.01164 -0.0275,0.02222 -0.0445,0.03175 -0.0169,0.0085 -0.0349,0.01588 -0.054,0.02117 -0.019,0.0053 -0.0349,0.0085 -0.0476,0.0085 -0.0286,0 -0.0476,-0.0053 -0.0561,-0.01376 -0.008,-0.0085 -0.0169,-0.02223 -0.0243,-0.04022 -0.008,-0.01905 -0.0201,-0.03069 -0.0349,-0.03493 -0.0159,-0.0042 -0.0307,-0.0042 -0.0434,0.0021 -0.0106,0.0042 -0.018,0.0127 -0.0222,0.02434 -0.004,0.01164 -0.004,0.02752 0.001,0.04762 z m 0.61806,-0.0032 c -0.018,0 -0.0296,0.0042 -0.0349,0.0127 -0.005,0.0085 -0.007,0.01799 -0.007,0.02858 -0.001,0.01058 0.001,0.02117 0.006,0.03069 0.005,0.0095 0.0169,0.01376 0.0349,0.01376 0.0201,0 0.0487,0 0.0868,-0.0011 0.037,0 0.0751,-0.0011 0.11324,-0.0011 0.0381,0 0.0741,-0.0011 0.10583,-0.0021 0.0328,0 0.055,-0.0011 0.0667,-0.0011 0.0159,0 0.0265,-0.0042 0.0318,-0.0127 0.006,-0.0085 0.01,-0.01799 0.01,-0.02752 0,-0.01058 -0.002,-0.01905 -0.007,-0.02752 -0.004,-0.0085 -0.0159,-0.01164 -0.0328,-0.01164 h -0.12382 c -0.002,-0.06456 -0.004,-0.123824 -0.005,-0.178857 -10e-4,-0.05503 0.001,-0.115358 0.005,-0.180975 0,-0.0032 0,-0.0074 -0.001,-0.01376 -0.001,-0.0063 -0.003,-0.01376 -0.007,-0.02011 -0.004,-0.0063 -0.01,-0.0127 -0.0159,-0.01693 -0.006,-0.0042 -0.0159,-0.0063 -0.0265,-0.0063 -0.0339,-0.0011 -0.0656,-0.0011 -0.0942,0.0011 -0.0286,0.0011 -0.0529,0.0021 -0.073,0.0032 -0.0127,0 -0.0233,0.0053 -0.0296,0.01376 -0.006,0.0085 -0.008,0.01905 -0.008,0.02963 0,0.0095 0.003,0.01799 0.01,0.0254 0.006,0.0085 0.0169,0.01164 0.0296,0.01164 0.0254,0.0011 0.0487,0.0011 0.0677,0 0.0201,-0.0021 0.0392,-0.0011 0.0572,0.0011 -0.002,0.04233 -0.003,0.08361 -0.004,0.124883 -0.002,0.04127 -0.002,0.08467 0,0.129116 0,0.01482 0.001,0.02858 0.001,0.04127 v 0.03598 z m 0.18521,-0.482598 c 0.0233,-0.0021 0.0423,-0.01058 0.0572,-0.0254 0.0138,-0.01482 0.0212,-0.03175 0.0212,-0.05292 0,-0.02011 -0.007,-0.0381 -0.0212,-0.05292 -0.0148,-0.01482 -0.0339,-0.02117 -0.0572,-0.02117 -0.0212,0.0011 -0.0402,0.0085 -0.0571,0.02328 -0.0169,0.01482 -0.0254,0.03175 -0.0254,0.05186 0,0.02117 0.007,0.03916 0.0222,0.05609 0.0148,0.01693 0.0349,0.02434 0.0603,0.02117 z m 0.71014,0.169332 c -0.001,0.0381 -0.001,0.07303 -0.001,0.104775 0,0.03281 -0.001,0.06244 -0.001,0.0889 -0.002,0.01482 -0.006,0.02963 -0.0127,0.04445 -0.006,0.01482 -0.0159,0.02858 -0.0275,0.04127 -0.0127,0.0127 -0.0275,0.02434 -0.0455,0.03281 -0.018,0.0085 -0.0392,0.01376 -0.0635,0.01376 -0.0233,0.0011 -0.0413,-0.0042 -0.055,-0.01482 -0.0148,-0.01058 -0.0254,-0.0254 -0.0328,-0.04445 -0.007,-0.01799 -0.0116,-0.03916 -0.0138,-0.0635 -0.002,-0.02434 -0.003,-0.04974 -0.001,-0.07514 0.002,-0.02963 0.008,-0.05397 0.019,-0.07514 0.0106,-0.02117 0.0233,-0.0381 0.0381,-0.0508 0.0148,-0.0127 0.0317,-0.02328 0.0497,-0.02963 0.0169,-0.0063 0.0339,-0.0095 0.0508,-0.01058 0.0148,0 0.0318,0.0011 0.0497,0.0042 0.018,0.0032 0.0339,0.0063 0.0466,0.0095 l 0.006,0.0011 c -0.002,0.0042 -0.004,0.0074 -0.005,0.01164 -0.001,0.0042 -0.001,0.0074 -0.001,0.01164 z m 0.0508,-0.100541 c -0.0148,-0.0074 -0.0296,-0.0127 -0.0444,-0.01587 -0.0148,-0.0032 -0.0402,-0.0053 -0.0762,-0.0053 -0.036,0 -0.0699,0.0053 -0.10372,0.01587 -0.0339,0.01058 -0.0624,0.02646 -0.0878,0.04868 -0.0254,0.02222 -0.0466,0.0508 -0.0624,0.08678 -0.0159,0.03598 -0.0243,0.07937 -0.0243,0.130174 0,0.08043 0.0138,0.142875 0.0434,0.186266 0.0286,0.04445 0.0762,0.06667 0.14181,0.06667 0.0413,0 0.0741,-0.0063 0.0995,-0.01905 0.0254,-0.0127 0.0444,-0.02858 0.0593,-0.04868 -10e-4,0.01587 -0.002,0.02963 -0.002,0.04127 -0.001,0.0127 -0.002,0.02328 -0.003,0.03175 -0.007,0.0508 -0.0307,0.09102 -0.0709,0.122766 -0.0402,0.03175 -0.0857,0.04762 -0.13652,0.04762 -0.0191,0 -0.036,-0.0042 -0.0508,-0.01376 -0.0148,-0.0095 -0.0265,-0.01482 -0.036,-0.01693 -0.0106,-0.0021 -0.0201,0.0011 -0.0286,0.0095 -0.008,0.0085 -0.0138,0.02011 -0.0138,0.03281 0,0.01376 0.003,0.02328 0.01,0.02752 0.006,0.0042 0.0159,0.0095 0.0265,0.01587 0.0106,0.0053 0.0254,0.01164 0.0466,0.01799 0.0212,0.0063 0.0423,0.0095 0.0656,0.0095 0.0328,0 0.0646,-0.0042 0.0952,-0.01482 0.0317,-0.01058 0.0593,-0.0254 0.0836,-0.04551 0.0254,-0.02011 0.0455,-0.04551 0.0624,-0.07726 0.0169,-0.03175 0.0275,-0.06773 0.0317,-0.110067 0.003,-0.03175 0.005,-0.06773 0.006,-0.107949 0.002,-0.04022 0.002,-0.07937 0.002,-0.118533 0,-0.03916 0,-0.0762 -0.001,-0.112183 0,-0.03598 -0.001,-0.06562 -0.001,-0.08996 0,-0.0095 -0.001,-0.01799 -0.005,-0.02434 -0.004,-0.0063 -0.0106,-0.01164 -0.0191,-0.01376 0.001,0 0.002,-0.0011 0.002,-0.0032 0.001,-0.0011 0.002,-0.0021 0.003,-0.0032 0.003,-0.0063 0.004,-0.01482 0.003,-0.02646 -0.001,-0.01058 -0.006,-0.01905 -0.0148,-0.02434 z m 0.2921,0.03069 c 0.002,-0.02117 -0.002,-0.03598 -0.0117,-0.04445 -0.01,-0.0085 -0.0201,-0.0127 -0.0317,-0.0127 -0.0127,0 -0.0254,0.0042 -0.0381,0.0127 -0.0127,0.0085 -0.019,0.02434 -0.0201,0.04551 0,0.04233 -0.003,0.08996 -0.008,0.142874 -0.004,0.05292 -0.006,0.106892 -0.004,0.161925 0.001,0.0254 0.003,0.04762 0.005,0.06879 0.003,0.02117 0.005,0.03704 0.006,0.04763 0,0.01905 0.005,0.03281 0.0138,0.04022 0.008,0.0074 0.019,0.01164 0.0296,0.01164 0.0127,0.0011 0.0254,-0.0021 0.037,-0.0095 0.0106,-0.0063 0.0169,-0.02117 0.0169,-0.04233 0,-0.01693 -0.002,-0.04022 -0.006,-0.06773 -0.004,-0.02752 -0.005,-0.05609 -0.005,-0.08784 -0.001,-0.01693 -0.001,-0.03493 0,-0.05292 0,-0.01693 0.001,-0.03493 0.002,-0.05186 0.006,-0.0127 0.0138,-0.0254 0.0243,-0.04022 0.0106,-0.01482 0.0222,-0.02752 0.036,-0.04022 0.0138,-0.01164 0.0296,-0.02117 0.0476,-0.02963 0.0169,-0.0085 0.037,-0.0127 0.0593,-0.0127 0.0233,0 0.0392,0.01058 0.0476,0.03069 0.007,0.02117 0.0127,0.05821 0.0159,0.112183 0.002,0.04551 0.005,0.08784 0.0106,0.128058 0.004,0.04022 0.008,0.07514 0.0116,0.104775 0.001,0.02328 0.007,0.03916 0.019,0.04762 0.0116,0.0085 0.0243,0.0127 0.037,0.01164 0.0106,0 0.0212,-0.0042 0.0296,-0.0127 0.008,-0.0085 0.0127,-0.02434 0.0127,-0.04657 -0.002,-0.0381 -0.007,-0.08043 -0.0159,-0.127 -0.008,-0.04657 -0.0127,-0.09631 -0.0138,-0.150283 -0.002,-0.05715 -0.0138,-0.103716 -0.037,-0.138641 -0.0233,-0.03387 -0.0572,-0.05186 -0.10372,-0.05186 -0.0434,0 -0.0794,0.0095 -0.10689,0.02752 -0.0286,0.01799 -0.0497,0.03704 -0.0624,0.05821 0,-0.0053 0.001,-0.01058 0.001,-0.01693 0,-0.0053 0.001,-0.01058 0.002,-0.01587 z m 0.70167,0.01376 c 0.0201,0 0.0381,0.0063 0.055,0.01693 0.0169,0.01164 0.0339,0.03281 0.0487,0.0635 -0.0127,0.0127 -0.0318,0.02328 -0.0561,0.03387 -0.0233,0.01058 -0.0476,0.02011 -0.073,0.02857 -0.0243,0.0085 -0.0476,0.01587 -0.0688,0.02117 -0.0212,0.0053 -0.0349,0.0085 -0.0423,0.01058 0.002,-0.03069 0.008,-0.05715 0.0169,-0.07937 0.01,-0.02223 0.0212,-0.04022 0.0339,-0.05503 0.0138,-0.01376 0.0286,-0.02434 0.0434,-0.03069 0.0148,-0.0064 0.0296,-0.0095 0.0423,-0.0095 z m 0.20108,0.378882 c 0.0148,-0.01905 0.0201,-0.03493 0.0159,-0.04762 -0.004,-0.0127 -0.0116,-0.02223 -0.0212,-0.02963 -0.0106,-0.0063 -0.0212,-0.0095 -0.0339,-0.0074 -0.0127,0.0021 -0.0275,0.0127 -0.0423,0.03281 -0.002,0.0021 -0.006,0.0074 -0.0138,0.01376 -0.008,0.0063 -0.018,0.01376 -0.0296,0.02011 -0.0127,0.0064 -0.0265,0.0127 -0.0434,0.01799 -0.0169,0.0053 -0.0339,0.0074 -0.0529,0.0063 -0.037,-0.0011 -0.0635,-0.0127 -0.0804,-0.03387 -0.0169,-0.02117 -0.0275,-0.04762 -0.0318,-0.07832 0.0169,-0.0063 0.0381,-0.01376 0.0635,-0.02222 0.0254,-0.0085 0.0508,-0.01799 0.0783,-0.02858 0.0265,-0.01058 0.0529,-0.02117 0.0783,-0.03281 0.0254,-0.01164 0.0455,-0.02328 0.0624,-0.03598 0.004,-0.0032 0.0106,-0.0085 0.018,-0.01587 0.006,-0.0074 0.0127,-0.01588 0.019,-0.02434 0.005,-0.0085 0.01,-0.01799 0.0127,-0.02858 0.003,-0.0095 0.004,-0.01905 0.002,-0.02857 -0.006,-0.01905 -0.0169,-0.03598 -0.0307,-0.05292 -0.0148,-0.01693 -0.0296,-0.03069 -0.0466,-0.04233 -0.0169,-0.01164 -0.0349,-0.02117 -0.0529,-0.02752 -0.019,-0.0064 -0.0349,-0.01058 -0.0497,-0.01058 -0.036,0 -0.0688,0.0064 -0.0995,0.01905 -0.0318,0.0127 -0.0582,0.03069 -0.0804,0.05397 -0.0222,0.02328 -0.0402,0.05292 -0.0529,0.08784 -0.0138,0.03598 -0.0212,0.07514 -0.0212,0.119591 -0.001,0.08043 0.0169,0.144991 0.0529,0.191558 0.036,0.04657 0.0878,0.07091 0.15346,0.07091 0.0677,0.0011 0.11853,-0.0063 0.15028,-0.02328 0.0318,-0.01693 0.0572,-0.0381 0.0762,-0.0635 z m 0.36936,-0.01482 c -0.0444,0.0011 -0.0783,-0.01482 -0.1016,-0.04868 -0.0243,-0.03387 -0.036,-0.07937 -0.0349,-0.138641 0,-0.04022 0.0127,-0.0762 0.036,-0.10795 0.0233,-0.03175 0.0561,-0.04762 0.0984,-0.04974 0.0286,0 0.055,0.0085 0.0794,0.0254 0.0233,0.01799 0.0423,0.0381 0.0561,0.05927 0,0.01164 -0.001,0.02328 -0.001,0.03387 0,0.01058 0,0.02222 0,0.03281 -10e-4,0.01799 -10e-4,0.03493 -10e-4,0.05186 0,0.01693 10e-4,0.03387 10e-4,0.04868 -0.006,0.01058 -0.0127,0.02117 -0.0191,0.03175 -0.007,0.01164 -0.0159,0.02223 -0.0254,0.03069 -0.0106,0.0095 -0.0222,0.01693 -0.036,0.02222 -0.0148,0.0064 -0.0317,0.0085 -0.0519,0.0085 z m 0.24553,0.04127 c 0,-0.0064 0,-0.01376 -0.002,-0.02117 -0.002,-0.0063 -0.004,-0.01693 -0.007,-0.03069 -0.002,-0.01376 -0.005,-0.03281 -0.008,-0.05715 -0.002,-0.02434 -0.004,-0.05715 -0.005,-0.09842 0,-0.02857 0.001,-0.06562 0.002,-0.110067 0.001,-0.04445 0.002,-0.08996 0.003,-0.135466 0.001,-0.04551 0.002,-0.08784 0.004,-0.128058 0.002,-0.03916 0.003,-0.06773 0.003,-0.08572 0.002,-0.0254 -0.002,-0.04128 -0.0106,-0.04868 -0.008,-0.0074 -0.019,-0.01164 -0.0307,-0.0127 -0.0106,0 -0.0222,0.0042 -0.0328,0.01164 -0.0106,0.0085 -0.018,0.02434 -0.0201,0.04974 -0.001,0.01905 -0.002,0.04974 -0.003,0.09207 -0.001,0.04339 -0.002,0.09102 -0.003,0.143933 -0.0169,-0.01164 -0.0392,-0.02117 -0.0645,-0.02963 -0.0254,-0.0085 -0.055,-0.0127 -0.0879,-0.0127 -0.0328,0.0011 -0.0624,0.0074 -0.0899,0.01905 -0.0265,0.0127 -0.0487,0.02858 -0.0677,0.04974 -0.019,0.02117 -0.0328,0.04657 -0.0434,0.07514 -0.01,0.02858 -0.0138,0.05927 -0.0127,0.09207 -10e-4,0.04657 0.005,0.08784 0.018,0.123825 0.0127,0.03598 0.0296,0.06562 0.0508,0.0889 0.0212,0.02328 0.0445,0.04127 0.072,0.05292 0.0275,0.0127 0.054,0.01799 0.0815,0.01799 0.0402,0 0.0709,-0.0074 0.0931,-0.02328 0.0222,-0.01587 0.0402,-0.03387 0.054,-0.05397 0.002,0.02328 0.007,0.04127 0.0169,0.05609 0.008,0.01482 0.0243,0.02011 0.0466,0.01588 0.0106,-0.0021 0.0201,-0.0053 0.0286,-0.01164 0.008,-0.0064 0.0138,-0.01588 0.0159,-0.02963 z m 0.7567,-0.04233 c -0.019,0 -0.0328,0.0042 -0.0392,0.0127 -0.007,0.0085 -0.0106,0.01905 -0.0106,0.02963 -10e-4,0.01164 0.002,0.02222 0.01,0.03175 0.006,0.0095 0.0201,0.01482 0.0392,0.01482 0.019,0.0021 0.0434,0.0032 0.072,0.0032 0.0275,0 0.0561,0 0.0836,0 0.0275,0 0.0529,0 0.0762,0 0.0233,0 0.0402,-0.0011 0.0508,-0.0011 0.018,0 0.0307,-0.0042 0.0392,-0.01376 0.007,-0.0095 0.0116,-0.02011 0.0116,-0.03175 0,-0.0095 -0.004,-0.01799 -0.0116,-0.02646 -0.007,-0.0074 -0.0201,-0.01164 -0.037,-0.01164 -0.0127,0 -0.0307,0 -0.0529,-0.0011 -0.0222,0 -0.0476,-0.0011 -0.0751,-0.0021 -0.001,-0.0042 -0.001,-0.01058 -0.001,-0.01693 0,-0.0063 -0.001,-0.01693 -0.001,-0.03069 -0.002,-0.04657 -0.004,-0.09525 -0.006,-0.14605 -0.002,-0.0508 -0.004,-0.09737 -0.005,-0.137583 0.036,0 0.0709,-0.0011 0.10477,-0.0032 0.0328,-0.0011 0.0561,-0.0021 0.0688,-0.0021 0.0169,0 0.0286,-0.0042 0.0339,-0.01376 0.005,-0.0085 0.008,-0.01905 0.008,-0.02963 -0.001,-0.0085 -0.004,-0.01693 -0.01,-0.0254 -0.005,-0.0074 -0.0159,-0.01164 -0.0328,-0.01164 -0.0159,0 -0.0392,0.0011 -0.0709,0.0011 -0.0318,0 -0.0677,0.0011 -0.10584,0.0011 -10e-4,-0.0063 -10e-4,-0.01376 -10e-4,-0.02011 v -0.01482 c 0,-0.04445 0.0169,-0.08043 0.0529,-0.10795 0.0349,-0.02752 0.0825,-0.04233 0.14182,-0.04233 0.0106,0 0.019,-0.0042 0.0265,-0.0127 0.006,-0.0085 0.0106,-0.02011 0.0106,-0.03387 0,-0.0127 -0.005,-0.02328 -0.0138,-0.02963 -0.01,-0.0063 -0.0212,-0.0095 -0.0339,-0.0095 -0.036,0 -0.0709,0.0042 -0.10478,0.0127 -0.0339,0.0085 -0.0635,0.02223 -0.0889,0.04022 -0.0254,0.01799 -0.0466,0.04128 -0.0614,0.06985 -0.0148,0.02963 -0.0222,0.0635 -0.0222,0.103716 v 0.02222 c 0,0.0085 0,0.01588 0.001,0.02328 h -0.0476 c -0.018,0 -0.0296,0.0053 -0.0349,0.01376 -0.005,0.0095 -0.007,0.01905 -0.006,0.02963 0,0.01058 0.002,0.02117 0.007,0.02963 0.005,0.0085 0.0169,0.0127 0.0349,0.0127 h 0.0222 c 0.008,0 0.0169,0 0.0265,-0.0011 0.001,0.02646 0.002,0.05292 0.004,0.07832 0.001,0.0254 0.002,0.04974 0.004,0.07197 0.001,0.02328 0.002,0.04339 0.003,0.06138 0,0.01799 10e-4,0.03175 10e-4,0.04233 0,0.01164 0,0.02011 0.001,0.0254 0,0.0064 0.001,0.01058 0.002,0.01482 0,0.0042 0.001,0.0095 0.001,0.01376 0,0.0042 0,0.01058 0,0.01905 -0.0106,0 -0.0212,-0.0011 -0.0317,-0.0011 -0.0106,0 -0.0222,0 -0.0328,-0.0011 z m 0.74083,0.01799 c -0.055,-0.0021 -0.09,-0.02117 -0.10689,-0.05503 -0.0169,-0.03387 -0.0243,-0.0762 -0.0222,-0.127 0.002,-0.06032 0.0138,-0.109008 0.0339,-0.14605 0.0201,-0.03598 0.0498,-0.05503 0.09,-0.05503 0.0402,0 0.072,0.01588 0.0963,0.04657 0.0243,0.03175 0.0349,0.08361 0.0328,0.155574 -0.002,0.05292 -0.0138,0.09631 -0.0328,0.131233 -0.0201,0.03598 -0.0508,0.05186 -0.091,0.04974 z m -0.0212,0.08361 c 0.0825,0.0011 0.14287,-0.02011 0.18097,-0.06456 0.037,-0.04445 0.0582,-0.104775 0.0635,-0.183091 0.002,-0.05292 -0.002,-0.09843 -0.0127,-0.136525 -0.0106,-0.0381 -0.0265,-0.06879 -0.0466,-0.09207 -0.0212,-0.02328 -0.0445,-0.04127 -0.072,-0.05186 -0.0275,-0.01058 -0.055,-0.01588 -0.0836,-0.01588 -0.0392,0 -0.0741,0.0074 -0.10372,0.02223 -0.0296,0.01482 -0.055,0.03387 -0.0751,0.05927 -0.0201,0.0254 -0.0349,0.05503 -0.0455,0.0889 -0.0106,0.03387 -0.0148,0.07091 -0.0148,0.110067 -0.001,0.03387 0.003,0.06667 0.0127,0.09842 0.01,0.03175 0.0233,0.05927 0.0413,0.08361 0.018,0.02434 0.0402,0.04339 0.0667,0.05821 0.0254,0.01482 0.055,0.02328 0.0889,0.02328 z m 0.51752,-0.479424 c 0,-0.02117 -0.004,-0.03598 -0.0127,-0.04445 -0.01,-0.0074 -0.0201,-0.01164 -0.0317,-0.01164 -0.0138,0 -0.0265,0.0042 -0.0381,0.0127 -0.0116,0.0085 -0.018,0.02328 -0.018,0.04551 -0.001,0.04233 -0.004,0.08996 -0.01,0.142874 -0.005,0.05292 -0.006,0.10795 -0.004,0.162983 0,0.02434 0.002,0.04762 0.006,0.06985 0.003,0.02328 0.005,0.04022 0.006,0.05292 0.001,0.01799 0.006,0.02963 0.0148,0.03598 0.008,0.0063 0.0191,0.0095 0.0296,0.01058 0.0127,0 0.0243,-0.0021 0.0349,-0.0074 0.0106,-0.0063 0.0159,-0.01905 0.0148,-0.0381 0,-0.02011 -0.002,-0.04445 -0.006,-0.07303 -0.003,-0.02963 -0.005,-0.05927 -0.005,-0.08996 0,-0.01376 0,-0.02752 0,-0.04022 0,-0.0127 0.001,-0.0254 0.001,-0.0381 0.003,-0.0095 0.0106,-0.02223 0.0212,-0.03916 0.0117,-0.01693 0.0265,-0.03387 0.0444,-0.0508 0.018,-0.01693 0.0392,-0.03069 0.0625,-0.04339 0.0243,-0.0127 0.0508,-0.01905 0.0783,-0.01905 0.008,0.0085 0.0127,0.01905 0.0116,0.03175 0,0.0127 10e-4,0.02646 0.003,0.04233 0.002,0.01058 0.007,0.02011 0.018,0.02858 0.0106,0.0085 0.0212,0.01058 0.0317,0.0085 0.01,-0.0032 0.018,-0.0074 0.0254,-0.0127 0.008,-0.0063 0.0138,-0.01587 0.0159,-0.02857 0.003,-0.01058 0.004,-0.02434 0.004,-0.04127 0,-0.01693 -0.002,-0.03281 -0.004,-0.04868 -0.002,-0.01693 -0.006,-0.03069 -0.0116,-0.04339 -0.005,-0.0127 -0.0116,-0.01905 -0.0191,-0.02117 -0.036,-0.0011 -0.0688,0.0021 -0.0984,0.0085 -0.0307,0.0063 -0.0571,0.01482 -0.0794,0.0254 -0.0233,0.01058 -0.0423,0.02328 -0.0582,0.03598 -0.0159,0.0127 -0.0275,0.0254 -0.0339,0.0381 0,-0.01058 0.001,-0.02011 0.003,-0.03069 0.001,-0.01058 0.002,-0.02011 0.003,-0.03069 z m 1.03504,0.387349 c 0.008,0.03493 0.0296,0.06032 0.0635,0.0762 0.0328,0.01693 0.0677,0.02434 0.10372,0.02434 0.0349,0 0.0688,-0.0042 0.1016,-0.0127 0.0317,-0.0085 0.0603,-0.02011 0.0857,-0.03598 0.0243,-0.01482 0.0444,-0.03387 0.0603,-0.05715 0.0169,-0.02328 0.0265,-0.04868 0.0296,-0.07832 0.003,-0.02117 -0.001,-0.04022 -0.0116,-0.05715 -0.0106,-0.01693 -0.0265,-0.03069 -0.0466,-0.04233 -0.0212,-0.01164 -0.0455,-0.02117 -0.073,-0.02963 -0.0275,-0.0085 -0.0571,-0.01587 -0.0878,-0.02222 -0.01,-0.0021 -0.0201,-0.0042 -0.0317,-0.0063 -0.0116,-0.0021 -0.0222,-0.0053 -0.0328,-0.0095 -0.0106,-0.0032 -0.0201,-0.0074 -0.0275,-0.01164 -0.007,-0.0042 -0.0116,-0.0095 -0.0116,-0.01482 -0.002,-0.01482 0.003,-0.02646 0.0159,-0.03704 0.0127,-0.01058 0.0286,-0.02011 0.0476,-0.02646 0.019,-0.0063 0.0392,-0.01164 0.0614,-0.01482 0.0222,-0.0032 0.0423,-0.0042 0.0603,-0.0042 0.004,0.01799 0.008,0.03069 0.0116,0.03916 0.003,0.0085 0.006,0.01693 0.0106,0.0254 0.002,0.0074 0.01,0.01482 0.0201,0.02223 0.0106,0.0074 0.0233,0.0085 0.0381,0.0042 0.0127,-0.0042 0.0212,-0.0127 0.0233,-0.02434 0.002,-0.01164 0.003,-0.02328 0.003,-0.03387 0,-0.0042 -0.001,-0.0127 -0.003,-0.0254 -0.002,-0.0127 -0.005,-0.02646 -0.008,-0.04022 -0.004,-0.01482 -0.008,-0.02752 -0.0127,-0.0381 -0.005,-0.01058 -0.0106,-0.01588 -0.0169,-0.01588 -0.11854,0 -0.20744,0.01482 -0.26459,0.04657 -0.0571,0.03069 -0.0857,0.07197 -0.0857,0.122767 0,0.02752 0.006,0.04868 0.0201,0.0635 0.0127,0.01482 0.0392,0.02858 0.0773,0.04127 0.0254,0.0085 0.0529,0.01482 0.0804,0.02117 0.0275,0.0063 0.0519,0.01164 0.0741,0.01799 0.0212,0.0064 0.0392,0.0127 0.0529,0.02011 0.0138,0.0074 0.0201,0.01693 0.0201,0.02963 -0.002,0.0127 -0.008,0.02434 -0.0212,0.03704 -0.0127,0.01164 -0.0275,0.02222 -0.0445,0.03175 -0.0169,0.0085 -0.0349,0.01588 -0.054,0.02117 -0.0191,0.0053 -0.0349,0.0085 -0.0476,0.0085 -0.0286,0 -0.0476,-0.0053 -0.0561,-0.01376 -0.008,-0.0085 -0.0169,-0.02223 -0.0243,-0.04022 -0.008,-0.01905 -0.0201,-0.03069 -0.0349,-0.03493 -0.0159,-0.0042 -0.0307,-0.0042 -0.0434,0.0021 -0.0106,0.0042 -0.018,0.0127 -0.0222,0.02434 -0.004,0.01164 -0.004,0.02752 10e-4,0.04762 z m 0.96414,0.07408 c 0.0127,-0.0042 0.0233,-0.01164 0.0328,-0.02223 0.01,-0.01058 0.0127,-0.02222 0.0106,-0.03598 -0.003,-0.0127 -0.008,-0.02117 -0.0169,-0.02752 -0.008,-0.0053 -0.0169,-0.0063 -0.0275,-0.0021 -0.0201,0.0095 -0.0402,0.01587 -0.0603,0.01905 -0.0201,0.0032 -0.0392,0.0042 -0.0572,0.0032 -0.0317,0 -0.0561,-0.01058 -0.0741,-0.02963 -0.0169,-0.01905 -0.0265,-0.04233 -0.0286,-0.07091 0,-0.0095 0,-0.02328 0,-0.04022 0,-0.01693 0.001,-0.03598 0.001,-0.05715 0.001,-0.02117 0.002,-0.04445 0.003,-0.06985 0.002,-0.02434 0.003,-0.04868 0.003,-0.07408 0.0434,0.0011 0.0836,0.0021 0.11959,0.0021 0.036,0 0.0624,0 0.0773,0 0.0169,0 0.0286,-0.0032 0.0339,-0.01164 0.005,-0.0074 0.008,-0.01587 0.008,-0.0254 0,-0.01058 -0.002,-0.02011 -0.007,-0.02963 -0.005,-0.0085 -0.0169,-0.01376 -0.0349,-0.01376 -0.0127,0 -0.0381,0 -0.0762,-0.0021 -0.037,-0.0011 -0.0762,-0.0021 -0.11748,-0.0032 0.001,-0.03387 0.002,-0.06456 0.002,-0.09207 0,-0.02752 0,-0.04868 -0.002,-0.06456 -0.001,-0.0085 -0.008,-0.01799 -0.0233,-0.02646 -0.0138,-0.0085 -0.0265,-0.0127 -0.0381,-0.0127 -0.0116,0 -0.0201,0.0053 -0.0265,0.01588 -0.006,0.01058 -0.008,0.02011 -0.008,0.02963 0.003,0.02752 0.005,0.05398 0.005,0.07832 0,0.02434 0,0.04762 -10e-4,0.07091 -0.01,-0.0011 -0.019,-0.0011 -0.0275,-0.0011 h -0.0243 c -0.0169,0 -0.0286,0.0042 -0.0339,0.0127 -0.005,0.0085 -0.008,0.01905 -0.008,0.02963 0,0.01058 0.002,0.02011 0.007,0.02963 0.005,0.0085 0.0169,0.01376 0.0339,0.01376 h 0.0487 c -0.002,0.03598 -0.005,0.07303 -0.007,0.113241 -0.002,0.04022 -0.003,0.08572 -0.002,0.136525 0.002,0.05715 0.0201,0.100541 0.0561,0.130175 0.036,0.02963 0.0783,0.04551 0.127,0.04657 0.0212,0.0011 0.0434,0 0.0667,-0.0032 0.0233,-0.0021 0.0455,-0.0074 0.0667,-0.01587 z m 0.29316,-0.218016 c 0,-0.04127 0.006,-0.0762 0.0169,-0.103716 0.0116,-0.02752 0.0254,-0.04868 0.0413,-0.06562 0.0159,-0.01693 0.0328,-0.02858 0.0508,-0.03598 0.019,-0.0063 0.0349,-0.01058 0.0476,-0.01058 0.0222,0 0.0392,0.0032 0.0519,0.0085 0.0127,0.0053 0.0254,0.01376 0.0392,0.02434 -0.004,0.04022 -0.007,0.0762 -0.008,0.10795 -0.002,0.03175 -0.002,0.05927 -0.002,0.08361 -0.006,0.01588 -0.0137,0.03281 -0.0233,0.04974 -0.01,0.01693 -0.0201,0.03281 -0.0328,0.04657 -0.0127,0.01376 -0.0265,0.0254 -0.0413,0.03387 -0.0148,0.0095 -0.0307,0.01376 -0.0476,0.01376 -0.0159,0 -0.0296,-0.0042 -0.0413,-0.01482 -0.0116,-0.01058 -0.0212,-0.02328 -0.0286,-0.0381 -0.007,-0.01482 -0.0127,-0.03069 -0.0159,-0.04868 -0.004,-0.01799 -0.006,-0.03492 -0.006,-0.0508 z m 0.34713,-0.222249 c -0.0254,-0.02752 -0.0508,-0.04868 -0.0762,-0.06244 -0.0254,-0.0127 -0.055,-0.02011 -0.091,-0.02011 -0.036,0 -0.072,0.0053 -0.10583,0.01588 -0.0339,0.01058 -0.0646,0.02963 -0.09,0.05503 -0.0254,0.0254 -0.0466,0.06033 -0.0624,0.103717 -0.0159,0.04339 -0.0233,0.09737 -0.0233,0.161924 0,0.02328 0.004,0.04657 0.0127,0.07091 0.008,0.02434 0.0212,0.04657 0.0381,0.06668 0.0159,0.02011 0.036,0.03704 0.0593,0.04974 0.0233,0.01376 0.0497,0.02117 0.0783,0.02117 0.0381,0 0.0709,-0.01058 0.0963,-0.03175 0.0265,-0.02117 0.0476,-0.04551 0.0635,-0.07302 0.002,0.01164 0.003,0.02222 0.005,0.03281 0.002,0.01058 0.004,0.02117 0.005,0.03175 0.006,0.02222 0.0148,0.03598 0.0254,0.04127 0.0116,0.0063 0.0233,0.0085 0.0349,0.0074 0.0127,0 0.0243,-0.0053 0.0339,-0.01376 0.01,-0.0085 0.0117,-0.02328 0.006,-0.04551 -0.008,-0.03916 -0.0148,-0.07408 -0.0191,-0.105833 -0.004,-0.03175 -0.007,-0.06244 -0.008,-0.09313 0,-0.03069 0.001,-0.0635 0.003,-0.09737 0.003,-0.03387 0.007,-0.07197 0.0138,-0.115358 z m 0.27093,-0.02117 c 0,-0.02117 -0.004,-0.03598 -0.0127,-0.04445 -0.01,-0.0074 -0.0201,-0.01164 -0.0318,-0.01164 -0.0138,0 -0.0265,0.0042 -0.0381,0.0127 -0.0116,0.0085 -0.018,0.02328 -0.018,0.04551 -0.001,0.04233 -0.004,0.08996 -0.01,0.142874 -0.005,0.05292 -0.006,0.10795 -0.004,0.162983 0,0.02434 0.002,0.04762 0.006,0.06985 0.003,0.02328 0.005,0.04022 0.006,0.05292 0.001,0.01799 0.006,0.02963 0.0148,0.03598 0.008,0.0063 0.019,0.0095 0.0296,0.01058 0.0127,0 0.0243,-0.0021 0.0349,-0.0074 0.0106,-0.0063 0.0159,-0.01905 0.0148,-0.0381 0,-0.02011 -0.002,-0.04445 -0.006,-0.07303 -0.003,-0.02963 -0.005,-0.05927 -0.005,-0.08996 0,-0.01376 0,-0.02752 0,-0.04022 0,-0.0127 0.001,-0.0254 0.001,-0.0381 0.003,-0.0095 0.0106,-0.02223 0.0212,-0.03916 0.0116,-0.01693 0.0265,-0.03387 0.0445,-0.0508 0.018,-0.01693 0.0392,-0.03069 0.0624,-0.04339 0.0243,-0.0127 0.0508,-0.01905 0.0783,-0.01905 0.008,0.0085 0.0127,0.01905 0.0116,0.03175 0,0.0127 0.001,0.02646 0.003,0.04233 0.002,0.01058 0.007,0.02011 0.018,0.02858 0.0106,0.0085 0.0212,0.01058 0.0317,0.0085 0.01,-0.0032 0.018,-0.0074 0.0254,-0.0127 0.008,-0.0063 0.0138,-0.01587 0.0159,-0.02857 0.003,-0.01058 0.004,-0.02434 0.004,-0.04127 0,-0.01693 -0.002,-0.03281 -0.004,-0.04868 -0.002,-0.01693 -0.006,-0.03069 -0.0116,-0.04339 -0.005,-0.0127 -0.0116,-0.01905 -0.019,-0.02117 -0.036,-0.0011 -0.0688,0.0021 -0.0984,0.0085 -0.0307,0.0063 -0.0572,0.01482 -0.0794,0.0254 -0.0233,0.01058 -0.0423,0.02328 -0.0582,0.03598 -0.0159,0.0127 -0.0275,0.0254 -0.0339,0.0381 0,-0.01058 10e-4,-0.02011 0.003,-0.03069 0.001,-0.01058 0.002,-0.02011 0.003,-0.03069 z m 0.67098,0.378882 c -0.0444,0.0011 -0.0783,-0.01482 -0.1016,-0.04868 -0.0243,-0.03387 -0.036,-0.07937 -0.0349,-0.138641 0,-0.04022 0.0127,-0.0762 0.036,-0.10795 0.0233,-0.03175 0.0561,-0.04762 0.0984,-0.04974 0.0286,0 0.055,0.0085 0.0794,0.0254 0.0233,0.01799 0.0423,0.0381 0.0561,0.05927 0,0.01164 -0.001,0.02328 -0.001,0.03387 0,0.01058 0,0.02222 0,0.03281 -0.001,0.01799 -0.001,0.03493 -0.001,0.05186 0,0.01693 0.001,0.03387 0.001,0.04868 -0.006,0.01058 -0.0127,0.02117 -0.019,0.03175 -0.007,0.01164 -0.0159,0.02223 -0.0254,0.03069 -0.0106,0.0095 -0.0222,0.01693 -0.036,0.02222 -0.0148,0.0064 -0.0317,0.0085 -0.0519,0.0085 z m 0.24554,0.04127 c 0,-0.0064 0,-0.01376 -0.002,-0.02117 -0.002,-0.0063 -0.004,-0.01693 -0.007,-0.03069 -0.002,-0.01376 -0.005,-0.03281 -0.008,-0.05715 -0.002,-0.02434 -0.004,-0.05715 -0.005,-0.09842 0,-0.02857 0.001,-0.06562 0.002,-0.110067 0.001,-0.04445 0.002,-0.08996 0.003,-0.135466 10e-4,-0.04551 0.002,-0.08784 0.004,-0.128058 0.002,-0.03916 0.003,-0.06773 0.003,-0.08572 0.002,-0.0254 -0.002,-0.04128 -0.0106,-0.04868 -0.008,-0.0074 -0.0191,-0.01164 -0.0307,-0.0127 -0.0106,0 -0.0222,0.0042 -0.0328,0.01164 -0.0106,0.0085 -0.018,0.02434 -0.0201,0.04974 -10e-4,0.01905 -0.002,0.04974 -0.003,0.09207 -0.001,0.04339 -0.002,0.09102 -0.003,0.143933 -0.0169,-0.01164 -0.0392,-0.02117 -0.0646,-0.02963 -0.0254,-0.0085 -0.055,-0.0127 -0.0878,-0.0127 -0.0328,0.0011 -0.0624,0.0074 -0.09,0.01905 -0.0265,0.0127 -0.0487,0.02858 -0.0677,0.04974 -0.019,0.02117 -0.0328,0.04657 -0.0434,0.07514 -0.01,0.02858 -0.0138,0.05927 -0.0127,0.09207 -0.001,0.04657 0.005,0.08784 0.018,0.123825 0.0127,0.03598 0.0296,0.06562 0.0508,0.0889 0.0212,0.02328 0.0444,0.04127 0.072,0.05292 0.0275,0.0127 0.054,0.01799 0.0815,0.01799 0.0402,0 0.0709,-0.0074 0.0931,-0.02328 0.0222,-0.01587 0.0402,-0.03387 0.054,-0.05397 0.002,0.02328 0.007,0.04127 0.0169,0.05609 0.008,0.01482 0.0243,0.02011 0.0466,0.01588 0.0106,-0.0021 0.0201,-0.0053 0.0286,-0.01164 0.008,-0.0064 0.0138,-0.01588 0.0159,-0.02963 z m 0.21166,-0.176741 c 0,-0.04127 0.006,-0.0762 0.0169,-0.103716 0.0117,-0.02752 0.0254,-0.04868 0.0413,-0.06562 0.0159,-0.01693 0.0328,-0.02858 0.0508,-0.03598 0.019,-0.0063 0.0349,-0.01058 0.0476,-0.01058 0.0222,0 0.0392,0.0032 0.0519,0.0085 0.0127,0.0053 0.0254,0.01376 0.0392,0.02434 -0.004,0.04022 -0.007,0.0762 -0.008,0.10795 -0.002,0.03175 -0.002,0.05927 -0.002,0.08361 -0.006,0.01588 -0.0138,0.03281 -0.0233,0.04974 -0.01,0.01693 -0.0201,0.03281 -0.0328,0.04657 -0.0127,0.01376 -0.0265,0.0254 -0.0413,0.03387 -0.0148,0.0095 -0.0307,0.01376 -0.0476,0.01376 -0.0159,0 -0.0296,-0.0042 -0.0413,-0.01482 -0.0116,-0.01058 -0.0212,-0.02328 -0.0286,-0.0381 -0.007,-0.01482 -0.0127,-0.03069 -0.0159,-0.04868 -0.004,-0.01799 -0.006,-0.03492 -0.006,-0.0508 z m 0.34713,-0.222249 c -0.0254,-0.02752 -0.0508,-0.04868 -0.0762,-0.06244 -0.0254,-0.0127 -0.055,-0.02011 -0.091,-0.02011 -0.036,0 -0.072,0.0053 -0.10584,0.01588 -0.0339,0.01058 -0.0645,0.02963 -0.0899,0.05503 -0.0254,0.0254 -0.0466,0.06033 -0.0625,0.103717 -0.0159,0.04339 -0.0233,0.09737 -0.0233,0.161924 0,0.02328 0.004,0.04657 0.0127,0.07091 0.008,0.02434 0.0212,0.04657 0.0381,0.06668 0.0159,0.02011 0.036,0.03704 0.0593,0.04974 0.0233,0.01376 0.0497,0.02117 0.0783,0.02117 0.0381,0 0.0709,-0.01058 0.0963,-0.03175 0.0265,-0.02117 0.0476,-0.04551 0.0635,-0.07302 0.002,0.01164 0.003,0.02222 0.005,0.03281 0.002,0.01058 0.004,0.02117 0.005,0.03175 0.006,0.02222 0.0148,0.03598 0.0254,0.04127 0.0116,0.0063 0.0233,0.0085 0.0349,0.0074 0.0127,0 0.0243,-0.0053 0.0339,-0.01376 0.01,-0.0085 0.0116,-0.02328 0.006,-0.04551 -0.008,-0.03916 -0.0148,-0.07408 -0.019,-0.105833 -0.004,-0.03175 -0.007,-0.06244 -0.008,-0.09313 0,-0.03069 0.001,-0.0635 0.003,-0.09737 0.003,-0.03387 0.007,-0.07197 0.0138,-0.115358 z m 0.25189,-0.02011 c 0.002,-0.02117 -0.002,-0.03598 -0.0117,-0.04445 -0.01,-0.0085 -0.0201,-0.0127 -0.0318,-0.0127 -0.0127,0 -0.0254,0.0042 -0.0381,0.0127 -0.0127,0.0085 -0.019,0.02434 -0.0201,0.04551 0,0.04233 -0.003,0.08996 -0.008,0.142874 -0.004,0.05292 -0.006,0.106892 -0.004,0.161925 0.001,0.0254 0.003,0.04762 0.005,0.06879 0.003,0.02117 0.005,0.03704 0.006,0.04763 0,0.01905 0.005,0.03281 0.0138,0.04022 0.008,0.0074 0.0191,0.01164 0.0296,0.01164 0.0127,0.0011 0.0254,-0.0021 0.037,-0.0095 0.0106,-0.0063 0.0169,-0.02117 0.0169,-0.04233 0,-0.01693 -0.002,-0.04022 -0.006,-0.06773 -0.004,-0.02752 -0.005,-0.05609 -0.005,-0.08784 -0.001,-0.01693 -0.001,-0.03493 0,-0.05292 0,-0.01693 0.001,-0.03493 0.002,-0.05186 0.006,-0.0127 0.0138,-0.0254 0.0243,-0.04022 0.0106,-0.01482 0.0222,-0.02752 0.036,-0.04022 0.0138,-0.01164 0.0296,-0.02117 0.0476,-0.02963 0.0169,-0.0085 0.037,-0.0127 0.0593,-0.0127 0.0233,0 0.0392,0.01058 0.0476,0.03069 0.007,0.02117 0.0127,0.05821 0.0159,0.112183 0.002,0.04551 0.005,0.08784 0.0106,0.128058 0.004,0.04022 0.008,0.07514 0.0116,0.104775 0.001,0.02328 0.007,0.03916 0.019,0.04762 0.0116,0.0085 0.0243,0.0127 0.037,0.01164 0.0106,0 0.0212,-0.0042 0.0296,-0.0127 0.008,-0.0085 0.0127,-0.02434 0.0127,-0.04657 -0.002,-0.0381 -0.007,-0.08043 -0.0159,-0.127 -0.008,-0.04657 -0.0127,-0.09631 -0.0138,-0.150283 -0.002,-0.05715 -0.0138,-0.103716 -0.037,-0.138641 -0.0233,-0.03387 -0.0572,-0.05186 -0.10372,-0.05186 -0.0434,0 -0.0794,0.0095 -0.10689,0.02752 -0.0286,0.01799 -0.0497,0.03704 -0.0624,0.05821 0,-0.0053 10e-4,-0.01058 10e-4,-0.01693 0,-0.0053 0.001,-0.01058 0.002,-0.01587 z m 0.89428,0.05821 c -0.008,-0.03175 -0.0264,-0.06138 -0.054,-0.08784 -0.0275,-0.02646 -0.0593,-0.04022 -0.0952,-0.04022 -0.036,0 -0.0699,0.0074 -0.10266,0.02117 -0.0339,0.01376 -0.0635,0.03387 -0.0889,0.06138 -0.0254,0.02752 -0.0466,0.0635 -0.0614,0.105833 -0.0159,0.04233 -0.0243,0.09207 -0.0243,0.149224 -10e-4,0.02752 0.003,0.05397 0.0116,0.07937 0.008,0.0254 0.0222,0.04868 0.0392,0.06773 0.0169,0.02011 0.0381,0.03598 0.0635,0.04868 0.0254,0.0127 0.054,0.01905 0.0878,0.02011 0.0339,0 0.0646,-0.0021 0.091,-0.0085 0.0254,-0.0063 0.0476,-0.01482 0.0667,-0.02434 0.019,-0.01058 0.0339,-0.02117 0.0466,-0.03387 0.0116,-0.0127 0.0201,-0.02328 0.0254,-0.03387 0.0106,-0.02223 0.0127,-0.0381 0.007,-0.04868 -0.006,-0.01058 -0.0148,-0.01905 -0.0254,-0.02328 -0.0116,-0.0053 -0.0243,-0.0063 -0.037,-0.0032 -0.0138,0.0032 -0.0254,0.01693 -0.0339,0.04022 -0.004,0.01058 -0.018,0.02117 -0.0392,0.03175 -0.0222,0.01058 -0.0519,0.01587 -0.09,0.01482 -0.0275,-0.0021 -0.0487,-0.0085 -0.0646,-0.01905 -0.0159,-0.01164 -0.0275,-0.0254 -0.0349,-0.04127 -0.007,-0.01482 -0.0117,-0.03175 -0.0127,-0.04974 -0.002,-0.01799 -0.002,-0.03493 -0.001,-0.04974 0.002,-0.04127 0.008,-0.0762 0.0201,-0.103716 0.0116,-0.02752 0.0254,-0.04974 0.0402,-0.06562 0.0148,-0.01693 0.0317,-0.02858 0.0487,-0.03493 0.0169,-0.0063 0.0318,-0.0095 0.0455,-0.0095 0.0275,0 0.0455,0.0074 0.0519,0.02434 0.006,0.01693 0.0138,0.03493 0.0201,0.05398 0.006,0.02117 0.0169,0.03281 0.0296,0.03704 0.0127,0.0032 0.0265,0.0021 0.0392,-0.0021 0.0106,-0.0053 0.0201,-0.01376 0.0286,-0.02434 0.007,-0.01058 0.008,-0.02858 0.002,-0.05186 z m 0.38947,-0.04445 c 0.0201,0 0.0381,0.0063 0.055,0.01693 0.0169,0.01164 0.0339,0.03281 0.0487,0.0635 -0.0127,0.0127 -0.0317,0.02328 -0.0561,0.03387 -0.0233,0.01058 -0.0476,0.02011 -0.073,0.02857 -0.0243,0.0085 -0.0476,0.01587 -0.0688,0.02117 -0.0212,0.0053 -0.0349,0.0085 -0.0423,0.01058 0.002,-0.03069 0.008,-0.05715 0.0169,-0.07937 0.01,-0.02223 0.0212,-0.04022 0.0339,-0.05503 0.0138,-0.01376 0.0286,-0.02434 0.0434,-0.03069 0.0148,-0.0064 0.0296,-0.0095 0.0423,-0.0095 z m 0.20108,0.378882 c 0.0148,-0.01905 0.0201,-0.03493 0.0159,-0.04762 -0.004,-0.0127 -0.0117,-0.02223 -0.0212,-0.02963 -0.0106,-0.0063 -0.0212,-0.0095 -0.0339,-0.0074 -0.0127,0.0021 -0.0275,0.0127 -0.0423,0.03281 -0.002,0.0021 -0.006,0.0074 -0.0138,0.01376 -0.008,0.0063 -0.018,0.01376 -0.0296,0.02011 -0.0127,0.0064 -0.0265,0.0127 -0.0434,0.01799 -0.0169,0.0053 -0.0339,0.0074 -0.0529,0.0063 -0.037,-0.0011 -0.0635,-0.0127 -0.0804,-0.03387 -0.0169,-0.02117 -0.0275,-0.04762 -0.0317,-0.07832 0.0169,-0.0063 0.0381,-0.01376 0.0635,-0.02222 0.0254,-0.0085 0.0508,-0.01799 0.0783,-0.02858 0.0265,-0.01058 0.0529,-0.02117 0.0783,-0.03281 0.0254,-0.01164 0.0455,-0.02328 0.0624,-0.03598 0.004,-0.0032 0.0106,-0.0085 0.018,-0.01587 0.006,-0.0074 0.0127,-0.01588 0.0191,-0.02434 0.005,-0.0085 0.01,-0.01799 0.0127,-0.02858 0.003,-0.0095 0.004,-0.01905 0.002,-0.02857 -0.006,-0.01905 -0.0169,-0.03598 -0.0307,-0.05292 -0.0148,-0.01693 -0.0296,-0.03069 -0.0466,-0.04233 -0.0169,-0.01164 -0.0349,-0.02117 -0.0529,-0.02752 -0.019,-0.0064 -0.0349,-0.01058 -0.0497,-0.01058 -0.036,0 -0.0688,0.0064 -0.0995,0.01905 -0.0317,0.0127 -0.0582,0.03069 -0.0804,0.05397 -0.0222,0.02328 -0.0402,0.05292 -0.0529,0.08784 -0.0138,0.03598 -0.0212,0.07514 -0.0212,0.119591 -0.001,0.08043 0.0169,0.144991 0.0529,0.191558 0.036,0.04657 0.0878,0.07091 0.15346,0.07091 0.0677,0.0011 0.11853,-0.0063 0.15028,-0.02328 0.0317,-0.01693 0.0572,-0.0381 0.0762,-0.0635 z"
         id="path4652" /><path
         d="m 148.67636,96.7706 c 0.008,0 0.0169,-0.0032 0.0265,-0.01058 0.008,-0.0063 0.0138,-0.01587 0.0138,-0.02752 0,-0.01799 -0.004,-0.02963 -0.0116,-0.03598 -0.008,-0.0063 -0.018,-0.0095 -0.0286,-0.0095 -0.0159,0 -0.0317,-0.0074 -0.0487,-0.02434 -0.0169,-0.01693 -0.0328,-0.03916 -0.0476,-0.06668 -0.0148,-0.02752 -0.0275,-0.05927 -0.0381,-0.09737 -0.0106,-0.03704 -0.018,-0.0762 -0.0212,-0.117475 -0.002,-0.01799 -0.002,-0.04022 -0.002,-0.06562 0,-0.0254 0,-0.05186 0.002,-0.07832 0.001,-0.02752 0.003,-0.05292 0.006,-0.07832 0.003,-0.0254 0.007,-0.04762 0.0116,-0.06456 0.004,-0.02328 0.0116,-0.04445 0.0201,-0.06562 0.008,-0.02117 0.018,-0.04022 0.0296,-0.05715 0.0106,-0.01693 0.0233,-0.02963 0.0381,-0.04022 0.0148,-0.01058 0.0307,-0.01587 0.0487,-0.01587 0.0106,0 0.0201,-0.0021 0.0286,-0.0085 0.008,-0.0053 0.0138,-0.01588 0.0138,-0.03175 0,-0.01693 -0.005,-0.02857 -0.0148,-0.03281 -0.01,-0.0042 -0.018,-0.0074 -0.0254,-0.0074 -0.0233,0 -0.0466,0.0063 -0.0677,0.01693 -0.0222,0.01164 -0.0423,0.02646 -0.0614,0.04339 -0.019,0.01693 -0.0349,0.03704 -0.0487,0.05821 -0.0148,0.02222 -0.0254,0.04339 -0.0339,0.06456 -0.0106,0.02752 -0.019,0.05821 -0.0254,0.09313 -0.006,0.03598 -0.0116,0.07091 -0.0148,0.105833 -0.003,0.03598 -0.004,0.06985 -0.004,0.1016 0,0.03175 0.001,0.05821 0.003,0.07832 0.004,0.05503 0.0138,0.104775 0.0286,0.151341 0.0148,0.04657 0.0328,0.08572 0.055,0.118533 0.0212,0.03281 0.0466,0.05821 0.0751,0.0762 0.0286,0.01905 0.0593,0.02752 0.0931,0.02752 z m 0.35984,-0.354541 c 0,-0.0042 0.001,-0.01588 0.004,-0.03598 0.004,-0.01905 0.0116,-0.04022 0.0233,-0.06244 0.0116,-0.02117 0.0286,-0.04127 0.0497,-0.05927 0.0222,-0.01693 0.0508,-0.02646 0.0868,-0.02752 0.0201,0 0.0349,0.0127 0.0455,0.03704 0.0106,0.02434 0.0159,0.05821 0.0169,0.102658 0,0.04445 0,0.08678 -0.001,0.125941 -0.002,0.03916 -0.002,0.0762 -0.002,0.112183 0,0.01693 0.005,0.02963 0.0169,0.03916 0.0106,0.0095 0.0222,0.01482 0.0339,0.01482 0.0127,0.0011 0.0243,-0.0032 0.0349,-0.01376 0.0106,-0.01058 0.0169,-0.02646 0.0169,-0.04868 0,-0.0381 -0.002,-0.08043 -0.005,-0.125942 -0.004,-0.04445 -0.005,-0.09419 -0.004,-0.148166 0,-0.02434 -0.002,-0.04762 -0.006,-0.07091 -0.004,-0.02328 -0.0106,-0.04339 -0.0191,-0.06033 -0.01,-0.01693 -0.0222,-0.03069 -0.037,-0.04127 -0.0148,-0.01058 -0.0339,-0.01587 -0.0561,-0.01587 -0.055,0 -0.0984,0.01164 -0.12911,0.03281 -0.0317,0.02117 -0.054,0.04445 -0.0667,0.06773 0,-0.02434 -0.001,-0.05292 -0.001,-0.08572 0,-0.03175 -0.001,-0.0635 -0.001,-0.09419 0,-0.03069 0,-0.05821 0,-0.08149 v -0.04551 c 0,-0.01905 -0.005,-0.03175 -0.0159,-0.04022 -0.0106,-0.0074 -0.0222,-0.01058 -0.0349,-0.01058 -0.0127,0 -0.0233,0.0042 -0.0328,0.0127 -0.0106,0.0085 -0.0159,0.02223 -0.0159,0.04127 -0.001,0.02328 -0.002,0.05186 -0.002,0.08361 0,0.03281 0,0.06667 0,0.102658 0,0.03598 0,0.07091 0.001,0.106891 0,0.03598 0.001,0.06985 0.003,0.09948 0,0.01482 0,0.03704 -0.001,0.06562 -0.001,0.02858 -0.002,0.05821 -0.003,0.08784 -10e-4,0.02963 -0.002,0.05715 -0.003,0.08255 -0.002,0.0254 -0.003,0.04127 -0.003,0.04762 -0.002,0.01693 0.002,0.02963 0.0116,0.0381 0.008,0.0085 0.0191,0.0127 0.0318,0.0127 0.0127,0.0011 0.0254,-0.0021 0.0381,-0.01058 0.0116,-0.0085 0.018,-0.02011 0.0201,-0.03493 0.002,-0.02328 0.004,-0.04762 0.004,-0.07302 0,-0.02434 0,-0.05397 0.001,-0.0889 0,-0.0063 0,-0.01376 0,-0.02011 0,-0.0063 0,-0.0127 0.001,-0.01799 z m 0,0 c 0,0 -0.001,0 -0.001,0.0011 0,-0.0011 0.001,-0.0011 0.001,-0.0011 z m 0.56514,0.01482 c 0,-0.04127 0.006,-0.0762 0.0169,-0.103717 0.0116,-0.02752 0.0254,-0.04868 0.0413,-0.06562 0.0159,-0.01693 0.0328,-0.02858 0.0508,-0.03598 0.019,-0.0063 0.0349,-0.01058 0.0476,-0.01058 0.0222,0 0.0392,0.0032 0.0519,0.0085 0.0127,0.0053 0.0254,0.01376 0.0392,0.02434 -0.004,0.04022 -0.007,0.0762 -0.008,0.107949 -0.002,0.03175 -0.002,0.05927 -0.002,0.08361 -0.006,0.01588 -0.0138,0.03281 -0.0233,0.04974 -0.01,0.01693 -0.0201,0.03281 -0.0328,0.04657 -0.0127,0.01376 -0.0265,0.0254 -0.0413,0.03387 -0.0148,0.0095 -0.0307,0.01376 -0.0476,0.01376 -0.0159,0 -0.0296,-0.0042 -0.0413,-0.01482 -0.0116,-0.01058 -0.0212,-0.02328 -0.0286,-0.0381 -0.007,-0.01482 -0.0127,-0.03069 -0.0159,-0.04868 -0.004,-0.01799 -0.006,-0.03492 -0.006,-0.0508 z m 0.34714,-0.22225 c -0.0254,-0.02752 -0.0508,-0.04868 -0.0762,-0.06244 -0.0254,-0.0127 -0.055,-0.02011 -0.091,-0.02011 -0.036,0 -0.072,0.0053 -0.10583,0.01588 -0.0339,0.01058 -0.0646,0.02963 -0.09,0.05503 -0.0254,0.0254 -0.0466,0.06033 -0.0624,0.103716 -0.0159,0.04339 -0.0233,0.09737 -0.0233,0.161925 0,0.02328 0.004,0.04657 0.0127,0.07091 0.008,0.02434 0.0212,0.04657 0.0381,0.06668 0.0159,0.02011 0.036,0.03704 0.0593,0.04974 0.0233,0.01376 0.0497,0.02117 0.0783,0.02117 0.0381,0 0.0709,-0.01058 0.0963,-0.03175 0.0265,-0.02117 0.0476,-0.04551 0.0635,-0.07302 0.002,0.01164 0.003,0.02222 0.005,0.03281 0.002,0.01058 0.004,0.02117 0.005,0.03175 0.006,0.02223 0.0148,0.03598 0.0254,0.04127 0.0116,0.0063 0.0233,0.0085 0.0349,0.0074 0.0127,0 0.0243,-0.0053 0.0339,-0.01376 0.01,-0.0085 0.0116,-0.02328 0.006,-0.04551 -0.008,-0.03916 -0.0148,-0.07408 -0.019,-0.105833 -0.004,-0.03175 -0.007,-0.06244 -0.008,-0.09313 0,-0.03069 0.001,-0.0635 0.003,-0.09737 0.003,-0.03387 0.007,-0.07197 0.0138,-0.115358 z m 0.56409,0.0381 c -0.008,-0.03175 -0.0265,-0.06138 -0.054,-0.08784 -0.0275,-0.02646 -0.0593,-0.04022 -0.0952,-0.04022 -0.036,0 -0.0699,0.0074 -0.10266,0.02117 -0.0339,0.01376 -0.0635,0.03387 -0.0889,0.06138 -0.0254,0.02752 -0.0466,0.0635 -0.0614,0.105833 -0.0159,0.04233 -0.0243,0.09207 -0.0243,0.149225 -0.001,0.02752 0.003,0.05397 0.0116,0.07937 0.008,0.0254 0.0222,0.04868 0.0392,0.06773 0.0169,0.02011 0.0381,0.03598 0.0635,0.04868 0.0254,0.0127 0.054,0.01905 0.0878,0.02011 0.0339,0 0.0646,-0.0021 0.091,-0.0085 0.0254,-0.0063 0.0476,-0.01482 0.0667,-0.02434 0.0191,-0.01058 0.0339,-0.02117 0.0466,-0.03387 0.0116,-0.0127 0.0201,-0.02328 0.0254,-0.03387 0.0106,-0.02223 0.0127,-0.0381 0.007,-0.04868 -0.006,-0.01058 -0.0148,-0.01905 -0.0254,-0.02328 -0.0116,-0.0053 -0.0243,-0.0063 -0.037,-0.0032 -0.0137,0.0032 -0.0254,0.01693 -0.0339,0.04022 -0.004,0.01058 -0.018,0.02117 -0.0392,0.03175 -0.0222,0.01058 -0.0519,0.01587 -0.09,0.01482 -0.0275,-0.0021 -0.0487,-0.0085 -0.0646,-0.01905 -0.0159,-0.01164 -0.0275,-0.0254 -0.0349,-0.04127 -0.007,-0.01482 -0.0116,-0.03175 -0.0127,-0.04974 -0.002,-0.01799 -0.002,-0.03493 -0.001,-0.04974 0.002,-0.04127 0.008,-0.0762 0.0201,-0.103716 0.0116,-0.02752 0.0254,-0.04974 0.0402,-0.06562 0.0148,-0.01693 0.0318,-0.02858 0.0487,-0.03493 0.0169,-0.0063 0.0317,-0.0095 0.0455,-0.0095 0.0275,0 0.0455,0.0074 0.0519,0.02434 0.006,0.01693 0.0138,0.03493 0.0201,0.05397 0.006,0.02117 0.0169,0.03281 0.0296,0.03704 0.0127,0.0032 0.0264,0.0021 0.0391,-0.0021 0.0106,-0.0053 0.0201,-0.01376 0.0286,-0.02434 0.007,-0.01058 0.008,-0.02857 0.002,-0.05186 z m 0.52704,0.389466 c 0.0106,0.01588 0.0212,0.02434 0.0328,0.0254 0.0116,0.0021 0.0222,-0.0011 0.0328,-0.0085 0.006,-0.0042 0.0127,-0.01058 0.0169,-0.01905 0.004,-0.0085 0.005,-0.01799 0.005,-0.03069 0,-0.0042 -0.008,-0.01799 -0.0254,-0.04022 -0.0169,-0.02117 -0.037,-0.04657 -0.0582,-0.07514 -0.0222,-0.02752 -0.0444,-0.05715 -0.0667,-0.08678 -0.0233,-0.02963 -0.0402,-0.05609 -0.0519,-0.07726 0.0328,-0.02857 0.0635,-0.05503 0.091,-0.08043 0.0275,-0.0254 0.0444,-0.04127 0.0519,-0.04974 0.0127,-0.01482 0.0191,-0.02858 0.0191,-0.04022 0,-0.01058 -0.004,-0.02011 -0.0106,-0.02858 -0.007,-0.0063 -0.0169,-0.01058 -0.0286,-0.01058 -0.0116,0 -0.0243,0.0063 -0.0381,0.01905 -0.006,0.0064 -0.018,0.01693 -0.0339,0.02963 -0.0159,0.0127 -0.0339,0.02858 -0.055,0.04551 -0.0212,0.01799 -0.0444,0.0381 -0.0688,0.05927 -0.0254,0.02117 -0.0497,0.04339 -0.0741,0.06456 0,-0.03387 0.001,-0.07091 0.002,-0.110066 0,-0.0381 0.001,-0.0762 0.002,-0.112183 0,-0.03598 0.001,-0.07091 0.001,-0.102658 0,-0.03175 10e-4,-0.05715 10e-4,-0.07832 0,-0.01693 -0.005,-0.02963 -0.0148,-0.03704 -0.0106,-0.0074 -0.0212,-0.01164 -0.0328,-0.01164 -0.0138,0 -0.0265,0.0042 -0.037,0.01164 -0.0106,0.0085 -0.0159,0.02117 -0.0159,0.0381 0,0.03598 0,0.08572 0,0.149224 0,0.0635 0.001,0.129116 0.001,0.19685 0,0.06773 -0.001,0.132291 -0.001,0.193674 -0.001,0.06138 -0.003,0.109008 -0.005,0.140758 -0.002,0.01905 0.003,0.03281 0.0138,0.04022 0.0106,0.0074 0.0222,0.01164 0.0328,0.01164 0.0138,0.0011 0.0265,-0.0021 0.0381,-0.0095 0.0106,-0.0074 0.0169,-0.02223 0.018,-0.04445 0,-0.01693 -0.001,-0.0381 -0.003,-0.0635 -0.002,-0.0254 -0.003,-0.05503 -0.002,-0.08996 h 10e-4 l 0.001,-0.0011 c 0.0106,-0.0085 0.0222,-0.01905 0.036,-0.03175 0.0138,-0.0127 0.0286,-0.0254 0.0445,-0.03916 0.008,0.02117 0.0212,0.04445 0.0392,0.06985 0.018,0.02646 0.037,0.05186 0.0561,0.0762 0.019,0.02434 0.036,0.04657 0.0529,0.06562 0.0159,0.02011 0.0265,0.03387 0.0328,0.04127 z m 0.63712,-0.389466 c -0.008,-0.03175 -0.0265,-0.06138 -0.054,-0.08784 -0.0275,-0.02646 -0.0593,-0.04022 -0.0952,-0.04022 -0.036,0 -0.0699,0.0074 -0.10266,0.02117 -0.0339,0.01376 -0.0635,0.03387 -0.0889,0.06138 -0.0254,0.02752 -0.0466,0.0635 -0.0614,0.105833 -0.0159,0.04233 -0.0243,0.09207 -0.0243,0.149225 -0.001,0.02752 0.003,0.05397 0.0116,0.07937 0.008,0.0254 0.0222,0.04868 0.0392,0.06773 0.0169,0.02011 0.0381,0.03598 0.0635,0.04868 0.0254,0.0127 0.054,0.01905 0.0878,0.02011 0.0339,0 0.0646,-0.0021 0.091,-0.0085 0.0254,-0.0063 0.0476,-0.01482 0.0667,-0.02434 0.019,-0.01058 0.0339,-0.02117 0.0466,-0.03387 0.0116,-0.0127 0.0201,-0.02328 0.0254,-0.03387 0.0106,-0.02223 0.0127,-0.0381 0.007,-0.04868 -0.006,-0.01058 -0.0148,-0.01905 -0.0254,-0.02328 -0.0116,-0.0053 -0.0243,-0.0063 -0.037,-0.0032 -0.0138,0.0032 -0.0254,0.01693 -0.0339,0.04022 -0.004,0.01058 -0.018,0.02117 -0.0392,0.03175 -0.0222,0.01058 -0.0519,0.01587 -0.09,0.01482 -0.0275,-0.0021 -0.0487,-0.0085 -0.0646,-0.01905 -0.0159,-0.01164 -0.0275,-0.0254 -0.0349,-0.04127 -0.007,-0.01482 -0.0116,-0.03175 -0.0127,-0.04974 -0.002,-0.01799 -0.002,-0.03493 -0.001,-0.04974 0.002,-0.04127 0.008,-0.0762 0.0201,-0.103716 0.0116,-0.02752 0.0254,-0.04974 0.0402,-0.06562 0.0148,-0.01693 0.0317,-0.02858 0.0487,-0.03493 0.0169,-0.0063 0.0318,-0.0095 0.0455,-0.0095 0.0275,0 0.0455,0.0074 0.0519,0.02434 0.006,0.01693 0.0137,0.03493 0.0201,0.05397 0.006,0.02117 0.0169,0.03281 0.0296,0.03704 0.0127,0.0032 0.0265,0.0021 0.0392,-0.0021 0.0106,-0.0053 0.0201,-0.01376 0.0286,-0.02434 0.007,-0.01058 0.008,-0.02857 0.002,-0.05186 z m 0.18309,0.310091 c -0.0169,0 -0.0286,0.0053 -0.0349,0.01482 -0.006,0.01058 -0.01,0.02117 -0.008,0.03175 0,0.01058 0.003,0.02117 0.01,0.02963 0.006,0.0085 0.0169,0.0127 0.0328,0.0127 0.0212,0 0.0508,0.0011 0.091,0.0011 0.0402,0 0.0804,0.0011 0.12065,0.0011 0.0402,0 0.0773,0.0011 0.11113,0.0011 0.0339,0 0.055,0 0.0646,0 0.0212,0 0.036,-0.0042 0.0423,-0.01376 0.006,-0.0095 0.01,-0.02011 0.01,-0.03175 -0.001,-0.0085 -0.004,-0.01693 -0.0106,-0.0254 -0.006,-0.0085 -0.0201,-0.0127 -0.0392,-0.0127 -0.01,0 -0.0265,0 -0.0519,-0.0011 -0.0254,0 -0.055,-0.0011 -0.0889,-0.0021 -0.001,-0.01693 -0.002,-0.03387 -0.002,-0.0508 0,-0.01693 0,-0.03493 0,-0.05609 0,-0.01693 -0.001,-0.03069 -0.001,-0.04339 0,-0.0127 0,-0.02434 0,-0.03704 v -0.03704 -0.04762 c 0,-0.01058 0,-0.03281 0,-0.06879 0,-0.03598 0.001,-0.07408 0.002,-0.114299 0.001,-0.04022 0.002,-0.07832 0.004,-0.1143 0.001,-0.03598 0.003,-0.05927 0.005,-0.07197 0,-0.0032 -0.001,-0.0063 -0.003,-0.0095 -0.002,-0.0021 -0.005,-0.0042 -0.01,-0.0063 -0.002,-0.0042 -0.004,-0.0085 -0.007,-0.01058 -0.003,-0.0021 -0.006,-0.0042 -0.0106,-0.0042 -0.0169,0 -0.0307,0 -0.0392,0 -0.008,0 -0.019,0.0011 -0.0296,0.0011 -0.0106,0 -0.0254,0.0011 -0.0423,0.0011 -0.0169,0.0011 -0.0423,0.0011 -0.0751,0.0011 -0.0148,0 -0.0265,0.0042 -0.0328,0.0127 -0.006,0.0085 -0.01,0.01693 -0.01,0.02646 -0.001,0.01164 0.002,0.02223 0.01,0.03175 0.006,0.01058 0.018,0.01482 0.0339,0.01482 0.0254,0 0.0476,0 0.0656,0 0.018,0 0.0349,-0.0011 0.0508,-0.0021 -0.001,0.03598 -0.002,0.07938 -0.003,0.129116 -0.001,0.04974 -0.002,0.09948 -0.002,0.148167 -10e-4,0.04868 -10e-4,0.09525 -10e-4,0.138641 0,0.04339 0,0.07726 10e-4,0.1016 0,0.0127 0.001,0.02434 0.001,0.03492 v 0.02963 c -0.0275,0 -0.054,-0.0011 -0.0804,-0.0011 -0.0265,0 -0.0508,-0.0011 -0.072,-0.0011 z m 0.89746,0.05292 c 0,0.02222 0.005,0.03704 0.0169,0.04445 0.0116,0.0074 0.0243,0.01058 0.0381,0.0095 0.0106,0 0.0212,-0.0042 0.0307,-0.0127 0.01,-0.0074 0.0148,-0.02117 0.0148,-0.04127 v -0.1397 c 0,-0.04762 -0.001,-0.100541 -0.003,-0.15875 -0.001,-0.01905 -0.002,-0.04127 -0.002,-0.06562 0,-0.02434 -0.001,-0.04339 -0.003,-0.05715 0,-0.01482 -0.006,-0.02646 -0.0169,-0.03493 -0.0116,-0.0074 -0.0233,-0.01164 -0.0349,-0.01164 -0.0117,0.0011 -0.0222,0.0053 -0.0307,0.0127 -0.008,0.0085 -0.0127,0.01905 -0.0127,0.03387 0.001,0.02011 0.002,0.04551 0.003,0.0762 0,0.03175 0.001,0.06032 0.001,0.08572 0,0.02858 0.001,0.05503 0.001,0.07937 0,0.02328 -0.001,0.04657 -0.001,0.06879 -0.0212,0.01482 -0.0466,0.03069 -0.0773,0.04551 -0.0307,0.01482 -0.0614,0.02223 -0.0921,0.02223 -0.019,0 -0.0339,-0.0042 -0.0445,-0.01058 -0.0117,-0.0074 -0.019,-0.02434 -0.0222,-0.04974 -0.004,-0.02752 -0.006,-0.05292 -0.006,-0.07832 -0.001,-0.0254 -0.001,-0.05186 -0.001,-0.07726 -0.001,-0.03387 -0.001,-0.06456 0.001,-0.09313 0.002,-0.02858 0.003,-0.0508 0.003,-0.06668 0,-0.01693 -0.006,-0.02963 -0.0169,-0.03704 -0.0106,-0.0074 -0.0222,-0.01058 -0.0349,-0.01058 -0.0116,0 -0.0222,0.0032 -0.0317,0.01058 -0.01,0.0074 -0.0138,0.02011 -0.0138,0.03704 0,0.02011 0,0.04445 -0.002,0.07303 -0.002,0.02857 -0.002,0.05927 -0.002,0.09207 0,0.0254 0,0.05186 0.001,0.07832 0,0.0254 0.002,0.05292 0.004,0.08043 0,0.01482 0.004,0.03069 0.0106,0.04763 0.006,0.01587 0.0159,0.03069 0.0275,0.04445 0.0116,0.0127 0.0254,0.02434 0.0413,0.03387 0.0148,0.0095 0.0318,0.01482 0.0497,0.01693 0.0402,0.0032 0.0783,-0.0042 0.11642,-0.02117 0.037,-0.01693 0.0667,-0.03492 0.0889,-0.05292 z m 0.47096,-0.403224 c 0.0212,0.0011 0.0402,0.0064 0.0572,0.01588 0.0169,0.0095 0.0307,0.02222 0.0413,0.03704 0.0116,0.01587 0.0201,0.03387 0.0265,0.05397 0.006,0.02011 0.01,0.04127 0.0106,0.06244 0,0.05821 -0.0116,0.104774 -0.037,0.140757 -0.0254,0.03598 -0.0624,0.05292 -0.11007,0.05292 -0.0264,0 -0.0497,-0.0032 -0.0699,-0.0095 -0.019,-0.0063 -0.037,-0.01693 -0.0529,-0.03281 10e-4,-0.03493 0.002,-0.0762 0.002,-0.123825 0,-0.04762 0,-0.09631 0,-0.144991 0.0159,-0.0127 0.0349,-0.0254 0.0571,-0.03598 0.0233,-0.01058 0.0476,-0.01588 0.0752,-0.01588 z m 0.23071,0.160866 c 0,-0.03387 -0.004,-0.06667 -0.0127,-0.09631 -0.01,-0.02963 -0.0233,-0.05503 -0.0413,-0.0762 -0.0169,-0.02117 -0.0392,-0.03704 -0.0656,-0.04974 -0.0254,-0.0127 -0.055,-0.01905 -0.0889,-0.02011 -0.0339,0 -0.0635,0.0042 -0.0889,0.0127 -0.0243,0.0085 -0.0455,0.01905 -0.0646,0.03175 0,-0.05292 0.001,-0.100541 0.001,-0.142874 0,-0.04233 0,-0.07303 0,-0.09102 0.001,-0.02328 -0.004,-0.0381 -0.0159,-0.04551 -0.0106,-0.0063 -0.0233,-0.0095 -0.036,-0.0095 -0.0106,0.0011 -0.0212,0.0053 -0.0296,0.01164 -0.008,0.0074 -0.0127,0.02223 -0.0127,0.04445 0,0.03069 -0.001,0.07408 -0.002,0.131233 0,0.05715 -10e-4,0.117474 -10e-4,0.180974 0,0.0635 0,0.125941 0,0.189441 0,0.06244 0,0.115358 0,0.15875 0,0.02328 0.005,0.03916 0.0159,0.04551 0.0106,0.0063 0.0222,0.0095 0.0328,0.0085 0.0106,0 0.0201,-0.0032 0.0286,-0.0085 0.008,-0.0053 0.0138,-0.01693 0.0148,-0.03493 0.018,0.01376 0.0392,0.0254 0.0646,0.03387 0.0254,0.0085 0.054,0.0127 0.0857,0.0127 0.0275,0 0.054,-0.0053 0.0804,-0.01799 0.0265,-0.0127 0.0497,-0.03069 0.0699,-0.05503 0.0201,-0.02328 0.036,-0.05397 0.0476,-0.08996 0.0127,-0.03598 0.018,-0.07726 0.018,-0.123825 z m 0.22648,0.403224 c 0.0328,0 0.0635,-0.0085 0.0921,-0.02752 0.0286,-0.01799 0.054,-0.04339 0.0762,-0.0762 0.0212,-0.03281 0.0392,-0.07197 0.054,-0.118533 0.0148,-0.04657 0.0243,-0.09631 0.0296,-0.151341 0.002,-0.02011 0.003,-0.04657 0.003,-0.07832 0,-0.03175 -0.002,-0.06562 -0.005,-0.100542 -0.003,-0.03598 -0.007,-0.07091 -0.0138,-0.105833 -0.006,-0.03598 -0.0148,-0.06667 -0.0254,-0.09313 -0.008,-0.02117 -0.0201,-0.04339 -0.0339,-0.06456 -0.0148,-0.02223 -0.0307,-0.04233 -0.0497,-0.05927 -0.019,-0.01693 -0.0392,-0.03175 -0.0603,-0.04233 -0.0222,-0.01164 -0.0444,-0.01693 -0.0677,-0.01693 -0.008,0 -0.0169,0.0021 -0.0265,0.0063 -0.01,0.0042 -0.0138,0.01587 -0.0138,0.03387 0,0.01482 0.004,0.0254 0.0127,0.03175 0.008,0.0053 0.019,0.0085 0.0296,0.0085 0.0169,0 0.0328,0.0042 0.0476,0.01482 0.0148,0.01058 0.0275,0.02328 0.0392,0.04022 0.0106,0.01693 0.0212,0.03598 0.0296,0.05715 0.008,0.02117 0.0148,0.04233 0.0201,0.06562 0.004,0.01693 0.007,0.03916 0.0106,0.06456 0.003,0.0254 0.005,0.0508 0.007,0.07832 0.001,0.02646 0.002,0.05292 0.002,0.07832 0,0.0254 -0.001,0.04762 -0.002,0.06668 -0.004,0.04022 -0.0116,0.07937 -0.0222,0.117474 -0.0106,0.03704 -0.0233,0.06985 -0.0381,0.09737 -0.0148,0.02752 -0.0296,0.04868 -0.0466,0.06562 -0.0169,0.01693 -0.0339,0.0254 -0.0487,0.0254 -0.0116,0 -0.0212,0.0021 -0.0286,0.0085 -0.008,0.0063 -0.0116,0.01799 -0.0116,0.03704 0,0.01058 0.004,0.02011 0.0138,0.02752 0.008,0.0063 0.018,0.0095 0.0264,0.0095 z"
         id="path4653" /></g><path
       d="m -440.47156,263.44192 c -0.504,0.012 -0.888,-0.168 -1.152,-0.552 -0.276,-0.384 -0.408,-0.9 -0.396,-1.572 0,-0.456 0.144,-0.864 0.408,-1.224 0.264,-0.36 0.636,-0.54 1.116,-0.564 0.324,0 0.624,0.096 0.9,0.288 0.264,0.204 0.48,0.432 0.636,0.672 0,0.132 -0.012,0.264 -0.012,0.384 0,0.12 0,0.252 0,0.372 -0.012,0.204 -0.012,0.396 -0.012,0.588 0,0.192 0.012,0.384 0.012,0.552 -0.072,0.12 -0.144,0.24 -0.216,0.36 -0.084,0.132 -0.18,0.252 -0.288,0.348 -0.12,0.108 -0.252,0.192 -0.408,0.252 -0.168,0.072 -0.36,0.096 -0.588,0.096 z m 2.784,0.468 c 0,-0.072 0,-0.156 -0.024,-0.24 -0.024,-0.072 -0.048,-0.192 -0.084,-0.348 -0.024,-0.156 -0.06,-0.372 -0.096,-0.648 -0.024,-0.276 -0.048,-0.648 -0.06,-1.116 0,-0.324 0.012,-0.744 0.024,-1.248 0.012,-0.504 0.024,-1.02 0.036,-1.536 0.012,-0.516 0.024,-0.996 0.048,-1.452 0.024,-0.444 0.036,-0.768 0.036,-0.972 0.024,-0.288 -0.024,-0.468 -0.12,-0.552 -0.096,-0.084 -0.216,-0.132 -0.348,-0.144 -0.12,0 -0.252,0.048 -0.372,0.132 -0.12,0.096 -0.204,0.276 -0.228,0.564 -0.012,0.216 -0.024,0.564 -0.036,1.044 -0.012,0.492 -0.024,1.032 -0.036,1.632 -0.192,-0.132 -0.444,-0.24 -0.732,-0.336 -0.288,-0.096 -0.624,-0.144 -0.996,-0.144 -0.372,0.012 -0.708,0.084 -1.02,0.216 -0.3,0.144 -0.552,0.324 -0.768,0.564 -0.216,0.24 -0.372,0.528 -0.492,0.852 -0.108,0.324 -0.156,0.672 -0.144,1.044 -0.012,0.528 0.06,0.996 0.204,1.404 0.144,0.408 0.336,0.744 0.576,1.008 0.24,0.264 0.504,0.468 0.816,0.6 0.312,0.144 0.612,0.204 0.924,0.204 0.456,0 0.804,-0.084 1.056,-0.264 0.252,-0.18 0.456,-0.384 0.612,-0.612 0.024,0.264 0.084,0.468 0.192,0.636 0.096,0.168 0.276,0.228 0.528,0.18 0.12,-0.024 0.228,-0.06 0.324,-0.132 0.096,-0.072 0.156,-0.18 0.18,-0.336 z m 2.39999,-2.004 c 0,-0.468 0.072,-0.864 0.192,-1.176 0.132,-0.312 0.288,-0.552 0.468,-0.744 0.18,-0.192 0.372,-0.324 0.576,-0.408 0.216,-0.072 0.396,-0.12 0.54,-0.12 0.252,0 0.444,0.036 0.588,0.096 0.144,0.06 0.288,0.156 0.444,0.276 -0.048,0.456 -0.084,0.864 -0.096,1.224 -0.024,0.36 -0.024,0.672 -0.024,0.948 -0.072,0.18 -0.156,0.372 -0.264,0.564 -0.108,0.192 -0.228,0.372 -0.372,0.528 -0.144,0.156 -0.3,0.288 -0.468,0.384 -0.168,0.108 -0.348,0.156 -0.54,0.156 -0.18,0 -0.336,-0.048 -0.468,-0.168 -0.132,-0.12 -0.24,-0.264 -0.324,-0.432 -0.084,-0.168 -0.144,-0.348 -0.18,-0.552 -0.048,-0.204 -0.072,-0.396 -0.072,-0.576 z m 3.936,-2.52 c -0.288,-0.312 -0.576,-0.552 -0.864,-0.708 -0.288,-0.144 -0.624,-0.228 -1.032,-0.228 -0.408,0 -0.816,0.06 -1.2,0.18 -0.384,0.12 -0.732,0.336 -1.02,0.624 -0.288,0.288 -0.528,0.684 -0.708,1.176 -0.18,0.492 -0.264,1.104 -0.264,1.836 0,0.264 0.048,0.528 0.144,0.804 0.096,0.276 0.24,0.528 0.432,0.756 0.18,0.228 0.408,0.42 0.672,0.564 0.264,0.156 0.564,0.24 0.888,0.24 0.432,0 0.804,-0.12 1.092,-0.36 0.3,-0.24 0.54,-0.516 0.72,-0.828 0.024,0.132 0.036,0.252 0.06,0.372 0.024,0.12 0.048,0.24 0.06,0.36 0.072,0.252 0.168,0.408 0.288,0.468 0.132,0.072 0.264,0.096 0.396,0.084 0.144,0 0.276,-0.06 0.384,-0.156 0.108,-0.096 0.132,-0.264 0.072,-0.516 -0.096,-0.444 -0.168,-0.84 -0.216,-1.2 -0.048,-0.36 -0.084,-0.708 -0.096,-1.056 0,-0.348 0.012,-0.72 0.036,-1.104 0.036,-0.384 0.084,-0.816 0.156,-1.308 z m 2.856,-0.228 c 0.024,-0.24 -0.024,-0.408 -0.132,-0.504 -0.108,-0.096 -0.228,-0.144 -0.36,-0.144 -0.144,0 -0.288,0.048 -0.432,0.144 -0.144,0.096 -0.216,0.276 -0.228,0.516 0,0.48 -0.036,1.02 -0.096,1.62 -0.048,0.6 -0.072,1.212 -0.048,1.836 0.012,0.288 0.036,0.54 0.06,0.78 0.036,0.24 0.06,0.42 0.072,0.54 0,0.216 0.06,0.372 0.156,0.456 0.096,0.084 0.216,0.132 0.336,0.132 0.144,0.012 0.288,-0.024 0.42,-0.108 0.12,-0.072 0.192,-0.24 0.192,-0.48 0,-0.192 -0.024,-0.456 -0.072,-0.768 -0.048,-0.312 -0.06,-0.636 -0.06,-0.996 -0.012,-0.192 -0.012,-0.396 0,-0.6 0,-0.192 0.012,-0.396 0.024,-0.588 0.072,-0.144 0.156,-0.288 0.276,-0.456 0.12,-0.168 0.252,-0.312 0.408,-0.456 0.156,-0.132 0.336,-0.24 0.54,-0.336 0.192,-0.096 0.42,-0.144 0.672,-0.144 0.264,0 0.444,0.12 0.54,0.348 0.084,0.24 0.144,0.66 0.18,1.272 0.024,0.516 0.06,0.996 0.12,1.452 0.048,0.456 0.096,0.852 0.132,1.188 0.012,0.264 0.084,0.444 0.216,0.54 0.132,0.096 0.276,0.144 0.42,0.132 0.12,0 0.24,-0.048 0.336,-0.144 0.096,-0.096 0.144,-0.276 0.144,-0.528 -0.024,-0.432 -0.084,-0.912 -0.18,-1.44 -0.096,-0.528 -0.144,-1.092 -0.156,-1.704 -0.024,-0.648 -0.156,-1.176 -0.42,-1.572 -0.264,-0.384 -0.648,-0.588 -1.176,-0.588 -0.492,0 -0.9,0.108 -1.212,0.312 -0.324,0.204 -0.564,0.42 -0.708,0.66 0,-0.06 0.012,-0.12 0.012,-0.192 0,-0.06 0.012,-0.12 0.024,-0.18 z m 5.75999,4.344 c -0.204,0 -0.336,0.048 -0.396,0.144 -0.06,0.096 -0.084,0.204 -0.084,0.324 -0.012,0.12 0.012,0.24 0.072,0.348 0.06,0.108 0.192,0.156 0.396,0.156 0.228,0 0.552,0 0.984,-0.012 0.42,0 0.852,-0.012 1.284,-0.012 0.432,0 0.84,-0.012 1.2,-0.024 0.372,0 0.624,-0.012 0.756,-0.012 0.18,0 0.3,-0.048 0.36,-0.144 0.072,-0.096 0.108,-0.204 0.108,-0.312 0,-0.12 -0.024,-0.216 -0.084,-0.312 -0.048,-0.096 -0.18,-0.132 -0.372,-0.132 h -1.404 c -0.024,-0.732 -0.048,-1.404 -0.06,-2.028 -0.012,-0.624 0.012,-1.308 0.06,-2.052 0,-0.036 0,-0.084 -0.012,-0.156 -0.012,-0.072 -0.036,-0.156 -0.084,-0.228 -0.048,-0.072 -0.108,-0.144 -0.18,-0.192 -0.072,-0.048 -0.18,-0.072 -0.3,-0.072 -0.384,-0.012 -0.744,-0.012 -1.068,0.012 -0.324,0.012 -0.6,0.024 -0.828,0.036 -0.144,0 -0.264,0.06 -0.336,0.156 -0.072,0.096 -0.096,0.216 -0.096,0.336 0,0.108 0.036,0.204 0.108,0.288 0.072,0.096 0.192,0.132 0.336,0.132 0.288,0.012 0.552,0.012 0.768,0 0.228,-0.024 0.444,-0.012 0.648,0.012 -0.024,0.48 -0.036,0.948 -0.048,1.416 -0.024,0.468 -0.024,0.96 0,1.464 0,0.168 0.012,0.324 0.012,0.468 v 0.408 z m 2.1,-5.472 c 0.264,-0.024 0.48,-0.12 0.648,-0.288 0.156,-0.168 0.24,-0.36 0.24,-0.6 0,-0.228 -0.084,-0.432 -0.24,-0.6 -0.168,-0.168 -0.384,-0.24 -0.648,-0.24 -0.24,0.012 -0.456,0.096 -0.648,0.264 -0.192,0.168 -0.288,0.36 -0.288,0.588 0,0.24 0.084,0.444 0.252,0.636 0.168,0.192 0.396,0.276 0.684,0.24 z m 6.69599,1.284 c 0.228,0 0.432,0.072 0.624,0.192 0.192,0.132 0.384,0.372 0.552,0.72 -0.144,0.144 -0.36,0.264 -0.636,0.384 -0.264,0.12 -0.54,0.228 -0.828,0.324 -0.276,0.096 -0.54,0.18 -0.78,0.24 -0.24,0.06 -0.396,0.096 -0.48,0.12 0.024,-0.348 0.096,-0.648 0.192,-0.9 0.108,-0.252 0.24,-0.456 0.384,-0.624 0.156,-0.156 0.324,-0.276 0.492,-0.348 0.168,-0.072 0.336,-0.108 0.48,-0.108 z m 2.28,4.296 c 0.168,-0.216 0.228,-0.396 0.18,-0.54 -0.048,-0.144 -0.132,-0.252 -0.24,-0.336 -0.12,-0.072 -0.24,-0.108 -0.384,-0.084 -0.144,0.024 -0.312,0.144 -0.48,0.372 -0.024,0.024 -0.072,0.084 -0.156,0.156 -0.096,0.072 -0.204,0.156 -0.336,0.228 -0.144,0.072 -0.3,0.144 -0.492,0.204 -0.192,0.06 -0.384,0.084 -0.6,0.072 -0.42,-0.012 -0.72,-0.144 -0.912,-0.384 -0.192,-0.24 -0.312,-0.54 -0.36,-0.888 0.192,-0.072 0.432,-0.156 0.72,-0.252 0.288,-0.096 0.576,-0.204 0.888,-0.324 0.3,-0.12 0.6,-0.24 0.888,-0.372 0.288,-0.132 0.516,-0.264 0.708,-0.408 0.048,-0.036 0.12,-0.096 0.204,-0.18 0.072,-0.084 0.144,-0.18 0.216,-0.276 0.06,-0.096 0.108,-0.204 0.144,-0.324 0.036,-0.108 0.048,-0.216 0.024,-0.324 -0.072,-0.216 -0.192,-0.408 -0.348,-0.6 -0.168,-0.192 -0.336,-0.348 -0.528,-0.48 -0.192,-0.132 -0.396,-0.24 -0.6,-0.312 -0.216,-0.072 -0.396,-0.12 -0.564,-0.12 -0.408,0 -0.78,0.072 -1.128,0.216 -0.36,0.144 -0.66,0.348 -0.912,0.612 -0.252,0.264 -0.456,0.6 -0.6,0.996 -0.156,0.408 -0.24,0.852 -0.24,1.356 -0.012,0.912 0.192,1.644 0.6,2.172 0.408,0.528 0.996,0.804 1.74,0.804 0.768,0.012 1.344,-0.072 1.704,-0.264 0.36,-0.192 0.648,-0.432 0.864,-0.72 z m 1.97999,-0.276 c -0.192,0 -0.324,0.06 -0.396,0.168 -0.072,0.12 -0.108,0.24 -0.096,0.36 0,0.12 0.036,0.24 0.108,0.336 0.072,0.096 0.192,0.144 0.372,0.144 0.24,0 0.576,0.012 1.032,0.012 0.456,0 0.912,0.012 1.368,0.012 0.456,0 0.876,0.012 1.26,0.012 0.384,0 0.624,0 0.732,0 0.24,0 0.408,-0.048 0.48,-0.156 0.072,-0.108 0.108,-0.228 0.108,-0.36 -0.012,-0.096 -0.048,-0.192 -0.12,-0.288 -0.072,-0.096 -0.228,-0.144 -0.444,-0.144 -0.108,0 -0.3,0 -0.588,-0.012 -0.288,0 -0.624,-0.012 -1.008,-0.024 -0.012,-0.192 -0.024,-0.384 -0.024,-0.576 0,-0.192 0,-0.396 0,-0.636 0,-0.192 -0.012,-0.348 -0.012,-0.492 0,-0.144 0,-0.276 0,-0.42 v -0.42 -0.54 c 0,-0.12 0,-0.372 0,-0.78 0,-0.408 0.012,-0.84 0.024,-1.296 0.012,-0.456 0.024,-0.888 0.048,-1.296 0.012,-0.408 0.036,-0.672 0.06,-0.816 0,-0.036 -0.012,-0.072 -0.036,-0.108 -0.024,-0.024 -0.06,-0.048 -0.108,-0.072 -0.024,-0.048 -0.048,-0.096 -0.084,-0.12 -0.036,-0.024 -0.072,-0.048 -0.12,-0.048 -0.192,0 -0.348,0 -0.444,0 -0.096,0 -0.216,0.012 -0.336,0.012 -0.12,0 -0.288,0.012 -0.48,0.012 -0.192,0.012 -0.48,0.012 -0.852,0.012 -0.168,0 -0.3,0.048 -0.372,0.144 -0.072,0.096 -0.108,0.192 -0.108,0.3 -0.012,0.132 0.024,0.252 0.108,0.36 0.072,0.12 0.204,0.168 0.384,0.168 0.288,0 0.54,0 0.744,0 0.204,0 0.396,-0.012 0.576,-0.024 -0.012,0.408 -0.024,0.9 -0.036,1.464 -0.012,0.564 -0.024,1.128 -0.024,1.68 -0.012,0.552 -0.012,1.08 -0.012,1.572 0,0.492 0,0.876 0.012,1.152 0,0.144 0.012,0.276 0.012,0.396 v 0.336 c -0.312,0 -0.612,-0.012 -0.912,-0.012 -0.3,0 -0.576,-0.012 -0.816,-0.012 z m 6.33599,0.204 c 0.096,0.396 0.336,0.684 0.72,0.864 0.372,0.192 0.768,0.276 1.176,0.276 0.396,0 0.78,-0.048 1.152,-0.144 0.36,-0.096 0.684,-0.228 0.972,-0.408 0.276,-0.168 0.504,-0.384 0.684,-0.648 0.192,-0.264 0.3,-0.552 0.336,-0.888 0.036,-0.24 -0.012,-0.456 -0.132,-0.648 -0.12,-0.192 -0.3,-0.348 -0.528,-0.48 -0.24,-0.132 -0.516,-0.24 -0.828,-0.336 -0.312,-0.096 -0.648,-0.18 -0.996,-0.252 -0.108,-0.024 -0.228,-0.048 -0.36,-0.072 -0.132,-0.024 -0.252,-0.06 -0.372,-0.108 -0.12,-0.036 -0.228,-0.084 -0.312,-0.132 -0.084,-0.048 -0.132,-0.108 -0.132,-0.168 -0.024,-0.168 0.036,-0.3 0.18,-0.42 0.144,-0.12 0.324,-0.228 0.54,-0.3 0.216,-0.072 0.444,-0.132 0.696,-0.168 0.252,-0.036 0.48,-0.048 0.684,-0.048 0.048,0.204 0.096,0.348 0.132,0.444 0.036,0.096 0.072,0.192 0.12,0.288 0.024,0.084 0.108,0.168 0.228,0.252 0.12,0.084 0.264,0.096 0.432,0.048 0.144,-0.048 0.24,-0.144 0.264,-0.276 0.024,-0.132 0.036,-0.264 0.036,-0.384 0,-0.048 -0.012,-0.144 -0.036,-0.288 -0.024,-0.144 -0.06,-0.3 -0.096,-0.456 -0.048,-0.168 -0.096,-0.312 -0.144,-0.432 -0.06,-0.12 -0.12,-0.18 -0.192,-0.18 -1.344,0 -2.352,0.168 -3,0.528 -0.648,0.348 -0.972,0.816 -0.972,1.392 0,0.312 0.072,0.552 0.228,0.72 0.144,0.168 0.444,0.324 0.876,0.468 0.288,0.096 0.6,0.168 0.912,0.24 0.312,0.072 0.588,0.132 0.84,0.204 0.24,0.072 0.444,0.144 0.6,0.228 0.156,0.084 0.228,0.192 0.228,0.336 -0.024,0.144 -0.096,0.276 -0.24,0.42 -0.144,0.132 -0.312,0.252 -0.504,0.36 -0.192,0.096 -0.396,0.18 -0.612,0.24 -0.216,0.06 -0.396,0.096 -0.54,0.096 -0.324,0 -0.54,-0.06 -0.636,-0.156 -0.096,-0.096 -0.192,-0.252 -0.276,-0.456 -0.096,-0.216 -0.228,-0.348 -0.396,-0.396 -0.18,-0.048 -0.348,-0.048 -0.492,0.024 -0.12,0.048 -0.204,0.144 -0.252,0.276 -0.048,0.132 -0.048,0.312 0.012,0.54 z"
       id="text4648"
       style="font-family:'ComicShannsMono Nerd Font Mono';-inkscape-font-specification:'ComicShannsMono Nerd Font Mono'"
       transform="matrix(0.26458333,0,0,0.26458333,262.4873,16.832769)"
       aria-label="daniels" /><path
       d="m -435.28157,277.60068 c 0,-0.468 0.072,-0.864 0.192,-1.176 0.132,-0.312 0.288,-0.552 0.468,-0.744 0.18,-0.192 0.372,-0.324 0.576,-0.408 0.216,-0.072 0.396,-0.12 0.54,-0.12 0.252,0 0.444,0.036 0.588,0.096 0.144,0.06 0.288,0.156 0.444,0.276 -0.048,0.456 -0.084,0.864 -0.096,1.224 -0.024,0.36 -0.024,0.672 -0.024,0.948 -0.072,0.18 -0.156,0.372 -0.264,0.564 -0.108,0.192 -0.228,0.372 -0.372,0.528 -0.144,0.156 -0.3,0.288 -0.468,0.384 -0.168,0.108 -0.348,0.156 -0.54,0.156 -0.18,0 -0.336,-0.048 -0.468,-0.168 -0.132,-0.12 -0.24,-0.264 -0.324,-0.432 -0.084,-0.168 -0.144,-0.348 -0.18,-0.552 -0.048,-0.204 -0.072,-0.396 -0.072,-0.576 z m 3.936,-2.52 c -0.288,-0.312 -0.576,-0.552 -0.864,-0.708 -0.288,-0.144 -0.624,-0.228 -1.032,-0.228 -0.408,0 -0.816,0.06 -1.2,0.18 -0.384,0.12 -0.732,0.336 -1.02,0.624 -0.288,0.288 -0.528,0.684 -0.708,1.176 -0.18,0.492 -0.264,1.104 -0.264,1.836 0,0.264 0.048,0.528 0.144,0.804 0.096,0.276 0.24,0.528 0.432,0.756 0.18,0.228 0.408,0.42 0.672,0.564 0.264,0.156 0.564,0.24 0.888,0.24 0.432,0 0.804,-0.12 1.092,-0.36 0.3,-0.24 0.54,-0.516 0.72,-0.828 0.024,0.132 0.036,0.252 0.06,0.372 0.024,0.12 0.048,0.24 0.06,0.36 0.072,0.252 0.168,0.408 0.288,0.468 0.132,0.072 0.264,0.096 0.396,0.084 0.144,0 0.276,-0.06 0.384,-0.156 0.108,-0.096 0.132,-0.264 0.072,-0.516 -0.096,-0.444 -0.168,-0.84 -0.216,-1.2 -0.048,-0.36 -0.084,-0.708 -0.096,-1.056 0,-0.348 0.012,-0.72 0.036,-1.104 0.036,-0.384 0.084,-0.816 0.156,-1.308 z m 5.44799,4.548 c 0,0.252 0.06,0.42 0.192,0.504 0.132,0.084 0.276,0.12 0.432,0.108 0.12,0 0.24,-0.048 0.348,-0.144 0.108,-0.084 0.168,-0.24 0.168,-0.468 v -1.584 c 0,-0.54 -0.012,-1.14 -0.036,-1.8 -0.012,-0.216 -0.024,-0.468 -0.024,-0.744 0,-0.276 -0.012,-0.492 -0.036,-0.648 0,-0.168 -0.072,-0.3 -0.192,-0.396 -0.132,-0.084 -0.264,-0.132 -0.396,-0.132 -0.132,0.012 -0.252,0.06 -0.348,0.144 -0.096,0.096 -0.144,0.216 -0.144,0.384 0.012,0.228 0.024,0.516 0.036,0.864 0,0.36 0.012,0.684 0.012,0.972 0,0.324 0.012,0.624 0.012,0.9 0,0.264 -0.012,0.528 -0.012,0.78 -0.24,0.168 -0.528,0.348 -0.876,0.516 -0.348,0.168 -0.696,0.252 -1.044,0.252 -0.216,0 -0.384,-0.048 -0.504,-0.12 -0.132,-0.084 -0.216,-0.276 -0.252,-0.564 -0.048,-0.312 -0.072,-0.6 -0.072,-0.888 -0.012,-0.288 -0.012,-0.588 -0.012,-0.876 -0.012,-0.384 -0.012,-0.732 0.012,-1.056 0.024,-0.324 0.036,-0.576 0.036,-0.756 0,-0.192 -0.072,-0.336 -0.192,-0.42 -0.12,-0.084 -0.252,-0.12 -0.396,-0.12 -0.132,0 -0.252,0.036 -0.36,0.12 -0.108,0.084 -0.156,0.228 -0.156,0.42 0,0.228 0,0.504 -0.024,0.828 -0.024,0.324 -0.024,0.672 -0.024,1.044 0,0.288 0,0.588 0.012,0.888 0,0.288 0.024,0.6 0.048,0.912 0,0.168 0.048,0.348 0.12,0.54 0.072,0.18 0.18,0.348 0.312,0.504 0.132,0.144 0.288,0.276 0.468,0.384 0.168,0.108 0.36,0.168 0.564,0.192 0.456,0.036 0.888,-0.048 1.32,-0.24 0.42,-0.192 0.756,-0.396 1.008,-0.6 z m 5.23199,-0.492 c -0.504,0.012 -0.888,-0.168 -1.152,-0.552 -0.276,-0.384 -0.408,-0.9 -0.396,-1.572 0,-0.456 0.144,-0.864 0.408,-1.224 0.264,-0.36 0.636,-0.54 1.116,-0.564 0.324,0 0.624,0.096 0.9,0.288 0.264,0.204 0.48,0.432 0.636,0.672 0,0.132 -0.012,0.264 -0.012,0.384 0,0.12 0,0.252 0,0.372 -0.012,0.204 -0.012,0.396 -0.012,0.588 0,0.192 0.012,0.384 0.012,0.552 -0.072,0.12 -0.144,0.24 -0.216,0.36 -0.084,0.132 -0.18,0.252 -0.288,0.348 -0.12,0.108 -0.252,0.192 -0.408,0.252 -0.168,0.072 -0.36,0.096 -0.588,0.096 z m 2.784,0.468 c 0,-0.072 0,-0.156 -0.024,-0.24 -0.024,-0.072 -0.048,-0.192 -0.084,-0.348 -0.024,-0.156 -0.06,-0.372 -0.096,-0.648 -0.024,-0.276 -0.048,-0.648 -0.06,-1.116 0,-0.324 0.012,-0.744 0.024,-1.248 0.012,-0.504 0.024,-1.02 0.036,-1.536 0.012,-0.516 0.024,-0.996 0.048,-1.452 0.024,-0.444 0.036,-0.768 0.036,-0.972 0.024,-0.288 -0.024,-0.468 -0.12,-0.552 -0.096,-0.084 -0.216,-0.132 -0.348,-0.144 -0.12,0 -0.252,0.048 -0.372,0.132 -0.12,0.096 -0.204,0.276 -0.228,0.564 -0.012,0.216 -0.024,0.564 -0.036,1.044 -0.012,0.492 -0.024,1.032 -0.036,1.632 -0.192,-0.132 -0.444,-0.24 -0.732,-0.336 -0.288,-0.096 -0.624,-0.144 -0.996,-0.144 -0.372,0.012 -0.708,0.084 -1.02,0.216 -0.3,0.144 -0.552,0.324 -0.768,0.564 -0.216,0.24 -0.372,0.528 -0.492,0.852 -0.108,0.324 -0.156,0.672 -0.144,1.044 -0.012,0.528 0.06,0.996 0.204,1.404 0.144,0.408 0.336,0.744 0.576,1.008 0.24,0.264 0.504,0.468 0.816,0.6 0.312,0.144 0.612,0.204 0.924,0.204 0.456,0 0.804,-0.084 1.056,-0.264 0.252,-0.18 0.456,-0.384 0.612,-0.612 0.024,0.264 0.084,0.468 0.192,0.636 0.096,0.168 0.276,0.228 0.528,0.18 0.12,-0.024 0.228,-0.06 0.324,-0.132 0.096,-0.072 0.156,-0.18 0.18,-0.336 z m 1.75199,-0.408 c -0.204,0 -0.336,0.048 -0.396,0.144 -0.06,0.096 -0.084,0.204 -0.084,0.324 -0.012,0.12 0.012,0.24 0.072,0.348 0.06,0.108 0.192,0.156 0.396,0.156 0.228,0 0.552,0 0.984,-0.012 0.42,0 0.852,-0.012 1.284,-0.012 0.432,0 0.84,-0.012 1.2,-0.024 0.372,0 0.624,-0.012 0.756,-0.012 0.18,0 0.3,-0.048 0.36,-0.144 0.072,-0.096 0.108,-0.204 0.108,-0.312 0,-0.12 -0.024,-0.216 -0.084,-0.312 -0.048,-0.096 -0.18,-0.132 -0.372,-0.132 h -1.404 c -0.024,-0.732 -0.048,-1.404 -0.06,-2.028 -0.012,-0.624 0.012,-1.308 0.06,-2.052 0,-0.036 0,-0.084 -0.012,-0.156 -0.012,-0.072 -0.036,-0.156 -0.084,-0.228 -0.048,-0.072 -0.108,-0.144 -0.18,-0.192 -0.072,-0.048 -0.18,-0.072 -0.3,-0.072 -0.384,-0.012 -0.744,-0.012 -1.068,0.012 -0.324,0.012 -0.6,0.024 -0.828,0.036 -0.144,0 -0.264,0.06 -0.336,0.156 -0.072,0.096 -0.096,0.216 -0.096,0.336 0,0.108 0.036,0.204 0.108,0.288 0.072,0.096 0.192,0.132 0.336,0.132 0.288,0.012 0.552,0.012 0.768,0 0.228,-0.024 0.444,-0.012 0.648,0.012 -0.024,0.48 -0.036,0.948 -0.048,1.416 -0.024,0.468 -0.024,0.96 0,1.464 0,0.168 0.012,0.324 0.012,0.468 v 0.408 z m 2.1,-5.472 c 0.264,-0.024 0.48,-0.12 0.648,-0.288 0.156,-0.168 0.24,-0.36 0.24,-0.6 0,-0.228 -0.084,-0.432 -0.24,-0.6 -0.168,-0.168 -0.384,-0.24 -0.648,-0.24 -0.24,0.012 -0.456,0.096 -0.648,0.264 -0.192,0.168 -0.288,0.36 -0.288,0.588 0,0.24 0.084,0.444 0.252,0.636 0.168,0.192 0.396,0.276 0.684,0.24 z m 6.52799,5.604 c -0.624,-0.024 -1.02,-0.24 -1.212,-0.624 -0.192,-0.384 -0.276,-0.864 -0.252,-1.44 0.024,-0.684 0.156,-1.236 0.384,-1.656 0.228,-0.408 0.564,-0.624 1.02,-0.624 0.456,0 0.816,0.18 1.092,0.528 0.276,0.36 0.396,0.948 0.372,1.764 -0.024,0.6 -0.156,1.092 -0.372,1.488 -0.228,0.408 -0.576,0.588 -1.032,0.564 z m -0.24,0.948 c 0.936,0.012 1.62,-0.228 2.052,-0.732 0.42,-0.504 0.66,-1.188 0.72,-2.076 0.024,-0.6 -0.024,-1.116 -0.144,-1.548 -0.12,-0.432 -0.3,-0.78 -0.528,-1.044 -0.24,-0.264 -0.504,-0.468 -0.816,-0.588 -0.312,-0.12 -0.624,-0.18 -0.948,-0.18 -0.444,0 -0.84,0.084 -1.176,0.252 -0.336,0.168 -0.624,0.384 -0.852,0.672 -0.228,0.288 -0.396,0.624 -0.516,1.008 -0.12,0.384 -0.168,0.804 -0.168,1.248 -0.012,0.384 0.036,0.756 0.144,1.116 0.108,0.36 0.264,0.672 0.468,0.948 0.204,0.276 0.456,0.492 0.756,0.66 0.288,0.168 0.624,0.264 1.008,0.264 z"
       id="text4649"
       style="font-family:'ComicShannsMono Nerd Font Mono';-inkscape-font-specification:'ComicShannsMono Nerd Font Mono'"
       transform="matrix(0.26458333,0,0,0.26458333,262.4873,16.832769)"
       aria-label="audio" /><path
       d="m -438.80957,292.02142 c 0,-0.168 -0.012,-0.42 -0.024,-0.744 -0.024,-0.324 -0.024,-0.66 -0.024,-1.02 -0.012,-0.228 -0.024,-0.456 -0.024,-0.696 0,-0.24 0,-0.444 0.012,-0.624 0.12,-0.3 0.288,-0.588 0.48,-0.852 0.192,-0.264 0.396,-0.396 0.588,-0.396 0.132,0 0.204,0.132 0.228,0.372 0.012,0.24 0.024,0.66 0.024,1.26 0,0.54 -0.024,1.032 -0.072,1.476 -0.048,0.444 -0.048,0.84 -0.024,1.176 0.024,0.276 0.084,0.456 0.18,0.528 0.096,0.072 0.204,0.108 0.324,0.108 0.12,0.012 0.24,-0.024 0.36,-0.096 0.108,-0.072 0.156,-0.252 0.144,-0.528 -0.024,-0.408 -0.024,-0.876 0.024,-1.404 0.036,-0.528 0.036,-1.092 0,-1.68 0.108,-0.324 0.252,-0.612 0.432,-0.852 0.168,-0.24 0.372,-0.36 0.6,-0.348 0.072,0 0.12,0.156 0.144,0.48 0.024,0.324 0.024,0.708 0.024,1.164 0,0.444 -0.012,0.9 -0.012,1.38 -0.012,0.48 -0.012,0.864 0.012,1.176 0.012,0.312 0.084,0.516 0.216,0.6 0.132,0.084 0.264,0.12 0.396,0.12 0.12,0 0.216,-0.048 0.312,-0.12 0.096,-0.084 0.132,-0.288 0.132,-0.6 -0.024,-0.564 -0.036,-1.152 -0.012,-1.776 0.012,-0.624 0.012,-1.188 -0.012,-1.704 -0.024,-0.516 -0.072,-0.936 -0.168,-1.272 -0.096,-0.336 -0.252,-0.504 -0.48,-0.504 -0.456,0 -0.816,0.12 -1.08,0.36 -0.276,0.24 -0.48,0.504 -0.624,0.768 -0.072,-0.324 -0.168,-0.588 -0.288,-0.804 -0.12,-0.216 -0.252,-0.324 -0.408,-0.324 -0.372,0 -0.684,0.108 -0.924,0.336 -0.24,0.228 -0.42,0.492 -0.564,0.78 0.012,-0.096 0.024,-0.192 0.048,-0.288 0.024,-0.096 0.036,-0.18 0.048,-0.276 0.024,-0.276 -0.012,-0.468 -0.108,-0.564 -0.096,-0.108 -0.216,-0.156 -0.336,-0.156 -0.144,-0.012 -0.276,0.036 -0.408,0.144 -0.144,0.12 -0.216,0.312 -0.216,0.576 -0.012,0.48 -0.024,1.032 -0.024,1.632 -0.012,0.612 0,1.236 0.024,1.872 0,0.288 0.012,0.552 0.036,0.792 0.012,0.252 0.024,0.432 0.024,0.54 0,0.24 0.048,0.408 0.144,0.48 0.096,0.072 0.216,0.108 0.336,0.12 0.12,0 0.24,-0.036 0.36,-0.108 0.12,-0.072 0.18,-0.24 0.18,-0.504 z m 8.29199,-0.312 c -0.624,-0.024 -1.02,-0.24 -1.212,-0.624 -0.192,-0.384 -0.276,-0.864 -0.252,-1.44 0.024,-0.684 0.156,-1.236 0.384,-1.656 0.228,-0.408 0.564,-0.624 1.02,-0.624 0.456,0 0.816,0.18 1.092,0.528 0.276,0.36 0.396,0.948 0.372,1.764 -0.024,0.6 -0.156,1.092 -0.372,1.488 -0.228,0.408 -0.576,0.588 -1.032,0.564 z m -0.24,0.948 c 0.936,0.012 1.62,-0.228 2.052,-0.732 0.42,-0.504 0.66,-1.188 0.72,-2.076 0.024,-0.6 -0.024,-1.116 -0.144,-1.548 -0.12,-0.432 -0.3,-0.78 -0.528,-1.044 -0.24,-0.264 -0.504,-0.468 -0.816,-0.588 -0.312,-0.12 -0.624,-0.18 -0.948,-0.18 -0.444,0 -0.84,0.084 -1.176,0.252 -0.336,0.168 -0.624,0.384 -0.852,0.672 -0.228,0.288 -0.396,0.624 -0.516,1.008 -0.12,0.384 -0.168,0.804 -0.168,1.248 -0.012,0.384 0.036,0.756 0.144,1.116 0.108,0.36 0.264,0.672 0.468,0.948 0.204,0.276 0.456,0.492 0.756,0.66 0.288,0.168 0.624,0.264 1.008,0.264 z m 6.87599,-1.14 c -0.504,0.012 -0.888,-0.168 -1.152,-0.552 -0.276,-0.384 -0.408,-0.9 -0.396,-1.572 0,-0.456 0.144,-0.864 0.408,-1.224 0.264,-0.36 0.636,-0.54 1.116,-0.564 0.324,0 0.624,0.096 0.9,0.288 0.264,0.204 0.48,0.432 0.636,0.672 0,0.132 -0.012,0.264 -0.012,0.384 0,0.12 0,0.252 0,0.372 -0.012,0.204 -0.012,0.396 -0.012,0.588 0,0.192 0.012,0.384 0.012,0.552 -0.072,0.12 -0.144,0.24 -0.216,0.36 -0.084,0.132 -0.18,0.252 -0.288,0.348 -0.12,0.108 -0.252,0.192 -0.408,0.252 -0.168,0.072 -0.36,0.096 -0.588,0.096 z m 2.784,0.468 c 0,-0.072 0,-0.156 -0.024,-0.24 -0.024,-0.072 -0.048,-0.192 -0.084,-0.348 -0.024,-0.156 -0.06,-0.372 -0.096,-0.648 -0.024,-0.276 -0.048,-0.648 -0.06,-1.116 0,-0.324 0.012,-0.744 0.024,-1.248 0.012,-0.504 0.024,-1.02 0.036,-1.536 0.012,-0.516 0.024,-0.996 0.048,-1.452 0.024,-0.444 0.036,-0.768 0.036,-0.972 0.024,-0.288 -0.024,-0.468 -0.12,-0.552 -0.096,-0.084 -0.216,-0.132 -0.348,-0.144 -0.12,0 -0.252,0.048 -0.372,0.132 -0.12,0.096 -0.204,0.276 -0.228,0.564 -0.012,0.216 -0.024,0.564 -0.036,1.044 -0.012,0.492 -0.024,1.032 -0.036,1.632 -0.192,-0.132 -0.444,-0.24 -0.732,-0.336 -0.288,-0.096 -0.624,-0.144 -0.996,-0.144 -0.372,0.012 -0.708,0.084 -1.02,0.216 -0.3,0.144 -0.552,0.324 -0.768,0.564 -0.216,0.24 -0.372,0.528 -0.492,0.852 -0.108,0.324 -0.156,0.672 -0.144,1.044 -0.012,0.528 0.06,0.996 0.204,1.404 0.144,0.408 0.336,0.744 0.576,1.008 0.24,0.264 0.504,0.468 0.816,0.6 0.312,0.144 0.612,0.204 0.924,0.204 0.456,0 0.804,-0.084 1.056,-0.264 0.252,-0.18 0.456,-0.384 0.612,-0.612 0.024,0.264 0.084,0.468 0.192,0.636 0.096,0.168 0.276,0.228 0.528,0.18 0.12,-0.024 0.228,-0.06 0.324,-0.132 0.096,-0.072 0.156,-0.18 0.18,-0.336 z m 5.18399,0.024 c 0,0.252 0.06,0.42 0.192,0.504 0.132,0.084 0.276,0.12 0.432,0.108 0.12,0 0.24,-0.048 0.348,-0.144 0.108,-0.084 0.168,-0.24 0.168,-0.468 v -1.584 c 0,-0.54 -0.012,-1.14 -0.036,-1.8 -0.012,-0.216 -0.024,-0.468 -0.024,-0.744 0,-0.276 -0.012,-0.492 -0.036,-0.648 0,-0.168 -0.072,-0.3 -0.192,-0.396 -0.132,-0.084 -0.264,-0.132 -0.396,-0.132 -0.132,0.012 -0.252,0.06 -0.348,0.144 -0.096,0.096 -0.144,0.216 -0.144,0.384 0.012,0.228 0.024,0.516 0.036,0.864 0,0.36 0.012,0.684 0.012,0.972 0,0.324 0.012,0.624 0.012,0.9 0,0.264 -0.012,0.528 -0.012,0.78 -0.24,0.168 -0.528,0.348 -0.876,0.516 -0.348,0.168 -0.696,0.252 -1.044,0.252 -0.216,0 -0.384,-0.048 -0.504,-0.12 -0.132,-0.084 -0.216,-0.276 -0.252,-0.564 -0.048,-0.312 -0.072,-0.6 -0.072,-0.888 -0.012,-0.288 -0.012,-0.588 -0.012,-0.876 -0.012,-0.384 -0.012,-0.732 0.012,-1.056 0.024,-0.324 0.036,-0.576 0.036,-0.756 0,-0.192 -0.072,-0.336 -0.192,-0.42 -0.12,-0.084 -0.252,-0.12 -0.396,-0.12 -0.132,0 -0.252,0.036 -0.36,0.12 -0.108,0.084 -0.156,0.228 -0.156,0.42 0,0.228 0,0.504 -0.024,0.828 -0.024,0.324 -0.024,0.672 -0.024,1.044 0,0.288 0,0.588 0.012,0.888 0,0.288 0.024,0.6 0.048,0.912 0,0.168 0.048,0.348 0.12,0.54 0.072,0.18 0.18,0.348 0.312,0.504 0.132,0.144 0.288,0.276 0.468,0.384 0.168,0.108 0.36,0.168 0.564,0.192 0.456,0.036 0.888,-0.048 1.32,-0.24 0.42,-0.192 0.756,-0.396 1.008,-0.6 z m 3.02399,-0.6 c -0.192,0 -0.324,0.06 -0.396,0.168 -0.072,0.12 -0.108,0.24 -0.096,0.36 0,0.12 0.036,0.24 0.108,0.336 0.072,0.096 0.192,0.144 0.372,0.144 0.24,0 0.576,0.012 1.032,0.012 0.456,0 0.912,0.012 1.368,0.012 0.456,0 0.876,0.012 1.26,0.012 0.384,0 0.624,0 0.732,0 0.24,0 0.408,-0.048 0.48,-0.156 0.072,-0.108 0.108,-0.228 0.108,-0.36 -0.012,-0.096 -0.048,-0.192 -0.12,-0.288 -0.072,-0.096 -0.228,-0.144 -0.444,-0.144 -0.108,0 -0.3,0 -0.588,-0.012 -0.288,0 -0.624,-0.012 -1.008,-0.024 -0.012,-0.192 -0.024,-0.384 -0.024,-0.576 0,-0.192 0,-0.396 0,-0.636 0,-0.192 -0.012,-0.348 -0.012,-0.492 0,-0.144 0,-0.276 0,-0.42 v -0.42 -0.54 c 0,-0.12 0,-0.372 0,-0.78 0,-0.408 0.012,-0.84 0.024,-1.296 0.012,-0.456 0.024,-0.888 0.048,-1.296 0.012,-0.408 0.036,-0.672 0.06,-0.816 0,-0.036 -0.012,-0.072 -0.036,-0.108 -0.024,-0.024 -0.06,-0.048 -0.108,-0.072 -0.024,-0.048 -0.048,-0.096 -0.084,-0.12 -0.036,-0.024 -0.072,-0.048 -0.12,-0.048 -0.192,0 -0.348,0 -0.444,0 -0.096,0 -0.216,0.012 -0.336,0.012 -0.12,0 -0.288,0.012 -0.48,0.012 -0.192,0.012 -0.48,0.012 -0.852,0.012 -0.168,0 -0.3,0.048 -0.372,0.144 -0.072,0.096 -0.108,0.192 -0.108,0.3 -0.012,0.132 0.024,0.252 0.108,0.36 0.072,0.12 0.204,0.168 0.384,0.168 0.288,0 0.54,0 0.744,0 0.204,0 0.396,-0.012 0.576,-0.024 -0.012,0.408 -0.024,0.9 -0.036,1.464 -0.012,0.564 -0.024,1.128 -0.024,1.68 -0.012,0.552 -0.012,1.08 -0.012,1.572 0,0.492 0,0.876 0.012,1.152 0,0.144 0.012,0.276 0.012,0.396 v 0.336 c -0.312,0 -0.612,-0.012 -0.912,-0.012 -0.3,0 -0.576,-0.012 -0.816,-0.012 z m 8.93999,-4.02 c 0.228,0 0.432,0.072 0.624,0.192 0.192,0.132 0.384,0.372 0.552,0.72 -0.144,0.144 -0.36,0.264 -0.636,0.384 -0.264,0.12 -0.54,0.228 -0.828,0.324 -0.276,0.096 -0.54,0.18 -0.78,0.24 -0.24,0.06 -0.396,0.096 -0.48,0.12 0.024,-0.348 0.096,-0.648 0.192,-0.9 0.108,-0.252 0.24,-0.456 0.384,-0.624 0.156,-0.156 0.324,-0.276 0.492,-0.348 0.168,-0.072 0.336,-0.108 0.48,-0.108 z m 2.28,4.296 c 0.168,-0.216 0.228,-0.396 0.18,-0.54 -0.048,-0.144 -0.132,-0.252 -0.24,-0.336 -0.12,-0.072 -0.24,-0.108 -0.384,-0.084 -0.144,0.024 -0.312,0.144 -0.48,0.372 -0.024,0.024 -0.072,0.084 -0.156,0.156 -0.096,0.072 -0.204,0.156 -0.336,0.228 -0.144,0.072 -0.3,0.144 -0.492,0.204 -0.192,0.06 -0.384,0.084 -0.6,0.072 -0.42,-0.012 -0.72,-0.144 -0.912,-0.384 -0.192,-0.24 -0.312,-0.54 -0.36,-0.888 0.192,-0.072 0.432,-0.156 0.72,-0.252 0.288,-0.096 0.576,-0.204 0.888,-0.324 0.3,-0.12 0.6,-0.24 0.888,-0.372 0.288,-0.132 0.516,-0.264 0.708,-0.408 0.048,-0.036 0.12,-0.096 0.204,-0.18 0.072,-0.084 0.144,-0.18 0.216,-0.276 0.06,-0.096 0.108,-0.204 0.144,-0.324 0.036,-0.108 0.048,-0.216 0.024,-0.324 -0.072,-0.216 -0.192,-0.408 -0.348,-0.6 -0.168,-0.192 -0.336,-0.348 -0.528,-0.48 -0.192,-0.132 -0.396,-0.24 -0.6,-0.312 -0.216,-0.072 -0.396,-0.12 -0.564,-0.12 -0.408,0 -0.78,0.072 -1.128,0.216 -0.36,0.144 -0.66,0.348 -0.912,0.612 -0.252,0.264 -0.456,0.6 -0.6,0.996 -0.156,0.408 -0.24,0.852 -0.24,1.356 -0.012,0.912 0.192,1.644 0.6,2.172 0.408,0.528 0.996,0.804 1.74,0.804 0.768,0.012 1.344,-0.072 1.704,-0.264 0.36,-0.192 0.648,-0.432 0.864,-0.72 z"
       id="text4650"
       style="font-family:'ComicShannsMono Nerd Font Mono';-inkscape-font-specification:'ComicShannsMono Nerd Font Mono'"
       transform="matrix(0.26458333,0,0,0.26458333,262.4873,16.832769)"
       aria-label="module" /><path
       d="m 416.44337,316.81551 h -8.48048 v -4.24023 h 8.48048 z m 16.96092,0 h -8.48048 v -4.24023 h 8.48048 z m -4.24023,16.96093 h 4.24023 v -8.48046 h -25.4414 v 8.48046 h 4.24023 v -4.24023 h 16.96095 z"
       id="emoji_sad_simple-[#468]"
       style="fill:#000000;fill-rule:evenodd;stroke:none;stroke-width:2.12012"
       transform="matrix(-0.26458333,0,0,0.26458333,262.4873,16.832769)" /></g></svg>
