<?xml version="1.0" encoding="UTF-8" standalone="no"?>
<!-- Created with Inkscape (http://www.inkscape.org/) -->

<svg
   width="6.690371mm"
   height="10.300326mm"
   viewBox="0 0 6.690371 10.300326"
   version="1.1"
   id="svg1"
   xml:space="preserve"
   xmlns="http://www.w3.org/2000/svg"
   xmlns:svg="http://www.w3.org/2000/svg"><defs
     id="defs1" /><g
     id="layer3"
     transform="translate(-129.21552,-90.400505)"><path
       d="m 131.69421,91.378395 c 0.0635,0.0032 0.12065,0.01905 0.17145,0.04762 0.0508,0.02858 0.0921,0.06668 0.12383,0.111125 0.0349,0.04763 0.0603,0.1016 0.0794,0.161925 0.019,0.06032 0.0286,0.123825 0.0317,0.187325 0,0.174625 -0.0349,0.314325 -0.11112,0.422275 -0.0762,0.10795 -0.18733,0.15875 -0.3302,0.15875 -0.0794,0 -0.14923,-0.0095 -0.20955,-0.02858 -0.0571,-0.01905 -0.11113,-0.0508 -0.15875,-0.09843 0.003,-0.104775 0.006,-0.2286 0.006,-0.371475 0,-0.142875 0,-0.288925 0,-0.434975 0.0476,-0.0381 0.10477,-0.0762 0.17145,-0.10795 0.0698,-0.03175 0.14287,-0.04762 0.22542,-0.04762 z m 0.69215,0.4826 c 0,-0.1016 -0.0127,-0.200025 -0.0381,-0.288925 -0.0286,-0.0889 -0.0699,-0.1651 -0.12382,-0.2286 -0.0508,-0.0635 -0.11748,-0.111125 -0.19685,-0.149225 -0.0762,-0.0381 -0.1651,-0.05715 -0.2667,-0.06032 -0.1016,0 -0.1905,0.0127 -0.2667,0.0381 -0.073,0.0254 -0.13653,0.05715 -0.19368,0.09525 0,-0.15875 0.003,-0.301625 0.003,-0.428625 0,-0.127 0,-0.219075 0,-0.27305 0.003,-0.06985 -0.0127,-0.1143 -0.0476,-0.136525 -0.0317,-0.01905 -0.0699,-0.02857 -0.10795,-0.02857 -0.0318,0.0032 -0.0635,0.01587 -0.0889,0.03492 -0.0254,0.02223 -0.0381,0.06668 -0.0381,0.13335 0,0.09207 -0.003,0.22225 -0.006,0.3937 0,0.17145 -0.003,0.352425 -0.003,0.542925 0,0.1905 0,0.377825 0,0.568325 0,0.187325 0,0.346075 0,0.47625 0,0.06985 0.0159,0.117475 0.0476,0.136525 0.0317,0.01905 0.0667,0.02858 0.0984,0.0254 0.0318,0 0.0603,-0.0095 0.0857,-0.0254 0.0254,-0.01587 0.0413,-0.0508 0.0445,-0.104775 0.054,0.04127 0.11748,0.0762 0.19368,0.1016 0.0762,0.0254 0.16192,0.0381 0.25717,0.0381 0.0825,0 0.16193,-0.01587 0.2413,-0.05397 0.0794,-0.0381 0.14923,-0.09207 0.20955,-0.1651 0.0603,-0.06985 0.10795,-0.161925 0.14288,-0.269875 0.0381,-0.10795 0.054,-0.231775 0.054,-0.371475 z m 1.06045,-0.4953 c 0.0603,0 0.1143,0.01905 0.1651,0.0508 0.0508,0.03493 0.1016,0.09843 0.14605,0.1905 -0.0381,0.0381 -0.0952,0.06985 -0.16827,0.1016 -0.0699,0.03175 -0.14288,0.06032 -0.21908,0.08572 -0.073,0.0254 -0.14287,0.04762 -0.20637,0.0635 -0.0635,0.01587 -0.10478,0.0254 -0.127,0.03175 0.006,-0.09208 0.0254,-0.17145 0.0508,-0.238125 0.0286,-0.06667 0.0635,-0.12065 0.1016,-0.1651 0.0413,-0.04127 0.0857,-0.07303 0.13017,-0.09207 0.0445,-0.01905 0.0889,-0.02858 0.127,-0.02858 z m 0.60325,1.13665 c 0.0445,-0.05715 0.0603,-0.104775 0.0476,-0.142875 -0.0127,-0.0381 -0.0349,-0.06668 -0.0635,-0.0889 -0.0317,-0.01905 -0.0635,-0.02858 -0.1016,-0.02223 -0.0381,0.0063 -0.0825,0.0381 -0.127,0.09843 -0.006,0.0063 -0.019,0.02222 -0.0413,0.04127 -0.0254,0.01905 -0.054,0.04127 -0.0889,0.06032 -0.0381,0.01905 -0.0794,0.0381 -0.13017,0.05398 -0.0508,0.01587 -0.1016,0.02222 -0.15875,0.01905 -0.11113,-0.0032 -0.1905,-0.0381 -0.2413,-0.1016 -0.0508,-0.0635 -0.0826,-0.142875 -0.0953,-0.23495 0.0508,-0.01905 0.1143,-0.04127 0.1905,-0.06667 0.0762,-0.0254 0.1524,-0.05398 0.23495,-0.08573 0.0794,-0.03175 0.15875,-0.0635 0.23495,-0.09842 0.0762,-0.03493 0.13652,-0.06985 0.18732,-0.10795 0.0127,-0.0095 0.0317,-0.0254 0.054,-0.04762 0.019,-0.02223 0.0381,-0.04763 0.0572,-0.07303 0.0159,-0.0254 0.0286,-0.05398 0.0381,-0.08573 0.01,-0.02857 0.0127,-0.05715 0.006,-0.08572 -0.019,-0.05715 -0.0508,-0.10795 -0.0921,-0.15875 -0.0445,-0.0508 -0.0889,-0.09207 -0.1397,-0.127 -0.0508,-0.03493 -0.10477,-0.0635 -0.15875,-0.08255 -0.0572,-0.01905 -0.10477,-0.03175 -0.14922,-0.03175 -0.10795,0 -0.20638,0.01905 -0.29845,0.05715 -0.0952,0.0381 -0.17463,0.09208 -0.2413,0.161925 -0.0667,0.06985 -0.12065,0.15875 -0.15875,0.263525 -0.0413,0.10795 -0.0635,0.225425 -0.0635,0.358775 -0.003,0.2413 0.0508,0.434975 0.15875,0.574675 0.10795,0.1397 0.26352,0.212725 0.46037,0.212725 0.2032,0.0032 0.3556,-0.01905 0.45085,-0.06985 0.0952,-0.0508 0.17145,-0.1143 0.2286,-0.1905 z"
       id="text4640"
       style="font-size:3.175px;font-family:'ComicShannsMono Nerd Font Mono';-inkscape-font-specification:'ComicShannsMono Nerd Font Mono';stroke-width:0.264583"
       aria-label="be" /><path
       d="m 129.3463,100.3705 c -0.0508,0 -0.0857,0.0159 -0.10477,0.0444 -0.0191,0.0318 -0.0286,0.0635 -0.0254,0.0952 0,0.0318 0.01,0.0635 0.0286,0.0889 0.019,0.0254 0.0508,0.0381 0.0984,0.0381 0.0635,0 0.1524,0.003 0.27305,0.003 0.12065,0 0.2413,0.003 0.36195,0.003 0.12065,0 0.23177,0.003 0.33337,0.003 0.1016,0 0.1651,0 0.19368,0 0.0635,0 0.10795,-0.0127 0.127,-0.0413 0.019,-0.0286 0.0286,-0.0603 0.0286,-0.0953 -0.003,-0.0254 -0.0127,-0.0508 -0.0318,-0.0762 -0.019,-0.0254 -0.0603,-0.0381 -0.11747,-0.0381 -0.0286,0 -0.0794,0 -0.15558,-0.003 -0.0762,0 -0.1651,-0.003 -0.2667,-0.006 -0.003,-0.0508 -0.006,-0.1016 -0.006,-0.1524 0,-0.0508 0,-0.10477 0,-0.16827 0,-0.0508 -0.003,-0.09208 -0.003,-0.130177 0,-0.0381 0,-0.07303 0,-0.111125 v -0.111125 -0.142875 c 0,-0.03175 0,-0.09842 0,-0.206375 0,-0.10795 0.003,-0.22225 0.006,-0.3429 0.003,-0.12065 0.006,-0.23495 0.0127,-0.3429 0.003,-0.10795 0.01,-0.1778 0.0159,-0.2159 0,-0.0095 -0.003,-0.01905 -0.01,-0.02858 -0.006,-0.0063 -0.0159,-0.0127 -0.0286,-0.01905 -0.006,-0.0127 -0.0127,-0.0254 -0.0222,-0.03175 -0.01,-0.0063 -0.019,-0.0127 -0.0317,-0.0127 -0.0508,0 -0.0921,0 -0.11748,0 -0.0254,0 -0.0572,0.0032 -0.0889,0.0032 -0.0318,0 -0.0762,0.0032 -0.127,0.0032 -0.0508,0.0032 -0.127,0.0032 -0.22542,0.0032 -0.0445,0 -0.0794,0.0127 -0.0984,0.0381 -0.019,0.0254 -0.0286,0.0508 -0.0286,0.07937 -0.003,0.03493 0.006,0.06668 0.0286,0.09525 0.019,0.03175 0.054,0.04445 0.1016,0.04445 0.0762,0 0.14288,0 0.19685,0 0.054,0 0.10478,-0.0032 0.1524,-0.0063 -0.003,0.10795 -0.006,0.238125 -0.01,0.38735 -0.003,0.149225 -0.006,0.29845 -0.006,0.4445 -0.003,0.14605 -0.003,0.28575 -0.003,0.415925 0,0.130182 0,0.231782 0.003,0.304802 0,0.0381 0.003,0.073 0.003,0.10478 v 0.0889 c -0.0826,0 -0.16192,-0.003 -0.2413,-0.003 -0.0794,0 -0.1524,-0.003 -0.2159,-0.003 z m 2.32092,0.0794 c -0.1651,-0.006 -0.26987,-0.0635 -0.32067,-0.1651 -0.0508,-0.1016 -0.073,-0.2286 -0.0667,-0.380997 0.006,-0.180975 0.0413,-0.327025 0.1016,-0.43815 0.0603,-0.10795 0.14923,-0.1651 0.26988,-0.1651 0.12065,0 0.2159,0.04762 0.28892,0.1397 0.073,0.09525 0.10478,0.250825 0.0984,0.466725 -0.006,0.158752 -0.0413,0.288922 -0.0984,0.393702 -0.0603,0.10795 -0.1524,0.15557 -0.27305,0.14922 z m -0.0635,0.25083 c 0.24765,0.003 0.42863,-0.0603 0.54293,-0.19368 0.11112,-0.13335 0.17462,-0.31432 0.1905,-0.549272 0.006,-0.15875 -0.006,-0.295275 -0.0381,-0.409575 -0.0317,-0.1143 -0.0794,-0.206375 -0.1397,-0.276225 -0.0635,-0.06985 -0.13335,-0.123825 -0.2159,-0.155575 -0.0826,-0.03175 -0.1651,-0.04762 -0.25083,-0.04762 -0.11747,0 -0.22225,0.02223 -0.31115,0.06668 -0.0889,0.04445 -0.1651,0.1016 -0.22542,0.1778 -0.0603,0.0762 -0.10478,0.1651 -0.13653,0.2667 -0.0317,0.1016 -0.0445,0.212725 -0.0445,0.3302 -0.003,0.101597 0.01,0.200027 0.0381,0.295277 0.0286,0.0953 0.0699,0.1778 0.12383,0.25082 0.054,0.073 0.12065,0.13018 0.20002,0.17463 0.0762,0.0444 0.1651,0.0699 0.2667,0.0699 z m 2.18123,-0.17145 c 0,0.0667 0.0159,0.11112 0.0508,0.13335 0.0349,0.0222 0.073,0.0318 0.1143,0.0286 0.0317,0 0.0635,-0.0127 0.0921,-0.0381 0.0286,-0.0222 0.0444,-0.0635 0.0444,-0.12382 v -0.4191 c 0,-0.142877 -0.003,-0.301627 -0.01,-0.476252 -0.003,-0.05715 -0.006,-0.123825 -0.006,-0.19685 0,-0.07303 -0.003,-0.130175 -0.01,-0.17145 0,-0.04445 -0.019,-0.07937 -0.0508,-0.104775 -0.0349,-0.02222 -0.0699,-0.03492 -0.10477,-0.03492 -0.0349,0.0032 -0.0667,0.01587 -0.0921,0.0381 -0.0254,0.0254 -0.0381,0.05715 -0.0381,0.1016 0.003,0.06033 0.006,0.136525 0.01,0.2286 0,0.09525 0.003,0.180975 0.003,0.257175 0,0.08572 0.003,0.1651 0.003,0.238125 0,0.06985 -0.003,0.139707 -0.003,0.206377 -0.0635,0.0444 -0.1397,0.0921 -0.23177,0.13653 -0.0921,0.0444 -0.18415,0.0667 -0.27623,0.0667 -0.0572,0 -0.1016,-0.0127 -0.13335,-0.0317 -0.0349,-0.0222 -0.0572,-0.073 -0.0667,-0.14922 -0.0127,-0.0826 -0.019,-0.15875 -0.019,-0.234957 -0.003,-0.0762 -0.003,-0.155575 -0.003,-0.231775 -0.003,-0.1016 -0.003,-0.193675 0.003,-0.2794 0.006,-0.08573 0.01,-0.1524 0.01,-0.200025 0,-0.0508 -0.019,-0.0889 -0.0508,-0.111125 -0.0317,-0.02222 -0.0667,-0.03175 -0.10477,-0.03175 -0.0349,0 -0.0667,0.0095 -0.0952,0.03175 -0.0286,0.02223 -0.0413,0.06033 -0.0413,0.111125 0,0.06033 0,0.13335 -0.006,0.219075 -0.006,0.08572 -0.006,0.1778 -0.006,0.276225 0,0.0762 0,0.155575 0.003,0.234957 0,0.0762 0.006,0.15875 0.0127,0.2413 0,0.0444 0.0127,0.0921 0.0317,0.14287 0.019,0.0476 0.0476,0.0921 0.0825,0.13335 0.0349,0.0381 0.0762,0.073 0.12382,0.1016 0.0445,0.0286 0.0952,0.0444 0.14923,0.0508 0.12065,0.01 0.23495,-0.0127 0.34925,-0.0635 0.11112,-0.0508 0.20002,-0.10477 0.2667,-0.15875 z m 1.38429,-0.13018 c -0.13335,0.003 -0.23495,-0.0444 -0.3048,-0.14605 -0.073,-0.1016 -0.10795,-0.23812 -0.10477,-0.415922 0,-0.12065 0.0381,-0.2286 0.10795,-0.32385 0.0699,-0.09525 0.16827,-0.142875 0.29527,-0.149225 0.0857,0 0.1651,0.0254 0.23813,0.0762 0.0699,0.05397 0.127,0.1143 0.16827,0.1778 0,0.03493 -0.003,0.06985 -0.003,0.1016 0,0.03175 0,0.06668 0,0.09843 -0.003,0.05397 -0.003,0.104775 -0.003,0.155575 0,0.0508 0.003,0.101602 0.003,0.146052 -0.0191,0.0318 -0.0381,0.0635 -0.0572,0.0953 -0.0222,0.0349 -0.0476,0.0667 -0.0762,0.0921 -0.0318,0.0286 -0.0667,0.0508 -0.10795,0.0667 -0.0444,0.019 -0.0952,0.0254 -0.15558,0.0254 z m 0.7366,0.12383 c 0,-0.0191 0,-0.0413 -0.006,-0.0635 -0.006,-0.0191 -0.0127,-0.0508 -0.0222,-0.0921 -0.006,-0.0413 -0.0159,-0.0984 -0.0254,-0.17145 -0.006,-0.073 -0.0127,-0.17145 -0.0159,-0.295272 0,-0.08572 0.003,-0.19685 0.006,-0.3302 0.003,-0.13335 0.006,-0.269875 0.01,-0.4064 0.003,-0.136525 0.006,-0.263525 0.0127,-0.384175 0.006,-0.117475 0.01,-0.2032 0.01,-0.257175 0.006,-0.0762 -0.006,-0.123825 -0.0317,-0.14605 -0.0254,-0.02223 -0.0572,-0.03493 -0.0921,-0.0381 -0.0317,0 -0.0667,0.0127 -0.0984,0.03493 -0.0317,0.0254 -0.054,0.07303 -0.0603,0.149225 -0.003,0.05715 -0.006,0.149225 -0.01,0.276225 -0.003,0.130175 -0.006,0.27305 -0.01,0.4318 -0.0508,-0.03493 -0.11748,-0.0635 -0.19368,-0.0889 -0.0762,-0.0254 -0.1651,-0.0381 -0.26352,-0.0381 -0.0984,0.0032 -0.18733,0.02223 -0.26988,0.05715 -0.0794,0.0381 -0.14605,0.08573 -0.2032,0.149225 -0.0572,0.0635 -0.0984,0.1397 -0.13017,0.225425 -0.0286,0.08573 -0.0413,0.1778 -0.0381,0.276225 -0.003,0.1397 0.0159,0.263517 0.054,0.371467 0.0381,0.10795 0.0889,0.19685 0.1524,0.2667 0.0635,0.0699 0.13335,0.12383 0.2159,0.15875 0.0825,0.0381 0.16193,0.054 0.24448,0.054 0.12065,0 0.21272,-0.0222 0.2794,-0.0699 0.0667,-0.0476 0.12065,-0.1016 0.16192,-0.16193 0.006,0.0699 0.0222,0.12383 0.0508,0.16828 0.0254,0.0444 0.073,0.0603 0.1397,0.0476 0.0317,-0.006 0.0603,-0.0159 0.0857,-0.0349 0.0254,-0.0191 0.0413,-0.0476 0.0476,-0.0889 z"
       id="text4647"
       style="font-size:3.175px;font-family:'ComicShannsMono Nerd Font Mono';-inkscape-font-specification:'ComicShannsMono Nerd Font Mono';stroke-width:0.264583"
       aria-label="loud" /></g></svg>
