%TF.GenerationSoftware,KiCad,Pcbnew,10.0.4*%
%TF.CreationDate,2026-07-10T17:57:48+01:00*%
%TF.ProjectId,audio-breakout,61756469-6f2d-4627-9265-616b6f75742e,rev?*%
%TF.SameCoordinates,Original*%
%TF.FileFunction,Legend,Top*%
%TF.FilePolarity,Positive*%
%FSLAX46Y46*%
G04 Gerber Fmt 4.6, Leading zero omitted, Abs format (unit mm)*
G04 Created by KiCad (PCBNEW 10.0.4) date 2026-07-10 17:57:48*
%MOMM*%
%LPD*%
G01*
G04 APERTURE LIST*
G04 Aperture macros list*
%AMRoundRect*
0 Rectangle with rounded corners*
0 $1 Rounding radius*
0 $2 $3 $4 $5 $6 $7 $8 $9 X,Y pos of 4 corners*
0 Add a 4 corners polygon primitive as box body*
4,1,4,$2,$3,$4,$5,$6,$7,$8,$9,$2,$3,0*
0 Add four circle primitives for the rounded corners*
1,1,$1+$1,$2,$3*
1,1,$1+$1,$4,$5*
1,1,$1+$1,$6,$7*
1,1,$1+$1,$8,$9*
0 Add four rect primitives between the rounded corners*
20,1,$1+$1,$2,$3,$4,$5,0*
20,1,$1+$1,$4,$5,$6,$7,0*
20,1,$1+$1,$6,$7,$8,$9,0*
20,1,$1+$1,$8,$9,$2,$3,0*%
G04 Aperture macros list end*
%ADD10C,0.000000*%
%ADD11C,0.100000*%
%ADD12C,0.120000*%
%ADD13RoundRect,0.135000X0.135000X0.185000X-0.135000X0.185000X-0.135000X-0.185000X0.135000X-0.185000X0*%
%ADD14RoundRect,0.135000X-0.135000X-0.185000X0.135000X-0.185000X0.135000X0.185000X-0.135000X0.185000X0*%
%ADD15RoundRect,0.135000X-0.185000X0.135000X-0.185000X-0.135000X0.185000X-0.135000X0.185000X0.135000X0*%
%ADD16RoundRect,0.140000X0.140000X0.170000X-0.140000X0.170000X-0.140000X-0.170000X0.140000X-0.170000X0*%
%ADD17RoundRect,0.140000X0.170000X-0.140000X0.170000X0.140000X-0.170000X0.140000X-0.170000X-0.140000X0*%
%ADD18RoundRect,0.140000X-0.170000X0.140000X-0.170000X-0.140000X0.170000X-0.140000X0.170000X0.140000X0*%
%ADD19RoundRect,0.140000X-0.140000X-0.170000X0.140000X-0.170000X0.140000X0.170000X-0.140000X0.170000X0*%
%ADD20R,2.800000X2.800000*%
%ADD21R,2.200000X2.800000*%
%ADD22C,1.700000*%
%ADD23RoundRect,0.102000X-0.375000X-0.100000X0.375000X-0.100000X0.375000X0.100000X-0.375000X0.100000X0*%
%ADD24RoundRect,0.102000X-0.100000X-0.375000X0.100000X-0.375000X0.100000X0.375000X-0.100000X0.375000X0*%
%ADD25RoundRect,0.102000X-0.900000X-0.900000X0.900000X-0.900000X0.900000X0.900000X-0.900000X0.900000X0*%
%ADD26R,1.700000X1.700000*%
G04 APERTURE END LIST*
D10*
G36*
X149827690Y-51400000D02*
G01*
X149830693Y-51400284D01*
X149833600Y-51400743D01*
X149836419Y-51401363D01*
X149839159Y-51402132D01*
X149841830Y-51403037D01*
X149844440Y-51404066D01*
X149846999Y-51405205D01*
X149849516Y-51406443D01*
X149852001Y-51407767D01*
X149854461Y-51409163D01*
X149856907Y-51410619D01*
X149866724Y-51416794D01*
X149869052Y-51418475D01*
X149871295Y-51420342D01*
X149873460Y-51422381D01*
X149875549Y-51424581D01*
X149877567Y-51426930D01*
X149879518Y-51429414D01*
X149881406Y-51432022D01*
X149883236Y-51434741D01*
X149885011Y-51437559D01*
X149886735Y-51440463D01*
X149890048Y-51446483D01*
X149893208Y-51452701D01*
X149896247Y-51459018D01*
X149902401Y-51462186D01*
X149905342Y-51463772D01*
X149908189Y-51465359D01*
X149910941Y-51466946D01*
X149913595Y-51468533D01*
X149916148Y-51470121D01*
X149918600Y-51471707D01*
X149920947Y-51473293D01*
X149923188Y-51474878D01*
X149925319Y-51476462D01*
X149927340Y-51478044D01*
X149929248Y-51479625D01*
X149931041Y-51481203D01*
X149932716Y-51482778D01*
X149934272Y-51484351D01*
X149935953Y-51486727D01*
X149937511Y-51489104D01*
X149938949Y-51491481D01*
X149940269Y-51493859D01*
X149941472Y-51496236D01*
X149942561Y-51498614D01*
X149943537Y-51500991D01*
X149944402Y-51503368D01*
X149945158Y-51505745D01*
X149945807Y-51508121D01*
X149946352Y-51510496D01*
X149946792Y-51512870D01*
X149947132Y-51515244D01*
X149947372Y-51517616D01*
X149947515Y-51519986D01*
X149947562Y-51522355D01*
X149944563Y-51543347D01*
X149941508Y-51568398D01*
X149938476Y-51597605D01*
X149935545Y-51631067D01*
X149932795Y-51668884D01*
X149930305Y-51711154D01*
X149928153Y-51757976D01*
X149926419Y-51809447D01*
X149920586Y-51918696D01*
X149916137Y-52031107D01*
X149909538Y-52265429D01*
X149904059Y-52499754D01*
X149902250Y-52612166D01*
X149901563Y-52721410D01*
X149901563Y-52995841D01*
X149901563Y-53185832D01*
X149901563Y-53333599D01*
X149901563Y-53481365D01*
X149901735Y-53500580D01*
X149902188Y-53520289D01*
X149903562Y-53561589D01*
X149904936Y-53606055D01*
X149905389Y-53629721D01*
X149905561Y-53654475D01*
X149905561Y-53878230D01*
X149905739Y-53903560D01*
X149906245Y-53928892D01*
X149908049Y-53979556D01*
X149910603Y-54030220D01*
X149913535Y-54080882D01*
X150103516Y-54086365D01*
X150189011Y-54088171D01*
X150268174Y-54088857D01*
X150304586Y-54090173D01*
X150337885Y-54091162D01*
X150395341Y-54092345D01*
X150440935Y-54092781D01*
X150475058Y-54092844D01*
X150489064Y-54093042D01*
X150502563Y-54093635D01*
X150515542Y-54094625D01*
X150527989Y-54096011D01*
X150539891Y-54097792D01*
X150551236Y-54099969D01*
X150562011Y-54102543D01*
X150572204Y-54105511D01*
X150581802Y-54108876D01*
X150590792Y-54112636D01*
X150599163Y-54116793D01*
X150603112Y-54119019D01*
X150606901Y-54121345D01*
X150610528Y-54123769D01*
X150613993Y-54126292D01*
X150617294Y-54128914D01*
X150620428Y-54131636D01*
X150623395Y-54134456D01*
X150626193Y-54137375D01*
X150628820Y-54140393D01*
X150631275Y-54143509D01*
X150635893Y-54149844D01*
X150640222Y-54156178D01*
X150644269Y-54162512D01*
X150648038Y-54168846D01*
X150651535Y-54175179D01*
X150654765Y-54181513D01*
X150657733Y-54187846D01*
X150660446Y-54194179D01*
X150662907Y-54200512D01*
X150665123Y-54206845D01*
X150667099Y-54213178D01*
X150668840Y-54219510D01*
X150670351Y-54225843D01*
X150671638Y-54232176D01*
X150672707Y-54238508D01*
X150673561Y-54244841D01*
X150673412Y-54253515D01*
X150672963Y-54262087D01*
X150672217Y-54270557D01*
X150671172Y-54278926D01*
X150669830Y-54287193D01*
X150668191Y-54295359D01*
X150666254Y-54303425D01*
X150664022Y-54311392D01*
X150661493Y-54319258D01*
X150658669Y-54327025D01*
X150655549Y-54334694D01*
X150652135Y-54342263D01*
X150648426Y-54349735D01*
X150644423Y-54357109D01*
X150640126Y-54364386D01*
X150635536Y-54371566D01*
X150630395Y-54378449D01*
X150624473Y-54384843D01*
X150617785Y-54390754D01*
X150610342Y-54396188D01*
X150602156Y-54401152D01*
X150593241Y-54405652D01*
X150583608Y-54409694D01*
X150573269Y-54413283D01*
X150562238Y-54416428D01*
X150550527Y-54419133D01*
X150538147Y-54421404D01*
X150525111Y-54423249D01*
X150511432Y-54424673D01*
X150497122Y-54425682D01*
X150482193Y-54426284D01*
X150466657Y-54426483D01*
X150209108Y-54426483D01*
X149765799Y-54422495D01*
X149284485Y-54418508D01*
X149171941Y-54417885D01*
X149074439Y-54416515D01*
X148991184Y-54415144D01*
X148921384Y-54414521D01*
X148909759Y-54414323D01*
X148898621Y-54413729D01*
X148887965Y-54412740D01*
X148877783Y-54411354D01*
X148868070Y-54409573D01*
X148858821Y-54407395D01*
X148850030Y-54404822D01*
X148841690Y-54401854D01*
X148833796Y-54398489D01*
X148830014Y-54396658D01*
X148826342Y-54394728D01*
X148822778Y-54392700D01*
X148819322Y-54390572D01*
X148815973Y-54388346D01*
X148812730Y-54386020D01*
X148809593Y-54383596D01*
X148806561Y-54381073D01*
X148803633Y-54378450D01*
X148800809Y-54375729D01*
X148798087Y-54372909D01*
X148795467Y-54369990D01*
X148792948Y-54366972D01*
X148790530Y-54363856D01*
X148786026Y-54357427D01*
X148781794Y-54350814D01*
X148777836Y-54344028D01*
X148774153Y-54337083D01*
X148770750Y-54329989D01*
X148767629Y-54322760D01*
X148764792Y-54315406D01*
X148762242Y-54307941D01*
X148759982Y-54300376D01*
X148758014Y-54292723D01*
X148756342Y-54284995D01*
X148754968Y-54277203D01*
X148753895Y-54269360D01*
X148753124Y-54261477D01*
X148752660Y-54253567D01*
X148752505Y-54245642D01*
X148751906Y-54237738D01*
X148751697Y-54229834D01*
X148751871Y-54221930D01*
X148752422Y-54214025D01*
X148753345Y-54206119D01*
X148754633Y-54198212D01*
X148756280Y-54190304D01*
X148758280Y-54182395D01*
X148760628Y-54174484D01*
X148763317Y-54166572D01*
X148766342Y-54158657D01*
X148769697Y-54150741D01*
X148773374Y-54142822D01*
X148777370Y-54134900D01*
X148781676Y-54126976D01*
X148786289Y-54119049D01*
X148791291Y-54112140D01*
X148796787Y-54105630D01*
X148802776Y-54099525D01*
X148809258Y-54093833D01*
X148816235Y-54088559D01*
X148823705Y-54083710D01*
X148831669Y-54079292D01*
X148840128Y-54075313D01*
X148849080Y-54071777D01*
X148858528Y-54068692D01*
X148868470Y-54066064D01*
X148878906Y-54063899D01*
X148889838Y-54062204D01*
X148901265Y-54060986D01*
X148913187Y-54060250D01*
X148925604Y-54060003D01*
X148924955Y-54060399D01*
X149212047Y-54064386D01*
X149532923Y-54068373D01*
X149532923Y-53950160D01*
X149528926Y-53810824D01*
X149526615Y-53730873D01*
X149525428Y-53636670D01*
X149524929Y-53405509D01*
X149525428Y-53136885D01*
X149526615Y-52996437D01*
X149528926Y-52852427D01*
X149529610Y-52706036D01*
X149531414Y-52558462D01*
X149536900Y-52261340D01*
X149550191Y-51746252D01*
X149501906Y-51749304D01*
X149452040Y-51751991D01*
X149400583Y-51753904D01*
X149374255Y-51754442D01*
X149347528Y-51754632D01*
X149085758Y-51754632D01*
X149074089Y-51754432D01*
X149062819Y-51753824D01*
X149051955Y-51752796D01*
X149041503Y-51751335D01*
X149031470Y-51749428D01*
X149021863Y-51747064D01*
X149017221Y-51745707D01*
X149012688Y-51744230D01*
X149008264Y-51742633D01*
X149003952Y-51740913D01*
X148999750Y-51739070D01*
X148995661Y-51737102D01*
X148991685Y-51735007D01*
X148987823Y-51732783D01*
X148984075Y-51730430D01*
X148980443Y-51727945D01*
X148976928Y-51725327D01*
X148973530Y-51722575D01*
X148970249Y-51719686D01*
X148967088Y-51716660D01*
X148964046Y-51713495D01*
X148961125Y-51710189D01*
X148958326Y-51706740D01*
X148955648Y-51703148D01*
X148953094Y-51699410D01*
X148950663Y-51695526D01*
X148945240Y-51688352D01*
X148940238Y-51681080D01*
X148935653Y-51673708D01*
X148931482Y-51666237D01*
X148927723Y-51658667D01*
X148924372Y-51650998D01*
X148921427Y-51643230D01*
X148918883Y-51635363D01*
X148916738Y-51627397D01*
X148914990Y-51619331D01*
X148913634Y-51611167D01*
X148912668Y-51602904D01*
X148912088Y-51594542D01*
X148911892Y-51586081D01*
X148912077Y-51577520D01*
X148912639Y-51568861D01*
X148912788Y-51561786D01*
X148913236Y-51554803D01*
X148913983Y-51547907D01*
X148915028Y-51541091D01*
X148916370Y-51534350D01*
X148918009Y-51527676D01*
X148919945Y-51521064D01*
X148922178Y-51514508D01*
X148924706Y-51508001D01*
X148927531Y-51501538D01*
X148930650Y-51495111D01*
X148934065Y-51488716D01*
X148937773Y-51482345D01*
X148941776Y-51475993D01*
X148946073Y-51469653D01*
X148950663Y-51463320D01*
X148955646Y-51457185D01*
X148961112Y-51451446D01*
X148967050Y-51446103D01*
X148973446Y-51441155D01*
X148980289Y-51436603D01*
X148987567Y-51432447D01*
X148995267Y-51428687D01*
X149003376Y-51425322D01*
X149011882Y-51422353D01*
X149020774Y-51419780D01*
X149030038Y-51417603D01*
X149039663Y-51415822D01*
X149049635Y-51414436D01*
X149059944Y-51413446D01*
X149070575Y-51412853D01*
X149081518Y-51412655D01*
X149174068Y-51412588D01*
X149255142Y-51412123D01*
X149324342Y-51410861D01*
X149354365Y-51409807D01*
X149381271Y-51408404D01*
X149406187Y-51408221D01*
X149430209Y-51407740D01*
X149475184Y-51406278D01*
X149515422Y-51404817D01*
X149533523Y-51404336D01*
X149550150Y-51404153D01*
X149565944Y-51403970D01*
X149581649Y-51403489D01*
X149612391Y-51402027D01*
X149641566Y-51400566D01*
X149655313Y-51400085D01*
X149668363Y-51399902D01*
X149824581Y-51399902D01*
X149827690Y-51400000D01*
G37*
G36*
X152066999Y-52329267D02*
G01*
X152088230Y-52330009D01*
X152109373Y-52331245D01*
X152130435Y-52332977D01*
X152151423Y-52335202D01*
X152172342Y-52337923D01*
X152193200Y-52341139D01*
X152214003Y-52344849D01*
X152234757Y-52349054D01*
X152255469Y-52353754D01*
X152276144Y-52358948D01*
X152296791Y-52364638D01*
X152317414Y-52370823D01*
X152338021Y-52377502D01*
X152358618Y-52384677D01*
X152379212Y-52392347D01*
X152399598Y-52400608D01*
X152419601Y-52409550D01*
X152439232Y-52419159D01*
X152458504Y-52429424D01*
X152477430Y-52440333D01*
X152496022Y-52451872D01*
X152514293Y-52464029D01*
X152532254Y-52476792D01*
X152549918Y-52490149D01*
X152567298Y-52504088D01*
X152584407Y-52518595D01*
X152601255Y-52533658D01*
X152617857Y-52549266D01*
X152634224Y-52565405D01*
X152650369Y-52582064D01*
X152666304Y-52599230D01*
X152681138Y-52616991D01*
X152695574Y-52635445D01*
X152709605Y-52654592D01*
X152723224Y-52674432D01*
X152736423Y-52694964D01*
X152749198Y-52716189D01*
X152761540Y-52738106D01*
X152773444Y-52760717D01*
X152784901Y-52784020D01*
X152795907Y-52808016D01*
X152806453Y-52832705D01*
X152816534Y-52858086D01*
X152826142Y-52884161D01*
X152835271Y-52910928D01*
X152843914Y-52938388D01*
X152852065Y-52966541D01*
X152866826Y-53024925D01*
X152879113Y-53086079D01*
X152888959Y-53150002D01*
X152896397Y-53216697D01*
X152901460Y-53286162D01*
X152904181Y-53358397D01*
X152904594Y-53433404D01*
X152902730Y-53511182D01*
X152898028Y-53568923D01*
X152891841Y-53624994D01*
X152884170Y-53679408D01*
X152875015Y-53732176D01*
X152864376Y-53783312D01*
X152852252Y-53832828D01*
X152838645Y-53880736D01*
X152823554Y-53927048D01*
X152806978Y-53971776D01*
X152788919Y-54014934D01*
X152769376Y-54056534D01*
X152748349Y-54096587D01*
X152725838Y-54135106D01*
X152701843Y-54172104D01*
X152676364Y-54207592D01*
X152649402Y-54241584D01*
X152619867Y-54273748D01*
X152588253Y-54303736D01*
X152554561Y-54331554D01*
X152518790Y-54357211D01*
X152480941Y-54380713D01*
X152441014Y-54402067D01*
X152399008Y-54421282D01*
X152354924Y-54438364D01*
X152308762Y-54453321D01*
X152260521Y-54466160D01*
X152210203Y-54476889D01*
X152157806Y-54485515D01*
X152103332Y-54492044D01*
X152046779Y-54496486D01*
X151988149Y-54498846D01*
X151927441Y-54499133D01*
X151927380Y-54499214D01*
X151902247Y-54498819D01*
X151877511Y-54497642D01*
X151853169Y-54495696D01*
X151829224Y-54492994D01*
X151805674Y-54489549D01*
X151782520Y-54485373D01*
X151759762Y-54480479D01*
X151737399Y-54474881D01*
X151715432Y-54468591D01*
X151693860Y-54461621D01*
X151672684Y-54453986D01*
X151651904Y-54445697D01*
X151631520Y-54436767D01*
X151611531Y-54427210D01*
X151591938Y-54417037D01*
X151572740Y-54406263D01*
X151553148Y-54394981D01*
X151533951Y-54383296D01*
X151515151Y-54371203D01*
X151496748Y-54358694D01*
X151478740Y-54345765D01*
X151461128Y-54332408D01*
X151443912Y-54318619D01*
X151427092Y-54304391D01*
X151410667Y-54289718D01*
X151394637Y-54274595D01*
X151379002Y-54259014D01*
X151363762Y-54242970D01*
X151348918Y-54226458D01*
X151334467Y-54209470D01*
X151320412Y-54192002D01*
X151306751Y-54174047D01*
X151293502Y-54155693D01*
X151280647Y-54137038D01*
X151268186Y-54118073D01*
X151256118Y-54098794D01*
X151244445Y-54079193D01*
X151233166Y-54059264D01*
X151222281Y-54039000D01*
X151211790Y-54018396D01*
X151201695Y-53997445D01*
X151191994Y-53976139D01*
X151182688Y-53954474D01*
X151173778Y-53932442D01*
X151165263Y-53910037D01*
X151157143Y-53887253D01*
X151149420Y-53864082D01*
X151142092Y-53840520D01*
X151129020Y-53792823D01*
X151117846Y-53744730D01*
X151108582Y-53696242D01*
X151101244Y-53647358D01*
X151095846Y-53598078D01*
X151092401Y-53548403D01*
X151091380Y-53513816D01*
X151495427Y-53513816D01*
X151496077Y-53549834D01*
X151497616Y-53585061D01*
X151500044Y-53619496D01*
X151503362Y-53653140D01*
X151507568Y-53685992D01*
X151512665Y-53718053D01*
X151518651Y-53749322D01*
X151525527Y-53779799D01*
X151533293Y-53809485D01*
X151541950Y-53838379D01*
X151551497Y-53866482D01*
X151561935Y-53893793D01*
X151573263Y-53920313D01*
X151585483Y-53946041D01*
X151598991Y-53970684D01*
X151614194Y-53993937D01*
X151631103Y-54015788D01*
X151649732Y-54036221D01*
X151670093Y-54055222D01*
X151692197Y-54072776D01*
X151716058Y-54088869D01*
X151741688Y-54103487D01*
X151769099Y-54116616D01*
X151798303Y-54128239D01*
X151829314Y-54138345D01*
X151862143Y-54146917D01*
X151896802Y-54153941D01*
X151933305Y-54159404D01*
X151971664Y-54163290D01*
X152011890Y-54165586D01*
X152011870Y-54165596D01*
X152026800Y-54166177D01*
X152041506Y-54166335D01*
X152055989Y-54166070D01*
X152070246Y-54165380D01*
X152084278Y-54164264D01*
X152098084Y-54162719D01*
X152111662Y-54160744D01*
X152125013Y-54158338D01*
X152138135Y-54155499D01*
X152151027Y-54152225D01*
X152163688Y-54148516D01*
X152176119Y-54144369D01*
X152188318Y-54139783D01*
X152200284Y-54134756D01*
X152212016Y-54129287D01*
X152223514Y-54123375D01*
X152234777Y-54117017D01*
X152245804Y-54110212D01*
X152256595Y-54102959D01*
X152267147Y-54095256D01*
X152277462Y-54087102D01*
X152287538Y-54078494D01*
X152297373Y-54069432D01*
X152306969Y-54059914D01*
X152316322Y-54049938D01*
X152325434Y-54039503D01*
X152334302Y-54028608D01*
X152342927Y-54017250D01*
X152351307Y-54005428D01*
X152359441Y-53993140D01*
X152367330Y-53980386D01*
X152374971Y-53967164D01*
X152388865Y-53940643D01*
X152402066Y-53913325D01*
X152414558Y-53885203D01*
X152426328Y-53856271D01*
X152437359Y-53826522D01*
X152447638Y-53795951D01*
X152457150Y-53764551D01*
X152465881Y-53732316D01*
X152473815Y-53699240D01*
X152480938Y-53665316D01*
X152487235Y-53630540D01*
X152492692Y-53594903D01*
X152497295Y-53558400D01*
X152501027Y-53521025D01*
X152503876Y-53482772D01*
X152505825Y-53443635D01*
X152506820Y-53390743D01*
X152506619Y-53339732D01*
X152505217Y-53290601D01*
X152502608Y-53243351D01*
X152498786Y-53197980D01*
X152493744Y-53154490D01*
X152487478Y-53112880D01*
X152479980Y-53073151D01*
X152471246Y-53035301D01*
X152461268Y-52999332D01*
X152450042Y-52965242D01*
X152437561Y-52933033D01*
X152423820Y-52902703D01*
X152408811Y-52874254D01*
X152392530Y-52847685D01*
X152374971Y-52822995D01*
X152356415Y-52800731D01*
X152337161Y-52779858D01*
X152317202Y-52760383D01*
X152296532Y-52742312D01*
X152275145Y-52725652D01*
X152253034Y-52710408D01*
X152230193Y-52696586D01*
X152206617Y-52684193D01*
X152182299Y-52673235D01*
X152157232Y-52663718D01*
X152131410Y-52655648D01*
X152104828Y-52649032D01*
X152077479Y-52643875D01*
X152049357Y-52640184D01*
X152020455Y-52637965D01*
X151990768Y-52637224D01*
X151975850Y-52637447D01*
X151961179Y-52638113D01*
X151946754Y-52639221D01*
X151932573Y-52640770D01*
X151918636Y-52642758D01*
X151904943Y-52645184D01*
X151891493Y-52648046D01*
X151878285Y-52651342D01*
X151865317Y-52655071D01*
X151852590Y-52659231D01*
X151840103Y-52663822D01*
X151827854Y-52668840D01*
X151815844Y-52674286D01*
X151804071Y-52680156D01*
X151792535Y-52686450D01*
X151781234Y-52693167D01*
X151770169Y-52700303D01*
X151759338Y-52707859D01*
X151748740Y-52715833D01*
X151738376Y-52724222D01*
X151728243Y-52733025D01*
X151718342Y-52742242D01*
X151708671Y-52751869D01*
X151699230Y-52761906D01*
X151681035Y-52783204D01*
X151663751Y-52806122D01*
X151647370Y-52830648D01*
X151631887Y-52856769D01*
X151617247Y-52885019D01*
X151603393Y-52914358D01*
X151590334Y-52944786D01*
X151578079Y-52976302D01*
X151566637Y-53008907D01*
X151556015Y-53042600D01*
X151546222Y-53077382D01*
X151537267Y-53113253D01*
X151529158Y-53150212D01*
X151521904Y-53188259D01*
X151515512Y-53227395D01*
X151509991Y-53267620D01*
X151505351Y-53308933D01*
X151501599Y-53351335D01*
X151498743Y-53394825D01*
X151496792Y-53439404D01*
X151495665Y-53477006D01*
X151495427Y-53513816D01*
X151091380Y-53513816D01*
X151090923Y-53498332D01*
X151091426Y-53447865D01*
X151092240Y-53389688D01*
X151094745Y-53332353D01*
X151099035Y-53275908D01*
X151105206Y-53220404D01*
X151113353Y-53165889D01*
X151118196Y-53139018D01*
X151123570Y-53112413D01*
X151129484Y-53086080D01*
X151135952Y-53060026D01*
X151142984Y-53034256D01*
X151150594Y-53008776D01*
X151158710Y-52983642D01*
X151167229Y-52958903D01*
X151176157Y-52934561D01*
X151185500Y-52910614D01*
X151195263Y-52887063D01*
X151205453Y-52863908D01*
X151216076Y-52841149D01*
X151227138Y-52818786D01*
X151238644Y-52796818D01*
X151250602Y-52775247D01*
X151263016Y-52754071D01*
X151275894Y-52733290D01*
X151289240Y-52712906D01*
X151303062Y-52692917D01*
X151317365Y-52673324D01*
X151332154Y-52654126D01*
X151347440Y-52635421D01*
X151363214Y-52617298D01*
X151379472Y-52599743D01*
X151396205Y-52582746D01*
X151413409Y-52566292D01*
X151431077Y-52550371D01*
X151449202Y-52534968D01*
X151467779Y-52520074D01*
X151486802Y-52505674D01*
X151506264Y-52491756D01*
X151526158Y-52478308D01*
X151546479Y-52465319D01*
X151567221Y-52452774D01*
X151588377Y-52440663D01*
X151609942Y-52428972D01*
X151631908Y-52417690D01*
X151654323Y-52406953D01*
X151677225Y-52396910D01*
X151700610Y-52387558D01*
X151724470Y-52378899D01*
X151748800Y-52370933D01*
X151773594Y-52363659D01*
X151798845Y-52357078D01*
X151824547Y-52351190D01*
X151850694Y-52345994D01*
X151877281Y-52341491D01*
X151904300Y-52337680D01*
X151931746Y-52334562D01*
X151959612Y-52332137D01*
X151987893Y-52330405D01*
X152016583Y-52329366D01*
X152045674Y-52329020D01*
X152066999Y-52329267D01*
G37*
G36*
X154996308Y-52405266D02*
G01*
X155005008Y-52405852D01*
X155013710Y-52406822D01*
X155022415Y-52408170D01*
X155031123Y-52409888D01*
X155039833Y-52411972D01*
X155048544Y-52414413D01*
X155057256Y-52417208D01*
X155065968Y-52420348D01*
X155074681Y-52423829D01*
X155083393Y-52427643D01*
X155092104Y-52431785D01*
X155100813Y-52436248D01*
X155109521Y-52441027D01*
X155118226Y-52446114D01*
X155126929Y-52451504D01*
X155134656Y-52457987D01*
X155141972Y-52464766D01*
X155148865Y-52471842D01*
X155155322Y-52479214D01*
X155161333Y-52486883D01*
X155166884Y-52494849D01*
X155171963Y-52503112D01*
X155176560Y-52511671D01*
X155180660Y-52520527D01*
X155184253Y-52529679D01*
X155187327Y-52539129D01*
X155189868Y-52548875D01*
X155191866Y-52558918D01*
X155193308Y-52569259D01*
X155194182Y-52579896D01*
X155194476Y-52590830D01*
X155197715Y-52612401D01*
X155200473Y-52635951D01*
X155202765Y-52661480D01*
X155204606Y-52688988D01*
X155206012Y-52718475D01*
X155206997Y-52749942D01*
X155207577Y-52783389D01*
X155207767Y-52818815D01*
X155207945Y-52854827D01*
X155208450Y-52889998D01*
X155210255Y-52957617D01*
X155212808Y-53021277D01*
X155215741Y-53080585D01*
X155221738Y-53250782D01*
X155225871Y-53413066D01*
X155228261Y-53567434D01*
X155229031Y-53713886D01*
X155229031Y-54271188D01*
X155228786Y-54285931D01*
X155228054Y-54300081D01*
X155226841Y-54313637D01*
X155225152Y-54326601D01*
X155222995Y-54338971D01*
X155220375Y-54350748D01*
X155217297Y-54361931D01*
X155213767Y-54372520D01*
X155209793Y-54382515D01*
X155205378Y-54391916D01*
X155200529Y-54400722D01*
X155197944Y-54404903D01*
X155195253Y-54408935D01*
X155192456Y-54412818D01*
X155189554Y-54416552D01*
X155186549Y-54420138D01*
X155183440Y-54423575D01*
X155180228Y-54426864D01*
X155176915Y-54430003D01*
X155173500Y-54432994D01*
X155169985Y-54435837D01*
X155162807Y-54441971D01*
X155155534Y-54447710D01*
X155148174Y-54453054D01*
X155140734Y-54458001D01*
X155133219Y-54462553D01*
X155125636Y-54466709D01*
X155117992Y-54470470D01*
X155110293Y-54473835D01*
X155102546Y-54476803D01*
X155094757Y-54479376D01*
X155086933Y-54481554D01*
X155079080Y-54483335D01*
X155071205Y-54484721D01*
X155063314Y-54485710D01*
X155055414Y-54486304D01*
X155047511Y-54486502D01*
X155037262Y-54487100D01*
X155027113Y-54487299D01*
X155017064Y-54487101D01*
X155007115Y-54486504D01*
X154997266Y-54485511D01*
X154987516Y-54484120D01*
X154977867Y-54482333D01*
X154968317Y-54480150D01*
X154958867Y-54477571D01*
X154949517Y-54474597D01*
X154940267Y-54471227D01*
X154931116Y-54467463D01*
X154922066Y-54463305D01*
X154913115Y-54458752D01*
X154904265Y-54453807D01*
X154895514Y-54448467D01*
X154887108Y-54442580D01*
X154879288Y-54436001D01*
X154872049Y-54428730D01*
X154865383Y-54420767D01*
X154859285Y-54412111D01*
X154853749Y-54402763D01*
X154848769Y-54392722D01*
X154844338Y-54381988D01*
X154840452Y-54370561D01*
X154837103Y-54358440D01*
X154834286Y-54345626D01*
X154831995Y-54332118D01*
X154830224Y-54317917D01*
X154828966Y-54303021D01*
X154828215Y-54287432D01*
X154827966Y-54271148D01*
X154828819Y-54165738D01*
X154794188Y-54192649D01*
X154756785Y-54219510D01*
X154716610Y-54246270D01*
X154673664Y-54272880D01*
X154627947Y-54299292D01*
X154579460Y-54325455D01*
X154528204Y-54351322D01*
X154474179Y-54376842D01*
X154445681Y-54389067D01*
X154417170Y-54400409D01*
X154388634Y-54410857D01*
X154360061Y-54420402D01*
X154331438Y-54429036D01*
X154302752Y-54436750D01*
X154273993Y-54443534D01*
X154245146Y-54449379D01*
X154216200Y-54454277D01*
X154187143Y-54458219D01*
X154157962Y-54461195D01*
X154128644Y-54463197D01*
X154099179Y-54464216D01*
X154069552Y-54464242D01*
X154039752Y-54463267D01*
X154009767Y-54461281D01*
X153996348Y-54459539D01*
X153983038Y-54457498D01*
X153969844Y-54455150D01*
X153956769Y-54452489D01*
X153943821Y-54449508D01*
X153931005Y-54446201D01*
X153918326Y-54442561D01*
X153905790Y-54438582D01*
X153893403Y-54434257D01*
X153881170Y-54429579D01*
X153869097Y-54424541D01*
X153857189Y-54419138D01*
X153845452Y-54413362D01*
X153833892Y-54407207D01*
X153822514Y-54400667D01*
X153811325Y-54393733D01*
X153799549Y-54386505D01*
X153787971Y-54379086D01*
X153776590Y-54371483D01*
X153765406Y-54363702D01*
X153754420Y-54355749D01*
X153743632Y-54347630D01*
X153733042Y-54339351D01*
X153722649Y-54330917D01*
X153712456Y-54322336D01*
X153702460Y-54313613D01*
X153692663Y-54304754D01*
X153683066Y-54295764D01*
X153673667Y-54286651D01*
X153664467Y-54277420D01*
X153655467Y-54268077D01*
X153646666Y-54258628D01*
X153629665Y-54237859D01*
X153613499Y-54216685D01*
X153598221Y-54195111D01*
X153590931Y-54184174D01*
X153583882Y-54173138D01*
X153577081Y-54162002D01*
X153570534Y-54150768D01*
X153564248Y-54139436D01*
X153558229Y-54128005D01*
X153552484Y-54116477D01*
X153547018Y-54104851D01*
X153541840Y-54093128D01*
X153536955Y-54081308D01*
X153527891Y-54056185D01*
X153519712Y-54031448D01*
X153512519Y-54007100D01*
X153509322Y-53995073D01*
X153506410Y-53983145D01*
X153503793Y-53971316D01*
X153501485Y-53959587D01*
X153499497Y-53947957D01*
X153497844Y-53936429D01*
X153496535Y-53925001D01*
X153495586Y-53913674D01*
X153495007Y-53902450D01*
X153494811Y-53891327D01*
X153488415Y-53809130D01*
X153483030Y-53727724D01*
X153480922Y-53687565D01*
X153479314Y-53647901D01*
X153478289Y-53608830D01*
X153477929Y-53570451D01*
X153475618Y-53491353D01*
X153474432Y-53412651D01*
X153473932Y-53258016D01*
X153474057Y-53161440D01*
X153474929Y-53068026D01*
X153475879Y-53022506D01*
X153477296Y-52977779D01*
X153479274Y-52933845D01*
X153481906Y-52890705D01*
X153484538Y-52848746D01*
X153486516Y-52808373D01*
X153487934Y-52769584D01*
X153488884Y-52732378D01*
X153489756Y-52662716D01*
X153489880Y-52599382D01*
X153490079Y-52586918D01*
X153490681Y-52574855D01*
X153491691Y-52563200D01*
X153493115Y-52551959D01*
X153494961Y-52541138D01*
X153497234Y-52530743D01*
X153499939Y-52520782D01*
X153503085Y-52511259D01*
X153506675Y-52502181D01*
X153510718Y-52493554D01*
X153515218Y-52485384D01*
X153517642Y-52481473D01*
X153520183Y-52477679D01*
X153522842Y-52474002D01*
X153525618Y-52470443D01*
X153528514Y-52467003D01*
X153531530Y-52463683D01*
X153534666Y-52460483D01*
X153537924Y-52457405D01*
X153541304Y-52454449D01*
X153544807Y-52451616D01*
X153551965Y-52446264D01*
X153559226Y-52441305D01*
X153566588Y-52436730D01*
X153574052Y-52432533D01*
X153581617Y-52428709D01*
X153589283Y-52425250D01*
X153597049Y-52422151D01*
X153604916Y-52419405D01*
X153612882Y-52417006D01*
X153620947Y-52414948D01*
X153629111Y-52413223D01*
X153637373Y-52411827D01*
X153645734Y-52410751D01*
X153654192Y-52409991D01*
X153662748Y-52409540D01*
X153671400Y-52409391D01*
X153680845Y-52409540D01*
X153690193Y-52409993D01*
X153699445Y-52410756D01*
X153708599Y-52411834D01*
X153717657Y-52413234D01*
X153726616Y-52414961D01*
X153735477Y-52417023D01*
X153744239Y-52419424D01*
X153752901Y-52422172D01*
X153761464Y-52425273D01*
X153769926Y-52428731D01*
X153778288Y-52432554D01*
X153786548Y-52436748D01*
X153794706Y-52441319D01*
X153802762Y-52446273D01*
X153810716Y-52451616D01*
X153818443Y-52457403D01*
X153825759Y-52463679D01*
X153832652Y-52470438D01*
X153839109Y-52477673D01*
X153845120Y-52485378D01*
X153850671Y-52493547D01*
X153855751Y-52502173D01*
X153860347Y-52511251D01*
X153864447Y-52520774D01*
X153868040Y-52530736D01*
X153871114Y-52541131D01*
X153873656Y-52551953D01*
X153875653Y-52563195D01*
X153877095Y-52574851D01*
X153877969Y-52586916D01*
X153878263Y-52599382D01*
X153878019Y-52624320D01*
X153877308Y-52651632D01*
X153874609Y-52713377D01*
X153870414Y-52784623D01*
X153864973Y-52865372D01*
X153862342Y-52908527D01*
X153860414Y-52952521D01*
X153859141Y-52997406D01*
X153858478Y-53043230D01*
X153858790Y-53137895D01*
X153860976Y-53236914D01*
X153861475Y-53391012D01*
X153862662Y-53468460D01*
X153864973Y-53545118D01*
X153865366Y-53583131D01*
X153866546Y-53621239D01*
X153868515Y-53659543D01*
X153871273Y-53698144D01*
X153874823Y-53737144D01*
X153879166Y-53776645D01*
X153884302Y-53816748D01*
X153890235Y-53857554D01*
X153892801Y-53876162D01*
X153895766Y-53893971D01*
X153899130Y-53910975D01*
X153902891Y-53927169D01*
X153907051Y-53942545D01*
X153911608Y-53957098D01*
X153916561Y-53970822D01*
X153921911Y-53983709D01*
X153927657Y-53995755D01*
X153933798Y-54006953D01*
X153937017Y-54012232D01*
X153940334Y-54017297D01*
X153943750Y-54022146D01*
X153947265Y-54026780D01*
X153950878Y-54031197D01*
X153954590Y-54035396D01*
X153958400Y-54039378D01*
X153962309Y-54043140D01*
X153966316Y-54046683D01*
X153970421Y-54050006D01*
X153974624Y-54053107D01*
X153978925Y-54055986D01*
X153987039Y-54060622D01*
X153995548Y-54065050D01*
X154004450Y-54069257D01*
X154013748Y-54073230D01*
X154023440Y-54076957D01*
X154033529Y-54080425D01*
X154044013Y-54083622D01*
X154054893Y-54086536D01*
X154066170Y-54089153D01*
X154077844Y-54091463D01*
X154089916Y-54093451D01*
X154102385Y-54095105D01*
X154115252Y-54096414D01*
X154128517Y-54097364D01*
X154142182Y-54097944D01*
X154156245Y-54098140D01*
X154179205Y-54097792D01*
X154202163Y-54096750D01*
X154225120Y-54095014D01*
X154248076Y-54092583D01*
X154271032Y-54089460D01*
X154293988Y-54085643D01*
X154316943Y-54081133D01*
X154339898Y-54075931D01*
X154362854Y-54070038D01*
X154385810Y-54063452D01*
X154408766Y-54056176D01*
X154431724Y-54048208D01*
X154454682Y-54039551D01*
X154477642Y-54030203D01*
X154500603Y-54020166D01*
X154523566Y-54009439D01*
X154568497Y-53987099D01*
X154611498Y-53964452D01*
X154652618Y-53941603D01*
X154691908Y-53918652D01*
X154729417Y-53895703D01*
X154765195Y-53872858D01*
X154799294Y-53850219D01*
X154831761Y-53827889D01*
X154835758Y-53553458D01*
X154831761Y-53236802D01*
X154827764Y-52894824D01*
X154820624Y-52727005D01*
X154814473Y-52590840D01*
X154814671Y-52579953D01*
X154815265Y-52569450D01*
X154816254Y-52559317D01*
X154817639Y-52549543D01*
X154819420Y-52540116D01*
X154821596Y-52531022D01*
X154824169Y-52522250D01*
X154827137Y-52513787D01*
X154830501Y-52505621D01*
X154834262Y-52497740D01*
X154838418Y-52490131D01*
X154842970Y-52482781D01*
X154847918Y-52475679D01*
X154853262Y-52468812D01*
X154859002Y-52462168D01*
X154865139Y-52455735D01*
X154871572Y-52450340D01*
X154878198Y-52445244D01*
X154885010Y-52440445D01*
X154892002Y-52435944D01*
X154899168Y-52431740D01*
X154906501Y-52427833D01*
X154913995Y-52424223D01*
X154921643Y-52420909D01*
X154929439Y-52417893D01*
X154937377Y-52415173D01*
X154945449Y-52412749D01*
X154953650Y-52410621D01*
X154961974Y-52408790D01*
X154970413Y-52407254D01*
X154978962Y-52406014D01*
X154987613Y-52405069D01*
X154996308Y-52405266D01*
G37*
G36*
X151330889Y-40802385D02*
G01*
X151340369Y-40802831D01*
X151349829Y-40803572D01*
X151359253Y-40804611D01*
X151368631Y-40805947D01*
X151377949Y-40807579D01*
X151387193Y-40809508D01*
X151396351Y-40811734D01*
X151405410Y-40814257D01*
X151414357Y-40817077D01*
X151423179Y-40820194D01*
X151431863Y-40823607D01*
X151440395Y-40827318D01*
X151448764Y-40831325D01*
X151456955Y-40835630D01*
X151464956Y-40840231D01*
X151473362Y-40846120D01*
X151481170Y-40852708D01*
X151488381Y-40860001D01*
X151494996Y-40868005D01*
X151501016Y-40876727D01*
X151506443Y-40886172D01*
X151511276Y-40896348D01*
X151515518Y-40907259D01*
X151519169Y-40918912D01*
X151522230Y-40931314D01*
X151524702Y-40944470D01*
X151526586Y-40958386D01*
X151527884Y-40973070D01*
X151528595Y-40988526D01*
X151528721Y-41004761D01*
X151528263Y-41021782D01*
X151528263Y-41384872D01*
X151524266Y-41954846D01*
X151553168Y-41936242D01*
X151582915Y-41918430D01*
X151613555Y-41901409D01*
X151645135Y-41885180D01*
X151677703Y-41869742D01*
X151711307Y-41855097D01*
X151745995Y-41841243D01*
X151781815Y-41828182D01*
X151820600Y-41816308D01*
X151860970Y-41806017D01*
X151902926Y-41797309D01*
X151946466Y-41790184D01*
X151991589Y-41784642D01*
X152038296Y-41780683D01*
X152086584Y-41778308D01*
X152136455Y-41777516D01*
X152161587Y-41778554D01*
X152186324Y-41780094D01*
X152210665Y-41782140D01*
X152234611Y-41784700D01*
X152258160Y-41787780D01*
X152281315Y-41791386D01*
X152304073Y-41795524D01*
X152326436Y-41800200D01*
X152348403Y-41805420D01*
X152369974Y-41811192D01*
X152391150Y-41817519D01*
X152411930Y-41824410D01*
X152432315Y-41831870D01*
X152452304Y-41839905D01*
X152471897Y-41848521D01*
X152491094Y-41857725D01*
X152510686Y-41867375D01*
X152529877Y-41877335D01*
X152548659Y-41887616D01*
X152567027Y-41898231D01*
X152584974Y-41909192D01*
X152602495Y-41920511D01*
X152619582Y-41932202D01*
X152636231Y-41944276D01*
X152652434Y-41956746D01*
X152668185Y-41969624D01*
X152683479Y-41982923D01*
X152698309Y-41996654D01*
X152712668Y-42010831D01*
X152726552Y-42025466D01*
X152739952Y-42040570D01*
X152752864Y-42056157D01*
X152766112Y-42072188D01*
X152778967Y-42088614D01*
X152791428Y-42105436D01*
X152803496Y-42122654D01*
X152815169Y-42140268D01*
X152826449Y-42158278D01*
X152837334Y-42176683D01*
X152847824Y-42195484D01*
X152857920Y-42214681D01*
X152867620Y-42234274D01*
X152876926Y-42254263D01*
X152885837Y-42274647D01*
X152894352Y-42295427D01*
X152902471Y-42316603D01*
X152910195Y-42338174D01*
X152917522Y-42360141D01*
X152929399Y-42405049D01*
X152939691Y-42451045D01*
X152948400Y-42498031D01*
X152955524Y-42545909D01*
X152961065Y-42594577D01*
X152965022Y-42643939D01*
X152967397Y-42693895D01*
X152968188Y-42744345D01*
X152968695Y-42744355D01*
X152967688Y-42813029D01*
X152964600Y-42879724D01*
X152959334Y-42944440D01*
X152955853Y-42976056D01*
X152951791Y-43007177D01*
X152947135Y-43037803D01*
X152941873Y-43067934D01*
X152935992Y-43097570D01*
X152929481Y-43126712D01*
X152922328Y-43155359D01*
X152914519Y-43183511D01*
X152906043Y-43211168D01*
X152896887Y-43238330D01*
X152887980Y-43264996D01*
X152878677Y-43291154D01*
X152868977Y-43316793D01*
X152858881Y-43341901D01*
X152848390Y-43366464D01*
X152837502Y-43390471D01*
X152826219Y-43413909D01*
X152814540Y-43436765D01*
X152802465Y-43459028D01*
X152789996Y-43480684D01*
X152777131Y-43501722D01*
X152763871Y-43522129D01*
X152750216Y-43541893D01*
X152736167Y-43561001D01*
X152721723Y-43579441D01*
X152706885Y-43597200D01*
X152691698Y-43615113D01*
X152676214Y-43632437D01*
X152660434Y-43649180D01*
X152644357Y-43665348D01*
X152627983Y-43680947D01*
X152611312Y-43695982D01*
X152594344Y-43710461D01*
X152577078Y-43724390D01*
X152559516Y-43737774D01*
X152541655Y-43750620D01*
X152523497Y-43762934D01*
X152505041Y-43774723D01*
X152486286Y-43785992D01*
X152467234Y-43796748D01*
X152447883Y-43806997D01*
X152428234Y-43816745D01*
X152408441Y-43825900D01*
X152388641Y-43834375D01*
X152368828Y-43842182D01*
X152348996Y-43849333D01*
X152329138Y-43855841D01*
X152309249Y-43861718D01*
X152289324Y-43866976D01*
X152269356Y-43871629D01*
X152249339Y-43875687D01*
X152229267Y-43879164D01*
X152209135Y-43882072D01*
X152188936Y-43884424D01*
X152168665Y-43886232D01*
X152148315Y-43887507D01*
X152127882Y-43888264D01*
X152107358Y-43888513D01*
X152060456Y-43887721D01*
X152014741Y-43885346D01*
X151970213Y-43881387D01*
X151926873Y-43875845D01*
X151905647Y-43872481D01*
X151884719Y-43868720D01*
X151864087Y-43864564D01*
X151843752Y-43860012D01*
X151823714Y-43855064D01*
X151803972Y-43849721D01*
X151784528Y-43843982D01*
X151765380Y-43837847D01*
X151746577Y-43831367D01*
X151728165Y-43824596D01*
X151710137Y-43817540D01*
X151692486Y-43810206D01*
X151675207Y-43802599D01*
X151658293Y-43794726D01*
X151641737Y-43786594D01*
X151625534Y-43778208D01*
X151609677Y-43769575D01*
X151594159Y-43760700D01*
X151578974Y-43751591D01*
X151564117Y-43742254D01*
X151549580Y-43732694D01*
X151535358Y-43722918D01*
X151521443Y-43712932D01*
X151507831Y-43702742D01*
X151506838Y-43715904D01*
X151505456Y-43728471D01*
X151503691Y-43740445D01*
X151501547Y-43751826D01*
X151499033Y-43762612D01*
X151496154Y-43772805D01*
X151492916Y-43782403D01*
X151491164Y-43786980D01*
X151489325Y-43791408D01*
X151487400Y-43795688D01*
X151485389Y-43799819D01*
X151483293Y-43803802D01*
X151481112Y-43807637D01*
X151478848Y-43811322D01*
X151476502Y-43814860D01*
X151474074Y-43818249D01*
X151471564Y-43821489D01*
X151468974Y-43824581D01*
X151466305Y-43827525D01*
X151463557Y-43830320D01*
X151460731Y-43832966D01*
X151457828Y-43835464D01*
X151454848Y-43837814D01*
X151451793Y-43840015D01*
X151448663Y-43842068D01*
X151442284Y-43845931D01*
X151435807Y-43849589D01*
X151429233Y-43853036D01*
X151422560Y-43856264D01*
X151415790Y-43859270D01*
X151408920Y-43862045D01*
X151401951Y-43864585D01*
X151394883Y-43866883D01*
X151387715Y-43868933D01*
X151380446Y-43870730D01*
X151373077Y-43872267D01*
X151365607Y-43873538D01*
X151358036Y-43874536D01*
X151350363Y-43875257D01*
X151342588Y-43875694D01*
X151334711Y-43875841D01*
X151326756Y-43876438D01*
X151318711Y-43876644D01*
X151310589Y-43876466D01*
X151302404Y-43875912D01*
X151294166Y-43874985D01*
X151285891Y-43873694D01*
X151277590Y-43872044D01*
X151269276Y-43870041D01*
X151260963Y-43867692D01*
X151252663Y-43865002D01*
X151244388Y-43861978D01*
X151236153Y-43858627D01*
X151227969Y-43854954D01*
X151219850Y-43850966D01*
X151211808Y-43846668D01*
X151203857Y-43842068D01*
X151196197Y-43836874D01*
X151189031Y-43830803D01*
X151182357Y-43823865D01*
X151176177Y-43816074D01*
X151170490Y-43807442D01*
X151165297Y-43797981D01*
X151160597Y-43787704D01*
X151156392Y-43776623D01*
X151152680Y-43764750D01*
X151149463Y-43752098D01*
X151146740Y-43738679D01*
X151144512Y-43724506D01*
X151142779Y-43709591D01*
X151141541Y-43693946D01*
X151140798Y-43677584D01*
X151140550Y-43660517D01*
X151140550Y-43381856D01*
X151511564Y-43381856D01*
X151523537Y-43393485D01*
X151535702Y-43404626D01*
X151548055Y-43415283D01*
X151560588Y-43425465D01*
X151573294Y-43435176D01*
X151586168Y-43444423D01*
X151599202Y-43453212D01*
X151612391Y-43461550D01*
X151625727Y-43469442D01*
X151639204Y-43476896D01*
X151652816Y-43483916D01*
X151666556Y-43490509D01*
X151680418Y-43496682D01*
X151694395Y-43502441D01*
X151708480Y-43507792D01*
X151722668Y-43512741D01*
X151753339Y-43521659D01*
X151785196Y-43529383D01*
X151818241Y-43535916D01*
X151852475Y-43541258D01*
X151887898Y-43545410D01*
X151924512Y-43548375D01*
X151962319Y-43550153D01*
X152001319Y-43550745D01*
X152036445Y-43549951D01*
X152070575Y-43547562D01*
X152103704Y-43543564D01*
X152135825Y-43537946D01*
X152166932Y-43530695D01*
X152197019Y-43521799D01*
X152226080Y-43511246D01*
X152254107Y-43499023D01*
X152281096Y-43485117D01*
X152294199Y-43477530D01*
X152307040Y-43469518D01*
X152319618Y-43461078D01*
X152331932Y-43452211D01*
X152343983Y-43442913D01*
X152355768Y-43433185D01*
X152367287Y-43423023D01*
X152378539Y-43412427D01*
X152400240Y-43389926D01*
X152420865Y-43365668D01*
X152440408Y-43339641D01*
X152458770Y-43312231D01*
X152475856Y-43283824D01*
X152491680Y-43254416D01*
X152506253Y-43223999D01*
X152519588Y-43192568D01*
X152531699Y-43160116D01*
X152542596Y-43126638D01*
X152552293Y-43092127D01*
X152560803Y-43056577D01*
X152568137Y-43019982D01*
X152574309Y-42982336D01*
X152579330Y-42943632D01*
X152583214Y-42903865D01*
X152585973Y-42863027D01*
X152587619Y-42821114D01*
X152588165Y-42778118D01*
X152586207Y-42746461D01*
X152583394Y-42714853D01*
X152579681Y-42683344D01*
X152575021Y-42651983D01*
X152569371Y-42620820D01*
X152562684Y-42589906D01*
X152554916Y-42559289D01*
X152546021Y-42529020D01*
X152536093Y-42499334D01*
X152530820Y-42484788D01*
X152525331Y-42470440D01*
X152519620Y-42456290D01*
X152513683Y-42442338D01*
X152507511Y-42428584D01*
X152501100Y-42415028D01*
X152494443Y-42401669D01*
X152487533Y-42388508D01*
X152480365Y-42375545D01*
X152472932Y-42362780D01*
X152465228Y-42350213D01*
X152457247Y-42337843D01*
X152448983Y-42325671D01*
X152440429Y-42313696D01*
X152432370Y-42302715D01*
X152424012Y-42291939D01*
X152415357Y-42281372D01*
X152406403Y-42271021D01*
X152397151Y-42260892D01*
X152387602Y-42250993D01*
X152377755Y-42241327D01*
X152367611Y-42231903D01*
X152357169Y-42222727D01*
X152346430Y-42213803D01*
X152335395Y-42205139D01*
X152324062Y-42196741D01*
X152312434Y-42188615D01*
X152300509Y-42180767D01*
X152288287Y-42173203D01*
X152275770Y-42165930D01*
X152263006Y-42159004D01*
X152250044Y-42152474D01*
X152236884Y-42146341D01*
X152223526Y-42140604D01*
X152209971Y-42135262D01*
X152196217Y-42130317D01*
X152182265Y-42125767D01*
X152168116Y-42121612D01*
X152153768Y-42117854D01*
X152139222Y-42114490D01*
X152124478Y-42111521D01*
X152109536Y-42108948D01*
X152094395Y-42106770D01*
X152079057Y-42104986D01*
X152063520Y-42103597D01*
X152047785Y-42102603D01*
X152047277Y-42102593D01*
X152026841Y-42102840D01*
X152006687Y-42103582D01*
X151986805Y-42104818D01*
X151967182Y-42106550D01*
X151947806Y-42108775D01*
X151928665Y-42111496D01*
X151909747Y-42114712D01*
X151891039Y-42118422D01*
X151872531Y-42122627D01*
X151854209Y-42127327D01*
X151836062Y-42132521D01*
X151818077Y-42138211D01*
X151800243Y-42144396D01*
X151782548Y-42151075D01*
X151764979Y-42158250D01*
X151747524Y-42165920D01*
X151731047Y-42173932D01*
X151714866Y-42182130D01*
X151698982Y-42190501D01*
X151683396Y-42199033D01*
X151653114Y-42216531D01*
X151624020Y-42234523D01*
X151596115Y-42252912D01*
X151569399Y-42271598D01*
X151543874Y-42290482D01*
X151519538Y-42309466D01*
X151519538Y-42887881D01*
X151518854Y-43025624D01*
X151517050Y-43153868D01*
X151511564Y-43381856D01*
X151140550Y-43381856D01*
X151140550Y-43027216D01*
X151140550Y-42271482D01*
X151144547Y-41549521D01*
X151150026Y-41248174D01*
X151151835Y-41127385D01*
X151152521Y-41025992D01*
X151152719Y-41009716D01*
X151153313Y-40994133D01*
X151154302Y-40979242D01*
X151155687Y-40965044D01*
X151157468Y-40951538D01*
X151159644Y-40938724D01*
X151162217Y-40926603D01*
X151165185Y-40915175D01*
X151168550Y-40904438D01*
X151172310Y-40894395D01*
X151176466Y-40885043D01*
X151181018Y-40876384D01*
X151185966Y-40868417D01*
X151188589Y-40864694D01*
X151191310Y-40861143D01*
X151194131Y-40857766D01*
X151197051Y-40854561D01*
X151200069Y-40851530D01*
X151203187Y-40848672D01*
X151209614Y-40844023D01*
X151216226Y-40839578D01*
X151223011Y-40835344D01*
X151229956Y-40831327D01*
X151237049Y-40827533D01*
X151244279Y-40823968D01*
X151251632Y-40820638D01*
X151259098Y-40817549D01*
X151266664Y-40814707D01*
X151274317Y-40812118D01*
X151282046Y-40809788D01*
X151289838Y-40807723D01*
X151297682Y-40805930D01*
X151305565Y-40804414D01*
X151313475Y-40803181D01*
X151321400Y-40802237D01*
X151330889Y-40802385D01*
G37*
G36*
X154477642Y-41777682D02*
G01*
X154488885Y-41778261D01*
X154500250Y-41779212D01*
X154511751Y-41780521D01*
X154523399Y-41782177D01*
X154535208Y-41784167D01*
X154559359Y-41789098D01*
X154584305Y-41795218D01*
X154610148Y-41802426D01*
X154636989Y-41810623D01*
X154664931Y-41819711D01*
X154691843Y-41829796D01*
X154718703Y-41841019D01*
X154745463Y-41853330D01*
X154772073Y-41866680D01*
X154798485Y-41881019D01*
X154824649Y-41896299D01*
X154850515Y-41912470D01*
X154876035Y-41929483D01*
X154888603Y-41938291D01*
X154900984Y-41947304D01*
X154913191Y-41956527D01*
X154925236Y-41965966D01*
X154937133Y-41975627D01*
X154948894Y-41985518D01*
X154960531Y-41995643D01*
X154972058Y-42006009D01*
X154994829Y-42027490D01*
X155017308Y-42050009D01*
X155039597Y-42073617D01*
X155061796Y-42098362D01*
X155081792Y-42123712D01*
X155100552Y-42149160D01*
X155109452Y-42161952D01*
X155118024Y-42174806D01*
X155126261Y-42187734D01*
X155134157Y-42200748D01*
X155141705Y-42213862D01*
X155148900Y-42227086D01*
X155155733Y-42240435D01*
X155162200Y-42253919D01*
X155168294Y-42267552D01*
X155174007Y-42281346D01*
X155179335Y-42295313D01*
X155184270Y-42309466D01*
X155185794Y-42316588D01*
X155187030Y-42323711D01*
X155187981Y-42330834D01*
X155188651Y-42337957D01*
X155189044Y-42345081D01*
X155189166Y-42352205D01*
X155189018Y-42359329D01*
X155188607Y-42366453D01*
X155187936Y-42373578D01*
X155187008Y-42380702D01*
X155185829Y-42387827D01*
X155184401Y-42394951D01*
X155182730Y-42402076D01*
X155180820Y-42409200D01*
X155178673Y-42416324D01*
X155176296Y-42423448D01*
X155171357Y-42439085D01*
X155166020Y-42454325D01*
X155160284Y-42469170D01*
X155154151Y-42483619D01*
X155147619Y-42497671D01*
X155140689Y-42511328D01*
X155133359Y-42524588D01*
X155125630Y-42537451D01*
X155106579Y-42562716D01*
X155087542Y-42587586D01*
X155078032Y-42599749D01*
X155068531Y-42611666D01*
X155059040Y-42623287D01*
X155049560Y-42634562D01*
X155038650Y-42645250D01*
X155028200Y-42655149D01*
X155018255Y-42664256D01*
X155008863Y-42672572D01*
X155000070Y-42680094D01*
X154991922Y-42686822D01*
X154984468Y-42692754D01*
X154977752Y-42697889D01*
X154951812Y-42716699D01*
X154924585Y-42735162D01*
X154895973Y-42753327D01*
X154865877Y-42771245D01*
X154834197Y-42788965D01*
X154800834Y-42806537D01*
X154765690Y-42824011D01*
X154728664Y-42841435D01*
X154690477Y-42858659D01*
X154651946Y-42875536D01*
X154574044Y-42908451D01*
X154495344Y-42940577D01*
X154416229Y-42972310D01*
X154335350Y-43003187D01*
X154256846Y-43032480D01*
X154179924Y-43060189D01*
X154103794Y-43086313D01*
X154030961Y-43110856D01*
X153964461Y-43133812D01*
X153904295Y-43155183D01*
X153850465Y-43174973D01*
X153853932Y-43197730D01*
X153857993Y-43220086D01*
X153862649Y-43242033D01*
X153867899Y-43263567D01*
X153873744Y-43284679D01*
X153880182Y-43305365D01*
X153887215Y-43325619D01*
X153894841Y-43345433D01*
X153903060Y-43364802D01*
X153911873Y-43383720D01*
X153921279Y-43402180D01*
X153931278Y-43420176D01*
X153941870Y-43437702D01*
X153953055Y-43454751D01*
X153964831Y-43471319D01*
X153977201Y-43487398D01*
X153990312Y-43502783D01*
X154004321Y-43517272D01*
X154019232Y-43530857D01*
X154035053Y-43543533D01*
X154051789Y-43555293D01*
X154069447Y-43566132D01*
X154088033Y-43576043D01*
X154107553Y-43585021D01*
X154128013Y-43593059D01*
X154149419Y-43600151D01*
X154171778Y-43606291D01*
X154195095Y-43611474D01*
X154219378Y-43615692D01*
X154244631Y-43618940D01*
X154270862Y-43621213D01*
X154298077Y-43622503D01*
X154312231Y-43623144D01*
X154326200Y-43623489D01*
X154339995Y-43623537D01*
X154353629Y-43623288D01*
X154367114Y-43622743D01*
X154380463Y-43621902D01*
X154393688Y-43620763D01*
X154406801Y-43619329D01*
X154419816Y-43617597D01*
X154432743Y-43615569D01*
X154445596Y-43613244D01*
X154458387Y-43610623D01*
X154471129Y-43607705D01*
X154483833Y-43604490D01*
X154496513Y-43600978D01*
X154509180Y-43597170D01*
X154533922Y-43589063D01*
X154557582Y-43580610D01*
X154580257Y-43571860D01*
X154602045Y-43562864D01*
X154623044Y-43553669D01*
X154643352Y-43544325D01*
X154663064Y-43534883D01*
X154682280Y-43525392D01*
X154690883Y-43520595D01*
X154699297Y-43515711D01*
X154707526Y-43510754D01*
X154715577Y-43505734D01*
X154731168Y-43495560D01*
X154746119Y-43485287D01*
X154760479Y-43475015D01*
X154774295Y-43464840D01*
X154800493Y-43445183D01*
X154805911Y-43440484D01*
X154811043Y-43435896D01*
X154815894Y-43431430D01*
X154820469Y-43427100D01*
X154824771Y-43422918D01*
X154828806Y-43418897D01*
X154836090Y-43411388D01*
X154842358Y-43404673D01*
X154847645Y-43398854D01*
X154851987Y-43394032D01*
X154855420Y-43390307D01*
X154866510Y-43375710D01*
X154877586Y-43361995D01*
X154888634Y-43349158D01*
X154899643Y-43337192D01*
X154910602Y-43326092D01*
X154921496Y-43315851D01*
X154932316Y-43306464D01*
X154943047Y-43297925D01*
X154953679Y-43290228D01*
X154964200Y-43283366D01*
X154974596Y-43277335D01*
X154984857Y-43272128D01*
X154994970Y-43267739D01*
X155004922Y-43264162D01*
X155014703Y-43261392D01*
X155024299Y-43259422D01*
X155033699Y-43258085D01*
X155042916Y-43257230D01*
X155051961Y-43256845D01*
X155060847Y-43256918D01*
X155069585Y-43257436D01*
X155078188Y-43258387D01*
X155086667Y-43259759D01*
X155095034Y-43261539D01*
X155103302Y-43263714D01*
X155111482Y-43266273D01*
X155119587Y-43269204D01*
X155127628Y-43272492D01*
X155135617Y-43276127D01*
X155143566Y-43280096D01*
X155151488Y-43284386D01*
X155159394Y-43288986D01*
X155166426Y-43294625D01*
X155173253Y-43300469D01*
X155179868Y-43306524D01*
X155186265Y-43312795D01*
X155192438Y-43319290D01*
X155198382Y-43326013D01*
X155204089Y-43332971D01*
X155209555Y-43340171D01*
X155214772Y-43347619D01*
X155219736Y-43355320D01*
X155224439Y-43363281D01*
X155228876Y-43371508D01*
X155233041Y-43380007D01*
X155236928Y-43388785D01*
X155240531Y-43397847D01*
X155243843Y-43407199D01*
X155246564Y-43416847D01*
X155248397Y-43426792D01*
X155249340Y-43437034D01*
X155249394Y-43447572D01*
X155248558Y-43458408D01*
X155246832Y-43469540D01*
X155244216Y-43480969D01*
X155240708Y-43492695D01*
X155236310Y-43504717D01*
X155231020Y-43517037D01*
X155224838Y-43529654D01*
X155217763Y-43542567D01*
X155209797Y-43555777D01*
X155200937Y-43569285D01*
X155191183Y-43583089D01*
X155180537Y-43597190D01*
X155180029Y-43597180D01*
X155165480Y-43615980D01*
X155150336Y-43634385D01*
X155134598Y-43652394D01*
X155118266Y-43670007D01*
X155101340Y-43687225D01*
X155083820Y-43704047D01*
X155065707Y-43720474D01*
X155047001Y-43736504D01*
X155027702Y-43752139D01*
X155007811Y-43767379D01*
X154987327Y-43782222D01*
X154966252Y-43796669D01*
X154944585Y-43810721D01*
X154922326Y-43824376D01*
X154899476Y-43837635D01*
X154876035Y-43850498D01*
X154851399Y-43862720D01*
X154824993Y-43874057D01*
X154796831Y-43884517D01*
X154766925Y-43894105D01*
X154735287Y-43902828D01*
X154701929Y-43910691D01*
X154666864Y-43917701D01*
X154630105Y-43923863D01*
X154591663Y-43929184D01*
X154551551Y-43933669D01*
X154509782Y-43937326D01*
X154466368Y-43940158D01*
X154374654Y-43943379D01*
X154276508Y-43943379D01*
X154228071Y-43942243D01*
X154180934Y-43938844D01*
X154135109Y-43933193D01*
X154090607Y-43925304D01*
X154047441Y-43915189D01*
X154005624Y-43902859D01*
X153965167Y-43888328D01*
X153926083Y-43871607D01*
X153888385Y-43852709D01*
X153852084Y-43831647D01*
X153817193Y-43808432D01*
X153783725Y-43783078D01*
X153751691Y-43755596D01*
X153721104Y-43725998D01*
X153691976Y-43694298D01*
X153664319Y-43660507D01*
X153638247Y-43624836D01*
X153613868Y-43587495D01*
X153591187Y-43548497D01*
X153570209Y-43507854D01*
X153550940Y-43465578D01*
X153533384Y-43421682D01*
X153517547Y-43376178D01*
X153503435Y-43329079D01*
X153491051Y-43280396D01*
X153480401Y-43230142D01*
X153471492Y-43178330D01*
X153464326Y-43124971D01*
X153458911Y-43070079D01*
X153455250Y-43013665D01*
X153453350Y-42955741D01*
X153453215Y-42896321D01*
X153453560Y-42863319D01*
X153454591Y-42830799D01*
X153456302Y-42798749D01*
X153457541Y-42782329D01*
X153833705Y-42782329D01*
X153860680Y-42775133D01*
X153897555Y-42765960D01*
X154002584Y-42740104D01*
X154034641Y-42731799D01*
X154067441Y-42722753D01*
X154100933Y-42713014D01*
X154135067Y-42702632D01*
X154205059Y-42680137D01*
X154277015Y-42655664D01*
X154314814Y-42642802D01*
X154352214Y-42629544D01*
X154389216Y-42615891D01*
X154425824Y-42601842D01*
X154462039Y-42587397D01*
X154497863Y-42572556D01*
X154533299Y-42557317D01*
X154568348Y-42541682D01*
X154603784Y-42525831D01*
X154620740Y-42517876D01*
X154637181Y-42509883D01*
X154653100Y-42501841D01*
X154668492Y-42493737D01*
X154683351Y-42485559D01*
X154697670Y-42477295D01*
X154711445Y-42468931D01*
X154724669Y-42460456D01*
X154737335Y-42451858D01*
X154749440Y-42443124D01*
X154760976Y-42434241D01*
X154771937Y-42425197D01*
X154782318Y-42415979D01*
X154792113Y-42406577D01*
X154780930Y-42384066D01*
X154769562Y-42362445D01*
X154758021Y-42341715D01*
X154746320Y-42321875D01*
X154734471Y-42302926D01*
X154722487Y-42284868D01*
X154710379Y-42267699D01*
X154698160Y-42251422D01*
X154685842Y-42236035D01*
X154673438Y-42221538D01*
X154660960Y-42207932D01*
X154648420Y-42195216D01*
X154635831Y-42183391D01*
X154623205Y-42172456D01*
X154610554Y-42162412D01*
X154597891Y-42153258D01*
X154585175Y-42145543D01*
X154572353Y-42138236D01*
X154559419Y-42131349D01*
X154546367Y-42124895D01*
X154533191Y-42118886D01*
X154519885Y-42113334D01*
X154506443Y-42108253D01*
X154492859Y-42103654D01*
X154479127Y-42099550D01*
X154465240Y-42095952D01*
X154451194Y-42092875D01*
X154436981Y-42090329D01*
X154422596Y-42088327D01*
X154408032Y-42086882D01*
X154393284Y-42086006D01*
X154378346Y-42085711D01*
X154378326Y-42085690D01*
X154368730Y-42085839D01*
X154358950Y-42086284D01*
X154348997Y-42087027D01*
X154338885Y-42088066D01*
X154328624Y-42089403D01*
X154318227Y-42091036D01*
X154307707Y-42092966D01*
X154297075Y-42095193D01*
X154286343Y-42097717D01*
X154275524Y-42100537D01*
X154264629Y-42103655D01*
X154253671Y-42107069D01*
X154242662Y-42110781D01*
X154231613Y-42114789D01*
X154220538Y-42119093D01*
X154209447Y-42123695D01*
X154198359Y-42128640D01*
X154187280Y-42133975D01*
X154176216Y-42139694D01*
X154165172Y-42145791D01*
X154154154Y-42152259D01*
X154143168Y-42159092D01*
X154132219Y-42166284D01*
X154121315Y-42173829D01*
X154110460Y-42181720D01*
X154099660Y-42189951D01*
X154088921Y-42198516D01*
X154078249Y-42207408D01*
X154067650Y-42216622D01*
X154057130Y-42226151D01*
X154046694Y-42235988D01*
X154036348Y-42246128D01*
X154017562Y-42268896D01*
X153999220Y-42292900D01*
X153981373Y-42318191D01*
X153964067Y-42344818D01*
X153947354Y-42372831D01*
X153931281Y-42402278D01*
X153923500Y-42417555D01*
X153915898Y-42433209D01*
X153908480Y-42449246D01*
X153901253Y-42465673D01*
X153888983Y-42499715D01*
X153877576Y-42535340D01*
X153867145Y-42572546D01*
X153857808Y-42611336D01*
X153849679Y-42651708D01*
X153842876Y-42693664D01*
X153837512Y-42737204D01*
X153833705Y-42782329D01*
X153457541Y-42782329D01*
X153458686Y-42767157D01*
X153461739Y-42736009D01*
X153465453Y-42705295D01*
X153469823Y-42675000D01*
X153474843Y-42645115D01*
X153480506Y-42615624D01*
X153486807Y-42586518D01*
X153493739Y-42557782D01*
X153501297Y-42529405D01*
X153509475Y-42501375D01*
X153518266Y-42473678D01*
X153527665Y-42446303D01*
X153537665Y-42419238D01*
X153547411Y-42393363D01*
X153557645Y-42367988D01*
X153568361Y-42343121D01*
X153579552Y-42318767D01*
X153591214Y-42294932D01*
X153603339Y-42271623D01*
X153615923Y-42248845D01*
X153628957Y-42226606D01*
X153642438Y-42204911D01*
X153656358Y-42183767D01*
X153670711Y-42163179D01*
X153685492Y-42143154D01*
X153700694Y-42123699D01*
X153716312Y-42104818D01*
X153732339Y-42086520D01*
X153748769Y-42068809D01*
X153765590Y-42051641D01*
X153782816Y-42034968D01*
X153800452Y-42018789D01*
X153818502Y-42003105D01*
X153836975Y-41987916D01*
X153855874Y-41973221D01*
X153875207Y-41959021D01*
X153894978Y-41945316D01*
X153915194Y-41932105D01*
X153935860Y-41919390D01*
X153956983Y-41907169D01*
X153978568Y-41895442D01*
X154000620Y-41884211D01*
X154023147Y-41873474D01*
X154046153Y-41863232D01*
X154069645Y-41853484D01*
X154092701Y-41844282D01*
X154115961Y-41835672D01*
X154139432Y-41827657D01*
X154163119Y-41820235D01*
X154187029Y-41813407D01*
X154211167Y-41807173D01*
X154235541Y-41801532D01*
X154260156Y-41796486D01*
X154285019Y-41792032D01*
X154310135Y-41788173D01*
X154335511Y-41784908D01*
X154361154Y-41782236D01*
X154387068Y-41780158D01*
X154413262Y-41778673D01*
X154439740Y-41777783D01*
X154466509Y-41777486D01*
X154477642Y-41777682D01*
G37*
G36*
X157451310Y-51358871D02*
G01*
X157459858Y-51360107D01*
X157468297Y-51361640D01*
X157476621Y-51363470D01*
X157484822Y-51365597D01*
X157492894Y-51368021D01*
X157500832Y-51370742D01*
X157508628Y-51373760D01*
X157516276Y-51377075D01*
X157523770Y-51380687D01*
X157531103Y-51384595D01*
X157538269Y-51388801D01*
X157545261Y-51393304D01*
X157552073Y-51398105D01*
X157558699Y-51403202D01*
X157565132Y-51408597D01*
X157571324Y-51414535D01*
X157577081Y-51421270D01*
X157582393Y-51428810D01*
X157587254Y-51437160D01*
X157591654Y-51446326D01*
X157595585Y-51456315D01*
X157599039Y-51467133D01*
X157602008Y-51478785D01*
X157604483Y-51491279D01*
X157606455Y-51504620D01*
X157607917Y-51518815D01*
X157608860Y-51533869D01*
X157609276Y-51549789D01*
X157609156Y-51566582D01*
X157608492Y-51584252D01*
X157607276Y-51602808D01*
X157606321Y-51664551D01*
X157603621Y-51742128D01*
X157593986Y-51944786D01*
X157588152Y-52066763D01*
X157583703Y-52192303D01*
X157577104Y-52455653D01*
X157569964Y-52727450D01*
X157563813Y-52996074D01*
X157558335Y-53239370D01*
X157556526Y-53343405D01*
X157555839Y-53435163D01*
X157557644Y-53495328D01*
X157559819Y-53552329D01*
X157565018Y-53656831D01*
X157570913Y-53748660D01*
X157576982Y-53827807D01*
X157586472Y-53896689D01*
X157595624Y-53957635D01*
X157610766Y-54055793D01*
X157627277Y-54128105D01*
X157630776Y-54142839D01*
X157634089Y-54156142D01*
X157637249Y-54167967D01*
X157640289Y-54178267D01*
X157641692Y-54183802D01*
X157642921Y-54189330D01*
X157643986Y-54194847D01*
X157644899Y-54200345D01*
X157645672Y-54205819D01*
X157646316Y-54211263D01*
X157647266Y-54222035D01*
X157647842Y-54232615D01*
X157648138Y-54242952D01*
X157648263Y-54262707D01*
X157648304Y-54262646D01*
X157646583Y-54272744D01*
X157644563Y-54282451D01*
X157642245Y-54291772D01*
X157639627Y-54300714D01*
X157636712Y-54309283D01*
X157633498Y-54317487D01*
X157629986Y-54325332D01*
X157626177Y-54332824D01*
X157622069Y-54339970D01*
X157617664Y-54346776D01*
X157612962Y-54353250D01*
X157607963Y-54359398D01*
X157602666Y-54365226D01*
X157597073Y-54370741D01*
X157591183Y-54375950D01*
X157584997Y-54380859D01*
X157578616Y-54385456D01*
X157572135Y-54389779D01*
X157565554Y-54393839D01*
X157558874Y-54397646D01*
X157552095Y-54401210D01*
X157545216Y-54404541D01*
X157538239Y-54407649D01*
X157531163Y-54410544D01*
X157523989Y-54413237D01*
X157516717Y-54415738D01*
X157509348Y-54418056D01*
X157501881Y-54420201D01*
X157494317Y-54422185D01*
X157486656Y-54424016D01*
X157471045Y-54427264D01*
X157462804Y-54428736D01*
X157454714Y-54429985D01*
X157446774Y-54431012D01*
X157438985Y-54431816D01*
X157431347Y-54432397D01*
X157423863Y-54432755D01*
X157416531Y-54432890D01*
X157409354Y-54432803D01*
X157402332Y-54432493D01*
X157395465Y-54431961D01*
X157388755Y-54431206D01*
X157382201Y-54430228D01*
X157375806Y-54429028D01*
X157369569Y-54427605D01*
X157363492Y-54425960D01*
X157357574Y-54424092D01*
X157351818Y-54422002D01*
X157346223Y-54419689D01*
X157340790Y-54417154D01*
X157335521Y-54414396D01*
X157330415Y-54411416D01*
X157325475Y-54408214D01*
X157320699Y-54404789D01*
X157316089Y-54401143D01*
X157311647Y-54397273D01*
X157307372Y-54393182D01*
X157303265Y-54388868D01*
X157299328Y-54384332D01*
X157295560Y-54379574D01*
X157291963Y-54374594D01*
X157288537Y-54369392D01*
X157285284Y-54363967D01*
X157278347Y-54352735D01*
X157271791Y-54341194D01*
X157265614Y-54329333D01*
X157259809Y-54317138D01*
X157254374Y-54304597D01*
X157249304Y-54291697D01*
X157244594Y-54278426D01*
X157240241Y-54264771D01*
X157236240Y-54250720D01*
X157232587Y-54236259D01*
X157229278Y-54221376D01*
X157226308Y-54206059D01*
X157223673Y-54190294D01*
X157221369Y-54174070D01*
X157219391Y-54157374D01*
X157217736Y-54140192D01*
X157207248Y-54155134D01*
X157196363Y-54169880D01*
X157185084Y-54184427D01*
X157173409Y-54198778D01*
X157161338Y-54212930D01*
X157148872Y-54226885D01*
X157136009Y-54240641D01*
X157122751Y-54254200D01*
X157109096Y-54267560D01*
X157095045Y-54280722D01*
X157080598Y-54293685D01*
X157065754Y-54306449D01*
X157050514Y-54319015D01*
X157034877Y-54331381D01*
X157018843Y-54343548D01*
X157002412Y-54355516D01*
X156985390Y-54367013D01*
X156967570Y-54377721D01*
X156948946Y-54387648D01*
X156929513Y-54396799D01*
X156909263Y-54405181D01*
X156888191Y-54412800D01*
X156866290Y-54419664D01*
X156843554Y-54425777D01*
X156819978Y-54431148D01*
X156795554Y-54435781D01*
X156770276Y-54439684D01*
X156744139Y-54442863D01*
X156717136Y-54445325D01*
X156689261Y-54447075D01*
X156660508Y-54448120D01*
X156630870Y-54448467D01*
X156610335Y-54448218D01*
X156589885Y-54447460D01*
X156569508Y-54446182D01*
X156549192Y-54444372D01*
X156528925Y-54442018D01*
X156508696Y-54439106D01*
X156488491Y-54435625D01*
X156468299Y-54431563D01*
X156448108Y-54426907D01*
X156427906Y-54421645D01*
X156407680Y-54415764D01*
X156387418Y-54409254D01*
X156367109Y-54402100D01*
X156346740Y-54394291D01*
X156326299Y-54385815D01*
X156305774Y-54376659D01*
X156285388Y-54367657D01*
X156265385Y-54358069D01*
X156245754Y-54347899D01*
X156226481Y-54337155D01*
X156207555Y-54325843D01*
X156188963Y-54313967D01*
X156170693Y-54301534D01*
X156152732Y-54288551D01*
X156135067Y-54275022D01*
X156117687Y-54260954D01*
X156100579Y-54246353D01*
X156083730Y-54231224D01*
X156067129Y-54215574D01*
X156050762Y-54199409D01*
X156034617Y-54182734D01*
X156018682Y-54165555D01*
X156003045Y-54147843D01*
X155987805Y-54129537D01*
X155972961Y-54110637D01*
X155958513Y-54091143D01*
X155944461Y-54071056D01*
X155930805Y-54050374D01*
X155917545Y-54029099D01*
X155904681Y-54007230D01*
X155892213Y-53984767D01*
X155880141Y-53961711D01*
X155868464Y-53938060D01*
X155857184Y-53913817D01*
X155846299Y-53888979D01*
X155835810Y-53863548D01*
X155825716Y-53837523D01*
X155816019Y-53810905D01*
X155806819Y-53783743D01*
X155798223Y-53756086D01*
X155790235Y-53727935D01*
X155782862Y-53699289D01*
X155776108Y-53670148D01*
X155769979Y-53640512D01*
X155764480Y-53610382D01*
X155759616Y-53579757D01*
X155755393Y-53548637D01*
X155751815Y-53517022D01*
X155746619Y-53452308D01*
X155744407Y-53394435D01*
X156123931Y-53394435D01*
X156124919Y-53436851D01*
X156127096Y-53478006D01*
X156130461Y-53517911D01*
X156135013Y-53556579D01*
X156140754Y-53594022D01*
X156147682Y-53630253D01*
X156155798Y-53665285D01*
X156165101Y-53699128D01*
X156175591Y-53731797D01*
X156187268Y-53763303D01*
X156200132Y-53793659D01*
X156214182Y-53822876D01*
X156229418Y-53850969D01*
X156245840Y-53877948D01*
X156263448Y-53903826D01*
X156281356Y-53928326D01*
X156300254Y-53951142D01*
X156320142Y-53972283D01*
X156341021Y-53991756D01*
X156362889Y-54009568D01*
X156385747Y-54025727D01*
X156409594Y-54040240D01*
X156434432Y-54053115D01*
X156460259Y-54064359D01*
X156487075Y-54073980D01*
X156514881Y-54081985D01*
X156543677Y-54088382D01*
X156573462Y-54093179D01*
X156604236Y-54096382D01*
X156636000Y-54097999D01*
X156668753Y-54098038D01*
X156668915Y-54098190D01*
X156698435Y-54097775D01*
X156726810Y-54096466D01*
X156740583Y-54095445D01*
X156754089Y-54094165D01*
X156767334Y-54092613D01*
X156780324Y-54090777D01*
X156793064Y-54088644D01*
X156805562Y-54086204D01*
X156817823Y-54083444D01*
X156829854Y-54080351D01*
X156841661Y-54076914D01*
X156853250Y-54073121D01*
X156864627Y-54068959D01*
X156875799Y-54064417D01*
X156885988Y-54060352D01*
X156895985Y-54056092D01*
X156905797Y-54051635D01*
X156915429Y-54046982D01*
X156924889Y-54042131D01*
X156934182Y-54037084D01*
X156943315Y-54031839D01*
X156952294Y-54026397D01*
X156961126Y-54020757D01*
X156969817Y-54014918D01*
X156978373Y-54008882D01*
X156986800Y-54002647D01*
X156995106Y-53996213D01*
X157003296Y-53989580D01*
X157011377Y-53982748D01*
X157019355Y-53975716D01*
X157026435Y-53969285D01*
X157033415Y-53962660D01*
X157040296Y-53955849D01*
X157047078Y-53948857D01*
X157053760Y-53941691D01*
X157060342Y-53934358D01*
X157073209Y-53919215D01*
X157085676Y-53903481D01*
X157097745Y-53887206D01*
X157109415Y-53870442D01*
X157120686Y-53853242D01*
X157196756Y-53726517D01*
X157192759Y-53532305D01*
X157192821Y-53481571D01*
X157193258Y-53430442D01*
X157194445Y-53378524D01*
X157195436Y-53352145D01*
X157196756Y-53325422D01*
X157196756Y-53194537D01*
X157200753Y-53059432D01*
X157190216Y-53043650D01*
X157179192Y-53027972D01*
X157167687Y-53012406D01*
X157155706Y-52996958D01*
X157143255Y-52981633D01*
X157130341Y-52966438D01*
X157116969Y-52951378D01*
X157103145Y-52936461D01*
X157088875Y-52921693D01*
X157074164Y-52907079D01*
X157059020Y-52892627D01*
X157043447Y-52878341D01*
X157027451Y-52864229D01*
X157011039Y-52850296D01*
X156994216Y-52836550D01*
X156976988Y-52822995D01*
X156958680Y-52810724D01*
X156940174Y-52799244D01*
X156921469Y-52788557D01*
X156902566Y-52778661D01*
X156883465Y-52769557D01*
X156864166Y-52761245D01*
X156844670Y-52753724D01*
X156824976Y-52746995D01*
X156805084Y-52741058D01*
X156784995Y-52735912D01*
X156764710Y-52731559D01*
X156744227Y-52727996D01*
X156723548Y-52725226D01*
X156702672Y-52723247D01*
X156681600Y-52722059D01*
X156660332Y-52721664D01*
X156629114Y-52723892D01*
X156598787Y-52727418D01*
X156569351Y-52732256D01*
X156540807Y-52738417D01*
X156513154Y-52745915D01*
X156486392Y-52754760D01*
X156460520Y-52764967D01*
X156435538Y-52776546D01*
X156411445Y-52789511D01*
X156388242Y-52803873D01*
X156365929Y-52819646D01*
X156344504Y-52836841D01*
X156323968Y-52855472D01*
X156304320Y-52875549D01*
X156285560Y-52897086D01*
X156267688Y-52920096D01*
X156250768Y-52944043D01*
X156234850Y-52968386D01*
X156219946Y-52993125D01*
X156206069Y-53018260D01*
X156193232Y-53043790D01*
X156181445Y-53069716D01*
X156170723Y-53096037D01*
X156161076Y-53122755D01*
X156152518Y-53149868D01*
X156145062Y-53177377D01*
X156138718Y-53205282D01*
X156133500Y-53233583D01*
X156129420Y-53262279D01*
X156126491Y-53291372D01*
X156124724Y-53320860D01*
X156124132Y-53350744D01*
X156123931Y-53394435D01*
X155744407Y-53394435D01*
X155744070Y-53385614D01*
X155744210Y-53316940D01*
X155743659Y-53292500D01*
X155743604Y-53268258D01*
X155744045Y-53244213D01*
X155744982Y-53220367D01*
X155746414Y-53196718D01*
X155748343Y-53173267D01*
X155750767Y-53150013D01*
X155753686Y-53126958D01*
X155757101Y-53104100D01*
X155761011Y-53081439D01*
X155765417Y-53058977D01*
X155770319Y-53036712D01*
X155775715Y-53014645D01*
X155781607Y-52992775D01*
X155787994Y-52971103D01*
X155794876Y-52949629D01*
X155802946Y-52928405D01*
X155811323Y-52907483D01*
X155820019Y-52886871D01*
X155829048Y-52866574D01*
X155838421Y-52846599D01*
X155848153Y-52826952D01*
X155858255Y-52807638D01*
X155868742Y-52788665D01*
X155879624Y-52770037D01*
X155890915Y-52751763D01*
X155902629Y-52733847D01*
X155914777Y-52716296D01*
X155927373Y-52699116D01*
X155940430Y-52682314D01*
X155953960Y-52665895D01*
X155967975Y-52649865D01*
X155982372Y-52634280D01*
X155997072Y-52619176D01*
X156012081Y-52604543D01*
X156027404Y-52590366D01*
X156043050Y-52576635D01*
X156059023Y-52563336D01*
X156075331Y-52550458D01*
X156091979Y-52537988D01*
X156108974Y-52525913D01*
X156126323Y-52514222D01*
X156144031Y-52502901D01*
X156162104Y-52491940D01*
X156180551Y-52481324D01*
X156199375Y-52471043D01*
X156218585Y-52461083D01*
X156238186Y-52451433D01*
X156258868Y-52442974D01*
X156279756Y-52435010D01*
X156300854Y-52427541D01*
X156322170Y-52420566D01*
X156343708Y-52414086D01*
X156365475Y-52408101D01*
X156387477Y-52402611D01*
X156409720Y-52397615D01*
X156432210Y-52393113D01*
X156454954Y-52389105D01*
X156477956Y-52385592D01*
X156501224Y-52382573D01*
X156524762Y-52380047D01*
X156548578Y-52378016D01*
X156572678Y-52376478D01*
X156597066Y-52375434D01*
X156645542Y-52376226D01*
X156692782Y-52378601D01*
X156738736Y-52382560D01*
X156783354Y-52388102D01*
X156805147Y-52391467D01*
X156826588Y-52395227D01*
X156847670Y-52399383D01*
X156868387Y-52403935D01*
X156888734Y-52408883D01*
X156908703Y-52414226D01*
X156928289Y-52419965D01*
X156947485Y-52426100D01*
X156984875Y-52438971D01*
X157020978Y-52452288D01*
X157055696Y-52466099D01*
X157088929Y-52480455D01*
X157104958Y-52487852D01*
X157120579Y-52495405D01*
X157135779Y-52503118D01*
X157150545Y-52510998D01*
X157164867Y-52519051D01*
X157178730Y-52527284D01*
X157192124Y-52535703D01*
X157205034Y-52544313D01*
X157218325Y-51970119D01*
X157225465Y-51751633D01*
X157228600Y-51668513D01*
X157231615Y-51602808D01*
X157233434Y-51584253D01*
X157235738Y-51566576D01*
X157238516Y-51549765D01*
X157241753Y-51533807D01*
X157245438Y-51518690D01*
X157249558Y-51504402D01*
X157254099Y-51490930D01*
X157259048Y-51478262D01*
X157264393Y-51466385D01*
X157270121Y-51455287D01*
X157276219Y-51444957D01*
X157282673Y-51435381D01*
X157289472Y-51426547D01*
X157296602Y-51418443D01*
X157304050Y-51411057D01*
X157311804Y-51404376D01*
X157319759Y-51398984D01*
X157327803Y-51393895D01*
X157335925Y-51389116D01*
X157344111Y-51384651D01*
X157352348Y-51380508D01*
X157360624Y-51376693D01*
X157368925Y-51373212D01*
X157377238Y-51370071D01*
X157385552Y-51367276D01*
X157393852Y-51364834D01*
X157402126Y-51362751D01*
X157410362Y-51361032D01*
X157418546Y-51359684D01*
X157426665Y-51358714D01*
X157434707Y-51358128D01*
X157442658Y-51357931D01*
X157451310Y-51358871D01*
G37*
D11*
G36*
X160472257Y-42340997D02*
G01*
X160491664Y-42326316D01*
X160510656Y-42301706D01*
X160515305Y-42293767D01*
X160527805Y-42263183D01*
X160533968Y-42227041D01*
X160534539Y-42210816D01*
X160533562Y-42189075D01*
X160530631Y-42167877D01*
X160522998Y-42138367D01*
X160515561Y-42119120D01*
X160506507Y-42101207D01*
X160490117Y-42077123D01*
X160478238Y-42063875D01*
X160465054Y-42052125D01*
X160438002Y-42034747D01*
X160407225Y-42023383D01*
X160372592Y-42019033D01*
X160368759Y-42018994D01*
X160334879Y-42022889D01*
X160322964Y-42026016D01*
X160309603Y-42031037D01*
X160296894Y-42037910D01*
X160279977Y-42050867D01*
X160260741Y-42073622D01*
X160246760Y-42099502D01*
X160236336Y-42132699D01*
X160231006Y-42177202D01*
X160229065Y-42196069D01*
X160225279Y-42212635D01*
X160220325Y-42225505D01*
X160213887Y-42236532D01*
X160211070Y-42240217D01*
X160202647Y-42248942D01*
X160193538Y-42255429D01*
X160184495Y-42259443D01*
X160174869Y-42261547D01*
X160168785Y-42261893D01*
X160158264Y-42260914D01*
X160148494Y-42257971D01*
X160137675Y-42251757D01*
X160119756Y-42233523D01*
X160114228Y-42225165D01*
X160101685Y-42196388D01*
X160099207Y-42187369D01*
X160095643Y-42168820D01*
X160094051Y-42150168D01*
X160093955Y-42144321D01*
X160094738Y-42115695D01*
X160097100Y-42095655D01*
X160103756Y-42065919D01*
X160105659Y-42044986D01*
X160105496Y-42042471D01*
X160104049Y-42036398D01*
X160100753Y-42031759D01*
X160089843Y-42026941D01*
X160088368Y-42026718D01*
X160080076Y-42026586D01*
X160071904Y-42028446D01*
X160067699Y-42030198D01*
X160056986Y-42039727D01*
X160052648Y-42048394D01*
X160048465Y-42066957D01*
X160044954Y-42092847D01*
X160042848Y-42119103D01*
X160042145Y-42138703D01*
X160043122Y-42163910D01*
X160046053Y-42187386D01*
X160054419Y-42220250D01*
X160062451Y-42240487D01*
X160071822Y-42258633D01*
X160086262Y-42279418D01*
X160097910Y-42292004D01*
X160110569Y-42302732D01*
X160131721Y-42315443D01*
X160146805Y-42321516D01*
X160162123Y-42325536D01*
X160184875Y-42327717D01*
X160208814Y-42323809D01*
X160215619Y-42321397D01*
X160238448Y-42308354D01*
X160245355Y-42302499D01*
X160263523Y-42280439D01*
X160268772Y-42271358D01*
X160278760Y-42244099D01*
X160281351Y-42229012D01*
X160285613Y-42196668D01*
X160291329Y-42169337D01*
X160296738Y-42151648D01*
X160304663Y-42132581D01*
X160313317Y-42117232D01*
X160320521Y-42107898D01*
X160329837Y-42099044D01*
X160339644Y-42092561D01*
X160349189Y-42088664D01*
X160363850Y-42085366D01*
X160378510Y-42084125D01*
X160379964Y-42084115D01*
X160392288Y-42085091D01*
X160403994Y-42088017D01*
X160420874Y-42096358D01*
X160433189Y-42105701D01*
X160444141Y-42116499D01*
X160452351Y-42126796D01*
X160461330Y-42141167D01*
X160468591Y-42156540D01*
X160472257Y-42166700D01*
X160476747Y-42183785D01*
X160478977Y-42200192D01*
X160479248Y-42208007D01*
X160478271Y-42223888D01*
X160475341Y-42238431D01*
X160468074Y-42256306D01*
X160460258Y-42268475D01*
X160451268Y-42278749D01*
X160440109Y-42287813D01*
X160429768Y-42296034D01*
X160423695Y-42303719D01*
X160421912Y-42309521D01*
X160424628Y-42326876D01*
X160426797Y-42332601D01*
X160430750Y-42338755D01*
X160436147Y-42343398D01*
X160443253Y-42346615D01*
X160457258Y-42346749D01*
X160472257Y-42340997D01*
G37*
G36*
X160048007Y-41741167D02*
G01*
X160051915Y-41771462D01*
X160064122Y-41803611D01*
X160072187Y-41818165D01*
X160096960Y-41851598D01*
X160130106Y-41882978D01*
X160139995Y-41890644D01*
X160182863Y-41917669D01*
X160234578Y-41940836D01*
X160244806Y-41944530D01*
X160296078Y-41958288D01*
X160352103Y-41965139D01*
X160378620Y-41965871D01*
X160413930Y-41961963D01*
X160434521Y-41956071D01*
X160450989Y-41949268D01*
X160466347Y-41940781D01*
X160484500Y-41927372D01*
X160507242Y-41902814D01*
X160520556Y-41881180D01*
X160531020Y-41852261D01*
X160534539Y-41819569D01*
X160534105Y-41792331D01*
X160531697Y-41767684D01*
X160529318Y-41754143D01*
X160523242Y-41729938D01*
X160515873Y-41708919D01*
X160514267Y-41705142D01*
X160505297Y-41687224D01*
X160495428Y-41672045D01*
X160493964Y-41670123D01*
X160472257Y-41646676D01*
X160461477Y-41638470D01*
X160451876Y-41633897D01*
X160442917Y-41633029D01*
X160435224Y-41635138D01*
X160428731Y-41639031D01*
X160424050Y-41643867D01*
X160420574Y-41650405D01*
X160419380Y-41657096D01*
X160420539Y-41664170D01*
X160431743Y-41685877D01*
X160452511Y-41719809D01*
X160460381Y-41735580D01*
X160471169Y-41767215D01*
X160475680Y-41805267D01*
X160475768Y-41811876D01*
X160474792Y-41823167D01*
X160471867Y-41833999D01*
X160465266Y-41847230D01*
X160456961Y-41858427D01*
X160447122Y-41868359D01*
X160438368Y-41875226D01*
X160409863Y-41890447D01*
X160400633Y-41893789D01*
X160384452Y-41898085D01*
X160368155Y-41900370D01*
X160357646Y-41900780D01*
X160332488Y-41899804D01*
X160307924Y-41896876D01*
X160284323Y-41892092D01*
X160261287Y-41885423D01*
X160259125Y-41884691D01*
X160232715Y-41874559D01*
X160208338Y-41863051D01*
X160177364Y-41844421D01*
X160158712Y-41830333D01*
X160142352Y-41815453D01*
X160121830Y-41791237D01*
X160112643Y-41776584D01*
X160106148Y-41762349D01*
X160102588Y-41749819D01*
X160101236Y-41737633D01*
X160101222Y-41736283D01*
X160102200Y-41727140D01*
X160105142Y-41718580D01*
X160108213Y-41713171D01*
X160120089Y-41694975D01*
X160135446Y-41696044D01*
X160147322Y-41696379D01*
X160154848Y-41695402D01*
X160161256Y-41692466D01*
X160169335Y-41683435D01*
X160173722Y-41673757D01*
X160175470Y-41664822D01*
X160175288Y-41659987D01*
X160170642Y-41648842D01*
X160160267Y-41639318D01*
X160150305Y-41633482D01*
X160140433Y-41630108D01*
X160131966Y-41629182D01*
X160101222Y-41629182D01*
X160064034Y-41633090D01*
X160055731Y-41634769D01*
X160047839Y-41637367D01*
X160041408Y-41641674D01*
X160035429Y-41649485D01*
X160031490Y-41658982D01*
X160030268Y-41667493D01*
X160030513Y-41670490D01*
X160035665Y-41684108D01*
X160037535Y-41686579D01*
X160043265Y-41692060D01*
X160050178Y-41695903D01*
X160053625Y-41697082D01*
X160049412Y-41717720D01*
X160048007Y-41741167D01*
G37*
G36*
X160507916Y-41281350D02*
G01*
X160505079Y-41269798D01*
X160500812Y-41261801D01*
X160497414Y-41258605D01*
X160483087Y-41253539D01*
X160479218Y-41253353D01*
X160462240Y-41258369D01*
X160456137Y-41261749D01*
X160450928Y-41266077D01*
X160447777Y-41271438D01*
X160447381Y-41284061D01*
X160447741Y-41285563D01*
X160454030Y-41321253D01*
X160460686Y-41378314D01*
X160465571Y-41445145D01*
X160467342Y-41510236D01*
X160428041Y-41509274D01*
X160389978Y-41506389D01*
X160306325Y-41501138D01*
X160176815Y-41496589D01*
X160085834Y-41494146D01*
X160075190Y-41495123D01*
X160066705Y-41498054D01*
X160059242Y-41504313D01*
X160054999Y-41511510D01*
X160052663Y-41519438D01*
X160052220Y-41527760D01*
X160053197Y-41535616D01*
X160056128Y-41542977D01*
X160060647Y-41549437D01*
X160072496Y-41557276D01*
X160087941Y-41559939D01*
X160122226Y-41559603D01*
X160163305Y-41559029D01*
X160172968Y-41558901D01*
X160229693Y-41558565D01*
X160281137Y-41559237D01*
X160354276Y-41563885D01*
X160411318Y-41569404D01*
X160490423Y-41577464D01*
X160500233Y-41577284D01*
X160508356Y-41575000D01*
X160515641Y-41569739D01*
X160520453Y-41563096D01*
X160523249Y-41555769D01*
X160524036Y-41548765D01*
X160523334Y-41508862D01*
X160520861Y-41434307D01*
X160515976Y-41350318D01*
X160507916Y-41281350D01*
G37*
G36*
X160472257Y-44880997D02*
G01*
X160491664Y-44866316D01*
X160510656Y-44841706D01*
X160515305Y-44833767D01*
X160527805Y-44803183D01*
X160533968Y-44767041D01*
X160534539Y-44750816D01*
X160533562Y-44729075D01*
X160530631Y-44707877D01*
X160522998Y-44678367D01*
X160515561Y-44659120D01*
X160506507Y-44641207D01*
X160490117Y-44617123D01*
X160478238Y-44603875D01*
X160465054Y-44592125D01*
X160438002Y-44574747D01*
X160407225Y-44563383D01*
X160372592Y-44559033D01*
X160368759Y-44558994D01*
X160334879Y-44562889D01*
X160322964Y-44566016D01*
X160309603Y-44571037D01*
X160296894Y-44577910D01*
X160279977Y-44590867D01*
X160260741Y-44613622D01*
X160246760Y-44639502D01*
X160236336Y-44672699D01*
X160231006Y-44717202D01*
X160229065Y-44736069D01*
X160225279Y-44752635D01*
X160220325Y-44765505D01*
X160213887Y-44776532D01*
X160211070Y-44780217D01*
X160202647Y-44788942D01*
X160193538Y-44795429D01*
X160184495Y-44799443D01*
X160174869Y-44801547D01*
X160168785Y-44801893D01*
X160158264Y-44800914D01*
X160148494Y-44797971D01*
X160137675Y-44791757D01*
X160119756Y-44773523D01*
X160114228Y-44765165D01*
X160101685Y-44736388D01*
X160099207Y-44727369D01*
X160095643Y-44708820D01*
X160094051Y-44690168D01*
X160093955Y-44684321D01*
X160094738Y-44655695D01*
X160097100Y-44635655D01*
X160103756Y-44605919D01*
X160105659Y-44584986D01*
X160105496Y-44582471D01*
X160104049Y-44576398D01*
X160100753Y-44571759D01*
X160089843Y-44566941D01*
X160088368Y-44566718D01*
X160080076Y-44566586D01*
X160071904Y-44568446D01*
X160067699Y-44570198D01*
X160056986Y-44579727D01*
X160052648Y-44588394D01*
X160048465Y-44606957D01*
X160044954Y-44632847D01*
X160042848Y-44659103D01*
X160042145Y-44678703D01*
X160043122Y-44703910D01*
X160046053Y-44727386D01*
X160054419Y-44760250D01*
X160062451Y-44780487D01*
X160071822Y-44798633D01*
X160086262Y-44819418D01*
X160097910Y-44832004D01*
X160110569Y-44842732D01*
X160131721Y-44855443D01*
X160146805Y-44861516D01*
X160162123Y-44865536D01*
X160184875Y-44867717D01*
X160208814Y-44863809D01*
X160215619Y-44861397D01*
X160238448Y-44848354D01*
X160245355Y-44842499D01*
X160263523Y-44820439D01*
X160268772Y-44811358D01*
X160278760Y-44784099D01*
X160281351Y-44769012D01*
X160285613Y-44736668D01*
X160291329Y-44709337D01*
X160296738Y-44691648D01*
X160304663Y-44672581D01*
X160313317Y-44657232D01*
X160320521Y-44647898D01*
X160329837Y-44639044D01*
X160339644Y-44632561D01*
X160349189Y-44628664D01*
X160363850Y-44625366D01*
X160378510Y-44624125D01*
X160379964Y-44624115D01*
X160392288Y-44625091D01*
X160403994Y-44628017D01*
X160420874Y-44636358D01*
X160433189Y-44645701D01*
X160444141Y-44656499D01*
X160452351Y-44666796D01*
X160461330Y-44681167D01*
X160468591Y-44696540D01*
X160472257Y-44706700D01*
X160476747Y-44723785D01*
X160478977Y-44740192D01*
X160479248Y-44748007D01*
X160478271Y-44763888D01*
X160475341Y-44778431D01*
X160468074Y-44796306D01*
X160460258Y-44808475D01*
X160451268Y-44818749D01*
X160440109Y-44827813D01*
X160429768Y-44836034D01*
X160423695Y-44843719D01*
X160421912Y-44849521D01*
X160424628Y-44866876D01*
X160426797Y-44872601D01*
X160430750Y-44878755D01*
X160436147Y-44883398D01*
X160443253Y-44886615D01*
X160457258Y-44886749D01*
X160472257Y-44880997D01*
G37*
G36*
X160381804Y-44166704D02*
G01*
X160401473Y-44169970D01*
X160421699Y-44175471D01*
X160444547Y-44184523D01*
X160461192Y-44193508D01*
X160476806Y-44204170D01*
X160495926Y-44221255D01*
X160507735Y-44235105D01*
X160518114Y-44250393D01*
X160519451Y-44252673D01*
X160525949Y-44266029D01*
X160530627Y-44280157D01*
X160533562Y-44295646D01*
X160534539Y-44311973D01*
X160532119Y-44379206D01*
X160524739Y-44424691D01*
X160514267Y-44473692D01*
X160513466Y-44480750D01*
X160510661Y-44488047D01*
X160505840Y-44494666D01*
X160498579Y-44499927D01*
X160490463Y-44502211D01*
X160480653Y-44502390D01*
X160436689Y-44501322D01*
X160369339Y-44501322D01*
X160286663Y-44502726D01*
X160196659Y-44505169D01*
X160129676Y-44505535D01*
X160083606Y-44503764D01*
X160068232Y-44501117D01*
X160056403Y-44493292D01*
X160051905Y-44486826D01*
X160048983Y-44479450D01*
X160048007Y-44471585D01*
X160050278Y-44447524D01*
X160051274Y-44441482D01*
X160109434Y-44441482D01*
X160193515Y-44442185D01*
X160287365Y-44440780D01*
X160374224Y-44438338D01*
X160456931Y-44435895D01*
X160462750Y-44420862D01*
X160473661Y-44378132D01*
X160474616Y-44371952D01*
X160477567Y-44343513D01*
X160478546Y-44312675D01*
X160476238Y-44297118D01*
X160472141Y-44287467D01*
X160465998Y-44278389D01*
X160459486Y-44271101D01*
X160447936Y-44260843D01*
X160434583Y-44251797D01*
X160426713Y-44247440D01*
X160410268Y-44240207D01*
X160392390Y-44234639D01*
X160383572Y-44232594D01*
X160347357Y-44228686D01*
X160318856Y-44229985D01*
X160278771Y-44237301D01*
X160245844Y-44250393D01*
X160241968Y-44252491D01*
X160206708Y-44276134D01*
X160178494Y-44303943D01*
X160157539Y-44332598D01*
X160146048Y-44352462D01*
X160136301Y-44373216D01*
X160109434Y-44441482D01*
X160051274Y-44441482D01*
X160057105Y-44406128D01*
X160059020Y-44396660D01*
X160065096Y-44374297D01*
X160073411Y-44351629D01*
X160084591Y-44327423D01*
X160098260Y-44302874D01*
X160116268Y-44276963D01*
X160131915Y-44258878D01*
X160149646Y-44241542D01*
X160170439Y-44224199D01*
X160193515Y-44207681D01*
X160211596Y-44196983D01*
X160231180Y-44187906D01*
X160252372Y-44180377D01*
X160276478Y-44174115D01*
X160302376Y-44169578D01*
X160331883Y-44166648D01*
X160363416Y-44165671D01*
X160381804Y-44166704D01*
G37*
G36*
X160491628Y-43776055D02*
G01*
X160498330Y-43778302D01*
X160506585Y-43783416D01*
X160516526Y-43795460D01*
X160518643Y-43803240D01*
X160518372Y-43811089D01*
X160515824Y-43819243D01*
X160509501Y-43827978D01*
X160500619Y-43834535D01*
X160488530Y-43840248D01*
X160437788Y-43853895D01*
X160350624Y-43873160D01*
X160352364Y-43903263D01*
X160355173Y-43940693D01*
X160359386Y-43982000D01*
X160364637Y-44022942D01*
X160441971Y-44049900D01*
X160488530Y-44065654D01*
X160506697Y-44074316D01*
X160515824Y-44084888D01*
X160518550Y-44093978D01*
X160518558Y-44101272D01*
X160516526Y-44108366D01*
X160512728Y-44114326D01*
X160506918Y-44119425D01*
X160499368Y-44123051D01*
X160492752Y-44124584D01*
X160480918Y-44124747D01*
X160466823Y-44122349D01*
X160428660Y-44110106D01*
X160364637Y-44084552D01*
X160355875Y-44093314D01*
X160345739Y-44096459D01*
X160340905Y-44096102D01*
X160334470Y-44093264D01*
X160328215Y-44087697D01*
X160326016Y-44085063D01*
X160320037Y-44075723D01*
X160315636Y-44064951D01*
X160243890Y-44033444D01*
X160173884Y-44000563D01*
X160112274Y-43969056D01*
X160065715Y-43941059D01*
X160046816Y-43924268D01*
X160044420Y-43920901D01*
X160044040Y-43920054D01*
X160121036Y-43920054D01*
X160153917Y-43938250D01*
X160198736Y-43958889D01*
X160251217Y-43980596D01*
X160307240Y-44001937D01*
X160300921Y-43935808D01*
X160298112Y-43883662D01*
X160218309Y-43899912D01*
X160207131Y-43902194D01*
X160121036Y-43920054D01*
X160044040Y-43920054D01*
X160041502Y-43914389D01*
X160040527Y-43907445D01*
X160040466Y-43903571D01*
X160041754Y-43894552D01*
X160045076Y-43885769D01*
X160050082Y-43879274D01*
X160056843Y-43875062D01*
X160065715Y-43872458D01*
X160161275Y-43854597D01*
X160287274Y-43828341D01*
X160402434Y-43801413D01*
X160442391Y-43790568D01*
X160466823Y-43781447D01*
X160484364Y-43775712D01*
X160491628Y-43776055D01*
G37*
G36*
X160381804Y-47476557D02*
G01*
X160401473Y-47479824D01*
X160421699Y-47485325D01*
X160444547Y-47494377D01*
X160461192Y-47503362D01*
X160476806Y-47514024D01*
X160495926Y-47531109D01*
X160507735Y-47544959D01*
X160518114Y-47560247D01*
X160519451Y-47562526D01*
X160525949Y-47575882D01*
X160530627Y-47590011D01*
X160533562Y-47605500D01*
X160534539Y-47621826D01*
X160532119Y-47689060D01*
X160524739Y-47734544D01*
X160514267Y-47783546D01*
X160513466Y-47790604D01*
X160510661Y-47797901D01*
X160505840Y-47804520D01*
X160498579Y-47809781D01*
X160490463Y-47812065D01*
X160480653Y-47812244D01*
X160436689Y-47811176D01*
X160369339Y-47811176D01*
X160286663Y-47812580D01*
X160196659Y-47815022D01*
X160129676Y-47815389D01*
X160083606Y-47813618D01*
X160068232Y-47810971D01*
X160056403Y-47803146D01*
X160051905Y-47796679D01*
X160048983Y-47789303D01*
X160048007Y-47781439D01*
X160050278Y-47757377D01*
X160051274Y-47751336D01*
X160109434Y-47751336D01*
X160193515Y-47752038D01*
X160287365Y-47750634D01*
X160374224Y-47748191D01*
X160456931Y-47745749D01*
X160462750Y-47730716D01*
X160473661Y-47687986D01*
X160474616Y-47681806D01*
X160477567Y-47653367D01*
X160478546Y-47622528D01*
X160476238Y-47606972D01*
X160472141Y-47597320D01*
X160465998Y-47588243D01*
X160459486Y-47580955D01*
X160447936Y-47570697D01*
X160434583Y-47561651D01*
X160426713Y-47557294D01*
X160410268Y-47550061D01*
X160392390Y-47544493D01*
X160383572Y-47542447D01*
X160347357Y-47538539D01*
X160318856Y-47539838D01*
X160278771Y-47547154D01*
X160245844Y-47560247D01*
X160241968Y-47562345D01*
X160206708Y-47585987D01*
X160178494Y-47613797D01*
X160157539Y-47642452D01*
X160146048Y-47662316D01*
X160136301Y-47683070D01*
X160109434Y-47751336D01*
X160051274Y-47751336D01*
X160057105Y-47715982D01*
X160059020Y-47706513D01*
X160065096Y-47684151D01*
X160073411Y-47661482D01*
X160084591Y-47637277D01*
X160098260Y-47612728D01*
X160116268Y-47586817D01*
X160131915Y-47568732D01*
X160149646Y-47551396D01*
X160170439Y-47534052D01*
X160193515Y-47517535D01*
X160211596Y-47506837D01*
X160231180Y-47497759D01*
X160252372Y-47490231D01*
X160276478Y-47483969D01*
X160302376Y-47479432D01*
X160331883Y-47476502D01*
X160363416Y-47475525D01*
X160381804Y-47476557D01*
G37*
G36*
X160472257Y-47420998D02*
G01*
X160491664Y-47406316D01*
X160510656Y-47381706D01*
X160515305Y-47373767D01*
X160527805Y-47343184D01*
X160533968Y-47307042D01*
X160534539Y-47290816D01*
X160533562Y-47269075D01*
X160530631Y-47247877D01*
X160522998Y-47218368D01*
X160515561Y-47199120D01*
X160506507Y-47181207D01*
X160490117Y-47157124D01*
X160478238Y-47143875D01*
X160465054Y-47132125D01*
X160438002Y-47114748D01*
X160407225Y-47103383D01*
X160372592Y-47099033D01*
X160368759Y-47098994D01*
X160334879Y-47102889D01*
X160322964Y-47106016D01*
X160309603Y-47111037D01*
X160296894Y-47117911D01*
X160279977Y-47130868D01*
X160260741Y-47153622D01*
X160246760Y-47179502D01*
X160236336Y-47212699D01*
X160231006Y-47257202D01*
X160229065Y-47276070D01*
X160225279Y-47292635D01*
X160220325Y-47305505D01*
X160213887Y-47316533D01*
X160211070Y-47320217D01*
X160202647Y-47328942D01*
X160193538Y-47335429D01*
X160184495Y-47339444D01*
X160174869Y-47341547D01*
X160168785Y-47341893D01*
X160158264Y-47340915D01*
X160148494Y-47337971D01*
X160137675Y-47331757D01*
X160119756Y-47313524D01*
X160114228Y-47305165D01*
X160101685Y-47276389D01*
X160099207Y-47267369D01*
X160095643Y-47248820D01*
X160094051Y-47230168D01*
X160093955Y-47224321D01*
X160094738Y-47195695D01*
X160097100Y-47175656D01*
X160103756Y-47145919D01*
X160105659Y-47124986D01*
X160105496Y-47122472D01*
X160104049Y-47116398D01*
X160100753Y-47111759D01*
X160089843Y-47106941D01*
X160088368Y-47106718D01*
X160080076Y-47106587D01*
X160071904Y-47108446D01*
X160067699Y-47110199D01*
X160056986Y-47119727D01*
X160052648Y-47128395D01*
X160048465Y-47146957D01*
X160044954Y-47172847D01*
X160042848Y-47199103D01*
X160042145Y-47218703D01*
X160043122Y-47243910D01*
X160046053Y-47267386D01*
X160054419Y-47300250D01*
X160062451Y-47320487D01*
X160071822Y-47338634D01*
X160086262Y-47359418D01*
X160097910Y-47372005D01*
X160110569Y-47382732D01*
X160131721Y-47395444D01*
X160146805Y-47401517D01*
X160162123Y-47405536D01*
X160184875Y-47407717D01*
X160208814Y-47403809D01*
X160215619Y-47401397D01*
X160238448Y-47388355D01*
X160245355Y-47382499D01*
X160263523Y-47360439D01*
X160268772Y-47351358D01*
X160278760Y-47324099D01*
X160281351Y-47309012D01*
X160285613Y-47276669D01*
X160291329Y-47249337D01*
X160296738Y-47231648D01*
X160304663Y-47212581D01*
X160313317Y-47197232D01*
X160320521Y-47187898D01*
X160329837Y-47179044D01*
X160339644Y-47172561D01*
X160349189Y-47168664D01*
X160363850Y-47165366D01*
X160378510Y-47164125D01*
X160379964Y-47164115D01*
X160392288Y-47165091D01*
X160403994Y-47168018D01*
X160420874Y-47176358D01*
X160433189Y-47185702D01*
X160444141Y-47196499D01*
X160452351Y-47206797D01*
X160461330Y-47221167D01*
X160468591Y-47236541D01*
X160472257Y-47246700D01*
X160476747Y-47263786D01*
X160478977Y-47280193D01*
X160479248Y-47288007D01*
X160478271Y-47303888D01*
X160475341Y-47318431D01*
X160468074Y-47336306D01*
X160460258Y-47348475D01*
X160451268Y-47358749D01*
X160440109Y-47367814D01*
X160429768Y-47376034D01*
X160423695Y-47383720D01*
X160421912Y-47389521D01*
X160424628Y-47406877D01*
X160426797Y-47412602D01*
X160430750Y-47418755D01*
X160436147Y-47423398D01*
X160443253Y-47426615D01*
X160457258Y-47426750D01*
X160472257Y-47420998D01*
G37*
G36*
X160381804Y-46706704D02*
G01*
X160401473Y-46709970D01*
X160421699Y-46715472D01*
X160444547Y-46724524D01*
X160461192Y-46733509D01*
X160476806Y-46744170D01*
X160495926Y-46761255D01*
X160507735Y-46775105D01*
X160518114Y-46790393D01*
X160519451Y-46792673D01*
X160525949Y-46806029D01*
X160530627Y-46820157D01*
X160533562Y-46835646D01*
X160534539Y-46851973D01*
X160532119Y-46919206D01*
X160524739Y-46964691D01*
X160514267Y-47013692D01*
X160513466Y-47020750D01*
X160510661Y-47028048D01*
X160505840Y-47034666D01*
X160498579Y-47039927D01*
X160490463Y-47042211D01*
X160480653Y-47042391D01*
X160436689Y-47041322D01*
X160369339Y-47041322D01*
X160286663Y-47042726D01*
X160196659Y-47045169D01*
X160129676Y-47045535D01*
X160083606Y-47043765D01*
X160068232Y-47041117D01*
X160056403Y-47033293D01*
X160051905Y-47026826D01*
X160048983Y-47019450D01*
X160048007Y-47011586D01*
X160050278Y-46987524D01*
X160051274Y-46981483D01*
X160109434Y-46981483D01*
X160193515Y-46982185D01*
X160287365Y-46980780D01*
X160374224Y-46978338D01*
X160456931Y-46975896D01*
X160462750Y-46960862D01*
X160473661Y-46918132D01*
X160474616Y-46911952D01*
X160477567Y-46883514D01*
X160478546Y-46852675D01*
X160476238Y-46837118D01*
X160472141Y-46827467D01*
X160465998Y-46818389D01*
X160459486Y-46811101D01*
X160447936Y-46800843D01*
X160434583Y-46791797D01*
X160426713Y-46787441D01*
X160410268Y-46780207D01*
X160392390Y-46774639D01*
X160383572Y-46772594D01*
X160347357Y-46768686D01*
X160318856Y-46769985D01*
X160278771Y-46777301D01*
X160245844Y-46790393D01*
X160241968Y-46792492D01*
X160206708Y-46816134D01*
X160178494Y-46843943D01*
X160157539Y-46872599D01*
X160146048Y-46892463D01*
X160136301Y-46913217D01*
X160109434Y-46981483D01*
X160051274Y-46981483D01*
X160057105Y-46946128D01*
X160059020Y-46936660D01*
X160065096Y-46914297D01*
X160073411Y-46891629D01*
X160084591Y-46867424D01*
X160098260Y-46842875D01*
X160116268Y-46816964D01*
X160131915Y-46798879D01*
X160149646Y-46781543D01*
X160170439Y-46764199D01*
X160193515Y-46747681D01*
X160211596Y-46736983D01*
X160231180Y-46727906D01*
X160252372Y-46720378D01*
X160276478Y-46714115D01*
X160302376Y-46709578D01*
X160331883Y-46706648D01*
X160363416Y-46705671D01*
X160381804Y-46706704D01*
G37*
G36*
X160471311Y-46628063D02*
G01*
X160472739Y-46639208D01*
X160476028Y-46647839D01*
X160480775Y-46653617D01*
X160487443Y-46657925D01*
X160494581Y-46660060D01*
X160500009Y-46660242D01*
X160506867Y-46659266D01*
X160512778Y-46656345D01*
X160517167Y-46652213D01*
X160522721Y-46639318D01*
X160523823Y-46626659D01*
X160522418Y-46568895D01*
X160519976Y-46491562D01*
X160518907Y-46415267D01*
X160521716Y-46359946D01*
X160522207Y-46350674D01*
X160520377Y-46343543D01*
X160514023Y-46337200D01*
X160504377Y-46333493D01*
X160494728Y-46331985D01*
X160493018Y-46331949D01*
X160484990Y-46333534D01*
X160477558Y-46337032D01*
X160476226Y-46337903D01*
X160470215Y-46346762D01*
X160468532Y-46359946D01*
X160468166Y-46400215D01*
X160467830Y-46464939D01*
X160379994Y-46462497D01*
X160273525Y-46461373D01*
X160269780Y-46461459D01*
X160174250Y-46462161D01*
X160107389Y-46460757D01*
X160110533Y-46404062D01*
X160114411Y-46364861D01*
X160114836Y-46356000D01*
X160113024Y-46348734D01*
X160105313Y-46340345D01*
X160095418Y-46335652D01*
X160086036Y-46333506D01*
X160082903Y-46333354D01*
X160068602Y-46338315D01*
X160065745Y-46340345D01*
X160058792Y-46350769D01*
X160056311Y-46363457D01*
X160050378Y-46462520D01*
X160049961Y-46485609D01*
X160051366Y-46622446D01*
X160052799Y-46633306D01*
X160056104Y-46641960D01*
X160060830Y-46648000D01*
X160067306Y-46652640D01*
X160074227Y-46655041D01*
X160080064Y-46655357D01*
X160087090Y-46654380D01*
X160093510Y-46651449D01*
X160098627Y-46647297D01*
X160104842Y-46635560D01*
X160105984Y-46621743D01*
X160105282Y-46579764D01*
X160105984Y-46526550D01*
X160155657Y-46528656D01*
X160231250Y-46527954D01*
X160303333Y-46527252D01*
X160369828Y-46527588D01*
X160426187Y-46529359D01*
X160468532Y-46531465D01*
X160469937Y-46582542D01*
X160471311Y-46628063D01*
G37*
G36*
X160508008Y-45961036D02*
G01*
X160488396Y-45956956D01*
X160429972Y-45952976D01*
X160292067Y-45949831D01*
X160157306Y-45949831D01*
X160089406Y-45951236D01*
X160073584Y-45954468D01*
X160062479Y-45958594D01*
X160056065Y-45966321D01*
X160053716Y-45982041D01*
X160054692Y-45989321D01*
X160057617Y-45995820D01*
X160064219Y-46003015D01*
X160070732Y-46006997D01*
X160078180Y-46009229D01*
X160090811Y-46009335D01*
X160153825Y-46005122D01*
X160245874Y-46003382D01*
X160343877Y-46003382D01*
X160424721Y-46004420D01*
X160347021Y-46049574D01*
X160246577Y-46104864D01*
X160148574Y-46155270D01*
X160107702Y-46174260D01*
X160078232Y-46185739D01*
X160069321Y-46189593D01*
X160062833Y-46194720D01*
X160058632Y-46201463D01*
X160054419Y-46221429D01*
X160054116Y-46231252D01*
X160055785Y-46241018D01*
X160060708Y-46253273D01*
X160064804Y-46258859D01*
X160070392Y-46263091D01*
X160086241Y-46267499D01*
X160096428Y-46267622D01*
X160185669Y-46265882D01*
X160301867Y-46267286D01*
X160411410Y-46269728D01*
X160479310Y-46271133D01*
X160495140Y-46270159D01*
X160507786Y-46267246D01*
X160510450Y-46266217D01*
X160516047Y-46262790D01*
X160519955Y-46257956D01*
X160522724Y-46247319D01*
X160522163Y-46240097D01*
X160519625Y-46233292D01*
X160513961Y-46225643D01*
X160501679Y-46218522D01*
X160482821Y-46216514D01*
X160430675Y-46215842D01*
X160345953Y-46213369D01*
X160245874Y-46212331D01*
X160146803Y-46215140D01*
X160219596Y-46184493D01*
X160248653Y-46170322D01*
X160356120Y-46113627D01*
X160448871Y-46061145D01*
X160506604Y-46029638D01*
X160517472Y-46021109D01*
X160519213Y-46018769D01*
X160523938Y-46005158D01*
X160524098Y-45997428D01*
X160520617Y-45975721D01*
X160517269Y-45968841D01*
X160512409Y-45963670D01*
X160508008Y-45961036D01*
G37*
G36*
X160472257Y-50153460D02*
G01*
X160491664Y-50138779D01*
X160510656Y-50114169D01*
X160515305Y-50106230D01*
X160527805Y-50075646D01*
X160533968Y-50039504D01*
X160534539Y-50023279D01*
X160533562Y-50001538D01*
X160530631Y-49980340D01*
X160522998Y-49950830D01*
X160515561Y-49931583D01*
X160506507Y-49913670D01*
X160490117Y-49889586D01*
X160478238Y-49876338D01*
X160465054Y-49864588D01*
X160438002Y-49847210D01*
X160407225Y-49835846D01*
X160372592Y-49831496D01*
X160368759Y-49831457D01*
X160334879Y-49835352D01*
X160322964Y-49838479D01*
X160309603Y-49843500D01*
X160296894Y-49850373D01*
X160279977Y-49863330D01*
X160260741Y-49886085D01*
X160246760Y-49911965D01*
X160236336Y-49945162D01*
X160231006Y-49989665D01*
X160229065Y-50008532D01*
X160225279Y-50025098D01*
X160220325Y-50037968D01*
X160213887Y-50048995D01*
X160211070Y-50052680D01*
X160202647Y-50061405D01*
X160193538Y-50067892D01*
X160184495Y-50071906D01*
X160174869Y-50074010D01*
X160168785Y-50074356D01*
X160158264Y-50073377D01*
X160148494Y-50070434D01*
X160137675Y-50064220D01*
X160119756Y-50045986D01*
X160114228Y-50037628D01*
X160101685Y-50008851D01*
X160099207Y-49999832D01*
X160095643Y-49981283D01*
X160094051Y-49962631D01*
X160093955Y-49956784D01*
X160094738Y-49928158D01*
X160097100Y-49908118D01*
X160103756Y-49878382D01*
X160105659Y-49857449D01*
X160105496Y-49854934D01*
X160104049Y-49848861D01*
X160100753Y-49844222D01*
X160089843Y-49839404D01*
X160088368Y-49839181D01*
X160080076Y-49839049D01*
X160071904Y-49840909D01*
X160067699Y-49842661D01*
X160056986Y-49852190D01*
X160052648Y-49860857D01*
X160048465Y-49879420D01*
X160044954Y-49905310D01*
X160042848Y-49931566D01*
X160042145Y-49951166D01*
X160043122Y-49976373D01*
X160046053Y-49999849D01*
X160054419Y-50032713D01*
X160062451Y-50052950D01*
X160071822Y-50071096D01*
X160086262Y-50091881D01*
X160097910Y-50104467D01*
X160110569Y-50115195D01*
X160131721Y-50127906D01*
X160146805Y-50133979D01*
X160162123Y-50137999D01*
X160184875Y-50140180D01*
X160208814Y-50136272D01*
X160215619Y-50133860D01*
X160238448Y-50120817D01*
X160245355Y-50114962D01*
X160263523Y-50092902D01*
X160268772Y-50083821D01*
X160278760Y-50056562D01*
X160281351Y-50041475D01*
X160285613Y-50009131D01*
X160291329Y-49981800D01*
X160296738Y-49964111D01*
X160304663Y-49945044D01*
X160313317Y-49929695D01*
X160320521Y-49920361D01*
X160329837Y-49911507D01*
X160339644Y-49905024D01*
X160349189Y-49901127D01*
X160363850Y-49897829D01*
X160378510Y-49896588D01*
X160379964Y-49896578D01*
X160392288Y-49897554D01*
X160403994Y-49900480D01*
X160420874Y-49908821D01*
X160433189Y-49918164D01*
X160444141Y-49928962D01*
X160452351Y-49939259D01*
X160461330Y-49953630D01*
X160468591Y-49969003D01*
X160472257Y-49979163D01*
X160476747Y-49996248D01*
X160478977Y-50012655D01*
X160479248Y-50020470D01*
X160478271Y-50036351D01*
X160475341Y-50050894D01*
X160468074Y-50068769D01*
X160460258Y-50080938D01*
X160451268Y-50091212D01*
X160440109Y-50100276D01*
X160429768Y-50108497D01*
X160423695Y-50116182D01*
X160421912Y-50121984D01*
X160424628Y-50139339D01*
X160426797Y-50145064D01*
X160430750Y-50151218D01*
X160436147Y-50155861D01*
X160443253Y-50159078D01*
X160457258Y-50159212D01*
X160472257Y-50153460D01*
G37*
G36*
X160048007Y-49553630D02*
G01*
X160051915Y-49583925D01*
X160064122Y-49616074D01*
X160072187Y-49630628D01*
X160096960Y-49664061D01*
X160130106Y-49695441D01*
X160139995Y-49703107D01*
X160182863Y-49730132D01*
X160234578Y-49753299D01*
X160244806Y-49756993D01*
X160296078Y-49770751D01*
X160352103Y-49777602D01*
X160378620Y-49778334D01*
X160413930Y-49774426D01*
X160434521Y-49768534D01*
X160450989Y-49761731D01*
X160466347Y-49753244D01*
X160484500Y-49739835D01*
X160507242Y-49715277D01*
X160520556Y-49693643D01*
X160531020Y-49664724D01*
X160534539Y-49632032D01*
X160534105Y-49604794D01*
X160531697Y-49580147D01*
X160529318Y-49566606D01*
X160523242Y-49542401D01*
X160515873Y-49521382D01*
X160514267Y-49517605D01*
X160505297Y-49499687D01*
X160495428Y-49484508D01*
X160493964Y-49482586D01*
X160472257Y-49459139D01*
X160461477Y-49450933D01*
X160451876Y-49446360D01*
X160442917Y-49445492D01*
X160435224Y-49447601D01*
X160428731Y-49451494D01*
X160424050Y-49456330D01*
X160420574Y-49462868D01*
X160419380Y-49469559D01*
X160420539Y-49476633D01*
X160431743Y-49498340D01*
X160452511Y-49532272D01*
X160460381Y-49548043D01*
X160471169Y-49579678D01*
X160475680Y-49617730D01*
X160475768Y-49624339D01*
X160474792Y-49635630D01*
X160471867Y-49646462D01*
X160465266Y-49659693D01*
X160456961Y-49670890D01*
X160447122Y-49680822D01*
X160438368Y-49687689D01*
X160409863Y-49702910D01*
X160400633Y-49706252D01*
X160384452Y-49710548D01*
X160368155Y-49712833D01*
X160357646Y-49713243D01*
X160332488Y-49712267D01*
X160307924Y-49709339D01*
X160284323Y-49704555D01*
X160261287Y-49697886D01*
X160259125Y-49697154D01*
X160232715Y-49687022D01*
X160208338Y-49675514D01*
X160177364Y-49656884D01*
X160158712Y-49642796D01*
X160142352Y-49627916D01*
X160121830Y-49603700D01*
X160112643Y-49589047D01*
X160106148Y-49574812D01*
X160102588Y-49562282D01*
X160101236Y-49550096D01*
X160101222Y-49548746D01*
X160102200Y-49539603D01*
X160105142Y-49531043D01*
X160108213Y-49525634D01*
X160120089Y-49507438D01*
X160135446Y-49508507D01*
X160147322Y-49508842D01*
X160154848Y-49507865D01*
X160161256Y-49504929D01*
X160169335Y-49495898D01*
X160173722Y-49486220D01*
X160175470Y-49477285D01*
X160175288Y-49472450D01*
X160170642Y-49461305D01*
X160160267Y-49451781D01*
X160150305Y-49445945D01*
X160140433Y-49442571D01*
X160131966Y-49441645D01*
X160101222Y-49441645D01*
X160064034Y-49445553D01*
X160055731Y-49447232D01*
X160047839Y-49449830D01*
X160041408Y-49454137D01*
X160035429Y-49461948D01*
X160031490Y-49471445D01*
X160030268Y-49479956D01*
X160030513Y-49482953D01*
X160035665Y-49496571D01*
X160037535Y-49499042D01*
X160043265Y-49504523D01*
X160050178Y-49508366D01*
X160053625Y-49509545D01*
X160049412Y-49530183D01*
X160048007Y-49553630D01*
G37*
G36*
X160507916Y-49093813D02*
G01*
X160505079Y-49082261D01*
X160500812Y-49074264D01*
X160497414Y-49071068D01*
X160483087Y-49066002D01*
X160479218Y-49065816D01*
X160462240Y-49070832D01*
X160456137Y-49074212D01*
X160450928Y-49078540D01*
X160447777Y-49083901D01*
X160447381Y-49096524D01*
X160447741Y-49098026D01*
X160454030Y-49133716D01*
X160460686Y-49190777D01*
X160465571Y-49257608D01*
X160467342Y-49322699D01*
X160428041Y-49321737D01*
X160389978Y-49318852D01*
X160306325Y-49313601D01*
X160176815Y-49309052D01*
X160085834Y-49306609D01*
X160075190Y-49307586D01*
X160066705Y-49310517D01*
X160059242Y-49316776D01*
X160054999Y-49323973D01*
X160052663Y-49331901D01*
X160052220Y-49340223D01*
X160053197Y-49348079D01*
X160056128Y-49355440D01*
X160060647Y-49361900D01*
X160072496Y-49369739D01*
X160087941Y-49372402D01*
X160122226Y-49372066D01*
X160163305Y-49371492D01*
X160172968Y-49371364D01*
X160229693Y-49371028D01*
X160281137Y-49371700D01*
X160354276Y-49376348D01*
X160411318Y-49381867D01*
X160490423Y-49389927D01*
X160500233Y-49389747D01*
X160508356Y-49387463D01*
X160515641Y-49382202D01*
X160520453Y-49375559D01*
X160523249Y-49368232D01*
X160524036Y-49361228D01*
X160523334Y-49321325D01*
X160520861Y-49246770D01*
X160515976Y-49162781D01*
X160507916Y-49093813D01*
G37*
G36*
X160512221Y-48741798D02*
G01*
X160520683Y-48733367D01*
X160526087Y-48724942D01*
X160527975Y-48719388D01*
X160528549Y-48712118D01*
X160527061Y-48705162D01*
X160523426Y-48698384D01*
X160511670Y-48688345D01*
X160508008Y-48686477D01*
X160501091Y-48684323D01*
X160494018Y-48684253D01*
X160486301Y-48686477D01*
X160472361Y-48696588D01*
X160452351Y-48715542D01*
X160395656Y-48773977D01*
X160331970Y-48841540D01*
X160277015Y-48897899D01*
X160225205Y-48845387D01*
X160170953Y-48791135D01*
X160125829Y-48746683D01*
X160100611Y-48722899D01*
X160089731Y-48715260D01*
X160080011Y-48711112D01*
X160074019Y-48710290D01*
X160066112Y-48711269D01*
X160059198Y-48714211D01*
X160055121Y-48717282D01*
X160051032Y-48722750D01*
X160048575Y-48729333D01*
X160047763Y-48735844D01*
X160051314Y-48748918D01*
X160060708Y-48761398D01*
X160085224Y-48787288D01*
X160129310Y-48832778D01*
X160183226Y-48888099D01*
X160200936Y-48906254D01*
X160237814Y-48944092D01*
X160147170Y-48941985D01*
X160081010Y-48940581D01*
X160070380Y-48941558D01*
X160061889Y-48944489D01*
X160054419Y-48950747D01*
X160050177Y-48957945D01*
X160047848Y-48965873D01*
X160047427Y-48974195D01*
X160048407Y-48982093D01*
X160051355Y-48989490D01*
X160055823Y-48995871D01*
X160067672Y-49003711D01*
X160083117Y-49006374D01*
X160138072Y-49008480D01*
X160217512Y-49007778D01*
X160303974Y-49005336D01*
X160385520Y-49003931D01*
X160452351Y-49003931D01*
X160495430Y-49005000D01*
X160505220Y-49004821D01*
X160513338Y-49002541D01*
X160520617Y-48997276D01*
X160525429Y-48990631D01*
X160528226Y-48983295D01*
X160529013Y-48976271D01*
X160528488Y-48967484D01*
X160525983Y-48959008D01*
X160521655Y-48951083D01*
X160516410Y-48945037D01*
X160510023Y-48940776D01*
X160498910Y-48937772D01*
X160425759Y-48940245D01*
X160329528Y-48943390D01*
X160316216Y-48943390D01*
X160369064Y-48892984D01*
X160428202Y-48830336D01*
X160480378Y-48773977D01*
X160512221Y-48741798D01*
G37*
G36*
X160503825Y-52502371D02*
G01*
X160475829Y-52495379D01*
X160424355Y-52486617D01*
X160356455Y-52477519D01*
X160279824Y-52470161D01*
X160233557Y-52465989D01*
X160188972Y-52459976D01*
X160182860Y-52458987D01*
X160107633Y-52445676D01*
X160217878Y-52441829D01*
X160334077Y-52436212D01*
X160432781Y-52429220D01*
X160468555Y-52425282D01*
X160489812Y-52421160D01*
X160501771Y-52416302D01*
X160510603Y-52410411D01*
X160517106Y-52401926D01*
X160519651Y-52394043D01*
X160519952Y-52386393D01*
X160517808Y-52378479D01*
X160513855Y-52372328D01*
X160508351Y-52367497D01*
X160500650Y-52363763D01*
X160483293Y-52361991D01*
X160468105Y-52364465D01*
X160397427Y-52372525D01*
X160278420Y-52381623D01*
X160157672Y-52390385D01*
X160081713Y-52397377D01*
X160071855Y-52399630D01*
X160064471Y-52403531D01*
X160060203Y-52408043D01*
X160057651Y-52413696D01*
X160057227Y-52415573D01*
X160054419Y-52440058D01*
X160057001Y-52461809D01*
X160058265Y-52466314D01*
X160061481Y-52473614D01*
X160066262Y-52479348D01*
X160078202Y-52485579D01*
X160108671Y-52492571D01*
X160154528Y-52501669D01*
X160210520Y-52511133D01*
X160271428Y-52519163D01*
X160365920Y-52527925D01*
X160438002Y-52533878D01*
X160352273Y-52544716D01*
X160248317Y-52556959D01*
X160149276Y-52570270D01*
X160078232Y-52583582D01*
X160069623Y-52586916D01*
X160063251Y-52591652D01*
X160058632Y-52598969D01*
X160054419Y-52619272D01*
X160057159Y-52638696D01*
X160059303Y-52644825D01*
X160063452Y-52652707D01*
X160069200Y-52659291D01*
X160079606Y-52666166D01*
X160100945Y-52672484D01*
X160118471Y-52675631D01*
X160185302Y-52684026D01*
X160265475Y-52691384D01*
X160342808Y-52697674D01*
X160422950Y-52705367D01*
X160473020Y-52709580D01*
X160489337Y-52708606D01*
X160503430Y-52705694D01*
X160506604Y-52704665D01*
X160513289Y-52701292D01*
X160517968Y-52696550D01*
X160521319Y-52685767D01*
X160520716Y-52679250D01*
X160518132Y-52673065D01*
X160510115Y-52664060D01*
X160495025Y-52656697D01*
X160476501Y-52654962D01*
X160431010Y-52651817D01*
X160349128Y-52645161D01*
X160236776Y-52637834D01*
X160141919Y-52629774D01*
X160243401Y-52614723D01*
X160268800Y-52610757D01*
X160350868Y-52597931D01*
X160443955Y-52582513D01*
X160502421Y-52570973D01*
X160508240Y-52568499D01*
X160513071Y-52564240D01*
X160515702Y-52560470D01*
X160519880Y-52545582D01*
X160519915Y-52538763D01*
X160516404Y-52517086D01*
X160513129Y-52510277D01*
X160508373Y-52505142D01*
X160503825Y-52502371D01*
G37*
G36*
X160048007Y-52093630D02*
G01*
X160051915Y-52123925D01*
X160064122Y-52156074D01*
X160072187Y-52170628D01*
X160096960Y-52204061D01*
X160130106Y-52235441D01*
X160139995Y-52243107D01*
X160182863Y-52270132D01*
X160234578Y-52293299D01*
X160244806Y-52296993D01*
X160296078Y-52310751D01*
X160352103Y-52317602D01*
X160378620Y-52318334D01*
X160413930Y-52314426D01*
X160434521Y-52308534D01*
X160450989Y-52301731D01*
X160466347Y-52293244D01*
X160484500Y-52279835D01*
X160507242Y-52255277D01*
X160520556Y-52233643D01*
X160531020Y-52204724D01*
X160534539Y-52172032D01*
X160534105Y-52144794D01*
X160531697Y-52120147D01*
X160529318Y-52106606D01*
X160523242Y-52082401D01*
X160515873Y-52061382D01*
X160514267Y-52057605D01*
X160505297Y-52039687D01*
X160495428Y-52024508D01*
X160493964Y-52022586D01*
X160472257Y-51999139D01*
X160461477Y-51990933D01*
X160451876Y-51986360D01*
X160442917Y-51985492D01*
X160435224Y-51987601D01*
X160428731Y-51991494D01*
X160424050Y-51996330D01*
X160420574Y-52002868D01*
X160419380Y-52009559D01*
X160420539Y-52016633D01*
X160431743Y-52038340D01*
X160452511Y-52072272D01*
X160460381Y-52088043D01*
X160471169Y-52119678D01*
X160475680Y-52157730D01*
X160475768Y-52164339D01*
X160474792Y-52175630D01*
X160471867Y-52186462D01*
X160465266Y-52199693D01*
X160456961Y-52210890D01*
X160447122Y-52220822D01*
X160438368Y-52227689D01*
X160409863Y-52242910D01*
X160400633Y-52246252D01*
X160384452Y-52250548D01*
X160368155Y-52252833D01*
X160357646Y-52253243D01*
X160332488Y-52252267D01*
X160307924Y-52249339D01*
X160284323Y-52244555D01*
X160261287Y-52237886D01*
X160259125Y-52237154D01*
X160232715Y-52227022D01*
X160208338Y-52215514D01*
X160177364Y-52196884D01*
X160158712Y-52182796D01*
X160142352Y-52167916D01*
X160121830Y-52143700D01*
X160112643Y-52129047D01*
X160106148Y-52114812D01*
X160102588Y-52102282D01*
X160101236Y-52090096D01*
X160101222Y-52088746D01*
X160102200Y-52079603D01*
X160105142Y-52071043D01*
X160108213Y-52065634D01*
X160120089Y-52047438D01*
X160135446Y-52048507D01*
X160147322Y-52048842D01*
X160154848Y-52047865D01*
X160161256Y-52044929D01*
X160169335Y-52035898D01*
X160173722Y-52026220D01*
X160175470Y-52017285D01*
X160175288Y-52012450D01*
X160170642Y-52001305D01*
X160160267Y-51991781D01*
X160150305Y-51985945D01*
X160140433Y-51982571D01*
X160131966Y-51981645D01*
X160101222Y-51981645D01*
X160064034Y-51985553D01*
X160055731Y-51987232D01*
X160047839Y-51989830D01*
X160041408Y-51994137D01*
X160035429Y-52001948D01*
X160031490Y-52011445D01*
X160030268Y-52019956D01*
X160030513Y-52022953D01*
X160035665Y-52036571D01*
X160037535Y-52039042D01*
X160043265Y-52044523D01*
X160050178Y-52048366D01*
X160053625Y-52049545D01*
X160049412Y-52070183D01*
X160048007Y-52093630D01*
G37*
G36*
X160507916Y-51633813D02*
G01*
X160505079Y-51622261D01*
X160500812Y-51614264D01*
X160497414Y-51611068D01*
X160483087Y-51606002D01*
X160479218Y-51605816D01*
X160462240Y-51610832D01*
X160456137Y-51614212D01*
X160450928Y-51618540D01*
X160447777Y-51623901D01*
X160447381Y-51636524D01*
X160447741Y-51638026D01*
X160454030Y-51673716D01*
X160460686Y-51730777D01*
X160465571Y-51797608D01*
X160467342Y-51862699D01*
X160428041Y-51861737D01*
X160389978Y-51858852D01*
X160306325Y-51853601D01*
X160176815Y-51849052D01*
X160085834Y-51846609D01*
X160075190Y-51847586D01*
X160066705Y-51850517D01*
X160059242Y-51856776D01*
X160054999Y-51863973D01*
X160052663Y-51871901D01*
X160052220Y-51880223D01*
X160053197Y-51888079D01*
X160056128Y-51895440D01*
X160060647Y-51901900D01*
X160072496Y-51909739D01*
X160087941Y-51912402D01*
X160122226Y-51912066D01*
X160163305Y-51911492D01*
X160172968Y-51911364D01*
X160229693Y-51911028D01*
X160281137Y-51911700D01*
X160354276Y-51916348D01*
X160411318Y-51921867D01*
X160490423Y-51929927D01*
X160500233Y-51929747D01*
X160508356Y-51927463D01*
X160515641Y-51922202D01*
X160520453Y-51915559D01*
X160523249Y-51908232D01*
X160524036Y-51901228D01*
X160523334Y-51861325D01*
X160520861Y-51786770D01*
X160515976Y-51702781D01*
X160507916Y-51633813D01*
G37*
G36*
X160512221Y-51281798D02*
G01*
X160520683Y-51273367D01*
X160526087Y-51264942D01*
X160527975Y-51259388D01*
X160528549Y-51252118D01*
X160527061Y-51245162D01*
X160523426Y-51238384D01*
X160511670Y-51228345D01*
X160508008Y-51226477D01*
X160501091Y-51224323D01*
X160494018Y-51224253D01*
X160486301Y-51226477D01*
X160472361Y-51236588D01*
X160452351Y-51255542D01*
X160395656Y-51313977D01*
X160331970Y-51381540D01*
X160277015Y-51437899D01*
X160225205Y-51385387D01*
X160170953Y-51331135D01*
X160125829Y-51286683D01*
X160100611Y-51262899D01*
X160089731Y-51255260D01*
X160080011Y-51251112D01*
X160074019Y-51250290D01*
X160066112Y-51251269D01*
X160059198Y-51254211D01*
X160055121Y-51257282D01*
X160051032Y-51262750D01*
X160048575Y-51269333D01*
X160047763Y-51275844D01*
X160051314Y-51288918D01*
X160060708Y-51301398D01*
X160085224Y-51327288D01*
X160129310Y-51372778D01*
X160183226Y-51428099D01*
X160200936Y-51446254D01*
X160237814Y-51484092D01*
X160147170Y-51481985D01*
X160081010Y-51480581D01*
X160070380Y-51481558D01*
X160061889Y-51484489D01*
X160054419Y-51490747D01*
X160050177Y-51497945D01*
X160047848Y-51505873D01*
X160047427Y-51514195D01*
X160048407Y-51522093D01*
X160051355Y-51529490D01*
X160055823Y-51535871D01*
X160067672Y-51543711D01*
X160083117Y-51546374D01*
X160138072Y-51548480D01*
X160217512Y-51547778D01*
X160303974Y-51545336D01*
X160385520Y-51543931D01*
X160452351Y-51543931D01*
X160495430Y-51545000D01*
X160505220Y-51544821D01*
X160513338Y-51542541D01*
X160520617Y-51537276D01*
X160525429Y-51530631D01*
X160528226Y-51523295D01*
X160529013Y-51516271D01*
X160528488Y-51507484D01*
X160525983Y-51499008D01*
X160521655Y-51491083D01*
X160516410Y-51485037D01*
X160510023Y-51480776D01*
X160498910Y-51477772D01*
X160425759Y-51480245D01*
X160329528Y-51483390D01*
X160316216Y-51483390D01*
X160369064Y-51432984D01*
X160428202Y-51370336D01*
X160480378Y-51313977D01*
X160512221Y-51281798D01*
G37*
G36*
X160507916Y-54943666D02*
G01*
X160505079Y-54932115D01*
X160500812Y-54924117D01*
X160497414Y-54920921D01*
X160483087Y-54915856D01*
X160479218Y-54915670D01*
X160462240Y-54920685D01*
X160456137Y-54924066D01*
X160450928Y-54928393D01*
X160447777Y-54933755D01*
X160447381Y-54946378D01*
X160447741Y-54947879D01*
X160454030Y-54983569D01*
X160460686Y-55040631D01*
X160465571Y-55107462D01*
X160467342Y-55172552D01*
X160428041Y-55171591D01*
X160389978Y-55168705D01*
X160306325Y-55163454D01*
X160176815Y-55158905D01*
X160085834Y-55156463D01*
X160075190Y-55157440D01*
X160066705Y-55160371D01*
X160059242Y-55166629D01*
X160054999Y-55173827D01*
X160052663Y-55181755D01*
X160052220Y-55190077D01*
X160053197Y-55197933D01*
X160056128Y-55205294D01*
X160060647Y-55211753D01*
X160072496Y-55219592D01*
X160087941Y-55222256D01*
X160122226Y-55221920D01*
X160163305Y-55221345D01*
X160172968Y-55221218D01*
X160229693Y-55220882D01*
X160281137Y-55221553D01*
X160354276Y-55226202D01*
X160411318Y-55231720D01*
X160490423Y-55239780D01*
X160500233Y-55239601D01*
X160508356Y-55237317D01*
X160515641Y-55232056D01*
X160520453Y-55225412D01*
X160523249Y-55218086D01*
X160524036Y-55211082D01*
X160523334Y-55171178D01*
X160520861Y-55096623D01*
X160515976Y-55012634D01*
X160507916Y-54943666D01*
G37*
G36*
X160499595Y-54528590D02*
G01*
X160506512Y-54530743D01*
X160510174Y-54532612D01*
X160521930Y-54542650D01*
X160525555Y-54549440D01*
X160527052Y-54556524D01*
X160526479Y-54563991D01*
X160524235Y-54570397D01*
X160518877Y-54578353D01*
X160510725Y-54586034D01*
X160477478Y-54615098D01*
X160432323Y-54662329D01*
X160408601Y-54691138D01*
X160385062Y-54722901D01*
X160371531Y-54743310D01*
X160346228Y-54791137D01*
X160432323Y-54784145D01*
X160499521Y-54777856D01*
X160511321Y-54779856D01*
X160516997Y-54783651D01*
X160521564Y-54789396D01*
X160525223Y-54796750D01*
X160527714Y-54805714D01*
X160528219Y-54814950D01*
X160527532Y-54820406D01*
X160524826Y-54828834D01*
X160520159Y-54836627D01*
X160513083Y-54842528D01*
X160505438Y-54844844D01*
X160496010Y-54845053D01*
X160468715Y-54843282D01*
X160437910Y-54841878D01*
X160392084Y-54841878D01*
X160320307Y-54842947D01*
X160265719Y-54841878D01*
X160190126Y-54841542D01*
X160127478Y-54845053D01*
X160083728Y-54847831D01*
X160080217Y-54847831D01*
X160068676Y-54846091D01*
X160058510Y-54839436D01*
X160050816Y-54828933D01*
X160048007Y-54815652D01*
X160049412Y-54804784D01*
X160053625Y-54795350D01*
X160054133Y-54786351D01*
X160054228Y-54785549D01*
X160107511Y-54785549D01*
X160146712Y-54784145D01*
X160190126Y-54782741D01*
X160231067Y-54785183D01*
X160280404Y-54789732D01*
X160281473Y-54774345D01*
X160281106Y-54748455D01*
X160276148Y-54687046D01*
X160267124Y-54636439D01*
X160264960Y-54629170D01*
X160255305Y-54610531D01*
X160242293Y-54599740D01*
X160233872Y-54596811D01*
X160224412Y-54595834D01*
X160220618Y-54595965D01*
X160210472Y-54597677D01*
X160200731Y-54601367D01*
X160190640Y-54607594D01*
X160181028Y-54616137D01*
X160169129Y-54629836D01*
X160157212Y-54646771D01*
X160146376Y-54665840D01*
X160140716Y-54677408D01*
X160130267Y-54702207D01*
X160121524Y-54728152D01*
X160107511Y-54785549D01*
X160054228Y-54785549D01*
X160061442Y-54724757D01*
X160073927Y-54675640D01*
X160093383Y-54628892D01*
X160114533Y-54595132D01*
X160140339Y-54567706D01*
X160166679Y-54550008D01*
X160193327Y-54539575D01*
X160221633Y-54535659D01*
X160249116Y-54539059D01*
X160270268Y-54548603D01*
X160285095Y-54561351D01*
X160293733Y-54572291D01*
X160301073Y-54584996D01*
X160306490Y-54597240D01*
X160313448Y-54617958D01*
X160318934Y-54641355D01*
X160324341Y-54675816D01*
X160328032Y-54713437D01*
X160332861Y-54704327D01*
X160367568Y-54647980D01*
X160370917Y-54643248D01*
X160410280Y-54593758D01*
X160413706Y-54589970D01*
X160450855Y-54553855D01*
X160458730Y-54547501D01*
X160484805Y-54530743D01*
X160492522Y-54528520D01*
X160499595Y-54528590D01*
G37*
G36*
X160048007Y-54248704D02*
G01*
X160051915Y-54278999D01*
X160064122Y-54311147D01*
X160072187Y-54325701D01*
X160096960Y-54359134D01*
X160130106Y-54390514D01*
X160139995Y-54398180D01*
X160182863Y-54425205D01*
X160234578Y-54448372D01*
X160244806Y-54452066D01*
X160296078Y-54465825D01*
X160352103Y-54472676D01*
X160378620Y-54473407D01*
X160413930Y-54469499D01*
X160434521Y-54463607D01*
X160450989Y-54456804D01*
X160466347Y-54448317D01*
X160484500Y-54434908D01*
X160507242Y-54410350D01*
X160520556Y-54388716D01*
X160531020Y-54359797D01*
X160534539Y-54327106D01*
X160534105Y-54299867D01*
X160531697Y-54275221D01*
X160529318Y-54261679D01*
X160523242Y-54237474D01*
X160515873Y-54216456D01*
X160514267Y-54212678D01*
X160505297Y-54194760D01*
X160495428Y-54179581D01*
X160493964Y-54177660D01*
X160472257Y-54154212D01*
X160461477Y-54146006D01*
X160451876Y-54141434D01*
X160442917Y-54140565D01*
X160435224Y-54142674D01*
X160428731Y-54146567D01*
X160424050Y-54151403D01*
X160420574Y-54157942D01*
X160419380Y-54164633D01*
X160420539Y-54171706D01*
X160431743Y-54193413D01*
X160452511Y-54227345D01*
X160460381Y-54243117D01*
X160471169Y-54274751D01*
X160475680Y-54312803D01*
X160475768Y-54319412D01*
X160474792Y-54330703D01*
X160471867Y-54341535D01*
X160465266Y-54354766D01*
X160456961Y-54365963D01*
X160447122Y-54375895D01*
X160438368Y-54382762D01*
X160409863Y-54397983D01*
X160400633Y-54401325D01*
X160384452Y-54405622D01*
X160368155Y-54407906D01*
X160357646Y-54408316D01*
X160332488Y-54407340D01*
X160307924Y-54404412D01*
X160284323Y-54399628D01*
X160261287Y-54392959D01*
X160259125Y-54392227D01*
X160232715Y-54382096D01*
X160208338Y-54370587D01*
X160177364Y-54351957D01*
X160158712Y-54337869D01*
X160142352Y-54322989D01*
X160121830Y-54298773D01*
X160112643Y-54284120D01*
X160106148Y-54269886D01*
X160102588Y-54257356D01*
X160101236Y-54245169D01*
X160101222Y-54243819D01*
X160102200Y-54234677D01*
X160105142Y-54226116D01*
X160108213Y-54220707D01*
X160120089Y-54202511D01*
X160135446Y-54203580D01*
X160147322Y-54203916D01*
X160154848Y-54202938D01*
X160161256Y-54200003D01*
X160169335Y-54190971D01*
X160173722Y-54181293D01*
X160175470Y-54172359D01*
X160175288Y-54167523D01*
X160170642Y-54156378D01*
X160160267Y-54146854D01*
X160150305Y-54141018D01*
X160140433Y-54137644D01*
X160131966Y-54136718D01*
X160101222Y-54136718D01*
X160064034Y-54140626D01*
X160055731Y-54142305D01*
X160047839Y-54144903D01*
X160041408Y-54149210D01*
X160035429Y-54157021D01*
X160031490Y-54166518D01*
X160030268Y-54175029D01*
X160030513Y-54178026D01*
X160035665Y-54191644D01*
X160037535Y-54194115D01*
X160043265Y-54199596D01*
X160050178Y-54203440D01*
X160053625Y-54204618D01*
X160049412Y-54225256D01*
X160048007Y-54248704D01*
G37*
G36*
X160512221Y-53821798D02*
G01*
X160520683Y-53813367D01*
X160526087Y-53804942D01*
X160527975Y-53799388D01*
X160528549Y-53792118D01*
X160527061Y-53785162D01*
X160523426Y-53778384D01*
X160511670Y-53768345D01*
X160508008Y-53766477D01*
X160501091Y-53764323D01*
X160494018Y-53764253D01*
X160486301Y-53766477D01*
X160472361Y-53776588D01*
X160452351Y-53795542D01*
X160395656Y-53853977D01*
X160331970Y-53921540D01*
X160277015Y-53977899D01*
X160225205Y-53925387D01*
X160170953Y-53871135D01*
X160125829Y-53826683D01*
X160100611Y-53802899D01*
X160089731Y-53795260D01*
X160080011Y-53791112D01*
X160074019Y-53790290D01*
X160066112Y-53791269D01*
X160059198Y-53794211D01*
X160055121Y-53797282D01*
X160051032Y-53802750D01*
X160048575Y-53809333D01*
X160047763Y-53815844D01*
X160051314Y-53828918D01*
X160060708Y-53841398D01*
X160085224Y-53867288D01*
X160129310Y-53912778D01*
X160183226Y-53968099D01*
X160200936Y-53986254D01*
X160237814Y-54024092D01*
X160147170Y-54021985D01*
X160081010Y-54020581D01*
X160070380Y-54021558D01*
X160061889Y-54024489D01*
X160054419Y-54030747D01*
X160050177Y-54037945D01*
X160047848Y-54045873D01*
X160047427Y-54054195D01*
X160048407Y-54062093D01*
X160051355Y-54069490D01*
X160055823Y-54075871D01*
X160067672Y-54083711D01*
X160083117Y-54086374D01*
X160138072Y-54088480D01*
X160217512Y-54087778D01*
X160303974Y-54085336D01*
X160385520Y-54083931D01*
X160452351Y-54083931D01*
X160495430Y-54085000D01*
X160505220Y-54084821D01*
X160513338Y-54082541D01*
X160520617Y-54077276D01*
X160525429Y-54070631D01*
X160528226Y-54063295D01*
X160529013Y-54056271D01*
X160528488Y-54047484D01*
X160525983Y-54039008D01*
X160521655Y-54031083D01*
X160516410Y-54025037D01*
X160510023Y-54020776D01*
X160498910Y-54017772D01*
X160425759Y-54020245D01*
X160329528Y-54023390D01*
X160316216Y-54023390D01*
X160369064Y-53972984D01*
X160428202Y-53910336D01*
X160480378Y-53853977D01*
X160512221Y-53821798D01*
G37*
G36*
X145896174Y-41065165D02*
G01*
X145924170Y-41072157D01*
X145975644Y-41080919D01*
X146043544Y-41090017D01*
X146120175Y-41097375D01*
X146166442Y-41101547D01*
X146211027Y-41107560D01*
X146217139Y-41108549D01*
X146292366Y-41121860D01*
X146182121Y-41125707D01*
X146065922Y-41131324D01*
X145967218Y-41138316D01*
X145931444Y-41142254D01*
X145910187Y-41146376D01*
X145898228Y-41151234D01*
X145889396Y-41157125D01*
X145882893Y-41165610D01*
X145880348Y-41173493D01*
X145880047Y-41181143D01*
X145882191Y-41189057D01*
X145886144Y-41195208D01*
X145891648Y-41200039D01*
X145899349Y-41203773D01*
X145916706Y-41205545D01*
X145931894Y-41203071D01*
X146002572Y-41195011D01*
X146121579Y-41185913D01*
X146242327Y-41177151D01*
X146318286Y-41170159D01*
X146328144Y-41167906D01*
X146335528Y-41164005D01*
X146339796Y-41159493D01*
X146342348Y-41153840D01*
X146342772Y-41151963D01*
X146345580Y-41127478D01*
X146342998Y-41105727D01*
X146341734Y-41101222D01*
X146338518Y-41093922D01*
X146333737Y-41088188D01*
X146321797Y-41081957D01*
X146291328Y-41074965D01*
X146245471Y-41065867D01*
X146189479Y-41056403D01*
X146128571Y-41048373D01*
X146034079Y-41039611D01*
X145961997Y-41033658D01*
X146047726Y-41022820D01*
X146151682Y-41010577D01*
X146250723Y-40997266D01*
X146321767Y-40983954D01*
X146330376Y-40980620D01*
X146336748Y-40975884D01*
X146341367Y-40968567D01*
X146345580Y-40948264D01*
X146342840Y-40928840D01*
X146340696Y-40922711D01*
X146336547Y-40914829D01*
X146330799Y-40908245D01*
X146320393Y-40901370D01*
X146299054Y-40895052D01*
X146281528Y-40891905D01*
X146214697Y-40883510D01*
X146134524Y-40876152D01*
X146057191Y-40869862D01*
X145977049Y-40862169D01*
X145926979Y-40857956D01*
X145910662Y-40858930D01*
X145896569Y-40861842D01*
X145893395Y-40862871D01*
X145886710Y-40866244D01*
X145882031Y-40870986D01*
X145878680Y-40881769D01*
X145879283Y-40888286D01*
X145881867Y-40894471D01*
X145889884Y-40903476D01*
X145904974Y-40910839D01*
X145923498Y-40912574D01*
X145968989Y-40915719D01*
X146050871Y-40922375D01*
X146163223Y-40929702D01*
X146258080Y-40937762D01*
X146156598Y-40952813D01*
X146131199Y-40956779D01*
X146049131Y-40969605D01*
X145956044Y-40985023D01*
X145897578Y-40996563D01*
X145891759Y-40999037D01*
X145886928Y-41003296D01*
X145884297Y-41007066D01*
X145880119Y-41021954D01*
X145880084Y-41028773D01*
X145883595Y-41050450D01*
X145886870Y-41057259D01*
X145891626Y-41062394D01*
X145896174Y-41065165D01*
G37*
G36*
X145928688Y-41282083D02*
G01*
X145927260Y-41270938D01*
X145923971Y-41262308D01*
X145919224Y-41256529D01*
X145912556Y-41252221D01*
X145905418Y-41250086D01*
X145899990Y-41249904D01*
X145893132Y-41250880D01*
X145887221Y-41253802D01*
X145882832Y-41257934D01*
X145877278Y-41270828D01*
X145876176Y-41283488D01*
X145877581Y-41341251D01*
X145880023Y-41418585D01*
X145881092Y-41494880D01*
X145878283Y-41550201D01*
X145877792Y-41559472D01*
X145879622Y-41566603D01*
X145885976Y-41572946D01*
X145895622Y-41576653D01*
X145905271Y-41578162D01*
X145906981Y-41578197D01*
X145915009Y-41576613D01*
X145922441Y-41573115D01*
X145923773Y-41572244D01*
X145929784Y-41563385D01*
X145931467Y-41550201D01*
X145931833Y-41509931D01*
X145932169Y-41445207D01*
X146020005Y-41447649D01*
X146126474Y-41448773D01*
X146130219Y-41448688D01*
X146225749Y-41447985D01*
X146292610Y-41449390D01*
X146289466Y-41506085D01*
X146285588Y-41545286D01*
X146285163Y-41554146D01*
X146286975Y-41561412D01*
X146294686Y-41569801D01*
X146304581Y-41574494D01*
X146313963Y-41576641D01*
X146317096Y-41576793D01*
X146331397Y-41571831D01*
X146334254Y-41569801D01*
X146341207Y-41559378D01*
X146343688Y-41546690D01*
X146349621Y-41447627D01*
X146350038Y-41424538D01*
X146348633Y-41287701D01*
X146347200Y-41276841D01*
X146343895Y-41268186D01*
X146339169Y-41262147D01*
X146332693Y-41257507D01*
X146325772Y-41255105D01*
X146319935Y-41254789D01*
X146312909Y-41255766D01*
X146306489Y-41258697D01*
X146301372Y-41262849D01*
X146295157Y-41274586D01*
X146294015Y-41288403D01*
X146294717Y-41330382D01*
X146294015Y-41383597D01*
X146244342Y-41381490D01*
X146168749Y-41382192D01*
X146096666Y-41382895D01*
X146030171Y-41382559D01*
X145973812Y-41380788D01*
X145931467Y-41378681D01*
X145930062Y-41327604D01*
X145928688Y-41282083D01*
G37*
G36*
X146351992Y-41858832D02*
G01*
X146348084Y-41828537D01*
X146335877Y-41796389D01*
X146327812Y-41781835D01*
X146303039Y-41748402D01*
X146269893Y-41717022D01*
X146260004Y-41709356D01*
X146217136Y-41682331D01*
X146165421Y-41659164D01*
X146155193Y-41655470D01*
X146103921Y-41641711D01*
X146047896Y-41634860D01*
X146021379Y-41634129D01*
X145986069Y-41638037D01*
X145965478Y-41643929D01*
X145949010Y-41650732D01*
X145933652Y-41659219D01*
X145915499Y-41672628D01*
X145892757Y-41697186D01*
X145879443Y-41718820D01*
X145868979Y-41747739D01*
X145865460Y-41780430D01*
X145865894Y-41807669D01*
X145868302Y-41832315D01*
X145870681Y-41845857D01*
X145876757Y-41870062D01*
X145884126Y-41891080D01*
X145885732Y-41894858D01*
X145894702Y-41912776D01*
X145904571Y-41927955D01*
X145906035Y-41929876D01*
X145927742Y-41953324D01*
X145938522Y-41961530D01*
X145948123Y-41966102D01*
X145957082Y-41966971D01*
X145964775Y-41964862D01*
X145971268Y-41960969D01*
X145975949Y-41956133D01*
X145979425Y-41949594D01*
X145980619Y-41942903D01*
X145979460Y-41935830D01*
X145968256Y-41914123D01*
X145947488Y-41880191D01*
X145939618Y-41864419D01*
X145928830Y-41832785D01*
X145924319Y-41794733D01*
X145924231Y-41788124D01*
X145925207Y-41776833D01*
X145928132Y-41766001D01*
X145934733Y-41752770D01*
X145943038Y-41741573D01*
X145952877Y-41731641D01*
X145961631Y-41724774D01*
X145990136Y-41709553D01*
X145999366Y-41706211D01*
X146015547Y-41701914D01*
X146031844Y-41699630D01*
X146042353Y-41699220D01*
X146067511Y-41700196D01*
X146092075Y-41703124D01*
X146115676Y-41707908D01*
X146138712Y-41714577D01*
X146140874Y-41715309D01*
X146167284Y-41725440D01*
X146191661Y-41736949D01*
X146222635Y-41755579D01*
X146241287Y-41769667D01*
X146257647Y-41784547D01*
X146278169Y-41808763D01*
X146287356Y-41823416D01*
X146293851Y-41837650D01*
X146297411Y-41850180D01*
X146298763Y-41862367D01*
X146298777Y-41863717D01*
X146297799Y-41872859D01*
X146294857Y-41881420D01*
X146291786Y-41886829D01*
X146279910Y-41905025D01*
X146264553Y-41903956D01*
X146252677Y-41903620D01*
X146245151Y-41904598D01*
X146238743Y-41907533D01*
X146230664Y-41916565D01*
X146226277Y-41926243D01*
X146224529Y-41935177D01*
X146224711Y-41940013D01*
X146229357Y-41951158D01*
X146239732Y-41960682D01*
X146249694Y-41966518D01*
X146259566Y-41969892D01*
X146268033Y-41970818D01*
X146298777Y-41970818D01*
X146335965Y-41966910D01*
X146344268Y-41965231D01*
X146352160Y-41962633D01*
X146358591Y-41958326D01*
X146364570Y-41950515D01*
X146368509Y-41941018D01*
X146369731Y-41932507D01*
X146369486Y-41929510D01*
X146364334Y-41915892D01*
X146362464Y-41913421D01*
X146356734Y-41907940D01*
X146349821Y-41904096D01*
X146346374Y-41902918D01*
X146350587Y-41882280D01*
X146351992Y-41858832D01*
G37*
G36*
X145875443Y-42049861D02*
G01*
X145874886Y-42039819D01*
X145872271Y-42032345D01*
X145867048Y-42027085D01*
X145859180Y-42023708D01*
X145851067Y-42022464D01*
X145848149Y-42022536D01*
X145839475Y-42023508D01*
X145831440Y-42026405D01*
X145828915Y-42027787D01*
X145822246Y-42036375D01*
X145820153Y-42050563D01*
X145820519Y-42119500D01*
X145820855Y-42199307D01*
X145821191Y-42272091D01*
X145821557Y-42320054D01*
X145822535Y-42330218D01*
X145825474Y-42337743D01*
X145830655Y-42342800D01*
X145838868Y-42346373D01*
X145847604Y-42347965D01*
X145850256Y-42348051D01*
X145858998Y-42346408D01*
X145866987Y-42342807D01*
X145868116Y-42342097D01*
X145874364Y-42333304D01*
X145876146Y-42320054D01*
X145875810Y-42275602D01*
X145875155Y-42217167D01*
X145875108Y-42212588D01*
X145874741Y-42135590D01*
X145875443Y-42049861D01*
G37*
G36*
X146316575Y-42409865D02*
G01*
X146323415Y-42412714D01*
X146331733Y-42418799D01*
X146338131Y-42429170D01*
X146343382Y-42463486D01*
X146347229Y-42504763D01*
X146349336Y-42541186D01*
X146350038Y-42562160D01*
X146348776Y-42586027D01*
X146340909Y-42623770D01*
X146331787Y-42646482D01*
X146314317Y-42673107D01*
X146298100Y-42688910D01*
X146285097Y-42698034D01*
X146270628Y-42705683D01*
X146247628Y-42713613D01*
X146229887Y-42716897D01*
X146210881Y-42718262D01*
X146180060Y-42716075D01*
X146142431Y-42706721D01*
X146115190Y-42694341D01*
X146086530Y-42673810D01*
X146067436Y-42653299D01*
X146057483Y-42638808D01*
X146049100Y-42623068D01*
X146039361Y-42594370D01*
X146036430Y-42576621D01*
X146035453Y-42557977D01*
X146036308Y-42538377D01*
X146088637Y-42538377D01*
X146088748Y-42546166D01*
X146092909Y-42581415D01*
X146101918Y-42605941D01*
X146115725Y-42625877D01*
X146134402Y-42641631D01*
X146148413Y-42648693D01*
X146161721Y-42653100D01*
X146175618Y-42655614D01*
X146215094Y-42658087D01*
X146234714Y-42656070D01*
X146254905Y-42647920D01*
X146263957Y-42641429D01*
X146280062Y-42623435D01*
X146282956Y-42618546D01*
X146288871Y-42605826D01*
X146292977Y-42592263D01*
X146296823Y-42562191D01*
X146295083Y-42526134D01*
X146291236Y-42479576D01*
X146208438Y-42477133D01*
X146098407Y-42476065D01*
X146091782Y-42500214D01*
X146089419Y-42516937D01*
X146088637Y-42538377D01*
X146036308Y-42538377D01*
X146037529Y-42510381D01*
X146042445Y-42477469D01*
X145963005Y-42482384D01*
X145901028Y-42487269D01*
X145889344Y-42485307D01*
X145883609Y-42481501D01*
X145878985Y-42475729D01*
X145875297Y-42468250D01*
X145872833Y-42459335D01*
X145872329Y-42450175D01*
X145873003Y-42444874D01*
X145875711Y-42436356D01*
X145880389Y-42428468D01*
X145887414Y-42422608D01*
X145895076Y-42420280D01*
X145904539Y-42420072D01*
X145947953Y-42420774D01*
X146015150Y-42420072D01*
X146097033Y-42418332D01*
X146183647Y-42416591D01*
X146252096Y-42416225D01*
X146296121Y-42417263D01*
X146297862Y-42415523D01*
X146299632Y-42413783D01*
X146309947Y-42409406D01*
X146316575Y-42409865D01*
G37*
G36*
X145896174Y-43605165D02*
G01*
X145924170Y-43612157D01*
X145975644Y-43620919D01*
X146043544Y-43630017D01*
X146120175Y-43637375D01*
X146166442Y-43641547D01*
X146211027Y-43647560D01*
X146217139Y-43648549D01*
X146292366Y-43661860D01*
X146182121Y-43665707D01*
X146065922Y-43671324D01*
X145967218Y-43678316D01*
X145931444Y-43682254D01*
X145910187Y-43686376D01*
X145898228Y-43691234D01*
X145889396Y-43697125D01*
X145882893Y-43705610D01*
X145880348Y-43713493D01*
X145880047Y-43721143D01*
X145882191Y-43729057D01*
X145886144Y-43735208D01*
X145891648Y-43740039D01*
X145899349Y-43743773D01*
X145916706Y-43745545D01*
X145931894Y-43743071D01*
X146002572Y-43735011D01*
X146121579Y-43725913D01*
X146242327Y-43717151D01*
X146318286Y-43710159D01*
X146328144Y-43707906D01*
X146335528Y-43704005D01*
X146339796Y-43699493D01*
X146342348Y-43693840D01*
X146342772Y-43691963D01*
X146345580Y-43667478D01*
X146342998Y-43645727D01*
X146341734Y-43641222D01*
X146338518Y-43633922D01*
X146333737Y-43628188D01*
X146321797Y-43621957D01*
X146291328Y-43614965D01*
X146245471Y-43605867D01*
X146189479Y-43596403D01*
X146128571Y-43588373D01*
X146034079Y-43579611D01*
X145961997Y-43573658D01*
X146047726Y-43562820D01*
X146151682Y-43550577D01*
X146250723Y-43537266D01*
X146321767Y-43523954D01*
X146330376Y-43520620D01*
X146336748Y-43515884D01*
X146341367Y-43508567D01*
X146345580Y-43488264D01*
X146342840Y-43468840D01*
X146340696Y-43462711D01*
X146336547Y-43454829D01*
X146330799Y-43448245D01*
X146320393Y-43441370D01*
X146299054Y-43435052D01*
X146281528Y-43431905D01*
X146214697Y-43423510D01*
X146134524Y-43416152D01*
X146057191Y-43409862D01*
X145977049Y-43402169D01*
X145926979Y-43397956D01*
X145910662Y-43398930D01*
X145896569Y-43401842D01*
X145893395Y-43402871D01*
X145886710Y-43406244D01*
X145882031Y-43410986D01*
X145878680Y-43421769D01*
X145879283Y-43428286D01*
X145881867Y-43434471D01*
X145889884Y-43443476D01*
X145904974Y-43450839D01*
X145923498Y-43452574D01*
X145968989Y-43455719D01*
X146050871Y-43462375D01*
X146163223Y-43469702D01*
X146258080Y-43477762D01*
X146156598Y-43492813D01*
X146131199Y-43496779D01*
X146049131Y-43509605D01*
X145956044Y-43525023D01*
X145897578Y-43536563D01*
X145891759Y-43539037D01*
X145886928Y-43543296D01*
X145884297Y-43547066D01*
X145880119Y-43561954D01*
X145880084Y-43568773D01*
X145883595Y-43590450D01*
X145886870Y-43597259D01*
X145891626Y-43602394D01*
X145896174Y-43605165D01*
G37*
G36*
X145928688Y-43822083D02*
G01*
X145927260Y-43810938D01*
X145923971Y-43802308D01*
X145919224Y-43796529D01*
X145912556Y-43792221D01*
X145905418Y-43790086D01*
X145899990Y-43789904D01*
X145893132Y-43790880D01*
X145887221Y-43793802D01*
X145882832Y-43797934D01*
X145877278Y-43810828D01*
X145876176Y-43823488D01*
X145877581Y-43881251D01*
X145880023Y-43958585D01*
X145881092Y-44034880D01*
X145878283Y-44090201D01*
X145877792Y-44099472D01*
X145879622Y-44106603D01*
X145885976Y-44112946D01*
X145895622Y-44116653D01*
X145905271Y-44118162D01*
X145906981Y-44118197D01*
X145915009Y-44116613D01*
X145922441Y-44113115D01*
X145923773Y-44112244D01*
X145929784Y-44103385D01*
X145931467Y-44090201D01*
X145931833Y-44049931D01*
X145932169Y-43985207D01*
X146020005Y-43987649D01*
X146126474Y-43988773D01*
X146130219Y-43988688D01*
X146225749Y-43987985D01*
X146292610Y-43989390D01*
X146289466Y-44046085D01*
X146285588Y-44085286D01*
X146285163Y-44094146D01*
X146286975Y-44101412D01*
X146294686Y-44109801D01*
X146304581Y-44114494D01*
X146313963Y-44116641D01*
X146317096Y-44116793D01*
X146331397Y-44111831D01*
X146334254Y-44109801D01*
X146341207Y-44099378D01*
X146343688Y-44086690D01*
X146349621Y-43987627D01*
X146350038Y-43964538D01*
X146348633Y-43827701D01*
X146347200Y-43816841D01*
X146343895Y-43808186D01*
X146339169Y-43802147D01*
X146332693Y-43797507D01*
X146325772Y-43795105D01*
X146319935Y-43794789D01*
X146312909Y-43795766D01*
X146306489Y-43798697D01*
X146301372Y-43802849D01*
X146295157Y-43814586D01*
X146294015Y-43828403D01*
X146294717Y-43870382D01*
X146294015Y-43923597D01*
X146244342Y-43921490D01*
X146168749Y-43922192D01*
X146096666Y-43922895D01*
X146030171Y-43922559D01*
X145973812Y-43920788D01*
X145931467Y-43918681D01*
X145930062Y-43867604D01*
X145928688Y-43822083D01*
G37*
G36*
X146351992Y-44398832D02*
G01*
X146348084Y-44368537D01*
X146335877Y-44336389D01*
X146327812Y-44321835D01*
X146303039Y-44288402D01*
X146269893Y-44257022D01*
X146260004Y-44249356D01*
X146217136Y-44222331D01*
X146165421Y-44199164D01*
X146155193Y-44195470D01*
X146103921Y-44181711D01*
X146047896Y-44174860D01*
X146021379Y-44174129D01*
X145986069Y-44178037D01*
X145965478Y-44183929D01*
X145949010Y-44190732D01*
X145933652Y-44199219D01*
X145915499Y-44212628D01*
X145892757Y-44237186D01*
X145879443Y-44258820D01*
X145868979Y-44287739D01*
X145865460Y-44320430D01*
X145865894Y-44347669D01*
X145868302Y-44372315D01*
X145870681Y-44385857D01*
X145876757Y-44410062D01*
X145884126Y-44431080D01*
X145885732Y-44434858D01*
X145894702Y-44452776D01*
X145904571Y-44467955D01*
X145906035Y-44469876D01*
X145927742Y-44493324D01*
X145938522Y-44501530D01*
X145948123Y-44506102D01*
X145957082Y-44506971D01*
X145964775Y-44504862D01*
X145971268Y-44500969D01*
X145975949Y-44496133D01*
X145979425Y-44489594D01*
X145980619Y-44482903D01*
X145979460Y-44475830D01*
X145968256Y-44454123D01*
X145947488Y-44420191D01*
X145939618Y-44404419D01*
X145928830Y-44372785D01*
X145924319Y-44334733D01*
X145924231Y-44328124D01*
X145925207Y-44316833D01*
X145928132Y-44306001D01*
X145934733Y-44292770D01*
X145943038Y-44281573D01*
X145952877Y-44271641D01*
X145961631Y-44264774D01*
X145990136Y-44249553D01*
X145999366Y-44246211D01*
X146015547Y-44241914D01*
X146031844Y-44239630D01*
X146042353Y-44239220D01*
X146067511Y-44240196D01*
X146092075Y-44243124D01*
X146115676Y-44247908D01*
X146138712Y-44254577D01*
X146140874Y-44255309D01*
X146167284Y-44265440D01*
X146191661Y-44276949D01*
X146222635Y-44295579D01*
X146241287Y-44309667D01*
X146257647Y-44324547D01*
X146278169Y-44348763D01*
X146287356Y-44363416D01*
X146293851Y-44377650D01*
X146297411Y-44390180D01*
X146298763Y-44402367D01*
X146298777Y-44403717D01*
X146297799Y-44412859D01*
X146294857Y-44421420D01*
X146291786Y-44426829D01*
X146279910Y-44445025D01*
X146264553Y-44443956D01*
X146252677Y-44443620D01*
X146245151Y-44444598D01*
X146238743Y-44447533D01*
X146230664Y-44456565D01*
X146226277Y-44466243D01*
X146224529Y-44475177D01*
X146224711Y-44480013D01*
X146229357Y-44491158D01*
X146239732Y-44500682D01*
X146249694Y-44506518D01*
X146259566Y-44509892D01*
X146268033Y-44510818D01*
X146298777Y-44510818D01*
X146335965Y-44506910D01*
X146344268Y-44505231D01*
X146352160Y-44502633D01*
X146358591Y-44498326D01*
X146364570Y-44490515D01*
X146368509Y-44481018D01*
X146369731Y-44472507D01*
X146369486Y-44469510D01*
X146364334Y-44455892D01*
X146362464Y-44453421D01*
X146356734Y-44447940D01*
X146349821Y-44444096D01*
X146346374Y-44442918D01*
X146350587Y-44422280D01*
X146351992Y-44398832D01*
G37*
G36*
X145875443Y-44589861D02*
G01*
X145874886Y-44579819D01*
X145872271Y-44572345D01*
X145867048Y-44567085D01*
X145859180Y-44563708D01*
X145851067Y-44562464D01*
X145848149Y-44562536D01*
X145839475Y-44563508D01*
X145831440Y-44566405D01*
X145828915Y-44567787D01*
X145822246Y-44576375D01*
X145820153Y-44590563D01*
X145820519Y-44659500D01*
X145820855Y-44739307D01*
X145821191Y-44812091D01*
X145821557Y-44860054D01*
X145822535Y-44870218D01*
X145825474Y-44877743D01*
X145830655Y-44882800D01*
X145838868Y-44886373D01*
X145847604Y-44887965D01*
X145850256Y-44888051D01*
X145858998Y-44886408D01*
X145866987Y-44882807D01*
X145868116Y-44882097D01*
X145874364Y-44873304D01*
X145876146Y-44860054D01*
X145875810Y-44815602D01*
X145875155Y-44757167D01*
X145875108Y-44752588D01*
X145874741Y-44675590D01*
X145875443Y-44589861D01*
G37*
G36*
X145891991Y-45258964D02*
G01*
X145911603Y-45263044D01*
X145970027Y-45267024D01*
X146107932Y-45270169D01*
X146242693Y-45270169D01*
X146310593Y-45268764D01*
X146326415Y-45265532D01*
X146337520Y-45261406D01*
X146343934Y-45253679D01*
X146346283Y-45237959D01*
X146345307Y-45230679D01*
X146342382Y-45224180D01*
X146335780Y-45216985D01*
X146329267Y-45213003D01*
X146321819Y-45210771D01*
X146309188Y-45210665D01*
X146246174Y-45214878D01*
X146154125Y-45216618D01*
X146056122Y-45216618D01*
X145975278Y-45215580D01*
X146052978Y-45170426D01*
X146153422Y-45115136D01*
X146251425Y-45064730D01*
X146292297Y-45045740D01*
X146321767Y-45034261D01*
X146330678Y-45030407D01*
X146337166Y-45025280D01*
X146341367Y-45018537D01*
X146345580Y-44998571D01*
X146345883Y-44988748D01*
X146344214Y-44978982D01*
X146339291Y-44966727D01*
X146335195Y-44961141D01*
X146329607Y-44956909D01*
X146313758Y-44952501D01*
X146303571Y-44952378D01*
X146214330Y-44954118D01*
X146098132Y-44952714D01*
X145988589Y-44950272D01*
X145920689Y-44948867D01*
X145904859Y-44949841D01*
X145892213Y-44952754D01*
X145889549Y-44953783D01*
X145883952Y-44957210D01*
X145880044Y-44962044D01*
X145877275Y-44972681D01*
X145877836Y-44979903D01*
X145880374Y-44986708D01*
X145886038Y-44994357D01*
X145898320Y-45001478D01*
X145917178Y-45003486D01*
X145969324Y-45004158D01*
X146054046Y-45006631D01*
X146154125Y-45007669D01*
X146253196Y-45004860D01*
X146180403Y-45035507D01*
X146151346Y-45049678D01*
X146043879Y-45106373D01*
X145951128Y-45158855D01*
X145893395Y-45190362D01*
X145882527Y-45198891D01*
X145880786Y-45201231D01*
X145876061Y-45214842D01*
X145875901Y-45222572D01*
X145879382Y-45244279D01*
X145882730Y-45251159D01*
X145887590Y-45256330D01*
X145891991Y-45258964D01*
G37*
G36*
X146145484Y-45953709D02*
G01*
X146153743Y-45954157D01*
X146205970Y-45961444D01*
X146231577Y-45967985D01*
X146256768Y-45976454D01*
X146275855Y-45985536D01*
X146289727Y-45994665D01*
X146302610Y-46005549D01*
X146314985Y-46018762D01*
X146326285Y-46033882D01*
X146338783Y-46056066D01*
X146345329Y-46072547D01*
X146350038Y-46089776D01*
X146352969Y-46108326D01*
X146353946Y-46127671D01*
X146352498Y-46146962D01*
X146349124Y-46162508D01*
X146343779Y-46177711D01*
X146334709Y-46195362D01*
X146325412Y-46208569D01*
X146314378Y-46220758D01*
X146299549Y-46233431D01*
X146284021Y-46243642D01*
X146266537Y-46252602D01*
X146242465Y-46261299D01*
X146222468Y-46265750D01*
X146200958Y-46268355D01*
X146149331Y-46271164D01*
X146092453Y-46271164D01*
X146038384Y-46268019D01*
X145995122Y-46260662D01*
X145963873Y-46250230D01*
X145931986Y-46233703D01*
X145912705Y-46218651D01*
X145893517Y-46195907D01*
X145884959Y-46180251D01*
X145878889Y-46164525D01*
X145874589Y-46147608D01*
X145873276Y-46140264D01*
X145870345Y-46115575D01*
X145869368Y-46089173D01*
X145924658Y-46089173D01*
X145924706Y-46092608D01*
X145926124Y-46108092D01*
X145929510Y-46123355D01*
X145935095Y-46138931D01*
X145942793Y-46154263D01*
X145952628Y-46167980D01*
X145962342Y-46177422D01*
X145973769Y-46185624D01*
X145987986Y-46193070D01*
X146004190Y-46199082D01*
X146028950Y-46202929D01*
X146076761Y-46207111D01*
X146137119Y-46209218D01*
X146200256Y-46206775D01*
X146215842Y-46204666D01*
X146245659Y-46195267D01*
X146259054Y-46188034D01*
X146271422Y-46179115D01*
X146285587Y-46164682D01*
X146296823Y-46144087D01*
X146299754Y-46132393D01*
X146300731Y-46119978D01*
X146298908Y-46101878D01*
X146290307Y-46079631D01*
X146283042Y-46069408D01*
X146273865Y-46060108D01*
X146270644Y-46057394D01*
X146257108Y-46047767D01*
X146241814Y-46039474D01*
X146223439Y-46032052D01*
X146203034Y-46026158D01*
X146187568Y-46022767D01*
X146159692Y-46018256D01*
X146131166Y-46015655D01*
X146056519Y-46014953D01*
X146009075Y-46019869D01*
X146000255Y-46021615D01*
X145966516Y-46032478D01*
X145954262Y-46039016D01*
X145936168Y-46054856D01*
X145928578Y-46067599D01*
X145925637Y-46077852D01*
X145924658Y-46089173D01*
X145869368Y-46089173D01*
X145873035Y-46061029D01*
X145877628Y-46046561D01*
X145884053Y-46032813D01*
X145897907Y-46012284D01*
X145909227Y-46000078D01*
X145922216Y-45989063D01*
X145941669Y-45976396D01*
X145959260Y-45967786D01*
X145978392Y-45960731D01*
X146004389Y-45954378D01*
X146024899Y-45951837D01*
X146046047Y-45951267D01*
X146145484Y-45953709D01*
G37*
G36*
X146054931Y-46664487D02*
G01*
X146203523Y-46666929D01*
X146314195Y-46664487D01*
X146325479Y-46663066D01*
X146334800Y-46659757D01*
X146341245Y-46655388D01*
X146346462Y-46649474D01*
X146349614Y-46642790D01*
X146350710Y-46635086D01*
X146349727Y-46626497D01*
X146346756Y-46618448D01*
X146344390Y-46614447D01*
X146335729Y-46608501D01*
X146315069Y-46605155D01*
X146307173Y-46604983D01*
X146263240Y-46605349D01*
X146244058Y-46605552D01*
X146196165Y-46606051D01*
X146120633Y-46605685D01*
X146051420Y-46602876D01*
X146028226Y-46600434D01*
X146007480Y-46596192D01*
X145990732Y-46590772D01*
X145976011Y-46583868D01*
X145955158Y-46568255D01*
X145945389Y-46557025D01*
X145937520Y-46544936D01*
X145931707Y-46532397D01*
X145927681Y-46519052D01*
X145924933Y-46493700D01*
X145925910Y-46478791D01*
X145928841Y-46465402D01*
X145936199Y-46449248D01*
X145944293Y-46438195D01*
X145953768Y-46428590D01*
X145964989Y-46420183D01*
X145978548Y-46412729D01*
X145993251Y-46406895D01*
X146004343Y-46403757D01*
X146047207Y-46397102D01*
X146099536Y-46395697D01*
X146100727Y-46395676D01*
X146181052Y-46394293D01*
X146262904Y-46393591D01*
X146316302Y-46393591D01*
X146328103Y-46392614D01*
X146337099Y-46389683D01*
X146342650Y-46385531D01*
X146346988Y-46379375D01*
X146349440Y-46372399D01*
X146350038Y-46366297D01*
X146349062Y-46358850D01*
X146346138Y-46351766D01*
X146340543Y-46344254D01*
X146327461Y-46335943D01*
X146312791Y-46333385D01*
X146258325Y-46332347D01*
X146192990Y-46332347D01*
X146119228Y-46333751D01*
X146040887Y-46335491D01*
X146016236Y-46337170D01*
X145993689Y-46340747D01*
X145974729Y-46345738D01*
X145957548Y-46352351D01*
X145956898Y-46352649D01*
X145938803Y-46362092D01*
X145922960Y-46372647D01*
X145902890Y-46391148D01*
X145891804Y-46405302D01*
X145882777Y-46420098D01*
X145874192Y-46440149D01*
X145868918Y-46459056D01*
X145866046Y-46476907D01*
X145865460Y-46488784D01*
X145869368Y-46524017D01*
X145874894Y-46545143D01*
X145880939Y-46561356D01*
X145888802Y-46576839D01*
X145906035Y-46601136D01*
X145930705Y-46624142D01*
X145964653Y-46644550D01*
X145999261Y-46656932D01*
X146042197Y-46663742D01*
X146054931Y-46664487D01*
G37*
G36*
X146351992Y-46749117D02*
G01*
X146352495Y-46739767D01*
X146350761Y-46732003D01*
X146344268Y-46723563D01*
X146336414Y-46718760D01*
X146328551Y-46716423D01*
X146323263Y-46716235D01*
X146316434Y-46717215D01*
X146310630Y-46720164D01*
X146306471Y-46724265D01*
X146299530Y-46739568D01*
X146297373Y-46749819D01*
X146294320Y-46789722D01*
X146291511Y-46848524D01*
X146198424Y-46849562D01*
X146134526Y-46851544D01*
X146085370Y-46853073D01*
X145980376Y-46855881D01*
X145910157Y-46855515D01*
X145900366Y-46855692D01*
X145892248Y-46857966D01*
X145884969Y-46863209D01*
X145880130Y-46869917D01*
X145877335Y-46877305D01*
X145876573Y-46884214D01*
X145877098Y-46893024D01*
X145879604Y-46901510D01*
X145883931Y-46909432D01*
X145889200Y-46915484D01*
X145895620Y-46919751D01*
X145906676Y-46922712D01*
X145993474Y-46920606D01*
X146013670Y-46920069D01*
X146099170Y-46917827D01*
X146204164Y-46915385D01*
X146288855Y-46914316D01*
X146287115Y-46973484D01*
X146285375Y-47013723D01*
X146285957Y-47023150D01*
X146288566Y-47030744D01*
X146295511Y-47038209D01*
X146304474Y-47042830D01*
X146313311Y-47045031D01*
X146316851Y-47045231D01*
X146331945Y-47040060D01*
X146334712Y-47038209D01*
X146341579Y-47028470D01*
X146343474Y-47015128D01*
X146344176Y-46946862D01*
X146346037Y-46872402D01*
X146346130Y-46867422D01*
X146348572Y-46795340D01*
X146352419Y-46749117D01*
X146351992Y-46749117D01*
G37*
G36*
X145875443Y-47129861D02*
G01*
X145874886Y-47119819D01*
X145872271Y-47112345D01*
X145867048Y-47107085D01*
X145859180Y-47103708D01*
X145851067Y-47102464D01*
X145848149Y-47102536D01*
X145839475Y-47103508D01*
X145831440Y-47106405D01*
X145828915Y-47107787D01*
X145822246Y-47116375D01*
X145820153Y-47130563D01*
X145820519Y-47199500D01*
X145820855Y-47279307D01*
X145821191Y-47352091D01*
X145821557Y-47400054D01*
X145822535Y-47410218D01*
X145825474Y-47417743D01*
X145830655Y-47422800D01*
X145838868Y-47426373D01*
X145847604Y-47427965D01*
X145850256Y-47428051D01*
X145858998Y-47426408D01*
X145866987Y-47422807D01*
X145868116Y-47422097D01*
X145874364Y-47413304D01*
X145876146Y-47400054D01*
X145875810Y-47355602D01*
X145875155Y-47297167D01*
X145875108Y-47292588D01*
X145874741Y-47215590D01*
X145875443Y-47129861D01*
G37*
G36*
X146316575Y-47489865D02*
G01*
X146323415Y-47492714D01*
X146331733Y-47498799D01*
X146338131Y-47509170D01*
X146343382Y-47543486D01*
X146347229Y-47584763D01*
X146349336Y-47621186D01*
X146350038Y-47642160D01*
X146348776Y-47666027D01*
X146340909Y-47703770D01*
X146331787Y-47726482D01*
X146314317Y-47753107D01*
X146298100Y-47768910D01*
X146285097Y-47778034D01*
X146270628Y-47785683D01*
X146247628Y-47793613D01*
X146229887Y-47796897D01*
X146210881Y-47798262D01*
X146180060Y-47796075D01*
X146142431Y-47786721D01*
X146115190Y-47774341D01*
X146086530Y-47753810D01*
X146067436Y-47733299D01*
X146057483Y-47718808D01*
X146049100Y-47703068D01*
X146039361Y-47674370D01*
X146036430Y-47656621D01*
X146035453Y-47637977D01*
X146036308Y-47618377D01*
X146088637Y-47618377D01*
X146088748Y-47626166D01*
X146092909Y-47661415D01*
X146101918Y-47685941D01*
X146115725Y-47705877D01*
X146134402Y-47721631D01*
X146148413Y-47728693D01*
X146161721Y-47733100D01*
X146175618Y-47735614D01*
X146215094Y-47738087D01*
X146234714Y-47736070D01*
X146254905Y-47727920D01*
X146263957Y-47721429D01*
X146280062Y-47703435D01*
X146282956Y-47698546D01*
X146288871Y-47685826D01*
X146292977Y-47672263D01*
X146296823Y-47642191D01*
X146295083Y-47606134D01*
X146291236Y-47559576D01*
X146208438Y-47557133D01*
X146098407Y-47556065D01*
X146091782Y-47580214D01*
X146089419Y-47596937D01*
X146088637Y-47618377D01*
X146036308Y-47618377D01*
X146037529Y-47590381D01*
X146042445Y-47557469D01*
X145963005Y-47562384D01*
X145901028Y-47567269D01*
X145889344Y-47565307D01*
X145883609Y-47561501D01*
X145878985Y-47555729D01*
X145875297Y-47548250D01*
X145872833Y-47539335D01*
X145872329Y-47530175D01*
X145873003Y-47524874D01*
X145875711Y-47516356D01*
X145880389Y-47508468D01*
X145887414Y-47502608D01*
X145895076Y-47500280D01*
X145904539Y-47500072D01*
X145947953Y-47500774D01*
X146015150Y-47500072D01*
X146097033Y-47498332D01*
X146183647Y-47496591D01*
X146252096Y-47496225D01*
X146296121Y-47497263D01*
X146297862Y-47495523D01*
X146299632Y-47493783D01*
X146309947Y-47489406D01*
X146316575Y-47489865D01*
G37*
G36*
X146145484Y-48493709D02*
G01*
X146153743Y-48494157D01*
X146205970Y-48501444D01*
X146231577Y-48507985D01*
X146256768Y-48516454D01*
X146275855Y-48525536D01*
X146289727Y-48534665D01*
X146302610Y-48545549D01*
X146314985Y-48558762D01*
X146326285Y-48573882D01*
X146338783Y-48596066D01*
X146345329Y-48612547D01*
X146350038Y-48629776D01*
X146352969Y-48648326D01*
X146353946Y-48667671D01*
X146352498Y-48686962D01*
X146349124Y-48702508D01*
X146343779Y-48717711D01*
X146334709Y-48735362D01*
X146325412Y-48748569D01*
X146314378Y-48760758D01*
X146299549Y-48773431D01*
X146284021Y-48783642D01*
X146266537Y-48792602D01*
X146242465Y-48801299D01*
X146222468Y-48805750D01*
X146200958Y-48808355D01*
X146149331Y-48811164D01*
X146092453Y-48811164D01*
X146038384Y-48808019D01*
X145995122Y-48800662D01*
X145963873Y-48790230D01*
X145931986Y-48773703D01*
X145912705Y-48758651D01*
X145893517Y-48735907D01*
X145884959Y-48720251D01*
X145878889Y-48704525D01*
X145874589Y-48687608D01*
X145873276Y-48680264D01*
X145870345Y-48655575D01*
X145869368Y-48629173D01*
X145924658Y-48629173D01*
X145924706Y-48632608D01*
X145926124Y-48648092D01*
X145929510Y-48663355D01*
X145935095Y-48678931D01*
X145942793Y-48694263D01*
X145952628Y-48707980D01*
X145962342Y-48717422D01*
X145973769Y-48725624D01*
X145987986Y-48733070D01*
X146004190Y-48739082D01*
X146028950Y-48742929D01*
X146076761Y-48747111D01*
X146137119Y-48749218D01*
X146200256Y-48746775D01*
X146215842Y-48744666D01*
X146245659Y-48735267D01*
X146259054Y-48728034D01*
X146271422Y-48719115D01*
X146285587Y-48704682D01*
X146296823Y-48684087D01*
X146299754Y-48672393D01*
X146300731Y-48659978D01*
X146298908Y-48641878D01*
X146290307Y-48619631D01*
X146283042Y-48609408D01*
X146273865Y-48600108D01*
X146270644Y-48597394D01*
X146257108Y-48587767D01*
X146241814Y-48579474D01*
X146223439Y-48572052D01*
X146203034Y-48566158D01*
X146187568Y-48562767D01*
X146159692Y-48558256D01*
X146131166Y-48555655D01*
X146056519Y-48554953D01*
X146009075Y-48559869D01*
X146000255Y-48561615D01*
X145966516Y-48572478D01*
X145954262Y-48579016D01*
X145936168Y-48594856D01*
X145928578Y-48607599D01*
X145925637Y-48617852D01*
X145924658Y-48629173D01*
X145869368Y-48629173D01*
X145873035Y-48601029D01*
X145877628Y-48586561D01*
X145884053Y-48572813D01*
X145897907Y-48552284D01*
X145909227Y-48540078D01*
X145922216Y-48529063D01*
X145941669Y-48516396D01*
X145959260Y-48507786D01*
X145978392Y-48500731D01*
X146004389Y-48494378D01*
X146024899Y-48491837D01*
X146046047Y-48491267D01*
X146145484Y-48493709D01*
G37*
G36*
X146054931Y-49204487D02*
G01*
X146203523Y-49206929D01*
X146314195Y-49204487D01*
X146325479Y-49203066D01*
X146334800Y-49199757D01*
X146341245Y-49195388D01*
X146346462Y-49189474D01*
X146349614Y-49182790D01*
X146350710Y-49175086D01*
X146349727Y-49166497D01*
X146346756Y-49158448D01*
X146344390Y-49154447D01*
X146335729Y-49148501D01*
X146315069Y-49145155D01*
X146307173Y-49144983D01*
X146263240Y-49145349D01*
X146244058Y-49145552D01*
X146196165Y-49146051D01*
X146120633Y-49145685D01*
X146051420Y-49142876D01*
X146028226Y-49140434D01*
X146007480Y-49136192D01*
X145990732Y-49130772D01*
X145976011Y-49123868D01*
X145955158Y-49108255D01*
X145945389Y-49097025D01*
X145937520Y-49084936D01*
X145931707Y-49072397D01*
X145927681Y-49059052D01*
X145924933Y-49033700D01*
X145925910Y-49018791D01*
X145928841Y-49005402D01*
X145936199Y-48989248D01*
X145944293Y-48978195D01*
X145953768Y-48968590D01*
X145964989Y-48960183D01*
X145978548Y-48952729D01*
X145993251Y-48946895D01*
X146004343Y-48943757D01*
X146047207Y-48937102D01*
X146099536Y-48935697D01*
X146100727Y-48935676D01*
X146181052Y-48934293D01*
X146262904Y-48933591D01*
X146316302Y-48933591D01*
X146328103Y-48932614D01*
X146337099Y-48929683D01*
X146342650Y-48925531D01*
X146346988Y-48919375D01*
X146349440Y-48912399D01*
X146350038Y-48906297D01*
X146349062Y-48898850D01*
X146346138Y-48891766D01*
X146340543Y-48884254D01*
X146327461Y-48875943D01*
X146312791Y-48873385D01*
X146258325Y-48872347D01*
X146192990Y-48872347D01*
X146119228Y-48873751D01*
X146040887Y-48875491D01*
X146016236Y-48877170D01*
X145993689Y-48880747D01*
X145974729Y-48885738D01*
X145957548Y-48892351D01*
X145956898Y-48892649D01*
X145938803Y-48902092D01*
X145922960Y-48912647D01*
X145902890Y-48931148D01*
X145891804Y-48945302D01*
X145882777Y-48960098D01*
X145874192Y-48980149D01*
X145868918Y-48999056D01*
X145866046Y-49016907D01*
X145865460Y-49028784D01*
X145869368Y-49064017D01*
X145874894Y-49085143D01*
X145880939Y-49101356D01*
X145888802Y-49116839D01*
X145906035Y-49141136D01*
X145930705Y-49164142D01*
X145964653Y-49184550D01*
X145999261Y-49196932D01*
X146042197Y-49203742D01*
X146054931Y-49204487D01*
G37*
G36*
X146351992Y-49289117D02*
G01*
X146352495Y-49279767D01*
X146350761Y-49272003D01*
X146344268Y-49263563D01*
X146336414Y-49258760D01*
X146328551Y-49256423D01*
X146323263Y-49256235D01*
X146316434Y-49257215D01*
X146310630Y-49260164D01*
X146306471Y-49264265D01*
X146299530Y-49279568D01*
X146297373Y-49289819D01*
X146294320Y-49329722D01*
X146291511Y-49388524D01*
X146198424Y-49389562D01*
X146134526Y-49391544D01*
X146085370Y-49393073D01*
X145980376Y-49395881D01*
X145910157Y-49395515D01*
X145900366Y-49395692D01*
X145892248Y-49397966D01*
X145884969Y-49403209D01*
X145880130Y-49409917D01*
X145877335Y-49417305D01*
X145876573Y-49424214D01*
X145877098Y-49433024D01*
X145879604Y-49441510D01*
X145883931Y-49449432D01*
X145889200Y-49455484D01*
X145895620Y-49459751D01*
X145906676Y-49462712D01*
X145993474Y-49460606D01*
X146013670Y-49460069D01*
X146099170Y-49457827D01*
X146204164Y-49455385D01*
X146288855Y-49454316D01*
X146287115Y-49513484D01*
X146285375Y-49553723D01*
X146285957Y-49563150D01*
X146288566Y-49570744D01*
X146295511Y-49578209D01*
X146304474Y-49582830D01*
X146313311Y-49585031D01*
X146316851Y-49585231D01*
X146331945Y-49580060D01*
X146334712Y-49578209D01*
X146341579Y-49568470D01*
X146343474Y-49555128D01*
X146344176Y-49486862D01*
X146346037Y-49412402D01*
X146346130Y-49407422D01*
X146348572Y-49335340D01*
X146352419Y-49289117D01*
X146351992Y-49289117D01*
G37*
G36*
X145875443Y-49669861D02*
G01*
X145874886Y-49659819D01*
X145872271Y-49652345D01*
X145867048Y-49647085D01*
X145859180Y-49643708D01*
X145851067Y-49642464D01*
X145848149Y-49642536D01*
X145839475Y-49643508D01*
X145831440Y-49646405D01*
X145828915Y-49647787D01*
X145822246Y-49656375D01*
X145820153Y-49670563D01*
X145820519Y-49739500D01*
X145820855Y-49819307D01*
X145821191Y-49892091D01*
X145821557Y-49940054D01*
X145822535Y-49950218D01*
X145825474Y-49957743D01*
X145830655Y-49962800D01*
X145838868Y-49966373D01*
X145847604Y-49967965D01*
X145850256Y-49968051D01*
X145858998Y-49966408D01*
X145866987Y-49962807D01*
X145868116Y-49962097D01*
X145874364Y-49953304D01*
X145876146Y-49940054D01*
X145875810Y-49895602D01*
X145875155Y-49837167D01*
X145875108Y-49832588D01*
X145874741Y-49755590D01*
X145875443Y-49669861D01*
G37*
G36*
X145891991Y-50338964D02*
G01*
X145911603Y-50343044D01*
X145970027Y-50347024D01*
X146107932Y-50350169D01*
X146242693Y-50350169D01*
X146310593Y-50348764D01*
X146326415Y-50345532D01*
X146337520Y-50341406D01*
X146343934Y-50333679D01*
X146346283Y-50317959D01*
X146345307Y-50310679D01*
X146342382Y-50304180D01*
X146335780Y-50296985D01*
X146329267Y-50293003D01*
X146321819Y-50290771D01*
X146309188Y-50290665D01*
X146246174Y-50294878D01*
X146154125Y-50296618D01*
X146056122Y-50296618D01*
X145975278Y-50295580D01*
X146052978Y-50250426D01*
X146153422Y-50195136D01*
X146251425Y-50144730D01*
X146292297Y-50125740D01*
X146321767Y-50114261D01*
X146330678Y-50110407D01*
X146337166Y-50105280D01*
X146341367Y-50098537D01*
X146345580Y-50078571D01*
X146345883Y-50068748D01*
X146344214Y-50058982D01*
X146339291Y-50046727D01*
X146335195Y-50041141D01*
X146329607Y-50036909D01*
X146313758Y-50032501D01*
X146303571Y-50032378D01*
X146214330Y-50034118D01*
X146098132Y-50032714D01*
X145988589Y-50030272D01*
X145920689Y-50028867D01*
X145904859Y-50029841D01*
X145892213Y-50032754D01*
X145889549Y-50033783D01*
X145883952Y-50037210D01*
X145880044Y-50042044D01*
X145877275Y-50052681D01*
X145877836Y-50059903D01*
X145880374Y-50066708D01*
X145886038Y-50074357D01*
X145898320Y-50081478D01*
X145917178Y-50083486D01*
X145969324Y-50084158D01*
X146054046Y-50086631D01*
X146154125Y-50087669D01*
X146253196Y-50084860D01*
X146180403Y-50115507D01*
X146151346Y-50129678D01*
X146043879Y-50186373D01*
X145951128Y-50238855D01*
X145893395Y-50270362D01*
X145882527Y-50278891D01*
X145880786Y-50281231D01*
X145876061Y-50294842D01*
X145875901Y-50302572D01*
X145879382Y-50324279D01*
X145882730Y-50331159D01*
X145887590Y-50336330D01*
X145891991Y-50338964D01*
G37*
G36*
X146347687Y-51734686D02*
G01*
X146349696Y-51727676D01*
X146349755Y-51720268D01*
X146346985Y-51710200D01*
X146338069Y-51699011D01*
X146319691Y-51689898D01*
X146266843Y-51673075D01*
X146176534Y-51644041D01*
X146070136Y-51609053D01*
X145968989Y-51575103D01*
X146055420Y-51546741D01*
X146162185Y-51513127D01*
X146259821Y-51483054D01*
X146319691Y-51464492D01*
X146331739Y-51459566D01*
X146340616Y-51453601D01*
X146346985Y-51445227D01*
X146349526Y-51437313D01*
X146349813Y-51429616D01*
X146347687Y-51421780D01*
X146343758Y-51415673D01*
X146338298Y-51410874D01*
X146330529Y-51407095D01*
X146313288Y-51405304D01*
X146297984Y-51407797D01*
X146232191Y-51427031D01*
X146120541Y-51463454D01*
X145998023Y-51505433D01*
X145901089Y-51540787D01*
X145892612Y-51545052D01*
X145886273Y-51550579D01*
X145881824Y-51557945D01*
X145878416Y-51568871D01*
X145877275Y-51578584D01*
X145877706Y-51587509D01*
X145880111Y-51595958D01*
X145881824Y-51599589D01*
X145891389Y-51609104D01*
X145902493Y-51613572D01*
X145993840Y-51641232D01*
X146117030Y-51682876D01*
X146231824Y-51723481D01*
X146297984Y-51748699D01*
X146308905Y-51752468D01*
X146318724Y-51753602D01*
X146329827Y-51751141D01*
X146338119Y-51746258D01*
X146344320Y-51740195D01*
X146347687Y-51734686D01*
G37*
G36*
X146351992Y-52018832D02*
G01*
X146348084Y-51988537D01*
X146335877Y-51956388D01*
X146327812Y-51941834D01*
X146303039Y-51908401D01*
X146269893Y-51877021D01*
X146260004Y-51869355D01*
X146217136Y-51842330D01*
X146165421Y-51819163D01*
X146155193Y-51815469D01*
X146103921Y-51801711D01*
X146047896Y-51794860D01*
X146021379Y-51794128D01*
X145986069Y-51798036D01*
X145965478Y-51803928D01*
X145949010Y-51810731D01*
X145933652Y-51819218D01*
X145915499Y-51832627D01*
X145892757Y-51857185D01*
X145879443Y-51878819D01*
X145868979Y-51907738D01*
X145865460Y-51940430D01*
X145865894Y-51967668D01*
X145868302Y-51992315D01*
X145870681Y-52005856D01*
X145876757Y-52030061D01*
X145884126Y-52051080D01*
X145885732Y-52054857D01*
X145894702Y-52072775D01*
X145904571Y-52087954D01*
X145906035Y-52089876D01*
X145927742Y-52113323D01*
X145938522Y-52121529D01*
X145948123Y-52126102D01*
X145957082Y-52126970D01*
X145964775Y-52124861D01*
X145971268Y-52120968D01*
X145975949Y-52116132D01*
X145979425Y-52109594D01*
X145980619Y-52102903D01*
X145979460Y-52095829D01*
X145968256Y-52074122D01*
X145947488Y-52040190D01*
X145939618Y-52024419D01*
X145928830Y-51992784D01*
X145924319Y-51954732D01*
X145924231Y-51948123D01*
X145925207Y-51936832D01*
X145928132Y-51926000D01*
X145934733Y-51912769D01*
X145943038Y-51901572D01*
X145952877Y-51891640D01*
X145961631Y-51884773D01*
X145990136Y-51869552D01*
X145999366Y-51866210D01*
X146015547Y-51861914D01*
X146031844Y-51859629D01*
X146042353Y-51859219D01*
X146067511Y-51860195D01*
X146092075Y-51863123D01*
X146115676Y-51867907D01*
X146138712Y-51874576D01*
X146140874Y-51875308D01*
X146167284Y-51885440D01*
X146191661Y-51896948D01*
X146222635Y-51915578D01*
X146241287Y-51929666D01*
X146257647Y-51944546D01*
X146278169Y-51968762D01*
X146287356Y-51983415D01*
X146293851Y-51997650D01*
X146297411Y-52010180D01*
X146298763Y-52022366D01*
X146298777Y-52023716D01*
X146297799Y-52032859D01*
X146294857Y-52041419D01*
X146291786Y-52046828D01*
X146279910Y-52065024D01*
X146264553Y-52063955D01*
X146252677Y-52063620D01*
X146245151Y-52064597D01*
X146238743Y-52067533D01*
X146230664Y-52076564D01*
X146226277Y-52086242D01*
X146224529Y-52095177D01*
X146224711Y-52100012D01*
X146229357Y-52111157D01*
X146239732Y-52120681D01*
X146249694Y-52126517D01*
X146259566Y-52129891D01*
X146268033Y-52130817D01*
X146298777Y-52130817D01*
X146335965Y-52126909D01*
X146344268Y-52125230D01*
X146352160Y-52122632D01*
X146358591Y-52118325D01*
X146364570Y-52110514D01*
X146368509Y-52101017D01*
X146369731Y-52092506D01*
X146369486Y-52089509D01*
X146364334Y-52075891D01*
X146362464Y-52073420D01*
X146356734Y-52067939D01*
X146349821Y-52064096D01*
X146346374Y-52062917D01*
X146350587Y-52042279D01*
X146351992Y-52018832D01*
G37*
G36*
X146351992Y-52403758D02*
G01*
X146348084Y-52373463D01*
X146335877Y-52341315D01*
X146327812Y-52326761D01*
X146303039Y-52293328D01*
X146269893Y-52261948D01*
X146260004Y-52254282D01*
X146217136Y-52227257D01*
X146165421Y-52204090D01*
X146155193Y-52200396D01*
X146103921Y-52186637D01*
X146047896Y-52179786D01*
X146021379Y-52179055D01*
X145986069Y-52182963D01*
X145965478Y-52188855D01*
X145949010Y-52195658D01*
X145933652Y-52204145D01*
X145915499Y-52217554D01*
X145892757Y-52242112D01*
X145879443Y-52263746D01*
X145868979Y-52292665D01*
X145865460Y-52325356D01*
X145865894Y-52352595D01*
X145868302Y-52377241D01*
X145870681Y-52390783D01*
X145876757Y-52414988D01*
X145884126Y-52436006D01*
X145885732Y-52439784D01*
X145894702Y-52457702D01*
X145904571Y-52472881D01*
X145906035Y-52474802D01*
X145927742Y-52498250D01*
X145938522Y-52506456D01*
X145948123Y-52511028D01*
X145957082Y-52511897D01*
X145964775Y-52509788D01*
X145971268Y-52505895D01*
X145975949Y-52501059D01*
X145979425Y-52494520D01*
X145980619Y-52487829D01*
X145979460Y-52480756D01*
X145968256Y-52459049D01*
X145947488Y-52425117D01*
X145939618Y-52409345D01*
X145928830Y-52377711D01*
X145924319Y-52339659D01*
X145924231Y-52333050D01*
X145925207Y-52321759D01*
X145928132Y-52310927D01*
X145934733Y-52297696D01*
X145943038Y-52286499D01*
X145952877Y-52276567D01*
X145961631Y-52269700D01*
X145990136Y-52254479D01*
X145999366Y-52251137D01*
X146015547Y-52246840D01*
X146031844Y-52244556D01*
X146042353Y-52244146D01*
X146067511Y-52245122D01*
X146092075Y-52248050D01*
X146115676Y-52252834D01*
X146138712Y-52259503D01*
X146140874Y-52260235D01*
X146167284Y-52270366D01*
X146191661Y-52281875D01*
X146222635Y-52300505D01*
X146241287Y-52314593D01*
X146257647Y-52329473D01*
X146278169Y-52353689D01*
X146287356Y-52368342D01*
X146293851Y-52382576D01*
X146297411Y-52395106D01*
X146298763Y-52407293D01*
X146298777Y-52408643D01*
X146297799Y-52417785D01*
X146294857Y-52426346D01*
X146291786Y-52431755D01*
X146279910Y-52449951D01*
X146264553Y-52448882D01*
X146252677Y-52448546D01*
X146245151Y-52449524D01*
X146238743Y-52452459D01*
X146230664Y-52461491D01*
X146226277Y-52471169D01*
X146224529Y-52480103D01*
X146224711Y-52484939D01*
X146229357Y-52496084D01*
X146239732Y-52505608D01*
X146249694Y-52511444D01*
X146259566Y-52514818D01*
X146268033Y-52515744D01*
X146298777Y-52515744D01*
X146335965Y-52511836D01*
X146344268Y-52510157D01*
X146352160Y-52507559D01*
X146358591Y-52503252D01*
X146364570Y-52495441D01*
X146368509Y-52485944D01*
X146369731Y-52477433D01*
X146369486Y-52474436D01*
X146364334Y-52460818D01*
X146362464Y-52458347D01*
X146356734Y-52452866D01*
X146349821Y-52449022D01*
X146346374Y-52447844D01*
X146350587Y-52427206D01*
X146351992Y-52403758D01*
G37*
G36*
X146103902Y-54078681D02*
G01*
X146097890Y-54067922D01*
X146091213Y-54060390D01*
X146086072Y-54057004D01*
X146077625Y-54054024D01*
X146069058Y-54053193D01*
X146065403Y-54053493D01*
X146058872Y-54055359D01*
X146053095Y-54059097D01*
X146047848Y-54065034D01*
X146044893Y-54071045D01*
X146044198Y-54077231D01*
X146047146Y-54086405D01*
X146055206Y-54110188D01*
X146061526Y-54144504D01*
X146065739Y-54183705D01*
X146068212Y-54221502D01*
X146024676Y-54205046D01*
X146002672Y-54193931D01*
X145981932Y-54181270D01*
X145977262Y-54178088D01*
X145961949Y-54166246D01*
X145948422Y-54153273D01*
X145939679Y-54143100D01*
X145932264Y-54132103D01*
X145927250Y-54120996D01*
X145924231Y-54103197D01*
X145925208Y-54091906D01*
X145928139Y-54081073D01*
X145934764Y-54067842D01*
X145943027Y-54056753D01*
X145952805Y-54046903D01*
X145961814Y-54039846D01*
X145990209Y-54024724D01*
X145999733Y-54021284D01*
X146016010Y-54016988D01*
X146032383Y-54014703D01*
X146042933Y-54014292D01*
X146068851Y-54015269D01*
X146094111Y-54018196D01*
X146118269Y-54022966D01*
X146141787Y-54029612D01*
X146144111Y-54030382D01*
X146171154Y-54040514D01*
X146196146Y-54052024D01*
X146227978Y-54070651D01*
X146247125Y-54084665D01*
X146263934Y-54099462D01*
X146285283Y-54123835D01*
X146294715Y-54138372D01*
X146301412Y-54152493D01*
X146305099Y-54164856D01*
X146306565Y-54176896D01*
X146306593Y-54178790D01*
X146302713Y-54199330D01*
X146302411Y-54200130D01*
X146292977Y-54221135D01*
X146282474Y-54239698D01*
X146275147Y-54253681D01*
X146273605Y-54261474D01*
X146274254Y-54268958D01*
X146275849Y-54273648D01*
X146279818Y-54280216D01*
X146284951Y-54284601D01*
X146287725Y-54285890D01*
X146304853Y-54287997D01*
X146311749Y-54287022D01*
X146318267Y-54284106D01*
X146324789Y-54278899D01*
X146334956Y-54263481D01*
X146346496Y-54237255D01*
X146355930Y-54205382D01*
X146359808Y-54173905D01*
X146355904Y-54144065D01*
X146343697Y-54112359D01*
X146334956Y-54096907D01*
X146309510Y-54063434D01*
X146275606Y-54031970D01*
X146265713Y-54024428D01*
X146222348Y-53997506D01*
X146169958Y-53974381D01*
X146159162Y-53970542D01*
X146107211Y-53956861D01*
X146049954Y-53949973D01*
X146021867Y-53949201D01*
X145986384Y-53953109D01*
X145965691Y-53959002D01*
X145949139Y-53965806D01*
X145933706Y-53974295D01*
X145915499Y-53987700D01*
X145892757Y-54012259D01*
X145879443Y-54033893D01*
X145868979Y-54062812D01*
X145865460Y-54095503D01*
X145866129Y-54111115D01*
X145868760Y-54126181D01*
X145879605Y-54154123D01*
X145885396Y-54163738D01*
X145898106Y-54181133D01*
X145912181Y-54197047D01*
X145934764Y-54217288D01*
X145954947Y-54231741D01*
X145975635Y-54244103D01*
X145994481Y-54253345D01*
X146017116Y-54262285D01*
X146036518Y-54267664D01*
X146045742Y-54269099D01*
X146059084Y-54270503D01*
X146070319Y-54271877D01*
X146073467Y-54278297D01*
X146077952Y-54282576D01*
X146082561Y-54284486D01*
X146100422Y-54285890D01*
X146107799Y-54283743D01*
X146113808Y-54279811D01*
X146115107Y-54278532D01*
X146119980Y-54267629D01*
X146121427Y-54255085D01*
X146121427Y-54214144D01*
X146118618Y-54161998D01*
X146112664Y-54112295D01*
X146108547Y-54092351D01*
X146103902Y-54078681D01*
G37*
G36*
X145891991Y-54649110D02*
G01*
X145911603Y-54653189D01*
X145970027Y-54657170D01*
X146107932Y-54660314D01*
X146242693Y-54660314D01*
X146310593Y-54658910D01*
X146326415Y-54655678D01*
X146337520Y-54651552D01*
X146343934Y-54643824D01*
X146346283Y-54628105D01*
X146345307Y-54620825D01*
X146342382Y-54614326D01*
X146335780Y-54607131D01*
X146329267Y-54603149D01*
X146321819Y-54600917D01*
X146309188Y-54600811D01*
X146246174Y-54605024D01*
X146154125Y-54606764D01*
X146056122Y-54606764D01*
X145975278Y-54605726D01*
X146052978Y-54560572D01*
X146153422Y-54505281D01*
X146251425Y-54454876D01*
X146292297Y-54435886D01*
X146321767Y-54424406D01*
X146330678Y-54420553D01*
X146337166Y-54415426D01*
X146341367Y-54408683D01*
X146345580Y-54388716D01*
X146345883Y-54378894D01*
X146344214Y-54369127D01*
X146339291Y-54356873D01*
X146335195Y-54351286D01*
X146329607Y-54347055D01*
X146313758Y-54342647D01*
X146303571Y-54342524D01*
X146214330Y-54344264D01*
X146098132Y-54342860D01*
X145988589Y-54340417D01*
X145920689Y-54339013D01*
X145904859Y-54339987D01*
X145892213Y-54342899D01*
X145889549Y-54343928D01*
X145883952Y-54347356D01*
X145880044Y-54352190D01*
X145877275Y-54362827D01*
X145877836Y-54370049D01*
X145880374Y-54376854D01*
X145886038Y-54384503D01*
X145898320Y-54391624D01*
X145917178Y-54393632D01*
X145969324Y-54394303D01*
X146054046Y-54396776D01*
X146154125Y-54397814D01*
X146253196Y-54395006D01*
X146180403Y-54425653D01*
X146151346Y-54439824D01*
X146043879Y-54496519D01*
X145951128Y-54549001D01*
X145893395Y-54580508D01*
X145882527Y-54589037D01*
X145880786Y-54591377D01*
X145876061Y-54604988D01*
X145875901Y-54612718D01*
X145879382Y-54634425D01*
X145882730Y-54641305D01*
X145887590Y-54646476D01*
X145891991Y-54649110D01*
G37*
G36*
X146316393Y-54721161D02*
G01*
X146331767Y-54723809D01*
X146343596Y-54731633D01*
X146348094Y-54738100D01*
X146351016Y-54745476D01*
X146351992Y-54753340D01*
X146349721Y-54777402D01*
X146342894Y-54818798D01*
X146340979Y-54828266D01*
X146334903Y-54850629D01*
X146326588Y-54873297D01*
X146315408Y-54897502D01*
X146301739Y-54922051D01*
X146283731Y-54947962D01*
X146268084Y-54966047D01*
X146250353Y-54983383D01*
X146229560Y-55000727D01*
X146206484Y-55017245D01*
X146188403Y-55027943D01*
X146168819Y-55037020D01*
X146147627Y-55044548D01*
X146123521Y-55050811D01*
X146097623Y-55055348D01*
X146068116Y-55058278D01*
X146036583Y-55059255D01*
X146018195Y-55058222D01*
X145998526Y-55054956D01*
X145978300Y-55049454D01*
X145955452Y-55040402D01*
X145938807Y-55031417D01*
X145923193Y-55020756D01*
X145904073Y-55003671D01*
X145892264Y-54989821D01*
X145881885Y-54974533D01*
X145880548Y-54972253D01*
X145874050Y-54958897D01*
X145869372Y-54944769D01*
X145866437Y-54929280D01*
X145865460Y-54912953D01*
X145865485Y-54912251D01*
X145921453Y-54912251D01*
X145923761Y-54927808D01*
X145927858Y-54937459D01*
X145934001Y-54946537D01*
X145940513Y-54953825D01*
X145952063Y-54964083D01*
X145965416Y-54973129D01*
X145973286Y-54977485D01*
X145989731Y-54984719D01*
X146007609Y-54990287D01*
X146016427Y-54992332D01*
X146052642Y-54996240D01*
X146081143Y-54994941D01*
X146121228Y-54987625D01*
X146154155Y-54974533D01*
X146158031Y-54972434D01*
X146193291Y-54948792D01*
X146221505Y-54920983D01*
X146242460Y-54892327D01*
X146253951Y-54872463D01*
X146263698Y-54851709D01*
X146290565Y-54783443D01*
X146206484Y-54782741D01*
X146112634Y-54784146D01*
X146025775Y-54786588D01*
X145943068Y-54789030D01*
X145937249Y-54804064D01*
X145926338Y-54846794D01*
X145925383Y-54852974D01*
X145922432Y-54881412D01*
X145921453Y-54912251D01*
X145865485Y-54912251D01*
X145867880Y-54845720D01*
X145875260Y-54800235D01*
X145885732Y-54751234D01*
X145886533Y-54744176D01*
X145889338Y-54736878D01*
X145894159Y-54730260D01*
X145901420Y-54724999D01*
X145909536Y-54722715D01*
X145919346Y-54722535D01*
X145963310Y-54723604D01*
X146030660Y-54723604D01*
X146113336Y-54722200D01*
X146203340Y-54719757D01*
X146270323Y-54719391D01*
X146316393Y-54721161D01*
G37*
G36*
X162143745Y-56529692D02*
G01*
X162173477Y-56531304D01*
X162361493Y-56557538D01*
X162453678Y-56581084D01*
X162544365Y-56611575D01*
X162613079Y-56644267D01*
X162663018Y-56677132D01*
X162709397Y-56716316D01*
X162753947Y-56763883D01*
X162794628Y-56818314D01*
X162839621Y-56898176D01*
X162863187Y-56957507D01*
X162880138Y-57019531D01*
X162890689Y-57086311D01*
X162894206Y-57155956D01*
X162888994Y-57225400D01*
X162876847Y-57281368D01*
X162857606Y-57336097D01*
X162824954Y-57399644D01*
X162791483Y-57447189D01*
X162751764Y-57491069D01*
X162698377Y-57536692D01*
X162642479Y-57573451D01*
X162579536Y-57605704D01*
X162492874Y-57637014D01*
X162420885Y-57653037D01*
X162343451Y-57662418D01*
X162157594Y-57672529D01*
X161952833Y-57672529D01*
X161758184Y-57661209D01*
X161602442Y-57634720D01*
X161489946Y-57597168D01*
X161375150Y-57537670D01*
X161305738Y-57483483D01*
X161236664Y-57401603D01*
X161205854Y-57345243D01*
X161184002Y-57288628D01*
X161168520Y-57227726D01*
X161163794Y-57201288D01*
X161153243Y-57112409D01*
X161149726Y-57017360D01*
X161348772Y-57017360D01*
X161348943Y-57029727D01*
X161354047Y-57085471D01*
X161366238Y-57140417D01*
X161386344Y-57196489D01*
X161414058Y-57251687D01*
X161449461Y-57301066D01*
X161484433Y-57335056D01*
X161525571Y-57364585D01*
X161576751Y-57391389D01*
X161635085Y-57413033D01*
X161724222Y-57426882D01*
X161896340Y-57441939D01*
X162113630Y-57449523D01*
X162340923Y-57440730D01*
X162397033Y-57433137D01*
X162504372Y-57399301D01*
X162552595Y-57373262D01*
X162597121Y-57341153D01*
X162648115Y-57289193D01*
X162688566Y-57215051D01*
X162699117Y-57172953D01*
X162702634Y-57128258D01*
X162696070Y-57063099D01*
X162665105Y-56983012D01*
X162638951Y-56946208D01*
X162605914Y-56912726D01*
X162594318Y-56902959D01*
X162545589Y-56868299D01*
X162490532Y-56838444D01*
X162424383Y-56811726D01*
X162350924Y-56790507D01*
X162295246Y-56778300D01*
X162194894Y-56762062D01*
X162092198Y-56752698D01*
X161823470Y-56750170D01*
X161652671Y-56767866D01*
X161620921Y-56774151D01*
X161499457Y-56813258D01*
X161455346Y-56836796D01*
X161390207Y-56893822D01*
X161362884Y-56939696D01*
X161352294Y-56976606D01*
X161348772Y-57017360D01*
X161149726Y-57017360D01*
X161162927Y-56916043D01*
X161179462Y-56863959D01*
X161202592Y-56814467D01*
X161252465Y-56740562D01*
X161293219Y-56696620D01*
X161339979Y-56656967D01*
X161410010Y-56611365D01*
X161473336Y-56580369D01*
X161542212Y-56554972D01*
X161635803Y-56532099D01*
X161709638Y-56522951D01*
X161785771Y-56520900D01*
X162143745Y-56529692D01*
G37*
G36*
X161817755Y-59088490D02*
G01*
X162352683Y-59097283D01*
X162751104Y-59088490D01*
X162791724Y-59083375D01*
X162825281Y-59071466D01*
X162848484Y-59055737D01*
X162867265Y-59034446D01*
X162878613Y-59010383D01*
X162882556Y-58982648D01*
X162879018Y-58951728D01*
X162868323Y-58922752D01*
X162859804Y-58908349D01*
X162828624Y-58886944D01*
X162754250Y-58874896D01*
X162725825Y-58874277D01*
X162567666Y-58875596D01*
X162498609Y-58876327D01*
X162326195Y-58878124D01*
X162054279Y-58876805D01*
X161805115Y-58866693D01*
X161721615Y-58857902D01*
X161646930Y-58842631D01*
X161586638Y-58823119D01*
X161533642Y-58798264D01*
X161458571Y-58742056D01*
X161423401Y-58701627D01*
X161395075Y-58658108D01*
X161374147Y-58612968D01*
X161359651Y-58564924D01*
X161349761Y-58473658D01*
X161353278Y-58419985D01*
X161363829Y-58371786D01*
X161390317Y-58313630D01*
X161419456Y-58273841D01*
X161453566Y-58239263D01*
X161493962Y-58208996D01*
X161542775Y-58182165D01*
X161595705Y-58161160D01*
X161635635Y-58149865D01*
X161789948Y-58125905D01*
X161978332Y-58120849D01*
X161982618Y-58120772D01*
X162271790Y-58115793D01*
X162566457Y-58113265D01*
X162758688Y-58113265D01*
X162801173Y-58109748D01*
X162833559Y-58099197D01*
X162853540Y-58084249D01*
X162869157Y-58062089D01*
X162877985Y-58036977D01*
X162880138Y-58015006D01*
X162876624Y-57988197D01*
X162866098Y-57962695D01*
X162845956Y-57935652D01*
X162798859Y-57905735D01*
X162746048Y-57896524D01*
X162549970Y-57892787D01*
X162314764Y-57892787D01*
X162049224Y-57897843D01*
X161767196Y-57904108D01*
X161678452Y-57910152D01*
X161597282Y-57923028D01*
X161529027Y-57940994D01*
X161467175Y-57964804D01*
X161464836Y-57965877D01*
X161399693Y-57999872D01*
X161342656Y-58037870D01*
X161270406Y-58104473D01*
X161230496Y-58155428D01*
X161197998Y-58208693D01*
X161167092Y-58280877D01*
X161148106Y-58348939D01*
X161137767Y-58413204D01*
X161135658Y-58455963D01*
X161149726Y-58582800D01*
X161169620Y-58658855D01*
X161191381Y-58717220D01*
X161219689Y-58772960D01*
X161281727Y-58860429D01*
X161370540Y-58943251D01*
X161492753Y-59016720D01*
X161617339Y-59061294D01*
X161771911Y-59085810D01*
X161817755Y-59088490D01*
G37*
G36*
X162887172Y-59393159D02*
G01*
X162888982Y-59359501D01*
X162882742Y-59331551D01*
X162859365Y-59301165D01*
X162831093Y-59283877D01*
X162802787Y-59275460D01*
X162783747Y-59274787D01*
X162759163Y-59278313D01*
X162738270Y-59288931D01*
X162723297Y-59303693D01*
X162698310Y-59358785D01*
X162690544Y-59395687D01*
X162679553Y-59539338D01*
X162669442Y-59751024D01*
X162334328Y-59754760D01*
X162104295Y-59761898D01*
X161927334Y-59767400D01*
X161549356Y-59777512D01*
X161296565Y-59776193D01*
X161261320Y-59776832D01*
X161232095Y-59785017D01*
X161205890Y-59803890D01*
X161188468Y-59828041D01*
X161178407Y-59854637D01*
X161175665Y-59879508D01*
X161177556Y-59911227D01*
X161186577Y-59941775D01*
X161202153Y-59970293D01*
X161221121Y-59992083D01*
X161244234Y-60007443D01*
X161284035Y-60018103D01*
X161596507Y-60010519D01*
X161669212Y-60008588D01*
X161977013Y-60000518D01*
X162354991Y-59991725D01*
X162659879Y-59987878D01*
X162653615Y-60200882D01*
X162647350Y-60345743D01*
X162649445Y-60379679D01*
X162658840Y-60407016D01*
X162683840Y-60433890D01*
X162716109Y-60450527D01*
X162747921Y-60458450D01*
X162760666Y-60459169D01*
X162815004Y-60440555D01*
X162824963Y-60433890D01*
X162849687Y-60398831D01*
X162856507Y-60350799D01*
X162859035Y-60105041D01*
X162865735Y-59836984D01*
X162866069Y-59819057D01*
X162874862Y-59559562D01*
X162888711Y-59393159D01*
X162887172Y-59393159D01*
G37*
G36*
X162759670Y-60674117D02*
G01*
X162784297Y-60684373D01*
X162814239Y-60706279D01*
X162837273Y-60743614D01*
X162856177Y-60867152D01*
X162870026Y-61015750D01*
X162877610Y-61146871D01*
X162880138Y-61222379D01*
X162875595Y-61308299D01*
X162847275Y-61444176D01*
X162814433Y-61525938D01*
X162751544Y-61621789D01*
X162693161Y-61678677D01*
X162646349Y-61711527D01*
X162594264Y-61739063D01*
X162511463Y-61767611D01*
X162447595Y-61779433D01*
X162379171Y-61784345D01*
X162268219Y-61776473D01*
X162132755Y-61742800D01*
X162034684Y-61698230D01*
X161931511Y-61624317D01*
X161862769Y-61550479D01*
X161826938Y-61498311D01*
X161796762Y-61441648D01*
X161761701Y-61338334D01*
X161751150Y-61274439D01*
X161747632Y-61207322D01*
X161750710Y-61136760D01*
X161939094Y-61136760D01*
X161939495Y-61164799D01*
X161954472Y-61291698D01*
X161986905Y-61379989D01*
X162036611Y-61451760D01*
X162103848Y-61508473D01*
X162154290Y-61533896D01*
X162202197Y-61549764D01*
X162252226Y-61558811D01*
X162394339Y-61567714D01*
X162464972Y-61560454D01*
X162537660Y-61531114D01*
X162570247Y-61507746D01*
X162628226Y-61442967D01*
X162638643Y-61425367D01*
X162659935Y-61379576D01*
X162674717Y-61330750D01*
X162688566Y-61222489D01*
X162682301Y-61092686D01*
X162668452Y-60925075D01*
X162370378Y-60916282D01*
X161974265Y-60912435D01*
X161950415Y-60999373D01*
X161941911Y-61059576D01*
X161939094Y-61136760D01*
X161750710Y-61136760D01*
X161755106Y-61035973D01*
X161772802Y-60917491D01*
X161486818Y-60935186D01*
X161263702Y-60952772D01*
X161221638Y-60945707D01*
X161200993Y-60932006D01*
X161184347Y-60911226D01*
X161171071Y-60884302D01*
X161162198Y-60852210D01*
X161160387Y-60819232D01*
X161162811Y-60800148D01*
X161172562Y-60769485D01*
X161189403Y-60741086D01*
X161214691Y-60719993D01*
X161242273Y-60711612D01*
X161276341Y-60710861D01*
X161432632Y-60713389D01*
X161674543Y-60710861D01*
X161969319Y-60704596D01*
X162281132Y-60698332D01*
X162527549Y-60697013D01*
X162686038Y-60700750D01*
X162692303Y-60694485D01*
X162698677Y-60688220D01*
X162735809Y-60672464D01*
X162759670Y-60674117D01*
G37*
G36*
X161817755Y-63245699D02*
G01*
X162352683Y-63254492D01*
X162751104Y-63245699D01*
X162791724Y-63240583D01*
X162825281Y-63228674D01*
X162848484Y-63212946D01*
X162867265Y-63191655D01*
X162878613Y-63167591D01*
X162882556Y-63139856D01*
X162879018Y-63108937D01*
X162868323Y-63079961D01*
X162859804Y-63065558D01*
X162828624Y-63044153D01*
X162754250Y-63032105D01*
X162725825Y-63031486D01*
X162567666Y-63032805D01*
X162498609Y-63033536D01*
X162326195Y-63035333D01*
X162054279Y-63034014D01*
X161805115Y-63023902D01*
X161721615Y-63015111D01*
X161646930Y-62999840D01*
X161586638Y-62980328D01*
X161533642Y-62955472D01*
X161458571Y-62899265D01*
X161423401Y-62858836D01*
X161395075Y-62815316D01*
X161374147Y-62770177D01*
X161359651Y-62722133D01*
X161349761Y-62630867D01*
X161353278Y-62577194D01*
X161363829Y-62528995D01*
X161390317Y-62470839D01*
X161419456Y-62431050D01*
X161453566Y-62396471D01*
X161493962Y-62366205D01*
X161542775Y-62339373D01*
X161595705Y-62318369D01*
X161635635Y-62307074D01*
X161789948Y-62283114D01*
X161978332Y-62278058D01*
X161982618Y-62277981D01*
X162271790Y-62273002D01*
X162566457Y-62270474D01*
X162758688Y-62270474D01*
X162801173Y-62266957D01*
X162833559Y-62256406D01*
X162853540Y-62241458D01*
X162869157Y-62219297D01*
X162877985Y-62194186D01*
X162880138Y-62172215D01*
X162876624Y-62145406D01*
X162866098Y-62119904D01*
X162845956Y-62092861D01*
X162798859Y-62062944D01*
X162746048Y-62053733D01*
X162549970Y-62049996D01*
X162314764Y-62049996D01*
X162049224Y-62055052D01*
X161767196Y-62061317D01*
X161678452Y-62067361D01*
X161597282Y-62080237D01*
X161529027Y-62098203D01*
X161467175Y-62122013D01*
X161464836Y-62123086D01*
X161399693Y-62157080D01*
X161342656Y-62195078D01*
X161270406Y-62261681D01*
X161230496Y-62312636D01*
X161197998Y-62365902D01*
X161167092Y-62438086D01*
X161148106Y-62506148D01*
X161137767Y-62570412D01*
X161135658Y-62613171D01*
X161149726Y-62740008D01*
X161169620Y-62816064D01*
X161191381Y-62874429D01*
X161219689Y-62930169D01*
X161281727Y-63017637D01*
X161370540Y-63100459D01*
X161492753Y-63173928D01*
X161617339Y-63218503D01*
X161771911Y-63243019D01*
X161817755Y-63245699D01*
G37*
G36*
X162887172Y-63550368D02*
G01*
X162888982Y-63516710D01*
X162882742Y-63488760D01*
X162859365Y-63458374D01*
X162831093Y-63441085D01*
X162802787Y-63432669D01*
X162783747Y-63431995D01*
X162759163Y-63435522D01*
X162738270Y-63446139D01*
X162723297Y-63460901D01*
X162698310Y-63515993D01*
X162690544Y-63552896D01*
X162679553Y-63696547D01*
X162669442Y-63908232D01*
X162334328Y-63911969D01*
X162104295Y-63919106D01*
X161927334Y-63924609D01*
X161549356Y-63934720D01*
X161296565Y-63933401D01*
X161261320Y-63934041D01*
X161232095Y-63942226D01*
X161205890Y-63961099D01*
X161188468Y-63985249D01*
X161178407Y-64011846D01*
X161175665Y-64036716D01*
X161177556Y-64068435D01*
X161186577Y-64098983D01*
X161202153Y-64127501D01*
X161221121Y-64149292D01*
X161244234Y-64164652D01*
X161284035Y-64175312D01*
X161596507Y-64167728D01*
X161669212Y-64165796D01*
X161977013Y-64157726D01*
X162354991Y-64148934D01*
X162659879Y-64145087D01*
X162653615Y-64358091D01*
X162647350Y-64502951D01*
X162649445Y-64536888D01*
X162658840Y-64564224D01*
X162683840Y-64591099D01*
X162716109Y-64607736D01*
X162747921Y-64615659D01*
X162760666Y-64616378D01*
X162815004Y-64597764D01*
X162824963Y-64591099D01*
X162849687Y-64556039D01*
X162856507Y-64508007D01*
X162859035Y-64262250D01*
X162865735Y-63994193D01*
X162866069Y-63976266D01*
X162874862Y-63716770D01*
X162888711Y-63550368D01*
X162887172Y-63550368D01*
G37*
G36*
X145085244Y-39462107D02*
G01*
X145090956Y-39506688D01*
X145104115Y-39541210D01*
X145123101Y-39564323D01*
X145149773Y-39581555D01*
X145178326Y-39590096D01*
X145200038Y-39590823D01*
X145227470Y-39586920D01*
X145251115Y-39575233D01*
X145268670Y-39558705D01*
X145290885Y-39507127D01*
X145295293Y-39456489D01*
X145289675Y-39225436D01*
X145279905Y-38916102D01*
X145275631Y-38610921D01*
X145286866Y-38389637D01*
X145288830Y-38352551D01*
X145281509Y-38324028D01*
X145256092Y-38298656D01*
X145217509Y-38283826D01*
X145178914Y-38277792D01*
X145172072Y-38277651D01*
X145139963Y-38283990D01*
X145110232Y-38297981D01*
X145104905Y-38301465D01*
X145080863Y-38336902D01*
X145074131Y-38389637D01*
X145072665Y-38550715D01*
X145071322Y-38809612D01*
X144719979Y-38799842D01*
X144294102Y-38795348D01*
X144279120Y-38795690D01*
X143897002Y-38798499D01*
X143629556Y-38792882D01*
X143642135Y-38566102D01*
X143657644Y-38409298D01*
X143659344Y-38373855D01*
X143652098Y-38344791D01*
X143621252Y-38311235D01*
X143581673Y-38292463D01*
X143544146Y-38283878D01*
X143531615Y-38283269D01*
X143474408Y-38303115D01*
X143462983Y-38311235D01*
X143435168Y-38352929D01*
X143425247Y-38403681D01*
X143401512Y-38799934D01*
X143399846Y-38892288D01*
X143405464Y-39439637D01*
X143411199Y-39483078D01*
X143424417Y-39517696D01*
X143443321Y-39541852D01*
X143469225Y-39560413D01*
X143496908Y-39570019D01*
X143520258Y-39571284D01*
X143548361Y-39567376D01*
X143574040Y-39555652D01*
X143594508Y-39539043D01*
X143619369Y-39492096D01*
X143623939Y-39436828D01*
X143621130Y-39268911D01*
X143623939Y-39056053D01*
X143822630Y-39064480D01*
X144125003Y-39061671D01*
X144413332Y-39058862D01*
X144679312Y-39060205D01*
X144904748Y-39067288D01*
X145074131Y-39075715D01*
X145079748Y-39280024D01*
X145085244Y-39462107D01*
G37*
G36*
X145232034Y-36793998D02*
G01*
X145153587Y-36777680D01*
X144919891Y-36761758D01*
X144368269Y-36749180D01*
X143829225Y-36749180D01*
X143557627Y-36754797D01*
X143494337Y-36767727D01*
X143449916Y-36784228D01*
X143424261Y-36815140D01*
X143414867Y-36878018D01*
X143418771Y-36907138D01*
X143430471Y-36933133D01*
X143456877Y-36961915D01*
X143482930Y-36977841D01*
X143512721Y-36986771D01*
X143563244Y-36987194D01*
X143815303Y-36970341D01*
X144183499Y-36963381D01*
X144575509Y-36963381D01*
X144898886Y-36967533D01*
X144588087Y-37148150D01*
X144186308Y-37369312D01*
X143794298Y-37570935D01*
X143630808Y-37646894D01*
X143512930Y-37692812D01*
X143477286Y-37708225D01*
X143451335Y-37728735D01*
X143434528Y-37755704D01*
X143417676Y-37835572D01*
X143416464Y-37874863D01*
X143423140Y-37913928D01*
X143442833Y-37962944D01*
X143459219Y-37985292D01*
X143481571Y-38002218D01*
X143544965Y-38019850D01*
X143585715Y-38020341D01*
X143942676Y-38013381D01*
X144407470Y-38018998D01*
X144845642Y-38028768D01*
X145117240Y-38034385D01*
X145180562Y-38030488D01*
X145231147Y-38018840D01*
X145241803Y-38014724D01*
X145264188Y-38001015D01*
X145279820Y-37981679D01*
X145290896Y-37939131D01*
X145288652Y-37910241D01*
X145278502Y-37883021D01*
X145255847Y-37852424D01*
X145206717Y-37823941D01*
X145131284Y-37815910D01*
X144922700Y-37813224D01*
X144583813Y-37803332D01*
X144183499Y-37799180D01*
X143787215Y-37810415D01*
X144078387Y-37687826D01*
X144194612Y-37631140D01*
X144624480Y-37404361D01*
X144995484Y-37194434D01*
X145226416Y-37068405D01*
X145269891Y-37034288D01*
X145276852Y-37024930D01*
X145295755Y-36970487D01*
X145296392Y-36939567D01*
X145282470Y-36852739D01*
X145269076Y-36825216D01*
X145249639Y-36804534D01*
X145232034Y-36793998D01*
G37*
G36*
X144079756Y-35265847D02*
G01*
X144230272Y-35303262D01*
X144339238Y-35352783D01*
X144453876Y-35434909D01*
X144530255Y-35516952D01*
X144570067Y-35574916D01*
X144603597Y-35637875D01*
X144642554Y-35752668D01*
X144654277Y-35823662D01*
X144658185Y-35898237D01*
X144649881Y-36088625D01*
X144630219Y-36220272D01*
X144947979Y-36200610D01*
X145195886Y-36181071D01*
X145242623Y-36188920D01*
X145265562Y-36204144D01*
X145284057Y-36227233D01*
X145298809Y-36257148D01*
X145308667Y-36292806D01*
X145310680Y-36329448D01*
X145307987Y-36350653D01*
X145297152Y-36384723D01*
X145278440Y-36416277D01*
X145250342Y-36439714D01*
X145219695Y-36449026D01*
X145181842Y-36449860D01*
X145008185Y-36447051D01*
X144739396Y-36449860D01*
X144411866Y-36456821D01*
X144065408Y-36463782D01*
X143791612Y-36465247D01*
X143615512Y-36461095D01*
X143608551Y-36468056D01*
X143601468Y-36475017D01*
X143560211Y-36492523D01*
X143533699Y-36490687D01*
X143506336Y-36479291D01*
X143473067Y-36454951D01*
X143447473Y-36413468D01*
X143426468Y-36276203D01*
X143411081Y-36111095D01*
X143402655Y-35965404D01*
X143399846Y-35881507D01*
X143399852Y-35881385D01*
X143612704Y-35881385D01*
X143619665Y-36025610D01*
X143635052Y-36211845D01*
X143966245Y-36221615D01*
X144406371Y-36225889D01*
X144432871Y-36129291D01*
X144442320Y-36062399D01*
X144445450Y-35976639D01*
X144445004Y-35945485D01*
X144428363Y-35804486D01*
X144392327Y-35706385D01*
X144337097Y-35626639D01*
X144262390Y-35563625D01*
X144206344Y-35535377D01*
X144153113Y-35517746D01*
X144097526Y-35507693D01*
X143939623Y-35497801D01*
X143861141Y-35505868D01*
X143780376Y-35538468D01*
X143744169Y-35564433D01*
X143679748Y-35636409D01*
X143668173Y-35655965D01*
X143644515Y-35706843D01*
X143628091Y-35761095D01*
X143612704Y-35881385D01*
X143399852Y-35881385D01*
X143404893Y-35786040D01*
X143436360Y-35635066D01*
X143472851Y-35544220D01*
X143542728Y-35437718D01*
X143607598Y-35374509D01*
X143659611Y-35338010D01*
X143717484Y-35307414D01*
X143809484Y-35275693D01*
X143880449Y-35262558D01*
X143956475Y-35257100D01*
X144079756Y-35265847D01*
G37*
G36*
X144580272Y-33633374D02*
G01*
X143985907Y-33623604D01*
X143543217Y-33633374D01*
X143498083Y-33639058D01*
X143460798Y-33652290D01*
X143435017Y-33669766D01*
X143414149Y-33693422D01*
X143401540Y-33720160D01*
X143397159Y-33750976D01*
X143401090Y-33785332D01*
X143412973Y-33817527D01*
X143422438Y-33833531D01*
X143457083Y-33857314D01*
X143539721Y-33870700D01*
X143571304Y-33871388D01*
X143747037Y-33869923D01*
X143823767Y-33869110D01*
X144015338Y-33867114D01*
X144317466Y-33868579D01*
X144594316Y-33879815D01*
X144687093Y-33889583D01*
X144770077Y-33906550D01*
X144837068Y-33928230D01*
X144895953Y-33955848D01*
X144979364Y-34018300D01*
X145018442Y-34063222D01*
X145049916Y-34111576D01*
X145073169Y-34161732D01*
X145089275Y-34215114D01*
X145100265Y-34316521D01*
X145096357Y-34376157D01*
X145084633Y-34429712D01*
X145055202Y-34494330D01*
X145022826Y-34538539D01*
X144984925Y-34576960D01*
X144940041Y-34610589D01*
X144885804Y-34640402D01*
X144826993Y-34663741D01*
X144782627Y-34676290D01*
X144611168Y-34702913D01*
X144401852Y-34708531D01*
X144397090Y-34708616D01*
X144075788Y-34714148D01*
X143748381Y-34716957D01*
X143534790Y-34716957D01*
X143487584Y-34720865D01*
X143451600Y-34732588D01*
X143429399Y-34749197D01*
X143412047Y-34773820D01*
X143402238Y-34801722D01*
X143399846Y-34826133D01*
X143403750Y-34855921D01*
X143415445Y-34884257D01*
X143437826Y-34914305D01*
X143490155Y-34947546D01*
X143548834Y-34957780D01*
X143766699Y-34961933D01*
X144028039Y-34961933D01*
X144323084Y-34956315D01*
X144636448Y-34949354D01*
X144735052Y-34942638D01*
X144825241Y-34928332D01*
X144901080Y-34908369D01*
X144969805Y-34881914D01*
X144972404Y-34880722D01*
X145044784Y-34842950D01*
X145108159Y-34800730D01*
X145188436Y-34726727D01*
X145232781Y-34670110D01*
X145268891Y-34610926D01*
X145303230Y-34530722D01*
X145324326Y-34455097D01*
X145335813Y-34383692D01*
X145338157Y-34336182D01*
X145322526Y-34195252D01*
X145300422Y-34110746D01*
X145276242Y-34045896D01*
X145244789Y-33983962D01*
X145175858Y-33886775D01*
X145077176Y-33794751D01*
X144941385Y-33713119D01*
X144802955Y-33663592D01*
X144631208Y-33636352D01*
X144580272Y-33633374D01*
G37*
G36*
X143392030Y-33294853D02*
G01*
X143390019Y-33332250D01*
X143396953Y-33363306D01*
X143422927Y-33397069D01*
X143454340Y-33416278D01*
X143485792Y-33425630D01*
X143506946Y-33426378D01*
X143534262Y-33422459D01*
X143557477Y-33410662D01*
X143574113Y-33394260D01*
X143601877Y-33333047D01*
X143610505Y-33292044D01*
X143622718Y-33132431D01*
X143633953Y-32897226D01*
X144006301Y-32893073D01*
X144261893Y-32885143D01*
X144458517Y-32879030D01*
X144878492Y-32867794D01*
X145159371Y-32869260D01*
X145198533Y-32868550D01*
X145231005Y-32859455D01*
X145260122Y-32838485D01*
X145279479Y-32811651D01*
X145290657Y-32782100D01*
X145293705Y-32754466D01*
X145291604Y-32719222D01*
X145281580Y-32685280D01*
X145264274Y-32653593D01*
X145243198Y-32629382D01*
X145217517Y-32612315D01*
X145173293Y-32600471D01*
X144826102Y-32608897D01*
X144745319Y-32611043D01*
X144403318Y-32620010D01*
X143983342Y-32629780D01*
X143644577Y-32634054D01*
X143651538Y-32397383D01*
X143658499Y-32236427D01*
X143656171Y-32198719D01*
X143645733Y-32168346D01*
X143617955Y-32138485D01*
X143582101Y-32119999D01*
X143546753Y-32111196D01*
X143532592Y-32110397D01*
X143472217Y-32131080D01*
X143461151Y-32138485D01*
X143433680Y-32177440D01*
X143426102Y-32230809D01*
X143423293Y-32503872D01*
X143415849Y-32801714D01*
X143415478Y-32821632D01*
X143405708Y-33109961D01*
X143390321Y-33294853D01*
X143392030Y-33294853D01*
G37*
%TO.C,R6*%
D12*
X147553641Y-54880000D02*
X147246359Y-54880000D01*
X147553641Y-54120000D02*
X147246359Y-54120000D01*
%TO.C,R5*%
X149746359Y-50720000D02*
X150053641Y-50720000D01*
X149746359Y-51480000D02*
X150053641Y-51480000D01*
%TO.C,R4*%
X158746359Y-41020000D02*
X159053641Y-41020000D01*
X158746359Y-41780000D02*
X159053641Y-41780000D01*
%TO.C,R3*%
X156680000Y-50956359D02*
X156680000Y-51263641D01*
X155920000Y-50956359D02*
X155920000Y-51263641D01*
%TO.C,R2*%
X158746359Y-43520000D02*
X159053641Y-43520000D01*
X158746359Y-44280000D02*
X159053641Y-44280000D01*
%TO.C,R1*%
X150346359Y-45520000D02*
X150653641Y-45520000D01*
X150346359Y-46280000D02*
X150653641Y-46280000D01*
%TO.C,C17*%
X150007836Y-49460000D02*
X149792164Y-49460000D01*
X150007836Y-48740000D02*
X149792164Y-48740000D01*
%TO.C,C16*%
X150007836Y-50460000D02*
X149792164Y-50460000D01*
X150007836Y-49740000D02*
X149792164Y-49740000D01*
%TO.C,C15*%
X159007836Y-42760000D02*
X158792164Y-42760000D01*
X159007836Y-42040000D02*
X158792164Y-42040000D01*
%TO.C,C14*%
X159000336Y-54860000D02*
X158784664Y-54860000D01*
X159000336Y-54140000D02*
X158784664Y-54140000D01*
%TO.C,C13*%
X159007836Y-49780000D02*
X158792164Y-49780000D01*
X159007836Y-49060000D02*
X158792164Y-49060000D01*
%TO.C,C12*%
X159007836Y-52320000D02*
X158792164Y-52320000D01*
X159007836Y-51600000D02*
X158792164Y-51600000D01*
%TO.C,C11*%
X154940000Y-50807836D02*
X154940000Y-50592164D01*
X155660000Y-50807836D02*
X155660000Y-50592164D01*
%TO.C,C10*%
X147507836Y-50360000D02*
X147292164Y-50360000D01*
X147507836Y-49640000D02*
X147292164Y-49640000D01*
%TO.C,C9*%
X147507836Y-47860000D02*
X147292164Y-47860000D01*
X147507836Y-47140000D02*
X147292164Y-47140000D01*
%TO.C,C8*%
X147507836Y-46830000D02*
X147292164Y-46830000D01*
X147507836Y-46110000D02*
X147292164Y-46110000D01*
%TO.C,C7*%
X147507836Y-49380000D02*
X147292164Y-49380000D01*
X147507836Y-48660000D02*
X147292164Y-48660000D01*
%TO.C,C6*%
X157760000Y-48392164D02*
X157760000Y-48607836D01*
X157040000Y-48392164D02*
X157040000Y-48607836D01*
%TO.C,C5*%
X157100336Y-47360000D02*
X156884664Y-47360000D01*
X157100336Y-46640000D02*
X156884664Y-46640000D01*
%TO.C,C4*%
X155692164Y-45640000D02*
X155907836Y-45640000D01*
X155692164Y-46360000D02*
X155907836Y-46360000D01*
%TO.C,C3*%
X147507836Y-44700000D02*
X147292164Y-44700000D01*
X147507836Y-43980000D02*
X147292164Y-43980000D01*
%TO.C,C2*%
X147507836Y-42160000D02*
X147292164Y-42160000D01*
X147507836Y-41440000D02*
X147292164Y-41440000D01*
%TO.C,C1*%
X159007836Y-45260000D02*
X158792164Y-45260000D01*
X159007836Y-44540000D02*
X158792164Y-44540000D01*
%TO.C,J1*%
X163400000Y-39400000D02*
X160900000Y-39400000D01*
X163400000Y-34200000D02*
X163400000Y-39400000D01*
X160900000Y-39900000D02*
X157700000Y-39900000D01*
X160900000Y-39400000D02*
X160900000Y-39900000D01*
X160900000Y-34200000D02*
X163400000Y-34200000D01*
X160900000Y-33700000D02*
X160900000Y-34200000D01*
X159700000Y-33700000D02*
X160900000Y-33700000D01*
X159700000Y-33700000D02*
X159700000Y-31700000D01*
X157100000Y-33700000D02*
X157100000Y-31700000D01*
X155100000Y-39900000D02*
X146200000Y-39900000D01*
X150600000Y-33700000D02*
X157100000Y-33700000D01*
X146200000Y-39900000D02*
X146200000Y-33700000D01*
X146200000Y-33700000D02*
X147400000Y-33700000D01*
%TO.C,J2*%
X160200000Y-62700000D02*
X159000000Y-62700000D01*
X160200000Y-56500000D02*
X160200000Y-62700000D01*
X155800000Y-62700000D02*
X149300000Y-62700000D01*
X151300000Y-56500000D02*
X160200000Y-56500000D01*
X149300000Y-62700000D02*
X149300000Y-64700000D01*
X146700000Y-62700000D02*
X146700000Y-64700000D01*
X146700000Y-62700000D02*
X145500000Y-62700000D01*
X145500000Y-62700000D02*
X145500000Y-62200000D01*
X145500000Y-62200000D02*
X143000000Y-62200000D01*
X145500000Y-57000000D02*
X145500000Y-56500000D01*
X145500000Y-56500000D02*
X148700000Y-56500000D01*
X143000000Y-62200000D02*
X143000000Y-57000000D01*
X143000000Y-57000000D02*
X145500000Y-57000000D01*
%TO.C,J3*%
X160710000Y-40420000D02*
X162090000Y-40420000D01*
X160710000Y-41800000D02*
X160710000Y-40420000D01*
X160710000Y-43070000D02*
X160710000Y-55880000D01*
X160710000Y-43070000D02*
X163470000Y-43070000D01*
X160710000Y-55880000D02*
X163470000Y-55880000D01*
X163470000Y-43070000D02*
X163470000Y-55880000D01*
%TO.C,J4*%
X142930000Y-40420000D02*
X144310000Y-40420000D01*
X142930000Y-41800000D02*
X142930000Y-40420000D01*
X142930000Y-43070000D02*
X142930000Y-55880000D01*
X142930000Y-43070000D02*
X145690000Y-43070000D01*
X142930000Y-55880000D02*
X145690000Y-55880000D01*
X145690000Y-43070000D02*
X145690000Y-55880000D01*
%TD*%
%LPC*%
D13*
%TO.C,R6*%
X147910000Y-54500000D03*
X146890000Y-54500000D03*
%TD*%
D14*
%TO.C,R5*%
X149390000Y-51100000D03*
X150410000Y-51100000D03*
%TD*%
%TO.C,R4*%
X158390000Y-41400000D03*
X159410000Y-41400000D03*
%TD*%
D15*
%TO.C,R3*%
X156300000Y-50600000D03*
X156300000Y-51620000D03*
%TD*%
D14*
%TO.C,R2*%
X158390000Y-43900000D03*
X159410000Y-43900000D03*
%TD*%
%TO.C,R1*%
X149990000Y-45900000D03*
X151010000Y-45900000D03*
%TD*%
D16*
%TO.C,C17*%
X150380000Y-49100000D03*
X149420000Y-49100000D03*
%TD*%
%TO.C,C16*%
X150380000Y-50100000D03*
X149420000Y-50100000D03*
%TD*%
%TO.C,C15*%
X159380000Y-42400000D03*
X158420000Y-42400000D03*
%TD*%
%TO.C,C14*%
X159372500Y-54500000D03*
X158412500Y-54500000D03*
%TD*%
%TO.C,C13*%
X159380000Y-49420000D03*
X158420000Y-49420000D03*
%TD*%
%TO.C,C12*%
X159380000Y-51960000D03*
X158420000Y-51960000D03*
%TD*%
D17*
%TO.C,C11*%
X155300000Y-51180000D03*
X155300000Y-50220000D03*
%TD*%
D16*
%TO.C,C10*%
X147880000Y-50000000D03*
X146920000Y-50000000D03*
%TD*%
%TO.C,C9*%
X147880000Y-47500000D03*
X146920000Y-47500000D03*
%TD*%
%TO.C,C8*%
X147880000Y-46470000D03*
X146920000Y-46470000D03*
%TD*%
%TO.C,C7*%
X147880000Y-49020000D03*
X146920000Y-49020000D03*
%TD*%
D18*
%TO.C,C6*%
X157400000Y-48020000D03*
X157400000Y-48980000D03*
%TD*%
D16*
%TO.C,C5*%
X157472500Y-47000000D03*
X156512500Y-47000000D03*
%TD*%
D19*
%TO.C,C4*%
X155320000Y-46000000D03*
X156280000Y-46000000D03*
%TD*%
D16*
%TO.C,C3*%
X147880000Y-44340000D03*
X146920000Y-44340000D03*
%TD*%
%TO.C,C2*%
X147880000Y-41800000D03*
X146920000Y-41800000D03*
%TD*%
%TO.C,C1*%
X159380000Y-44900000D03*
X158420000Y-44900000D03*
%TD*%
D20*
%TO.C,J1*%
X149000000Y-33100000D03*
D21*
X158400000Y-33100000D03*
X156400000Y-40500000D03*
D22*
X150300000Y-36800000D03*
X157300000Y-36800000D03*
%TD*%
D20*
%TO.C,J2*%
X157400000Y-63300000D03*
D21*
X148000000Y-63300000D03*
X150000000Y-55900000D03*
D22*
X156100000Y-59600000D03*
X149100000Y-59600000D03*
%TD*%
D23*
%TO.C,IC1*%
X151700000Y-47350000D03*
X151700000Y-47750000D03*
X151700000Y-48150000D03*
X151700000Y-48550000D03*
X151700000Y-48950000D03*
D24*
X152400000Y-49650000D03*
X152800000Y-49650000D03*
X153200000Y-49650000D03*
X153600000Y-49650000D03*
X154000000Y-49650000D03*
D23*
X154700000Y-48950000D03*
X154700000Y-48550000D03*
X154700000Y-48150000D03*
X154700000Y-47750000D03*
X154700000Y-47350000D03*
D24*
X154000000Y-46650000D03*
X153600000Y-46650000D03*
X153200000Y-46650000D03*
X152800000Y-46650000D03*
X152400000Y-46650000D03*
D25*
X153200000Y-48150000D03*
%TD*%
D26*
%TO.C,J3*%
X162090000Y-41800000D03*
D22*
X162090000Y-44340000D03*
X162090000Y-46880000D03*
X162090000Y-49420000D03*
X162090000Y-51960000D03*
X162090000Y-54500000D03*
%TD*%
D26*
%TO.C,J4*%
X144310000Y-41800000D03*
D22*
X144310000Y-44340000D03*
X144310000Y-46880000D03*
X144310000Y-49420000D03*
X144310000Y-51960000D03*
X144310000Y-54500000D03*
%TD*%
%LPD*%
M02*
