%TF.GenerationSoftware,KiCad,Pcbnew,10.0.4*%
%TF.CreationDate,2026-07-10T17:57:48+01:00*%
%TF.ProjectId,audio-breakout,61756469-6f2d-4627-9265-616b6f75742e,rev?*%
%TF.SameCoordinates,Original*%
%TF.FileFunction,Soldermask,Top*%
%TF.FilePolarity,Negative*%
%FSLAX46Y46*%
G04 Gerber Fmt 4.6, Leading zero omitted, Abs format (unit mm)*
G04 Created by KiCad (PCBNEW 10.0.4) date 2026-07-10 17:57:48*
%MOMM*%
%LPD*%
G01*
G04 APERTURE LIST*
G04 Aperture macros list*
%AMRoundRect*
0 Rectangle with rounded corners*
0 $1 Rounding radius*
0 $2 $3 $4 $5 $6 $7 $8 $9 X,Y pos of 4 corners*
0 Add a 4 corners polygon primitive as box body*
4,1,4,$2,$3,$4,$5,$6,$7,$8,$9,$2,$3,0*
0 Add four circle primitives for the rounded corners*
1,1,$1+$1,$2,$3*
1,1,$1+$1,$4,$5*
1,1,$1+$1,$6,$7*
1,1,$1+$1,$8,$9*
0 Add four rect primitives between the rounded corners*
20,1,$1+$1,$2,$3,$4,$5,0*
20,1,$1+$1,$4,$5,$6,$7,0*
20,1,$1+$1,$6,$7,$8,$9,0*
20,1,$1+$1,$8,$9,$2,$3,0*%
G04 Aperture macros list end*
%ADD10RoundRect,0.135000X0.135000X0.185000X-0.135000X0.185000X-0.135000X-0.185000X0.135000X-0.185000X0*%
%ADD11RoundRect,0.135000X-0.135000X-0.185000X0.135000X-0.185000X0.135000X0.185000X-0.135000X0.185000X0*%
%ADD12RoundRect,0.135000X-0.185000X0.135000X-0.185000X-0.135000X0.185000X-0.135000X0.185000X0.135000X0*%
%ADD13RoundRect,0.140000X0.140000X0.170000X-0.140000X0.170000X-0.140000X-0.170000X0.140000X-0.170000X0*%
%ADD14RoundRect,0.140000X0.170000X-0.140000X0.170000X0.140000X-0.170000X0.140000X-0.170000X-0.140000X0*%
%ADD15RoundRect,0.140000X-0.170000X0.140000X-0.170000X-0.140000X0.170000X-0.140000X0.170000X0.140000X0*%
%ADD16RoundRect,0.140000X-0.140000X-0.170000X0.140000X-0.170000X0.140000X0.170000X-0.140000X0.170000X0*%
%ADD17R,2.800000X2.800000*%
%ADD18R,2.200000X2.800000*%
%ADD19RoundRect,0.102000X-0.375000X-0.100000X0.375000X-0.100000X0.375000X0.100000X-0.375000X0.100000X0*%
%ADD20RoundRect,0.102000X-0.100000X-0.375000X0.100000X-0.375000X0.100000X0.375000X-0.100000X0.375000X0*%
%ADD21RoundRect,0.102000X-0.900000X-0.900000X0.900000X-0.900000X0.900000X0.900000X-0.900000X0.900000X0*%
%ADD22R,1.700000X1.700000*%
%ADD23C,1.700000*%
G04 APERTURE END LIST*
D10*
%TO.C,R6*%
X147910000Y-54500000D03*
X146890000Y-54500000D03*
%TD*%
D11*
%TO.C,R5*%
X149390000Y-51100000D03*
X150410000Y-51100000D03*
%TD*%
%TO.C,R4*%
X158390000Y-41400000D03*
X159410000Y-41400000D03*
%TD*%
D12*
%TO.C,R3*%
X156300000Y-50600000D03*
X156300000Y-51620000D03*
%TD*%
D11*
%TO.C,R2*%
X158390000Y-43900000D03*
X159410000Y-43900000D03*
%TD*%
%TO.C,R1*%
X149990000Y-45900000D03*
X151010000Y-45900000D03*
%TD*%
D13*
%TO.C,C17*%
X150380000Y-49100000D03*
X149420000Y-49100000D03*
%TD*%
%TO.C,C16*%
X150380000Y-50100000D03*
X149420000Y-50100000D03*
%TD*%
%TO.C,C15*%
X159380000Y-42400000D03*
X158420000Y-42400000D03*
%TD*%
%TO.C,C14*%
X159372500Y-54500000D03*
X158412500Y-54500000D03*
%TD*%
%TO.C,C13*%
X159380000Y-49420000D03*
X158420000Y-49420000D03*
%TD*%
%TO.C,C12*%
X159380000Y-51960000D03*
X158420000Y-51960000D03*
%TD*%
D14*
%TO.C,C11*%
X155300000Y-51180000D03*
X155300000Y-50220000D03*
%TD*%
D13*
%TO.C,C10*%
X147880000Y-50000000D03*
X146920000Y-50000000D03*
%TD*%
%TO.C,C9*%
X147880000Y-47500000D03*
X146920000Y-47500000D03*
%TD*%
%TO.C,C8*%
X147880000Y-46470000D03*
X146920000Y-46470000D03*
%TD*%
%TO.C,C7*%
X147880000Y-49020000D03*
X146920000Y-49020000D03*
%TD*%
D15*
%TO.C,C6*%
X157400000Y-48020000D03*
X157400000Y-48980000D03*
%TD*%
D13*
%TO.C,C5*%
X157472500Y-47000000D03*
X156512500Y-47000000D03*
%TD*%
D16*
%TO.C,C4*%
X155320000Y-46000000D03*
X156280000Y-46000000D03*
%TD*%
D13*
%TO.C,C3*%
X147880000Y-44340000D03*
X146920000Y-44340000D03*
%TD*%
%TO.C,C2*%
X147880000Y-41800000D03*
X146920000Y-41800000D03*
%TD*%
%TO.C,C1*%
X159380000Y-44900000D03*
X158420000Y-44900000D03*
%TD*%
D17*
%TO.C,J1*%
X149000000Y-33100000D03*
D18*
X158400000Y-33100000D03*
X156400000Y-40500000D03*
%TD*%
D17*
%TO.C,J2*%
X157400000Y-63300000D03*
D18*
X148000000Y-63300000D03*
X150000000Y-55900000D03*
%TD*%
D19*
%TO.C,IC1*%
X151700000Y-47350000D03*
X151700000Y-47750000D03*
X151700000Y-48150000D03*
X151700000Y-48550000D03*
X151700000Y-48950000D03*
D20*
X152400000Y-49650000D03*
X152800000Y-49650000D03*
X153200000Y-49650000D03*
X153600000Y-49650000D03*
X154000000Y-49650000D03*
D19*
X154700000Y-48950000D03*
X154700000Y-48550000D03*
X154700000Y-48150000D03*
X154700000Y-47750000D03*
X154700000Y-47350000D03*
D20*
X154000000Y-46650000D03*
X153600000Y-46650000D03*
X153200000Y-46650000D03*
X152800000Y-46650000D03*
X152400000Y-46650000D03*
D21*
X153200000Y-48150000D03*
%TD*%
D22*
%TO.C,J3*%
X162090000Y-41800000D03*
D23*
X162090000Y-44340000D03*
X162090000Y-46880000D03*
X162090000Y-49420000D03*
X162090000Y-51960000D03*
X162090000Y-54500000D03*
%TD*%
D22*
%TO.C,J4*%
X144310000Y-41800000D03*
D23*
X144310000Y-44340000D03*
X144310000Y-46880000D03*
X144310000Y-49420000D03*
X144310000Y-51960000D03*
X144310000Y-54500000D03*
%TD*%
M02*
