M48
; DRILL file KiCad 10.0.4 date 2026-07-10T17:57:48
; FORMAT={-:-/ absolute / inch / decimal}
; #@! TF.CreationDate,2026-07-10T17:57:48+01:00
; #@! TF.GenerationSoftware,Kicad,Pcbnew,10.0.4
; #@! TF.FileFunction,Plated,1,2,PTH
FMAT,2
INCH
; #@! TA.AperFunction,Plated,PTH,ViaDrill
T1C0.0118
; #@! TA.AperFunction,Plated,PTH,ComponentDrill
T2C0.0394
%
G90
G05
T1
X5.6811Y-2.4134
X5.7165Y-2.2953
X5.752Y-1.7992
X5.752Y-1.9055
X5.752Y-1.9685
X5.752Y-2.0197
X5.752Y-2.0709
X5.7795Y-2.3228
X5.8031Y-1.4252
X5.811Y-2.0039
X5.811Y-2.0433
X5.8543Y-1.9528
X5.8622Y-1.6457
X5.8661Y-1.874
X5.878Y-1.748
X5.8937Y-1.8425
X5.9134Y-1.7165
X5.915Y-1.8937
X5.9764Y-1.3937
X5.9882Y-2.0472
X6.0079Y-1.874
X6.0079Y-1.9173
X6.0315Y-1.8957
X6.0551Y-1.5394
X6.0551Y-1.874
X6.0551Y-1.9173
X6.0738Y-2.0187
X6.1024Y-1.4921
X6.126Y-1.6693
X6.1299Y-1.7362
X6.1299Y-1.7677
X6.1457Y-1.9134
X6.1535Y-1.9547
X6.1811Y-1.7362
X6.2008Y-1.7992
X6.2008Y-1.9803
X6.2126Y-2.0984
X6.2719Y-2.0036
X6.3071Y-1.4488
X6.311Y-1.7008
X6.311Y-1.7913
T2
X5.6815Y-1.6457
X5.6815Y-1.7457
X5.6815Y-1.8457
X5.6815Y-1.9457
X5.6815Y-2.0457
X5.6815Y-2.1457
X6.3815Y-1.6457
X6.3815Y-1.7457
X6.3815Y-1.8457
X6.3815Y-1.9457
X6.3815Y-2.0457
X6.3815Y-2.1457
M30
