%TF.GenerationSoftware,KiCad,Pcbnew,10.0.4*%
%TF.CreationDate,2026-07-10T17:57:48+01:00*%
%TF.ProjectId,audio-breakout,61756469-6f2d-4627-9265-616b6f75742e,rev?*%
%TF.SameCoordinates,Original*%
%TF.FileFunction,Copper,L1,Top*%
%TF.FilePolarity,Positive*%
%FSLAX46Y46*%
G04 Gerber Fmt 4.6, Leading zero omitted, Abs format (unit mm)*
G04 Created by KiCad (PCBNEW 10.0.4) date 2026-07-10 17:57:48*
%MOMM*%
%LPD*%
G01*
G04 APERTURE LIST*
G04 Aperture macros list*
%AMRoundRect*
0 Rectangle with rounded corners*
0 $1 Rounding radius*
0 $2 $3 $4 $5 $6 $7 $8 $9 X,Y pos of 4 corners*
0 Add a 4 corners polygon primitive as box body*
4,1,4,$2,$3,$4,$5,$6,$7,$8,$9,$2,$3,0*
0 Add four circle primitives for the rounded corners*
1,1,$1+$1,$2,$3*
1,1,$1+$1,$4,$5*
1,1,$1+$1,$6,$7*
1,1,$1+$1,$8,$9*
0 Add four rect primitives between the rounded corners*
20,1,$1+$1,$2,$3,$4,$5,0*
20,1,$1+$1,$4,$5,$6,$7,0*
20,1,$1+$1,$6,$7,$8,$9,0*
20,1,$1+$1,$8,$9,$2,$3,0*%
G04 Aperture macros list end*
%TA.AperFunction,SMDPad,CuDef*%
%ADD10RoundRect,0.135000X0.135000X0.185000X-0.135000X0.185000X-0.135000X-0.185000X0.135000X-0.185000X0*%
%TD*%
%TA.AperFunction,SMDPad,CuDef*%
%ADD11RoundRect,0.135000X-0.135000X-0.185000X0.135000X-0.185000X0.135000X0.185000X-0.135000X0.185000X0*%
%TD*%
%TA.AperFunction,SMDPad,CuDef*%
%ADD12RoundRect,0.135000X-0.185000X0.135000X-0.185000X-0.135000X0.185000X-0.135000X0.185000X0.135000X0*%
%TD*%
%TA.AperFunction,SMDPad,CuDef*%
%ADD13RoundRect,0.140000X0.140000X0.170000X-0.140000X0.170000X-0.140000X-0.170000X0.140000X-0.170000X0*%
%TD*%
%TA.AperFunction,SMDPad,CuDef*%
%ADD14RoundRect,0.140000X0.170000X-0.140000X0.170000X0.140000X-0.170000X0.140000X-0.170000X-0.140000X0*%
%TD*%
%TA.AperFunction,SMDPad,CuDef*%
%ADD15RoundRect,0.140000X-0.170000X0.140000X-0.170000X-0.140000X0.170000X-0.140000X0.170000X0.140000X0*%
%TD*%
%TA.AperFunction,SMDPad,CuDef*%
%ADD16RoundRect,0.140000X-0.140000X-0.170000X0.140000X-0.170000X0.140000X0.170000X-0.140000X0.170000X0*%
%TD*%
%TA.AperFunction,SMDPad,CuDef*%
%ADD17R,2.800000X2.800000*%
%TD*%
%TA.AperFunction,SMDPad,CuDef*%
%ADD18R,2.200000X2.800000*%
%TD*%
%TA.AperFunction,SMDPad,CuDef*%
%ADD19R,0.750000X0.200000*%
%TD*%
%TA.AperFunction,SMDPad,CuDef*%
%ADD20R,0.200000X0.750000*%
%TD*%
%TA.AperFunction,SMDPad,CuDef*%
%ADD21R,1.800000X1.800000*%
%TD*%
%TA.AperFunction,ComponentPad*%
%ADD22R,1.700000X1.700000*%
%TD*%
%TA.AperFunction,ComponentPad*%
%ADD23C,1.700000*%
%TD*%
%TA.AperFunction,ViaPad*%
%ADD24C,0.600000*%
%TD*%
%TA.AperFunction,Conductor*%
%ADD25C,0.200000*%
%TD*%
G04 APERTURE END LIST*
D10*
%TO.P,R6,1*%
%TO.N,GNDA*%
X147910000Y-54500000D03*
%TO.P,R6,2*%
%TO.N,GND*%
X146890000Y-54500000D03*
%TD*%
D11*
%TO.P,R5,1*%
%TO.N,+3V3*%
X149390000Y-51100000D03*
%TO.P,R5,2*%
%TO.N,Net-(IC1-DVDD)*%
X150410000Y-51100000D03*
%TD*%
%TO.P,R4,1*%
%TO.N,+3V3*%
X158390000Y-41400000D03*
%TO.P,R4,2*%
%TO.N,/SCL*%
X159410000Y-41400000D03*
%TD*%
D12*
%TO.P,R3,1*%
%TO.N,Net-(IC1-AVDD)*%
X156300000Y-50600000D03*
%TO.P,R3,2*%
%TO.N,+3V3*%
X156300000Y-51620000D03*
%TD*%
D11*
%TO.P,R2,1*%
%TO.N,+3V3*%
X158390000Y-43900000D03*
%TO.P,R2,2*%
%TO.N,/SDA*%
X159410000Y-43900000D03*
%TD*%
%TO.P,R1,1*%
%TO.N,GNDA*%
X149990000Y-45900000D03*
%TO.P,R1,2*%
%TO.N,Net-(IC1-CE)*%
X151010000Y-45900000D03*
%TD*%
D13*
%TO.P,C17,1*%
%TO.N,Net-(IC1-DVDD)*%
X150380000Y-49100000D03*
%TO.P,C17,2*%
%TO.N,GNDA*%
X149420000Y-49100000D03*
%TD*%
%TO.P,C16,1*%
%TO.N,Net-(IC1-DVDD)*%
X150380000Y-50100000D03*
%TO.P,C16,2*%
%TO.N,GNDA*%
X149420000Y-50100000D03*
%TD*%
%TO.P,C15,1*%
%TO.N,/SCL*%
X159380000Y-42400000D03*
%TO.P,C15,2*%
%TO.N,GNDA*%
X158420000Y-42400000D03*
%TD*%
%TO.P,C14,1*%
%TO.N,/I2C_LRCK*%
X159372500Y-54500000D03*
%TO.P,C14,2*%
%TO.N,GNDA*%
X158412500Y-54500000D03*
%TD*%
%TO.P,C13,1*%
%TO.N,/I2C_SCLK*%
X159380000Y-49420000D03*
%TO.P,C13,2*%
%TO.N,GNDA*%
X158420000Y-49420000D03*
%TD*%
%TO.P,C12,1*%
%TO.N,/I2C_MCLK*%
X159380000Y-51960000D03*
%TO.P,C12,2*%
%TO.N,GNDA*%
X158420000Y-51960000D03*
%TD*%
D14*
%TO.P,C11,1*%
%TO.N,GNDA*%
X155300000Y-51180000D03*
%TO.P,C11,2*%
%TO.N,Net-(IC1-AVDD)*%
X155300000Y-50220000D03*
%TD*%
D13*
%TO.P,C10,1*%
%TO.N,Net-(IC1-OUTN)*%
X147880000Y-50000000D03*
%TO.P,C10,2*%
%TO.N,GNDA*%
X146920000Y-50000000D03*
%TD*%
%TO.P,C9,1*%
%TO.N,Net-(IC1-OUTP)*%
X147880000Y-47500000D03*
%TO.P,C9,2*%
%TO.N,GNDA*%
X146920000Y-47500000D03*
%TD*%
%TO.P,C8,1*%
%TO.N,Net-(IC1-OUTP)*%
X147880000Y-46470000D03*
%TO.P,C8,2*%
%TO.N,/OUT_P*%
X146920000Y-46470000D03*
%TD*%
%TO.P,C7,1*%
%TO.N,Net-(IC1-OUTN)*%
X147880000Y-49020000D03*
%TO.P,C7,2*%
%TO.N,/OUT_N*%
X146920000Y-49020000D03*
%TD*%
D15*
%TO.P,C6,1*%
%TO.N,GNDA*%
X157400000Y-48020000D03*
%TO.P,C6,2*%
%TO.N,Net-(IC1-DACVREF)*%
X157400000Y-48980000D03*
%TD*%
D13*
%TO.P,C5,1*%
%TO.N,GNDA*%
X157472500Y-47000000D03*
%TO.P,C5,2*%
%TO.N,Net-(IC1-ADCVREF)*%
X156512500Y-47000000D03*
%TD*%
D16*
%TO.P,C4,1*%
%TO.N,Net-(IC1-VMID)*%
X155320000Y-46000000D03*
%TO.P,C4,2*%
%TO.N,GNDA*%
X156280000Y-46000000D03*
%TD*%
D13*
%TO.P,C3,1*%
%TO.N,Net-(IC1-MIC1N)*%
X147880000Y-44340000D03*
%TO.P,C3,2*%
%TO.N,/MIC_N*%
X146920000Y-44340000D03*
%TD*%
%TO.P,C2,1*%
%TO.N,Net-(IC1-MIC1P{slash}DMIC_SDA)*%
X147880000Y-41800000D03*
%TO.P,C2,2*%
%TO.N,/MIC_P*%
X146920000Y-41800000D03*
%TD*%
%TO.P,C1,1*%
%TO.N,/SDA*%
X159380000Y-44900000D03*
%TO.P,C1,2*%
%TO.N,GNDA*%
X158420000Y-44900000D03*
%TD*%
D17*
%TO.P,J1,T*%
%TO.N,/MIC_P*%
X149000000Y-33100000D03*
D18*
%TO.P,J1,S*%
%TO.N,/MIC_N*%
X158400000Y-33100000D03*
%TO.P,J1,R*%
%TO.N,/MIC_P*%
X156400000Y-40500000D03*
%TD*%
D17*
%TO.P,J2,T*%
%TO.N,/OUT_P*%
X157400000Y-63300000D03*
D18*
%TO.P,J2,S*%
%TO.N,/OUT_N*%
X148000000Y-63300000D03*
%TO.P,J2,R*%
%TO.N,/OUT_P*%
X150000000Y-55900000D03*
%TD*%
D19*
%TO.P,IC1,1,CCLK_1*%
%TO.N,/SCL*%
X151700000Y-47350000D03*
%TO.P,IC1,2,MCLK_2*%
%TO.N,/I2C_MCLK*%
X151700000Y-47750000D03*
%TO.P,IC1,3,PVDD_3*%
%TO.N,Net-(IC1-DVDD)*%
X151700000Y-48150000D03*
%TO.P,IC1,4,DVDD_4*%
X151700000Y-48550000D03*
%TO.P,IC1,5,DGND_5*%
%TO.N,GNDA*%
X151700000Y-48950000D03*
D20*
%TO.P,IC1,6,SCLK/DMIC_SCL_6*%
%TO.N,/I2C_SCLK*%
X152400000Y-49650000D03*
%TO.P,IC1,7,ASDOUT_7*%
%TO.N,unconnected-(IC1-ASDOUT-Pad7)*%
X152800000Y-49650000D03*
%TO.P,IC1,8,LRCK_8*%
%TO.N,/I2C_LRCK*%
X153200000Y-49650000D03*
%TO.P,IC1,9,DSDIN_9*%
%TO.N,/I2C_DSDIN*%
X153600000Y-49650000D03*
%TO.P,IC1,10,AGND_10*%
%TO.N,GNDA*%
X154000000Y-49650000D03*
D19*
%TO.P,IC1,11,AVDD_11*%
%TO.N,Net-(IC1-AVDD)*%
X154700000Y-48950000D03*
%TO.P,IC1,12,OUTP_12*%
%TO.N,Net-(IC1-OUTP)*%
X154700000Y-48550000D03*
%TO.P,IC1,13,OUTN_13*%
%TO.N,Net-(IC1-OUTN)*%
X154700000Y-48150000D03*
%TO.P,IC1,14,DACVREF_14*%
%TO.N,Net-(IC1-DACVREF)*%
X154700000Y-47750000D03*
%TO.P,IC1,15,ADCVREF_15*%
%TO.N,Net-(IC1-ADCVREF)*%
X154700000Y-47350000D03*
D20*
%TO.P,IC1,16,VMID_16*%
%TO.N,Net-(IC1-VMID)*%
X154000000Y-46650000D03*
%TO.P,IC1,17,MIC1N_17*%
%TO.N,Net-(IC1-MIC1N)*%
X153600000Y-46650000D03*
%TO.P,IC1,18,MIC1P/DMIC_SDA_18*%
%TO.N,Net-(IC1-MIC1P{slash}DMIC_SDA)*%
X153200000Y-46650000D03*
%TO.P,IC1,19,CDATA_19*%
%TO.N,/SDA*%
X152800000Y-46650000D03*
%TO.P,IC1,20,CE_20*%
%TO.N,Net-(IC1-CE)*%
X152400000Y-46650000D03*
D21*
%TO.P,IC1,21,EP_21*%
%TO.N,GNDA*%
X153200000Y-48150000D03*
%TD*%
D22*
%TO.P,J3,1,Pin_1_1*%
%TO.N,/SCL*%
X162090000Y-41800000D03*
D23*
%TO.P,J3,2,Pin_2_2*%
%TO.N,/SDA*%
X162090000Y-44340000D03*
%TO.P,J3,3,Pin_3_3*%
%TO.N,/I2C_DSDIN*%
X162090000Y-46880000D03*
%TO.P,J3,4,Pin_4_4*%
%TO.N,/I2C_SCLK*%
X162090000Y-49420000D03*
%TO.P,J3,5,Pin_5_5*%
%TO.N,/I2C_MCLK*%
X162090000Y-51960000D03*
%TO.P,J3,6,Pin_6_6*%
%TO.N,/I2C_LRCK*%
X162090000Y-54500000D03*
%TD*%
D22*
%TO.P,J4,1,Pin_1_1*%
%TO.N,/MIC_P*%
X144310000Y-41800000D03*
D23*
%TO.P,J4,2,Pin_2_2*%
%TO.N,/MIC_N*%
X144310000Y-44340000D03*
%TO.P,J4,3,Pin_3_3*%
%TO.N,/OUT_P*%
X144310000Y-46880000D03*
%TO.P,J4,4,Pin_4_4*%
%TO.N,/OUT_N*%
X144310000Y-49420000D03*
%TO.P,J4,5,Pin_5_5*%
%TO.N,+3V3*%
X144310000Y-51960000D03*
%TO.P,J4,6,Pin_6_6*%
%TO.N,GND*%
X144310000Y-54500000D03*
%TD*%
D24*
%TO.N,GNDA*%
X153800000Y-39100000D03*
X150200000Y-43600000D03*
%TO.N,Net-(IC1-OUTN)*%
X147600000Y-50900000D03*
X156100000Y-48600000D03*
%TO.N,/I2C_LRCK*%
X157800000Y-53300000D03*
%TO.N,GNDA*%
X146100000Y-48400000D03*
X152600000Y-47600000D03*
X160300000Y-43200000D03*
X153200000Y-48150000D03*
X147400000Y-36200000D03*
X160200000Y-36800000D03*
X144300000Y-61300000D03*
X146100000Y-45700000D03*
X153800000Y-47600000D03*
X153800000Y-48700000D03*
X148700000Y-49600000D03*
X146800000Y-59000000D03*
X152600000Y-48700000D03*
X160300000Y-45500000D03*
X146100000Y-50000000D03*
%TO.N,/SCL*%
X149000000Y-47600000D03*
%TO.N,Net-(IC1-MIC1N)*%
X155700000Y-44900000D03*
X149300000Y-44400000D03*
%TO.N,/MIC_P*%
X155000000Y-37900000D03*
X151800000Y-35400000D03*
%TO.N,/OUT_P*%
X145200000Y-58300000D03*
%TO.N,+3V3*%
X157000000Y-44100000D03*
X155600000Y-42400002D03*
X154274265Y-51274265D03*
X157500000Y-45700000D03*
X147600000Y-51900000D03*
%TO.N,/I2C_MCLK*%
X146100000Y-52600000D03*
X146100000Y-51300000D03*
%TO.N,/I2C_DSDIN*%
X157500000Y-50300000D03*
%TO.N,/I2C_SCLK*%
X152100000Y-52000000D03*
X159307500Y-50892500D03*
%TO.N,Net-(IC1-OUTP)*%
X149700000Y-46800000D03*
X156300000Y-49648528D03*
%TO.N,Net-(IC1-MIC1P{slash}DMIC_SDA)*%
X148900000Y-41800000D03*
X155700000Y-44100000D03*
%TO.N,/I2C_MCLK*%
X150241632Y-48100000D03*
%TD*%
%TO.N,+3V3*%
D25*
X155624267Y-42375735D02*
X157464265Y-42375735D01*
X157800000Y-42040000D02*
X157800000Y-41700000D01*
X155600000Y-42400002D02*
X155624267Y-42375735D01*
X157464265Y-42375735D02*
X157800000Y-42040000D01*
X157800000Y-41700000D02*
X158100000Y-41400000D01*
X158100000Y-41400000D02*
X158492500Y-41400000D01*
%TO.N,GNDA*%
X147807500Y-54500000D02*
X148100000Y-54500000D01*
X148100000Y-54500000D02*
X151700000Y-50900000D01*
X151700000Y-50900000D02*
X151700000Y-48950000D01*
X150092500Y-45900000D02*
X149892500Y-45700000D01*
X149892500Y-45700000D02*
X146100000Y-45700000D01*
X158492500Y-42332500D02*
X158492500Y-42492500D01*
X158492500Y-42492500D02*
X158800000Y-42800000D01*
X158800000Y-42800000D02*
X158804142Y-42800000D01*
X158804142Y-42800000D02*
X159204142Y-43200000D01*
X159204142Y-43200000D02*
X160300000Y-43200000D01*
%TO.N,/SDA*%
X152800000Y-46650000D02*
X152800000Y-44300000D01*
X161690000Y-43940000D02*
X162090000Y-44340000D01*
X152800000Y-44300000D02*
X153900000Y-43200000D01*
X153900000Y-43200000D02*
X158638456Y-43200000D01*
X158638456Y-43200000D02*
X159307500Y-43869044D01*
X159307500Y-43869044D02*
X159307500Y-43940000D01*
X159307500Y-43940000D02*
X161690000Y-43940000D01*
%TO.N,+3V3*%
X154274265Y-51274265D02*
X154274265Y-51574265D01*
X154274265Y-51574265D02*
X154700000Y-52000000D01*
X154700000Y-52000000D02*
X155607500Y-52000000D01*
X155607500Y-52000000D02*
X156100000Y-51507500D01*
%TO.N,/I2C_MCLK*%
X150241632Y-48100000D02*
X150591632Y-47750000D01*
X150591632Y-47750000D02*
X151700000Y-47750000D01*
%TO.N,/I2C_DSDIN*%
X157500000Y-50300000D02*
X157500000Y-51500000D01*
X153200000Y-52148529D02*
X153200000Y-50725000D01*
X157500000Y-51500000D02*
X156500000Y-52500000D01*
X156500000Y-52500000D02*
X153551471Y-52500000D01*
X153600000Y-50325000D02*
X153600000Y-49650000D01*
X153551471Y-52500000D02*
X153200000Y-52148529D01*
X153200000Y-50725000D02*
X153600000Y-50325000D01*
%TO.N,Net-(IC1-OUTN)*%
X147807500Y-49020000D02*
X147807500Y-49820000D01*
X155650000Y-48150000D02*
X156100000Y-48600000D01*
X154700000Y-48150000D02*
X155650000Y-48150000D01*
X147600000Y-50900000D02*
X147600000Y-50027500D01*
X147600000Y-50027500D02*
X147807500Y-49820000D01*
%TO.N,/OUT_N*%
X148000000Y-63300000D02*
X143100000Y-58400000D01*
X143100000Y-58400000D02*
X143100000Y-50630000D01*
X143100000Y-50630000D02*
X144310000Y-49420000D01*
X144710000Y-49020000D02*
X144310000Y-49420000D01*
X146992500Y-49020000D02*
X144710000Y-49020000D01*
%TO.N,/I2C_LRCK*%
X152800000Y-50559315D02*
X152800000Y-52314215D01*
X152800000Y-52314215D02*
X153785785Y-53300000D01*
X153785785Y-53300000D02*
X157800000Y-53300000D01*
X159300000Y-54500000D02*
X162090000Y-54500000D01*
X153200000Y-49650000D02*
X153200000Y-50159314D01*
X153200000Y-50159314D02*
X152800000Y-50559315D01*
%TO.N,GNDA*%
X149000000Y-49900000D02*
X148700000Y-49600000D01*
X148107500Y-54200000D02*
X158185000Y-54200000D01*
X158492500Y-49420000D02*
X158492500Y-48100000D01*
X146100000Y-48162500D02*
X146681250Y-47581250D01*
X156799999Y-46200000D02*
X156207500Y-46200000D01*
X147807500Y-54500000D02*
X147807500Y-54699999D01*
X146100000Y-48400000D02*
X146100000Y-48162500D01*
X158492500Y-48000000D02*
X158492500Y-44740000D01*
X160300000Y-46292500D02*
X158492500Y-48100000D01*
X149492500Y-49100000D02*
X149492500Y-50100000D01*
X155100001Y-51107500D02*
X154000000Y-50007499D01*
X157400000Y-46800001D02*
X156799999Y-46200000D01*
X149292501Y-49900001D02*
X149492500Y-50100000D01*
X146681250Y-47581250D02*
X146911250Y-47581250D01*
X147807500Y-54500000D02*
X147807500Y-54429044D01*
X151700000Y-48950000D02*
X152400000Y-48950000D01*
X145051471Y-59000000D02*
X146800000Y-59000000D01*
X147807500Y-54429044D02*
X146700000Y-53321544D01*
X144600000Y-57907499D02*
X144600000Y-58548529D01*
X154000000Y-49650000D02*
X154000000Y-48950000D01*
X144600000Y-58548529D02*
X145051471Y-59000000D01*
X146911250Y-47581250D02*
X146992500Y-47500000D01*
X154000000Y-50007499D02*
X154000000Y-49650000D01*
X158492500Y-54492500D02*
X158485000Y-54500000D01*
X147807500Y-54500000D02*
X148107500Y-54200000D01*
X146700000Y-53321544D02*
X146700000Y-50112500D01*
X146100000Y-50000000D02*
X146812500Y-50000000D01*
X158492500Y-49420000D02*
X158492500Y-51960000D01*
X155300000Y-51107500D02*
X155100001Y-51107500D01*
X152400000Y-48950000D02*
X153200000Y-48150000D01*
X158400000Y-48000000D02*
X158492500Y-48000000D01*
X158185000Y-54200000D02*
X158485000Y-54500000D01*
X157400000Y-47000000D02*
X158400000Y-48000000D01*
X154500001Y-50507500D02*
X154000000Y-50007499D01*
X149000000Y-49900000D02*
X149292501Y-49900001D01*
X158492500Y-48100000D02*
X158492500Y-48000000D01*
X154000000Y-48950000D02*
X153200000Y-48150000D01*
X160300000Y-45500000D02*
X160300000Y-46292500D01*
X158492500Y-51960000D02*
X158492500Y-54492500D01*
X147807500Y-54699999D02*
X144600000Y-57907499D01*
X157400000Y-48092500D02*
X157400000Y-47000000D01*
X157400000Y-47000000D02*
X157400000Y-46800001D01*
%TO.N,Net-(IC1-CE)*%
X150907500Y-45900000D02*
X151650000Y-45900000D01*
X151650000Y-45900000D02*
X152400000Y-46650000D01*
%TO.N,Net-(IC1-DACVREF)*%
X157307500Y-48907500D02*
X157400000Y-48907500D01*
X154700000Y-47750000D02*
X156150000Y-47750000D01*
X156150000Y-47750000D02*
X157307500Y-48907500D01*
%TO.N,/SDA*%
X161690000Y-44740000D02*
X162090000Y-44340000D01*
X159307500Y-44740000D02*
X161690000Y-44740000D01*
%TO.N,/SCL*%
X159307500Y-41400000D02*
X161690000Y-41400000D01*
X159907500Y-41800000D02*
X159307500Y-42400000D01*
X161690000Y-42200000D02*
X162090000Y-41800000D01*
X151700000Y-47350000D02*
X149998529Y-47350000D01*
X149748529Y-47600000D02*
X149000000Y-47600000D01*
X162090000Y-41800000D02*
X159907500Y-41800000D01*
X161690000Y-41400000D02*
X162090000Y-41800000D01*
X149998529Y-47350000D02*
X149748529Y-47600000D01*
%TO.N,Net-(IC1-MIC1N)*%
X153600000Y-46650000D02*
X153600000Y-45975000D01*
X153600000Y-45975000D02*
X154675000Y-44900000D01*
X154675000Y-44900000D02*
X155700000Y-44900000D01*
X149300000Y-44400000D02*
X147867500Y-44400000D01*
X147867500Y-44400000D02*
X147807500Y-44340000D01*
%TO.N,/MIC_N*%
X143100000Y-40710000D02*
X143100000Y-43130000D01*
X158400000Y-33100000D02*
X151800000Y-39700000D01*
X146992500Y-44340000D02*
X144310000Y-44340000D01*
X144110000Y-39700000D02*
X143100000Y-40710000D01*
X151800000Y-39700000D02*
X144110000Y-39700000D01*
X143100000Y-43130000D02*
X144310000Y-44340000D01*
%TO.N,GND*%
X146992500Y-54500000D02*
X144310000Y-54500000D01*
%TO.N,/MIC_P*%
X151300000Y-35400000D02*
X149000000Y-33100000D01*
X155000000Y-39100000D02*
X155000000Y-37900000D01*
X146992500Y-41800000D02*
X144310000Y-41800000D01*
X156400000Y-40500000D02*
X155000000Y-39100000D01*
X151800000Y-35400000D02*
X151300000Y-35400000D01*
X148092501Y-40500000D02*
X146992500Y-41600001D01*
X156400000Y-40500000D02*
X148092501Y-40500000D01*
X146992500Y-41600001D02*
X146992500Y-41800000D01*
X155000000Y-37900000D02*
X155000000Y-37800000D01*
%TO.N,/OUT_P*%
X146992500Y-46470000D02*
X144720000Y-46470000D01*
X147600000Y-55900000D02*
X145200000Y-58300000D01*
X144720000Y-46470000D02*
X144310000Y-46880000D01*
X150000000Y-55900000D02*
X147600000Y-55900000D01*
X150000000Y-55900000D02*
X157400000Y-63300000D01*
%TO.N,+3V3*%
X158332500Y-44100000D02*
X158492500Y-43940000D01*
X148500000Y-51000000D02*
X149492500Y-51000000D01*
X157000000Y-44100000D02*
X157000000Y-45200000D01*
X157000000Y-44100000D02*
X158332500Y-44100000D01*
X147600000Y-51900000D02*
X148500000Y-51000000D01*
X157000000Y-45200000D02*
X157500000Y-45700000D01*
%TO.N,Net-(IC1-DVDD)*%
X150307500Y-49100000D02*
X150857500Y-48550000D01*
X150307500Y-49100000D02*
X150307500Y-51000000D01*
X151700000Y-48150000D02*
X151257500Y-48150000D01*
X150857500Y-48550000D02*
X151700000Y-48550000D01*
X151257500Y-48150000D02*
X150857500Y-48550000D01*
%TO.N,/I2C_MCLK*%
X159307500Y-51960000D02*
X162090000Y-51960000D01*
X146100000Y-51300000D02*
X146100000Y-52600000D01*
%TO.N,Net-(IC1-AVDD)*%
X154700000Y-49692500D02*
X155200000Y-50192500D01*
X155300000Y-50292500D02*
X155800000Y-50292500D01*
X154700000Y-48950000D02*
X154700000Y-49692500D01*
X155800000Y-50292500D02*
X156200000Y-50692500D01*
%TO.N,/I2C_SCLK*%
X152100000Y-52000000D02*
X152400000Y-51700000D01*
X159307500Y-49420000D02*
X159307500Y-50892500D01*
X159307500Y-50892500D02*
X159300000Y-50900000D01*
X159307500Y-49420000D02*
X162090000Y-49420000D01*
X152400000Y-51700000D02*
X152400000Y-49650000D01*
%TO.N,Net-(IC1-OUTP)*%
X149700000Y-46800000D02*
X148137500Y-46800000D01*
X154700000Y-48550000D02*
X155201471Y-48550000D01*
X147807500Y-46470000D02*
X147807500Y-47270000D01*
X155201471Y-48550000D02*
X156300000Y-49648528D01*
X148137500Y-46800000D02*
X147807500Y-46470000D01*
%TO.N,Net-(IC1-ADCVREF)*%
X154700000Y-47350000D02*
X156235000Y-47350000D01*
X156235000Y-47350000D02*
X156585000Y-47000000D01*
%TO.N,Net-(IC1-VMID)*%
X155392500Y-46200000D02*
X154450000Y-46200000D01*
X154450000Y-46200000D02*
X154000000Y-46650000D01*
%TO.N,Net-(IC1-MIC1P{slash}DMIC_SDA)*%
X148900000Y-41800000D02*
X147807500Y-41800000D01*
X153565686Y-44100000D02*
X155700000Y-44100000D01*
X153200000Y-46650000D02*
X153200000Y-44465686D01*
X153200000Y-44465686D02*
X153565686Y-44100000D01*
%TD*%
%TA.AperFunction,Conductor*%
%TO.N,GNDA*%
G36*
X143205703Y-59355384D02*
G01*
X143212181Y-59361416D01*
X146363181Y-62512416D01*
X146396666Y-62573739D01*
X146399500Y-62600097D01*
X146399500Y-63622458D01*
X146399501Y-64575500D01*
X146379816Y-64642539D01*
X146327013Y-64688294D01*
X146275501Y-64699500D01*
X144504428Y-64699500D01*
X144495582Y-64699184D01*
X144473622Y-64697613D01*
X144295442Y-64684869D01*
X144277931Y-64682351D01*
X144086209Y-64640645D01*
X144069234Y-64635661D01*
X143885394Y-64567093D01*
X143869300Y-64559743D01*
X143697091Y-64465709D01*
X143682208Y-64456144D01*
X143525135Y-64338561D01*
X143511764Y-64326975D01*
X143373024Y-64188235D01*
X143361438Y-64174864D01*
X143243855Y-64017791D01*
X143234290Y-64002908D01*
X143140256Y-63830699D01*
X143132909Y-63814611D01*
X143064336Y-63630760D01*
X143059354Y-63613790D01*
X143017648Y-63422068D01*
X143015130Y-63404556D01*
X143000816Y-63204418D01*
X143000500Y-63195572D01*
X143000500Y-59449097D01*
X143020185Y-59382058D01*
X143072989Y-59336303D01*
X143142147Y-59326359D01*
X143205703Y-59355384D01*
G37*
%TD.AperFunction*%
%TA.AperFunction,Conductor*%
G36*
X148342540Y-56520185D02*
G01*
X148388295Y-56572989D01*
X148399501Y-56624500D01*
X148399501Y-57347876D01*
X148405908Y-57407483D01*
X148456202Y-57542328D01*
X148456206Y-57542335D01*
X148542452Y-57657544D01*
X148542455Y-57657547D01*
X148657664Y-57743793D01*
X148657671Y-57743797D01*
X148792517Y-57794091D01*
X148792516Y-57794091D01*
X148799444Y-57794835D01*
X148852127Y-57800500D01*
X150999902Y-57800499D01*
X151066941Y-57820184D01*
X151087583Y-57836818D01*
X155463181Y-62212416D01*
X155496666Y-62273739D01*
X155499500Y-62300097D01*
X155499501Y-64575500D01*
X155479816Y-64642539D01*
X155427013Y-64688294D01*
X155375501Y-64699500D01*
X149724500Y-64699500D01*
X149657461Y-64679815D01*
X149611706Y-64627011D01*
X149600500Y-64575500D01*
X149600499Y-61852129D01*
X149600498Y-61852123D01*
X149594091Y-61792516D01*
X149543797Y-61657671D01*
X149543793Y-61657664D01*
X149457547Y-61542455D01*
X149457544Y-61542452D01*
X149342335Y-61456206D01*
X149342328Y-61456202D01*
X149207482Y-61405908D01*
X149207483Y-61405908D01*
X149147883Y-61399501D01*
X149147881Y-61399500D01*
X149147873Y-61399500D01*
X149147865Y-61399500D01*
X147000097Y-61399500D01*
X146933058Y-61379815D01*
X146912416Y-61363181D01*
X145062624Y-59513389D01*
X147999500Y-59513389D01*
X147999500Y-59686610D01*
X148025195Y-59848847D01*
X148026598Y-59857701D01*
X148080127Y-60022445D01*
X148158768Y-60176788D01*
X148260586Y-60316928D01*
X148383072Y-60439414D01*
X148523212Y-60541232D01*
X148677555Y-60619873D01*
X148842299Y-60673402D01*
X149013389Y-60700500D01*
X149013390Y-60700500D01*
X149186610Y-60700500D01*
X149186611Y-60700500D01*
X149357701Y-60673402D01*
X149522445Y-60619873D01*
X149676788Y-60541232D01*
X149816928Y-60439414D01*
X149939414Y-60316928D01*
X150041232Y-60176788D01*
X150119873Y-60022445D01*
X150173402Y-59857701D01*
X150200500Y-59686611D01*
X150200500Y-59513389D01*
X150173402Y-59342299D01*
X150119873Y-59177555D01*
X150041232Y-59023212D01*
X149939414Y-58883072D01*
X149816928Y-58760586D01*
X149676788Y-58658768D01*
X149522447Y-58580128D01*
X149522446Y-58580127D01*
X149522445Y-58580127D01*
X149357701Y-58526598D01*
X149357699Y-58526597D01*
X149357698Y-58526597D01*
X149226271Y-58505781D01*
X149186611Y-58499500D01*
X149013389Y-58499500D01*
X148973728Y-58505781D01*
X148842302Y-58526597D01*
X148677552Y-58580128D01*
X148523211Y-58658768D01*
X148490158Y-58682783D01*
X148383072Y-58760586D01*
X148383070Y-58760588D01*
X148383069Y-58760588D01*
X148260588Y-58883069D01*
X148260588Y-58883070D01*
X148260586Y-58883072D01*
X148216859Y-58943256D01*
X148158768Y-59023211D01*
X148080128Y-59177552D01*
X148026597Y-59342302D01*
X147999500Y-59513389D01*
X145062624Y-59513389D01*
X144814033Y-59264798D01*
X144780548Y-59203475D01*
X144785532Y-59133783D01*
X144827404Y-59077850D01*
X144892868Y-59053433D01*
X144949166Y-59062555D01*
X144966503Y-59069737D01*
X145121153Y-59100499D01*
X145121156Y-59100500D01*
X145121158Y-59100500D01*
X145278844Y-59100500D01*
X145278845Y-59100499D01*
X145433497Y-59069737D01*
X145579179Y-59009394D01*
X145710289Y-58921789D01*
X145821789Y-58810289D01*
X145909394Y-58679179D01*
X145969737Y-58533497D01*
X145989113Y-58436085D01*
X146000638Y-58378150D01*
X146033023Y-58316239D01*
X146034517Y-58314717D01*
X147812417Y-56536819D01*
X147873740Y-56503334D01*
X147900098Y-56500500D01*
X148275501Y-56500500D01*
X148342540Y-56520185D01*
G37*
%TD.AperFunction*%
%TA.AperFunction,Conductor*%
G36*
X151277158Y-49549999D02*
G01*
X151277172Y-49550000D01*
X151675500Y-49550000D01*
X151742539Y-49569685D01*
X151788294Y-49622489D01*
X151799500Y-49674000D01*
X151799500Y-51175161D01*
X151779815Y-51242200D01*
X151727011Y-51287955D01*
X151722962Y-51289718D01*
X151720830Y-51290601D01*
X151720814Y-51290609D01*
X151589711Y-51378210D01*
X151589707Y-51378213D01*
X151478213Y-51489707D01*
X151478210Y-51489711D01*
X151390609Y-51620814D01*
X151390602Y-51620827D01*
X151330264Y-51766498D01*
X151330261Y-51766510D01*
X151299500Y-51921153D01*
X151299500Y-52078846D01*
X151330261Y-52233489D01*
X151330264Y-52233501D01*
X151390602Y-52379172D01*
X151390609Y-52379185D01*
X151478210Y-52510288D01*
X151478213Y-52510292D01*
X151589707Y-52621786D01*
X151589711Y-52621789D01*
X151720814Y-52709390D01*
X151720827Y-52709397D01*
X151866498Y-52769735D01*
X151866503Y-52769737D01*
X151992176Y-52794735D01*
X152021153Y-52800499D01*
X152021156Y-52800500D01*
X152021158Y-52800500D01*
X152178844Y-52800500D01*
X152329204Y-52770591D01*
X152398796Y-52776818D01*
X152441076Y-52804526D01*
X153417069Y-53780520D01*
X153417071Y-53780521D01*
X153417075Y-53780524D01*
X153553994Y-53859573D01*
X153554001Y-53859577D01*
X153706728Y-53900501D01*
X153706730Y-53900501D01*
X153872439Y-53900501D01*
X153872455Y-53900500D01*
X157220234Y-53900500D01*
X157287273Y-53920185D01*
X157289125Y-53921398D01*
X157420814Y-54009390D01*
X157420818Y-54009392D01*
X157420821Y-54009394D01*
X157566503Y-54069737D01*
X157566510Y-54069738D01*
X157566671Y-54069805D01*
X157621075Y-54113646D01*
X157643140Y-54179940D01*
X157638298Y-54218954D01*
X157635356Y-54229082D01*
X157635354Y-54229091D01*
X157633709Y-54249999D01*
X157633710Y-54250000D01*
X158288500Y-54250000D01*
X158355539Y-54269685D01*
X158401294Y-54322489D01*
X158412500Y-54374000D01*
X158412500Y-54500000D01*
X158468000Y-54500000D01*
X158535039Y-54519685D01*
X158580794Y-54572489D01*
X158592000Y-54624000D01*
X158592000Y-54734697D01*
X158594856Y-54770991D01*
X158594857Y-54770997D01*
X158640003Y-54926389D01*
X158640005Y-54926393D01*
X158640006Y-54926395D01*
X158645232Y-54935233D01*
X158662500Y-54998352D01*
X158662500Y-55304503D01*
X158808694Y-55262032D01*
X158828884Y-55250091D01*
X158896608Y-55232906D01*
X158955129Y-55250089D01*
X158976105Y-55262494D01*
X159011812Y-55272868D01*
X159131502Y-55307642D01*
X159131505Y-55307642D01*
X159131507Y-55307643D01*
X159167810Y-55310500D01*
X159167818Y-55310500D01*
X159577182Y-55310500D01*
X159577190Y-55310500D01*
X159613493Y-55307643D01*
X159613495Y-55307642D01*
X159613497Y-55307642D01*
X159654475Y-55295736D01*
X159768895Y-55262494D01*
X159908187Y-55180117D01*
X159951484Y-55136820D01*
X160012807Y-55103334D01*
X160039166Y-55100500D01*
X160804281Y-55100500D01*
X160871320Y-55120185D01*
X160914765Y-55168205D01*
X160934947Y-55207814D01*
X160934948Y-55207815D01*
X161059890Y-55379786D01*
X161210213Y-55530109D01*
X161382179Y-55655048D01*
X161382181Y-55655049D01*
X161382184Y-55655051D01*
X161571588Y-55751557D01*
X161773757Y-55817246D01*
X161983713Y-55850500D01*
X161983714Y-55850500D01*
X162196286Y-55850500D01*
X162196287Y-55850500D01*
X162406243Y-55817246D01*
X162608412Y-55751557D01*
X162797816Y-55655051D01*
X162966935Y-55532180D01*
X162969786Y-55530109D01*
X162969788Y-55530106D01*
X162969792Y-55530104D01*
X163120104Y-55379792D01*
X163175181Y-55303983D01*
X163230511Y-55261318D01*
X163300124Y-55255339D01*
X163361920Y-55287944D01*
X163396277Y-55348783D01*
X163399500Y-55376869D01*
X163399500Y-63195572D01*
X163399184Y-63204418D01*
X163399184Y-63204419D01*
X163384869Y-63404557D01*
X163382351Y-63422068D01*
X163340645Y-63613790D01*
X163335661Y-63630765D01*
X163267093Y-63814605D01*
X163259743Y-63830699D01*
X163165709Y-64002908D01*
X163156144Y-64017791D01*
X163038561Y-64174864D01*
X163026975Y-64188235D01*
X162888235Y-64326975D01*
X162874864Y-64338561D01*
X162717791Y-64456144D01*
X162702908Y-64465709D01*
X162530699Y-64559743D01*
X162514605Y-64567093D01*
X162330765Y-64635661D01*
X162313790Y-64640645D01*
X162122068Y-64682351D01*
X162104557Y-64684869D01*
X161923779Y-64697799D01*
X161904417Y-64699184D01*
X161895572Y-64699500D01*
X159424500Y-64699500D01*
X159357461Y-64679815D01*
X159311706Y-64627011D01*
X159300500Y-64575500D01*
X159300499Y-61852129D01*
X159300498Y-61852123D01*
X159294091Y-61792516D01*
X159243797Y-61657671D01*
X159243793Y-61657664D01*
X159157547Y-61542455D01*
X159157544Y-61542452D01*
X159042335Y-61456206D01*
X159042328Y-61456202D01*
X158907482Y-61405908D01*
X158907483Y-61405908D01*
X158847883Y-61399501D01*
X158847881Y-61399500D01*
X158847873Y-61399500D01*
X158847865Y-61399500D01*
X156400097Y-61399500D01*
X156333058Y-61379815D01*
X156312416Y-61363181D01*
X155851152Y-60901917D01*
X155817667Y-60840594D01*
X155822651Y-60770902D01*
X155864523Y-60714969D01*
X155929987Y-60690552D01*
X155958223Y-60691762D01*
X156013389Y-60700500D01*
X156013391Y-60700500D01*
X156186610Y-60700500D01*
X156186611Y-60700500D01*
X156357701Y-60673402D01*
X156522445Y-60619873D01*
X156676788Y-60541232D01*
X156816928Y-60439414D01*
X156939414Y-60316928D01*
X157041232Y-60176788D01*
X157119873Y-60022445D01*
X157173402Y-59857701D01*
X157200500Y-59686611D01*
X157200500Y-59513389D01*
X157173402Y-59342299D01*
X157119873Y-59177555D01*
X157041232Y-59023212D01*
X156939414Y-58883072D01*
X156816928Y-58760586D01*
X156676788Y-58658768D01*
X156522447Y-58580128D01*
X156522446Y-58580127D01*
X156522445Y-58580127D01*
X156357701Y-58526598D01*
X156357699Y-58526597D01*
X156357698Y-58526597D01*
X156226271Y-58505781D01*
X156186611Y-58499500D01*
X156013389Y-58499500D01*
X155973728Y-58505781D01*
X155842302Y-58526597D01*
X155677552Y-58580128D01*
X155523211Y-58658768D01*
X155490158Y-58682783D01*
X155383072Y-58760586D01*
X155383070Y-58760588D01*
X155383069Y-58760588D01*
X155260588Y-58883069D01*
X155260588Y-58883070D01*
X155260586Y-58883072D01*
X155216859Y-58943256D01*
X155158768Y-59023211D01*
X155080128Y-59177552D01*
X155026597Y-59342302D01*
X154999500Y-59513389D01*
X154999500Y-59686610D01*
X155008236Y-59741768D01*
X154999281Y-59811062D01*
X154954285Y-59864514D01*
X154887533Y-59885153D01*
X154820220Y-59866428D01*
X154798082Y-59848847D01*
X151636818Y-56687583D01*
X151603333Y-56626260D01*
X151600499Y-56599902D01*
X151600499Y-54750000D01*
X157633710Y-54750000D01*
X157635354Y-54770910D01*
X157680468Y-54926195D01*
X157762778Y-55065374D01*
X157762785Y-55065383D01*
X157877116Y-55179714D01*
X157877125Y-55179721D01*
X158016304Y-55262031D01*
X158162500Y-55304504D01*
X158162500Y-54750000D01*
X157633710Y-54750000D01*
X151600499Y-54750000D01*
X151600499Y-54452129D01*
X151600498Y-54452123D01*
X151594091Y-54392516D01*
X151543797Y-54257671D01*
X151543793Y-54257664D01*
X151457547Y-54142455D01*
X151457544Y-54142452D01*
X151342335Y-54056206D01*
X151342328Y-54056202D01*
X151207482Y-54005908D01*
X151207483Y-54005908D01*
X151147883Y-53999501D01*
X151147881Y-53999500D01*
X151147873Y-53999500D01*
X151147864Y-53999500D01*
X148852129Y-53999500D01*
X148852123Y-53999501D01*
X148792514Y-54005909D01*
X148731976Y-54028488D01*
X148662284Y-54033472D01*
X148600962Y-53999986D01*
X148581912Y-53975427D01*
X148550737Y-53922713D01*
X148550731Y-53922705D01*
X148437294Y-53809268D01*
X148437285Y-53809261D01*
X148299191Y-53727593D01*
X148299188Y-53727591D01*
X148160001Y-53687153D01*
X148160000Y-53687154D01*
X148160000Y-54376000D01*
X148140315Y-54443039D01*
X148087511Y-54488794D01*
X148036000Y-54500000D01*
X147784499Y-54500000D01*
X147776032Y-54497513D01*
X147767301Y-54498802D01*
X147743021Y-54487820D01*
X147717460Y-54480315D01*
X147711681Y-54473645D01*
X147703640Y-54470009D01*
X147689151Y-54447644D01*
X147671705Y-54427511D01*
X147669449Y-54417235D01*
X147665650Y-54411370D01*
X147660693Y-54377335D01*
X147660500Y-54376454D01*
X147660499Y-54376249D01*
X147660499Y-54250820D01*
X147660017Y-54244705D01*
X147660001Y-54240061D01*
X147660015Y-54240009D01*
X147660000Y-54239607D01*
X147660000Y-53687154D01*
X147659998Y-53687153D01*
X147520811Y-53727591D01*
X147520810Y-53727592D01*
X147463611Y-53761419D01*
X147395886Y-53778600D01*
X147337371Y-53761419D01*
X147317912Y-53749911D01*
X147279393Y-53727131D01*
X147279392Y-53727130D01*
X147279391Y-53727130D01*
X147279388Y-53727129D01*
X147125208Y-53682335D01*
X147125202Y-53682334D01*
X147089181Y-53679500D01*
X146690830Y-53679500D01*
X146690808Y-53679501D01*
X146654794Y-53682335D01*
X146500611Y-53727129D01*
X146500606Y-53727131D01*
X146362404Y-53808863D01*
X146362400Y-53808866D01*
X146339472Y-53831795D01*
X146308084Y-53863182D01*
X146246764Y-53896666D01*
X146220405Y-53899500D01*
X145595719Y-53899500D01*
X145528680Y-53879815D01*
X145485235Y-53831795D01*
X145465052Y-53792185D01*
X145465051Y-53792184D01*
X145340109Y-53620213D01*
X145189786Y-53469890D01*
X145017820Y-53344951D01*
X145017115Y-53344591D01*
X145009054Y-53340485D01*
X144958259Y-53292512D01*
X144941463Y-53224692D01*
X144963999Y-53158556D01*
X145009054Y-53119515D01*
X145017816Y-53115051D01*
X145039789Y-53099086D01*
X145189786Y-52990109D01*
X145189788Y-52990106D01*
X145189792Y-52990104D01*
X145207705Y-52972189D01*
X145269026Y-52938704D01*
X145338718Y-52943687D01*
X145394652Y-52985557D01*
X145398489Y-52990979D01*
X145478210Y-53110288D01*
X145478213Y-53110292D01*
X145589707Y-53221786D01*
X145589711Y-53221789D01*
X145720814Y-53309390D01*
X145720827Y-53309397D01*
X145866498Y-53369735D01*
X145866503Y-53369737D01*
X146021153Y-53400499D01*
X146021156Y-53400500D01*
X146021158Y-53400500D01*
X146178844Y-53400500D01*
X146178845Y-53400499D01*
X146333497Y-53369737D01*
X146479179Y-53309394D01*
X146610289Y-53221789D01*
X146721789Y-53110289D01*
X146809394Y-52979179D01*
X146869737Y-52833497D01*
X146900500Y-52678842D01*
X146900500Y-52627350D01*
X146920185Y-52560311D01*
X146972989Y-52514556D01*
X147042147Y-52504612D01*
X147093391Y-52524248D01*
X147220814Y-52609390D01*
X147220827Y-52609397D01*
X147361860Y-52667814D01*
X147366503Y-52669737D01*
X147482981Y-52692906D01*
X147521153Y-52700499D01*
X147521156Y-52700500D01*
X147521158Y-52700500D01*
X147678844Y-52700500D01*
X147678845Y-52700499D01*
X147833497Y-52669737D01*
X147979179Y-52609394D01*
X148110289Y-52521789D01*
X148221789Y-52410289D01*
X148309394Y-52279179D01*
X148369737Y-52133497D01*
X148400500Y-51978842D01*
X148400638Y-51978150D01*
X148433023Y-51916239D01*
X148434524Y-51914710D01*
X148622569Y-51726664D01*
X148683892Y-51693180D01*
X148753584Y-51698164D01*
X148797931Y-51726665D01*
X148862396Y-51791130D01*
X148862400Y-51791133D01*
X148862402Y-51791135D01*
X149000607Y-51872869D01*
X149000614Y-51872871D01*
X149154791Y-51917664D01*
X149154794Y-51917664D01*
X149154796Y-51917665D01*
X149190819Y-51920500D01*
X149589180Y-51920499D01*
X149625204Y-51917665D01*
X149779393Y-51872869D01*
X149836882Y-51838869D01*
X149904602Y-51821688D01*
X149963117Y-51838869D01*
X150020607Y-51872869D01*
X150020610Y-51872869D01*
X150020612Y-51872871D01*
X150174791Y-51917664D01*
X150174794Y-51917664D01*
X150174796Y-51917665D01*
X150210819Y-51920500D01*
X150609180Y-51920499D01*
X150645204Y-51917665D01*
X150799393Y-51872869D01*
X150937598Y-51791135D01*
X151051135Y-51677598D01*
X151132869Y-51539393D01*
X151177665Y-51385204D01*
X151180500Y-51349181D01*
X151180499Y-50850820D01*
X151177665Y-50814796D01*
X151132869Y-50660607D01*
X151131897Y-50658964D01*
X151119727Y-50638384D01*
X151102544Y-50570660D01*
X151110840Y-50534038D01*
X151110318Y-50533887D01*
X151157642Y-50370997D01*
X151157643Y-50370991D01*
X151157845Y-50368422D01*
X151160500Y-50334690D01*
X151160500Y-49865310D01*
X151157643Y-49829007D01*
X151157247Y-49827643D01*
X151121732Y-49705400D01*
X151121824Y-49672765D01*
X151120660Y-49640137D01*
X151121923Y-49638006D01*
X151121931Y-49635531D01*
X151139653Y-49608126D01*
X151156314Y-49580048D01*
X151158528Y-49578939D01*
X151159873Y-49576861D01*
X151189604Y-49563385D01*
X151218794Y-49548775D01*
X151222098Y-49548657D01*
X151223511Y-49548017D01*
X151254065Y-49547516D01*
X151277158Y-49549999D01*
G37*
%TD.AperFunction*%
%TA.AperFunction,Conductor*%
G36*
X146287444Y-55120185D02*
G01*
X146308081Y-55136814D01*
X146362402Y-55191135D01*
X146500607Y-55272869D01*
X146541268Y-55284682D01*
X146654791Y-55317664D01*
X146654794Y-55317664D01*
X146654796Y-55317665D01*
X146690819Y-55320500D01*
X147030902Y-55320499D01*
X147097941Y-55340183D01*
X147143696Y-55392987D01*
X147153640Y-55462146D01*
X147124615Y-55525701D01*
X147118583Y-55532180D01*
X145185339Y-57465425D01*
X145124016Y-57498910D01*
X145121850Y-57499361D01*
X144966508Y-57530261D01*
X144966498Y-57530264D01*
X144820827Y-57590602D01*
X144820814Y-57590609D01*
X144689711Y-57678210D01*
X144689707Y-57678213D01*
X144578213Y-57789707D01*
X144578210Y-57789711D01*
X144490609Y-57920814D01*
X144490602Y-57920827D01*
X144430264Y-58066498D01*
X144430261Y-58066510D01*
X144399500Y-58221153D01*
X144399500Y-58378846D01*
X144430261Y-58533489D01*
X144430264Y-58533501D01*
X144437444Y-58550835D01*
X144444911Y-58620304D01*
X144413635Y-58682783D01*
X144353545Y-58718434D01*
X144283720Y-58715939D01*
X144235201Y-58685966D01*
X143736819Y-58187584D01*
X143703334Y-58126261D01*
X143700500Y-58099903D01*
X143700500Y-55892631D01*
X143720185Y-55825592D01*
X143772989Y-55779837D01*
X143842147Y-55769893D01*
X143862803Y-55774696D01*
X143993757Y-55817246D01*
X144203713Y-55850500D01*
X144203714Y-55850500D01*
X144416286Y-55850500D01*
X144416287Y-55850500D01*
X144626243Y-55817246D01*
X144828412Y-55751557D01*
X145017816Y-55655051D01*
X145186935Y-55532180D01*
X145189786Y-55530109D01*
X145189788Y-55530106D01*
X145189792Y-55530104D01*
X145340104Y-55379792D01*
X145340106Y-55379788D01*
X145340109Y-55379786D01*
X145417787Y-55272870D01*
X145465051Y-55207816D01*
X145473550Y-55191136D01*
X145485235Y-55168205D01*
X145533209Y-55117409D01*
X145595719Y-55100500D01*
X146220405Y-55100500D01*
X146287444Y-55120185D01*
G37*
%TD.AperFunction*%
%TA.AperFunction,Conductor*%
G36*
X160818883Y-52564787D02*
G01*
X160834088Y-52564136D01*
X160851726Y-52574431D01*
X160871320Y-52580185D01*
X160882216Y-52592228D01*
X160894430Y-52599358D01*
X160914765Y-52628205D01*
X160934947Y-52667814D01*
X160934948Y-52667815D01*
X161059890Y-52839786D01*
X161210213Y-52990109D01*
X161382182Y-53115050D01*
X161390946Y-53119516D01*
X161441742Y-53167491D01*
X161458536Y-53235312D01*
X161435998Y-53301447D01*
X161390946Y-53340484D01*
X161382182Y-53344949D01*
X161210213Y-53469890D01*
X161059890Y-53620213D01*
X160934948Y-53792184D01*
X160934947Y-53792185D01*
X160914765Y-53831795D01*
X160866791Y-53882591D01*
X160804281Y-53899500D01*
X160039166Y-53899500D01*
X159972127Y-53879815D01*
X159951484Y-53863180D01*
X159908192Y-53819887D01*
X159908184Y-53819881D01*
X159768893Y-53737505D01*
X159768890Y-53737504D01*
X159613497Y-53692357D01*
X159613491Y-53692356D01*
X159577197Y-53689500D01*
X159577190Y-53689500D01*
X159167810Y-53689500D01*
X159167802Y-53689500D01*
X159131508Y-53692356D01*
X159131502Y-53692357D01*
X158976109Y-53737504D01*
X158976104Y-53737506D01*
X158955128Y-53749911D01*
X158887403Y-53767092D01*
X158852094Y-53760578D01*
X158647256Y-53690935D01*
X158620874Y-53672365D01*
X158593690Y-53655005D01*
X158592482Y-53652381D01*
X158590121Y-53650719D01*
X158577970Y-53620841D01*
X158564484Y-53591533D01*
X158564726Y-53588278D01*
X158563799Y-53585997D01*
X158565625Y-53576234D01*
X158568512Y-53537536D01*
X158569734Y-53533502D01*
X158569737Y-53533497D01*
X158600500Y-53378842D01*
X158600500Y-53221158D01*
X158600500Y-53221155D01*
X158600499Y-53221153D01*
X158589358Y-53165145D01*
X158569737Y-53066503D01*
X158569735Y-53066498D01*
X158517845Y-52941222D01*
X158510376Y-52871753D01*
X158541652Y-52809274D01*
X158601741Y-52773622D01*
X158622683Y-52770152D01*
X158660911Y-52767145D01*
X158816194Y-52722032D01*
X158836384Y-52710091D01*
X158904108Y-52692906D01*
X158962629Y-52710089D01*
X158983605Y-52722494D01*
X159024587Y-52734400D01*
X159139002Y-52767642D01*
X159139005Y-52767642D01*
X159139007Y-52767643D01*
X159175310Y-52770500D01*
X159175318Y-52770500D01*
X159584682Y-52770500D01*
X159584690Y-52770500D01*
X159620993Y-52767643D01*
X159620995Y-52767642D01*
X159620997Y-52767642D01*
X159661975Y-52755736D01*
X159776395Y-52722494D01*
X159915687Y-52640117D01*
X159958984Y-52596820D01*
X160020307Y-52563334D01*
X160046666Y-52560500D01*
X160804281Y-52560500D01*
X160818883Y-52564787D01*
G37*
%TD.AperFunction*%
%TA.AperFunction,Conductor*%
G36*
X158542539Y-44919685D02*
G01*
X158588294Y-44972489D01*
X158599500Y-45024000D01*
X158599500Y-45134697D01*
X158602356Y-45170991D01*
X158602357Y-45170997D01*
X158647503Y-45326389D01*
X158647505Y-45326393D01*
X158647506Y-45326395D01*
X158652732Y-45335233D01*
X158670000Y-45398352D01*
X158670000Y-45704503D01*
X158816194Y-45662032D01*
X158836384Y-45650091D01*
X158904108Y-45632906D01*
X158962629Y-45650089D01*
X158983605Y-45662494D01*
X159018087Y-45672512D01*
X159139002Y-45707642D01*
X159139005Y-45707642D01*
X159139007Y-45707643D01*
X159175310Y-45710500D01*
X159175318Y-45710500D01*
X159584682Y-45710500D01*
X159584690Y-45710500D01*
X159620993Y-45707643D01*
X159620995Y-45707642D01*
X159620997Y-45707642D01*
X159679634Y-45690606D01*
X159776395Y-45662494D01*
X159915687Y-45580117D01*
X160030117Y-45465687D01*
X160045257Y-45440085D01*
X160068149Y-45401379D01*
X160119218Y-45353695D01*
X160174881Y-45340500D01*
X161129800Y-45340500D01*
X161196839Y-45360185D01*
X161209365Y-45369493D01*
X161382182Y-45495050D01*
X161390946Y-45499516D01*
X161441742Y-45547491D01*
X161458536Y-45615312D01*
X161435998Y-45681447D01*
X161390946Y-45720484D01*
X161382182Y-45724949D01*
X161210213Y-45849890D01*
X161059890Y-46000213D01*
X160934951Y-46172179D01*
X160838444Y-46361585D01*
X160772753Y-46563760D01*
X160739500Y-46773713D01*
X160739500Y-46986286D01*
X160753556Y-47075036D01*
X160772754Y-47196243D01*
X160809687Y-47309912D01*
X160838444Y-47398414D01*
X160934951Y-47587820D01*
X161059890Y-47759786D01*
X161210213Y-47910109D01*
X161382182Y-48035050D01*
X161390946Y-48039516D01*
X161441742Y-48087491D01*
X161458536Y-48155312D01*
X161435998Y-48221447D01*
X161390946Y-48260484D01*
X161382182Y-48264949D01*
X161210213Y-48389890D01*
X161059890Y-48540213D01*
X160934948Y-48712184D01*
X160934947Y-48712185D01*
X160914765Y-48751795D01*
X160866791Y-48802591D01*
X160804281Y-48819500D01*
X160046666Y-48819500D01*
X159979627Y-48799815D01*
X159958984Y-48783180D01*
X159915692Y-48739887D01*
X159915684Y-48739881D01*
X159776393Y-48657505D01*
X159776390Y-48657504D01*
X159620997Y-48612357D01*
X159620991Y-48612356D01*
X159584697Y-48609500D01*
X159584690Y-48609500D01*
X159175310Y-48609500D01*
X159175302Y-48609500D01*
X159139008Y-48612356D01*
X159139002Y-48612357D01*
X158983609Y-48657504D01*
X158983604Y-48657506D01*
X158962628Y-48669911D01*
X158894903Y-48687092D01*
X158836389Y-48669911D01*
X158816191Y-48657966D01*
X158816190Y-48657965D01*
X158670001Y-48615493D01*
X158670000Y-48615494D01*
X158670000Y-48921645D01*
X158652734Y-48984763D01*
X158647507Y-48993600D01*
X158647504Y-48993608D01*
X158602357Y-49149002D01*
X158602356Y-49149008D01*
X158599500Y-49185302D01*
X158599500Y-49654697D01*
X158602356Y-49690991D01*
X158602357Y-49690997D01*
X158647504Y-49846390D01*
X158647504Y-49846392D01*
X158647506Y-49846395D01*
X158652730Y-49855229D01*
X158670000Y-49918352D01*
X158670000Y-50232292D01*
X158698570Y-50270572D01*
X158703455Y-50340271D01*
X158685429Y-50382630D01*
X158598112Y-50513309D01*
X158598102Y-50513327D01*
X158537764Y-50658998D01*
X158537761Y-50659010D01*
X158507000Y-50813653D01*
X158507000Y-50971346D01*
X158537761Y-51125989D01*
X158537764Y-51126001D01*
X158598103Y-51271674D01*
X158598104Y-51271675D01*
X158598106Y-51271679D01*
X158649102Y-51348000D01*
X158654752Y-51366045D01*
X158664977Y-51381955D01*
X158669428Y-51412914D01*
X158669980Y-51414676D01*
X158670000Y-51416890D01*
X158670000Y-51461646D01*
X158652734Y-51524764D01*
X158647507Y-51533601D01*
X158647504Y-51533610D01*
X158602357Y-51689002D01*
X158602356Y-51689008D01*
X158599500Y-51725302D01*
X158599500Y-51836000D01*
X158596949Y-51844685D01*
X158598238Y-51853647D01*
X158587259Y-51877687D01*
X158579815Y-51903039D01*
X158572974Y-51908966D01*
X158569213Y-51917203D01*
X158546978Y-51931492D01*
X158527011Y-51948794D01*
X158516496Y-51951081D01*
X158510435Y-51954977D01*
X158475500Y-51960000D01*
X158294000Y-51960000D01*
X158226961Y-51940315D01*
X158181206Y-51887511D01*
X158170000Y-51836000D01*
X158170000Y-51155493D01*
X158150047Y-51140512D01*
X158108256Y-51084519D01*
X158100500Y-51041352D01*
X158100500Y-50879765D01*
X158120185Y-50812726D01*
X158121398Y-50810874D01*
X158209390Y-50679185D01*
X158209390Y-50679184D01*
X158209394Y-50679179D01*
X158269737Y-50533497D01*
X158300500Y-50378842D01*
X158300500Y-50221158D01*
X158300500Y-50221155D01*
X158300499Y-50221153D01*
X158281933Y-50127815D01*
X158269737Y-50066503D01*
X158209394Y-49920821D01*
X158190897Y-49893138D01*
X158170020Y-49826460D01*
X158170000Y-49824248D01*
X158170000Y-49368205D01*
X158174923Y-49333613D01*
X158207643Y-49220993D01*
X158210500Y-49184690D01*
X158210500Y-48775310D01*
X158207643Y-48739007D01*
X158199850Y-48712185D01*
X158170847Y-48612356D01*
X158162494Y-48583605D01*
X158150089Y-48562630D01*
X158132906Y-48494909D01*
X158150091Y-48436384D01*
X158162032Y-48416194D01*
X158204504Y-48270000D01*
X157898352Y-48270000D01*
X157835233Y-48252732D01*
X157826395Y-48247506D01*
X157826393Y-48247505D01*
X157826389Y-48247503D01*
X157670997Y-48202357D01*
X157670991Y-48202356D01*
X157634697Y-48199500D01*
X157634690Y-48199500D01*
X157524000Y-48199500D01*
X157456961Y-48179815D01*
X157411206Y-48127011D01*
X157400000Y-48075500D01*
X157400000Y-48020000D01*
X157320597Y-48020000D01*
X157291156Y-48011355D01*
X157261170Y-48004832D01*
X157256154Y-48001077D01*
X157253558Y-48000315D01*
X157232916Y-47983681D01*
X157186319Y-47937084D01*
X157152834Y-47875761D01*
X157150000Y-47849403D01*
X157150000Y-47770000D01*
X157722500Y-47770000D01*
X158204504Y-47770000D01*
X158162031Y-47623804D01*
X158158934Y-47616647D01*
X158160163Y-47616114D01*
X158144996Y-47556326D01*
X158162179Y-47497808D01*
X158204531Y-47426196D01*
X158249645Y-47270910D01*
X158251290Y-47250000D01*
X157722500Y-47250000D01*
X157722500Y-47770000D01*
X157150000Y-47770000D01*
X157150000Y-47620943D01*
X157167268Y-47557822D01*
X157171894Y-47550000D01*
X157244994Y-47426395D01*
X157290143Y-47270993D01*
X157293000Y-47234690D01*
X157293000Y-47124000D01*
X157312685Y-47056961D01*
X157365489Y-47011206D01*
X157417000Y-47000000D01*
X157472500Y-47000000D01*
X157472500Y-46874000D01*
X157492185Y-46806961D01*
X157544989Y-46761206D01*
X157596500Y-46750000D01*
X158251290Y-46750000D01*
X158249645Y-46729089D01*
X158204531Y-46573804D01*
X158122221Y-46434625D01*
X158122214Y-46434616D01*
X158097519Y-46409921D01*
X158064034Y-46348598D01*
X158069018Y-46278906D01*
X158097518Y-46234559D01*
X158121789Y-46210289D01*
X158209394Y-46079179D01*
X158269737Y-45933497D01*
X158300500Y-45778842D01*
X158300500Y-45621158D01*
X158300500Y-45621155D01*
X158300499Y-45621153D01*
X158299249Y-45614871D01*
X158269737Y-45466503D01*
X158255371Y-45431819D01*
X158209397Y-45320828D01*
X158209396Y-45320827D01*
X158209394Y-45320821D01*
X158190897Y-45293138D01*
X158185246Y-45275091D01*
X158175023Y-45259183D01*
X158170571Y-45228220D01*
X158170020Y-45226460D01*
X158170000Y-45224248D01*
X158170000Y-45024000D01*
X158189685Y-44956961D01*
X158242489Y-44911206D01*
X158294000Y-44900000D01*
X158475500Y-44900000D01*
X158542539Y-44919685D01*
G37*
%TD.AperFunction*%
%TA.AperFunction,Conductor*%
G36*
X146084297Y-49640185D02*
G01*
X146130052Y-49692989D01*
X146139873Y-49748553D01*
X146141210Y-49750000D01*
X146434739Y-49750000D01*
X146497857Y-49767267D01*
X146523605Y-49782494D01*
X146523608Y-49782494D01*
X146523610Y-49782496D01*
X146679002Y-49827642D01*
X146679005Y-49827642D01*
X146679007Y-49827643D01*
X146715310Y-49830500D01*
X146796000Y-49830500D01*
X146804685Y-49833050D01*
X146813647Y-49831762D01*
X146837687Y-49842740D01*
X146863039Y-49850185D01*
X146868966Y-49857025D01*
X146877203Y-49860787D01*
X146891492Y-49883021D01*
X146908794Y-49902989D01*
X146911081Y-49913503D01*
X146914977Y-49919565D01*
X146920000Y-49954500D01*
X146920000Y-50126000D01*
X146900315Y-50193039D01*
X146847511Y-50238794D01*
X146796000Y-50250000D01*
X146141210Y-50250000D01*
X146142854Y-50270910D01*
X146163190Y-50340906D01*
X146162990Y-50410775D01*
X146125047Y-50469445D01*
X146061409Y-50498288D01*
X146044113Y-50499500D01*
X146021155Y-50499500D01*
X145866510Y-50530261D01*
X145866498Y-50530264D01*
X145720827Y-50590602D01*
X145720814Y-50590609D01*
X145589711Y-50678210D01*
X145589707Y-50678213D01*
X145478213Y-50789707D01*
X145478210Y-50789711D01*
X145390479Y-50921010D01*
X145336867Y-50965815D01*
X145267542Y-50974522D01*
X145204514Y-50944367D01*
X145199696Y-50939800D01*
X145189786Y-50929890D01*
X145017820Y-50804951D01*
X145017115Y-50804591D01*
X145009054Y-50800485D01*
X144958259Y-50752512D01*
X144941463Y-50684692D01*
X144963999Y-50618556D01*
X145009054Y-50579515D01*
X145017816Y-50575051D01*
X145075022Y-50533489D01*
X145189786Y-50450109D01*
X145189788Y-50450106D01*
X145189792Y-50450104D01*
X145340104Y-50299792D01*
X145340106Y-50299788D01*
X145340109Y-50299786D01*
X145465048Y-50127820D01*
X145465047Y-50127820D01*
X145465051Y-50127816D01*
X145561557Y-49938412D01*
X145627246Y-49736243D01*
X145629011Y-49725100D01*
X145658942Y-49661966D01*
X145718254Y-49625036D01*
X145751484Y-49620500D01*
X146017258Y-49620500D01*
X146084297Y-49640185D01*
G37*
%TD.AperFunction*%
%TA.AperFunction,Conductor*%
G36*
X149484185Y-49102550D02*
G01*
X149493147Y-49101262D01*
X149517187Y-49112240D01*
X149542539Y-49119685D01*
X149548466Y-49126525D01*
X149556703Y-49130287D01*
X149570992Y-49152521D01*
X149588294Y-49172489D01*
X149590581Y-49183003D01*
X149594477Y-49189065D01*
X149599500Y-49224000D01*
X149599500Y-49334697D01*
X149602356Y-49370991D01*
X149602357Y-49370997D01*
X149647504Y-49526391D01*
X149647507Y-49526399D01*
X149652732Y-49535233D01*
X149657082Y-49551134D01*
X149664977Y-49563419D01*
X149670000Y-49598354D01*
X149670000Y-49601646D01*
X149652734Y-49664764D01*
X149647507Y-49673601D01*
X149647504Y-49673610D01*
X149602357Y-49829002D01*
X149602356Y-49829008D01*
X149599500Y-49865302D01*
X149599500Y-49976000D01*
X149579815Y-50043039D01*
X149527011Y-50088794D01*
X149475500Y-50100000D01*
X149294000Y-50100000D01*
X149226961Y-50080315D01*
X149181206Y-50027511D01*
X149170000Y-49976000D01*
X149170000Y-49224000D01*
X149189685Y-49156961D01*
X149242489Y-49111206D01*
X149294000Y-49100000D01*
X149475500Y-49100000D01*
X149484185Y-49102550D01*
G37*
%TD.AperFunction*%
%TA.AperFunction,Conductor*%
G36*
X146090815Y-47090185D02*
G01*
X146136570Y-47142989D01*
X146146514Y-47212147D01*
X146142859Y-47229059D01*
X146142854Y-47229087D01*
X146141209Y-47249999D01*
X146141210Y-47250000D01*
X146566213Y-47250000D01*
X146582529Y-47251078D01*
X146591811Y-47252310D01*
X146679007Y-47277643D01*
X146715310Y-47280500D01*
X146804194Y-47280500D01*
X146812316Y-47281578D01*
X146837066Y-47292558D01*
X146863039Y-47300185D01*
X146868523Y-47306514D01*
X146876182Y-47309912D01*
X146891066Y-47332530D01*
X146908794Y-47352989D01*
X146910899Y-47362668D01*
X146914591Y-47368278D01*
X146914720Y-47380232D01*
X146920000Y-47404500D01*
X146920000Y-47626000D01*
X146900315Y-47693039D01*
X146847511Y-47738794D01*
X146796000Y-47750000D01*
X146141210Y-47750000D01*
X146142854Y-47770910D01*
X146187968Y-47926195D01*
X146270278Y-48065374D01*
X146270285Y-48065383D01*
X146376867Y-48171965D01*
X146381204Y-48179908D01*
X146388451Y-48185333D01*
X146397687Y-48210095D01*
X146410352Y-48233288D01*
X146409706Y-48242315D01*
X146412870Y-48250796D01*
X146407253Y-48276620D01*
X146405368Y-48302980D01*
X146399550Y-48312031D01*
X146398020Y-48319070D01*
X146376870Y-48347325D01*
X146358944Y-48365252D01*
X146341015Y-48383180D01*
X146279695Y-48416665D01*
X146253334Y-48419500D01*
X145270200Y-48419500D01*
X145203161Y-48399815D01*
X145190634Y-48390506D01*
X145017820Y-48264951D01*
X145017115Y-48264591D01*
X145009054Y-48260485D01*
X144958259Y-48212512D01*
X144941463Y-48144692D01*
X144963999Y-48078556D01*
X145009054Y-48039515D01*
X145017816Y-48035051D01*
X145065626Y-48000315D01*
X145189786Y-47910109D01*
X145189788Y-47910106D01*
X145189792Y-47910104D01*
X145340104Y-47759792D01*
X145340106Y-47759788D01*
X145340109Y-47759786D01*
X145454653Y-47602128D01*
X145465051Y-47587816D01*
X145561557Y-47398412D01*
X145627246Y-47196243D01*
X145630595Y-47175100D01*
X145660526Y-47111966D01*
X145719838Y-47075036D01*
X145753068Y-47070500D01*
X146023776Y-47070500D01*
X146090815Y-47090185D01*
G37*
%TD.AperFunction*%
%TA.AperFunction,Conductor*%
G36*
X154742540Y-41120185D02*
G01*
X154788295Y-41172989D01*
X154799501Y-41224500D01*
X154799501Y-41947876D01*
X154805908Y-42007483D01*
X154831608Y-42076386D01*
X154836592Y-42146078D01*
X154832020Y-42160679D01*
X154832030Y-42160682D01*
X154830260Y-42166513D01*
X154799500Y-42321155D01*
X154799500Y-42475500D01*
X154779815Y-42542539D01*
X154727011Y-42588294D01*
X154675500Y-42599500D01*
X153986669Y-42599500D01*
X153986653Y-42599499D01*
X153979057Y-42599499D01*
X153820943Y-42599499D01*
X153713587Y-42628265D01*
X153668210Y-42640424D01*
X153668209Y-42640425D01*
X153618096Y-42669359D01*
X153618095Y-42669360D01*
X153615267Y-42670993D01*
X153531285Y-42719479D01*
X153531282Y-42719481D01*
X152319481Y-43931282D01*
X152319479Y-43931285D01*
X152269361Y-44018094D01*
X152269359Y-44018096D01*
X152240425Y-44068209D01*
X152240424Y-44068210D01*
X152240423Y-44068215D01*
X152199499Y-44220943D01*
X152199499Y-44220945D01*
X152199499Y-44389046D01*
X152199500Y-44389059D01*
X152199500Y-45309081D01*
X152197789Y-45314904D01*
X152198939Y-45320866D01*
X152188059Y-45348043D01*
X152179815Y-45376120D01*
X152175228Y-45380094D01*
X152172972Y-45385731D01*
X152149127Y-45402710D01*
X152127011Y-45421875D01*
X152121002Y-45422738D01*
X152116058Y-45426260D01*
X152086825Y-45427653D01*
X152057853Y-45431819D01*
X152050779Y-45429370D01*
X152046268Y-45429586D01*
X152013501Y-45416469D01*
X151931904Y-45369360D01*
X151931902Y-45369358D01*
X151931901Y-45369358D01*
X151881785Y-45340423D01*
X151729057Y-45299499D01*
X151729054Y-45299499D01*
X151679594Y-45299499D01*
X151612555Y-45279814D01*
X151591917Y-45263184D01*
X151537598Y-45208865D01*
X151505210Y-45189711D01*
X151399393Y-45127131D01*
X151399388Y-45127129D01*
X151245208Y-45082335D01*
X151245202Y-45082334D01*
X151209181Y-45079500D01*
X150810830Y-45079500D01*
X150810808Y-45079501D01*
X150774794Y-45082335D01*
X150620611Y-45127129D01*
X150620607Y-45127130D01*
X150562628Y-45161419D01*
X150494903Y-45178600D01*
X150436388Y-45161419D01*
X150379189Y-45127592D01*
X150379188Y-45127591D01*
X150240001Y-45087153D01*
X150240000Y-45087154D01*
X150240000Y-45639591D01*
X150239999Y-45640045D01*
X150239981Y-45644694D01*
X150239500Y-45650819D01*
X150239500Y-45776385D01*
X150239500Y-45776454D01*
X150229582Y-45809781D01*
X150219817Y-45843039D01*
X150219638Y-45843193D01*
X150219571Y-45843421D01*
X150193165Y-45866132D01*
X150167013Y-45888794D01*
X150166752Y-45888850D01*
X150166600Y-45888982D01*
X150165333Y-45889159D01*
X150115501Y-45900000D01*
X149990000Y-45900000D01*
X149986012Y-45903987D01*
X149970315Y-45957446D01*
X149917511Y-46003201D01*
X149848353Y-46013145D01*
X149841809Y-46012024D01*
X149778846Y-45999500D01*
X149778842Y-45999500D01*
X149621158Y-45999500D01*
X149621155Y-45999500D01*
X149466510Y-46030261D01*
X149466498Y-46030264D01*
X149320827Y-46090602D01*
X149320820Y-46090606D01*
X149295446Y-46107561D01*
X149263103Y-46129172D01*
X149188858Y-46178672D01*
X149169008Y-46184865D01*
X149151162Y-46195539D01*
X149123501Y-46199063D01*
X149122159Y-46199482D01*
X149121543Y-46199312D01*
X149120072Y-46199500D01*
X148750888Y-46199500D01*
X148683849Y-46179815D01*
X148638094Y-46127011D01*
X148631812Y-46110095D01*
X148612496Y-46043609D01*
X148612494Y-46043606D01*
X148612494Y-46043605D01*
X148530117Y-45904313D01*
X148530115Y-45904311D01*
X148530112Y-45904307D01*
X148415692Y-45789887D01*
X148415684Y-45789881D01*
X148305893Y-45724951D01*
X148276395Y-45707506D01*
X148276394Y-45707505D01*
X148276393Y-45707505D01*
X148276390Y-45707504D01*
X148120997Y-45662357D01*
X148120991Y-45662356D01*
X148084697Y-45659500D01*
X148084690Y-45659500D01*
X147675310Y-45659500D01*
X147675302Y-45659500D01*
X147639008Y-45662356D01*
X147639002Y-45662357D01*
X147483608Y-45707504D01*
X147483602Y-45707506D01*
X147463120Y-45719620D01*
X147395396Y-45736801D01*
X147336880Y-45719620D01*
X147316397Y-45707506D01*
X147316391Y-45707504D01*
X147160997Y-45662357D01*
X147160991Y-45662356D01*
X147124697Y-45659500D01*
X147124690Y-45659500D01*
X146715310Y-45659500D01*
X146715302Y-45659500D01*
X146679008Y-45662356D01*
X146679002Y-45662357D01*
X146523609Y-45707504D01*
X146523606Y-45707505D01*
X146384315Y-45789881D01*
X146384307Y-45789887D01*
X146341016Y-45833180D01*
X146279693Y-45866666D01*
X146253334Y-45869500D01*
X145257065Y-45869500D01*
X145237399Y-45863725D01*
X145216924Y-45862823D01*
X145194283Y-45851065D01*
X145190026Y-45849815D01*
X145185496Y-45846761D01*
X145184797Y-45846267D01*
X145017816Y-45724949D01*
X145001085Y-45716424D01*
X144993780Y-45711261D01*
X144977418Y-45690606D01*
X144958259Y-45672512D01*
X144956064Y-45663649D01*
X144950395Y-45656493D01*
X144947797Y-45630270D01*
X144941463Y-45604692D01*
X144944407Y-45596049D01*
X144943508Y-45586964D01*
X144955498Y-45563501D01*
X144963999Y-45538556D01*
X144971623Y-45531949D01*
X144975304Y-45524748D01*
X144989410Y-45516537D01*
X145009054Y-45499515D01*
X145017816Y-45495051D01*
X145057116Y-45466498D01*
X145189786Y-45370109D01*
X145189788Y-45370106D01*
X145189792Y-45370104D01*
X145340104Y-45219792D01*
X145340106Y-45219788D01*
X145340109Y-45219786D01*
X145420315Y-45109390D01*
X145465051Y-45047816D01*
X145473145Y-45031931D01*
X145485235Y-45008205D01*
X145533209Y-44957409D01*
X145595719Y-44940500D01*
X146253334Y-44940500D01*
X146320373Y-44960185D01*
X146341016Y-44976820D01*
X146384307Y-45020112D01*
X146384311Y-45020115D01*
X146384313Y-45020117D01*
X146523605Y-45102494D01*
X146529047Y-45104075D01*
X146679002Y-45147642D01*
X146679005Y-45147642D01*
X146679007Y-45147643D01*
X146715310Y-45150500D01*
X146715318Y-45150500D01*
X147124682Y-45150500D01*
X147124690Y-45150500D01*
X147160993Y-45147643D01*
X147160995Y-45147642D01*
X147160997Y-45147642D01*
X147205577Y-45134690D01*
X147316395Y-45102494D01*
X147336879Y-45090379D01*
X147404601Y-45073196D01*
X147463119Y-45090379D01*
X147483605Y-45102494D01*
X147483607Y-45102494D01*
X147483608Y-45102495D01*
X147639002Y-45147642D01*
X147639005Y-45147642D01*
X147639007Y-45147643D01*
X147675310Y-45150500D01*
X147675318Y-45150500D01*
X148084682Y-45150500D01*
X148084690Y-45150500D01*
X148120993Y-45147643D01*
X148120995Y-45147642D01*
X148120997Y-45147642D01*
X148165577Y-45134690D01*
X148276395Y-45102494D01*
X148415687Y-45020117D01*
X148415687Y-45020116D01*
X148419659Y-45017768D01*
X148435560Y-45013417D01*
X148447845Y-45005523D01*
X148482780Y-45000500D01*
X148720234Y-45000500D01*
X148787273Y-45020185D01*
X148789125Y-45021398D01*
X148920814Y-45109390D01*
X148920827Y-45109397D01*
X149020060Y-45150500D01*
X149066503Y-45169737D01*
X149111060Y-45178600D01*
X149227132Y-45201689D01*
X149226665Y-45204033D01*
X149281650Y-45226212D01*
X149322030Y-45283232D01*
X149325173Y-45353031D01*
X149311477Y-45386603D01*
X149267595Y-45460804D01*
X149267592Y-45460811D01*
X149222833Y-45614871D01*
X149222832Y-45614877D01*
X149220069Y-45650000D01*
X149740000Y-45650000D01*
X149740000Y-45135034D01*
X149759685Y-45067995D01*
X149795110Y-45031931D01*
X149810289Y-45021789D01*
X149921789Y-44910289D01*
X150009394Y-44779179D01*
X150069737Y-44633497D01*
X150100500Y-44478842D01*
X150100500Y-44321158D01*
X150100500Y-44321155D01*
X150100499Y-44321153D01*
X150069738Y-44166510D01*
X150069737Y-44166503D01*
X150029023Y-44068209D01*
X150009397Y-44020827D01*
X150009390Y-44020814D01*
X149921789Y-43889711D01*
X149921786Y-43889707D01*
X149810292Y-43778213D01*
X149810288Y-43778210D01*
X149679185Y-43690609D01*
X149679172Y-43690602D01*
X149533501Y-43630264D01*
X149533489Y-43630261D01*
X149378845Y-43599500D01*
X149378842Y-43599500D01*
X149221158Y-43599500D01*
X149221155Y-43599500D01*
X149066510Y-43630261D01*
X149066498Y-43630264D01*
X148920827Y-43690602D01*
X148920814Y-43690609D01*
X148789125Y-43778602D01*
X148771078Y-43784252D01*
X148755169Y-43794477D01*
X148724207Y-43798928D01*
X148722447Y-43799480D01*
X148720234Y-43799500D01*
X148606666Y-43799500D01*
X148539627Y-43779815D01*
X148518989Y-43763185D01*
X148415687Y-43659883D01*
X148276395Y-43577506D01*
X148276394Y-43577505D01*
X148276393Y-43577505D01*
X148276390Y-43577504D01*
X148120997Y-43532357D01*
X148120991Y-43532356D01*
X148084697Y-43529500D01*
X148084690Y-43529500D01*
X147675310Y-43529500D01*
X147675302Y-43529500D01*
X147639008Y-43532356D01*
X147639002Y-43532357D01*
X147483608Y-43577504D01*
X147483602Y-43577506D01*
X147463120Y-43589620D01*
X147395396Y-43606801D01*
X147336880Y-43589620D01*
X147316397Y-43577506D01*
X147316391Y-43577504D01*
X147160997Y-43532357D01*
X147160991Y-43532356D01*
X147124697Y-43529500D01*
X147124690Y-43529500D01*
X146715310Y-43529500D01*
X146715302Y-43529500D01*
X146679008Y-43532356D01*
X146679002Y-43532357D01*
X146523609Y-43577504D01*
X146523606Y-43577505D01*
X146384315Y-43659881D01*
X146384307Y-43659887D01*
X146341016Y-43703180D01*
X146279693Y-43736666D01*
X146253334Y-43739500D01*
X145595719Y-43739500D01*
X145528680Y-43719815D01*
X145485235Y-43671795D01*
X145465052Y-43632185D01*
X145465051Y-43632184D01*
X145340109Y-43460213D01*
X145226569Y-43346673D01*
X145193084Y-43285350D01*
X145198068Y-43215658D01*
X145239940Y-43159725D01*
X145270915Y-43142810D01*
X145402331Y-43093796D01*
X145517546Y-43007546D01*
X145603796Y-42892331D01*
X145654091Y-42757483D01*
X145660500Y-42697873D01*
X145660500Y-42524500D01*
X145680185Y-42457461D01*
X145732989Y-42411706D01*
X145784500Y-42400500D01*
X146253334Y-42400500D01*
X146320373Y-42420185D01*
X146341016Y-42436820D01*
X146384307Y-42480112D01*
X146384311Y-42480115D01*
X146384313Y-42480117D01*
X146523605Y-42562494D01*
X146548535Y-42569737D01*
X146679002Y-42607642D01*
X146679005Y-42607642D01*
X146679007Y-42607643D01*
X146715310Y-42610500D01*
X146715318Y-42610500D01*
X147124682Y-42610500D01*
X147124690Y-42610500D01*
X147160993Y-42607643D01*
X147160995Y-42607642D01*
X147160997Y-42607642D01*
X147227592Y-42588294D01*
X147316395Y-42562494D01*
X147336879Y-42550379D01*
X147404601Y-42533196D01*
X147463119Y-42550379D01*
X147483605Y-42562494D01*
X147483607Y-42562494D01*
X147483608Y-42562495D01*
X147639002Y-42607642D01*
X147639005Y-42607642D01*
X147639007Y-42607643D01*
X147675310Y-42610500D01*
X147675318Y-42610500D01*
X148084682Y-42610500D01*
X148084690Y-42610500D01*
X148120993Y-42607643D01*
X148120995Y-42607642D01*
X148120997Y-42607642D01*
X148187592Y-42588294D01*
X148276395Y-42562494D01*
X148381068Y-42500590D01*
X148448789Y-42483408D01*
X148513078Y-42504221D01*
X148520814Y-42509390D01*
X148520827Y-42509397D01*
X148649019Y-42562495D01*
X148666503Y-42569737D01*
X148816126Y-42599499D01*
X148821153Y-42600499D01*
X148821156Y-42600500D01*
X148821158Y-42600500D01*
X148978844Y-42600500D01*
X148978845Y-42600499D01*
X149133497Y-42569737D01*
X149279179Y-42509394D01*
X149410289Y-42421789D01*
X149521789Y-42310289D01*
X149609394Y-42179179D01*
X149669737Y-42033497D01*
X149700500Y-41878842D01*
X149700500Y-41721158D01*
X149700500Y-41721155D01*
X149700499Y-41721153D01*
X149669738Y-41566510D01*
X149669737Y-41566503D01*
X149669735Y-41566498D01*
X149609397Y-41420827D01*
X149609390Y-41420814D01*
X149524248Y-41293391D01*
X149503370Y-41226714D01*
X149521854Y-41159334D01*
X149573833Y-41112643D01*
X149627350Y-41100500D01*
X154675501Y-41100500D01*
X154742540Y-41120185D01*
G37*
%TD.AperFunction*%
%TA.AperFunction,Conductor*%
G36*
X160682540Y-42420185D02*
G01*
X160728295Y-42472989D01*
X160739501Y-42524500D01*
X160739501Y-42697876D01*
X160745908Y-42757483D01*
X160796202Y-42892328D01*
X160796206Y-42892335D01*
X160882452Y-43007544D01*
X160882455Y-43007547D01*
X160997664Y-43093793D01*
X160997671Y-43093797D01*
X161012473Y-43099318D01*
X161068407Y-43141189D01*
X161092824Y-43206654D01*
X161077972Y-43274927D01*
X161028567Y-43324332D01*
X160969140Y-43339500D01*
X160119595Y-43339500D01*
X160090157Y-43330855D01*
X160060167Y-43324332D01*
X160055150Y-43320576D01*
X160052556Y-43319815D01*
X160031918Y-43303185D01*
X159949949Y-43221216D01*
X159916465Y-43159892D01*
X159921449Y-43090201D01*
X159949948Y-43045855D01*
X160030117Y-42965687D01*
X160112494Y-42826395D01*
X160157643Y-42670993D01*
X160160500Y-42634690D01*
X160160500Y-42524500D01*
X160180185Y-42457461D01*
X160232989Y-42411706D01*
X160284500Y-42400500D01*
X160615501Y-42400500D01*
X160682540Y-42420185D01*
G37*
%TD.AperFunction*%
%TA.AperFunction,Conductor*%
G36*
X161904418Y-31700816D02*
G01*
X162104561Y-31715130D01*
X162122063Y-31717647D01*
X162313795Y-31759355D01*
X162330760Y-31764336D01*
X162514611Y-31832909D01*
X162530694Y-31840253D01*
X162647495Y-31904032D01*
X162702908Y-31934290D01*
X162717791Y-31943855D01*
X162874864Y-32061438D01*
X162888235Y-32073024D01*
X163026975Y-32211764D01*
X163038561Y-32225135D01*
X163156144Y-32382208D01*
X163165709Y-32397091D01*
X163259743Y-32569300D01*
X163267093Y-32585394D01*
X163335661Y-32769234D01*
X163340645Y-32786209D01*
X163382351Y-32977931D01*
X163384869Y-32995442D01*
X163399184Y-33195580D01*
X163399500Y-33204427D01*
X163399500Y-40421054D01*
X163379815Y-40488093D01*
X163327011Y-40533848D01*
X163257853Y-40543792D01*
X163201189Y-40520321D01*
X163182331Y-40506204D01*
X163182328Y-40506202D01*
X163047482Y-40455908D01*
X163047483Y-40455908D01*
X162987883Y-40449501D01*
X162987881Y-40449500D01*
X162987873Y-40449500D01*
X162987864Y-40449500D01*
X161192129Y-40449500D01*
X161192123Y-40449501D01*
X161132516Y-40455908D01*
X160997671Y-40506202D01*
X160997664Y-40506206D01*
X160882455Y-40592452D01*
X160882452Y-40592455D01*
X160796206Y-40707664D01*
X160796204Y-40707668D01*
X160796204Y-40707669D01*
X160792039Y-40718834D01*
X160750171Y-40774766D01*
X160684707Y-40799184D01*
X160675859Y-40799500D01*
X160079595Y-40799500D01*
X160012556Y-40779815D01*
X159991918Y-40763185D01*
X159937598Y-40708865D01*
X159935567Y-40707664D01*
X159799393Y-40627131D01*
X159799388Y-40627129D01*
X159645208Y-40582335D01*
X159645202Y-40582334D01*
X159609181Y-40579500D01*
X159210830Y-40579500D01*
X159210808Y-40579501D01*
X159174794Y-40582335D01*
X159020611Y-40627129D01*
X159020604Y-40627132D01*
X158963119Y-40661128D01*
X158895395Y-40678309D01*
X158836881Y-40661128D01*
X158779395Y-40627132D01*
X158779388Y-40627129D01*
X158625208Y-40582335D01*
X158625202Y-40582334D01*
X158589181Y-40579500D01*
X158190830Y-40579500D01*
X158190808Y-40579501D01*
X158154792Y-40582335D01*
X158148563Y-40583473D01*
X158148121Y-40581056D01*
X158089214Y-40580884D01*
X158030547Y-40542936D01*
X158001710Y-40479296D01*
X158000499Y-40462010D01*
X158000499Y-39052129D01*
X158000498Y-39052123D01*
X157994091Y-38992516D01*
X157943797Y-38857671D01*
X157943793Y-38857664D01*
X157857547Y-38742455D01*
X157857544Y-38742452D01*
X157742335Y-38656206D01*
X157742328Y-38656202D01*
X157607482Y-38605908D01*
X157607483Y-38605908D01*
X157547883Y-38599501D01*
X157547881Y-38599500D01*
X157547873Y-38599500D01*
X157547865Y-38599500D01*
X155727350Y-38599500D01*
X155660311Y-38579815D01*
X155614556Y-38527011D01*
X155604612Y-38457853D01*
X155624248Y-38406609D01*
X155709390Y-38279185D01*
X155709390Y-38279184D01*
X155709394Y-38279179D01*
X155769737Y-38133497D01*
X155800500Y-37978842D01*
X155800500Y-37821158D01*
X155800500Y-37821155D01*
X155800499Y-37821153D01*
X155800244Y-37819871D01*
X155769737Y-37666503D01*
X155769735Y-37666498D01*
X155709397Y-37520827D01*
X155709390Y-37520814D01*
X155621789Y-37389711D01*
X155621786Y-37389707D01*
X155510292Y-37278213D01*
X155510288Y-37278210D01*
X155374114Y-37187221D01*
X155375424Y-37185259D01*
X155333042Y-37143600D01*
X155317602Y-37075458D01*
X155341455Y-37009785D01*
X155353671Y-36995563D01*
X156063367Y-36285867D01*
X156124689Y-36252383D01*
X156194381Y-36257367D01*
X156250314Y-36299239D01*
X156274731Y-36364703D01*
X156268978Y-36411867D01*
X156226597Y-36542301D01*
X156199500Y-36713389D01*
X156199500Y-36886611D01*
X156226598Y-37057701D01*
X156280127Y-37222445D01*
X156358768Y-37376788D01*
X156460586Y-37516928D01*
X156583072Y-37639414D01*
X156723212Y-37741232D01*
X156877555Y-37819873D01*
X157042299Y-37873402D01*
X157213389Y-37900500D01*
X157213390Y-37900500D01*
X157386610Y-37900500D01*
X157386611Y-37900500D01*
X157557701Y-37873402D01*
X157722445Y-37819873D01*
X157876788Y-37741232D01*
X158016928Y-37639414D01*
X158139414Y-37516928D01*
X158241232Y-37376788D01*
X158319873Y-37222445D01*
X158373402Y-37057701D01*
X158400500Y-36886611D01*
X158400500Y-36713389D01*
X158373402Y-36542299D01*
X158319873Y-36377555D01*
X158241232Y-36223212D01*
X158139414Y-36083072D01*
X158016928Y-35960586D01*
X157876788Y-35858768D01*
X157722445Y-35780127D01*
X157557701Y-35726598D01*
X157557699Y-35726597D01*
X157557698Y-35726597D01*
X157426271Y-35705781D01*
X157386611Y-35699500D01*
X157213389Y-35699500D01*
X157181192Y-35704599D01*
X157042301Y-35726597D01*
X156911866Y-35768978D01*
X156842024Y-35770973D01*
X156782192Y-35734892D01*
X156751364Y-35672191D01*
X156759329Y-35602777D01*
X156785864Y-35563369D01*
X157312416Y-35036817D01*
X157373739Y-35003333D01*
X157400097Y-35000499D01*
X159547871Y-35000499D01*
X159547872Y-35000499D01*
X159607483Y-34994091D01*
X159742331Y-34943796D01*
X159857546Y-34857546D01*
X159943796Y-34742331D01*
X159994091Y-34607483D01*
X160000500Y-34547873D01*
X160000499Y-31824499D01*
X160020184Y-31757461D01*
X160072987Y-31711706D01*
X160124499Y-31700500D01*
X161834108Y-31700500D01*
X161895572Y-31700500D01*
X161904418Y-31700816D01*
G37*
%TD.AperFunction*%
%TA.AperFunction,Conductor*%
G36*
X154212110Y-38224141D02*
G01*
X154226572Y-38225176D01*
X154243492Y-38237842D01*
X154262859Y-38246298D01*
X154279319Y-38264663D01*
X154282505Y-38267048D01*
X154285074Y-38271084D01*
X154286415Y-38272580D01*
X154290264Y-38278355D01*
X154290606Y-38279179D01*
X154378211Y-38410289D01*
X154378213Y-38410291D01*
X154378677Y-38410987D01*
X154389084Y-38444350D01*
X154399480Y-38477551D01*
X154399461Y-38477618D01*
X154399483Y-38477687D01*
X154399500Y-38479765D01*
X154399500Y-39013330D01*
X154399499Y-39013348D01*
X154399499Y-39179054D01*
X154399498Y-39179054D01*
X154440423Y-39331785D01*
X154469358Y-39381900D01*
X154469359Y-39381904D01*
X154469360Y-39381904D01*
X154519479Y-39468714D01*
X154519481Y-39468717D01*
X154638349Y-39587585D01*
X154638355Y-39587590D01*
X154738584Y-39687819D01*
X154772069Y-39749142D01*
X154767085Y-39818834D01*
X154725213Y-39874767D01*
X154659749Y-39899184D01*
X154650903Y-39899500D01*
X152749097Y-39899500D01*
X152682058Y-39879815D01*
X152636303Y-39827011D01*
X152626359Y-39757853D01*
X152655384Y-39694297D01*
X152661416Y-39687819D01*
X153356719Y-38992516D01*
X154095559Y-38253675D01*
X154114106Y-38243548D01*
X154129844Y-38229443D01*
X154144156Y-38227139D01*
X154156880Y-38220192D01*
X154177961Y-38221699D01*
X154198826Y-38218342D01*
X154212110Y-38224141D01*
G37*
%TD.AperFunction*%
%TA.AperFunction,Conductor*%
G36*
X147042539Y-31720185D02*
G01*
X147088294Y-31772989D01*
X147099500Y-31824500D01*
X147099500Y-34547870D01*
X147099501Y-34547876D01*
X147105908Y-34607483D01*
X147156202Y-34742328D01*
X147156206Y-34742335D01*
X147242452Y-34857544D01*
X147242455Y-34857547D01*
X147357664Y-34943793D01*
X147357671Y-34943797D01*
X147492517Y-34994091D01*
X147492516Y-34994091D01*
X147499444Y-34994835D01*
X147552127Y-35000500D01*
X149999902Y-35000499D01*
X150066941Y-35020184D01*
X150087583Y-35036818D01*
X150548847Y-35498082D01*
X150582332Y-35559405D01*
X150577348Y-35629097D01*
X150535476Y-35685030D01*
X150470012Y-35709447D01*
X150441768Y-35708236D01*
X150437720Y-35707594D01*
X150386611Y-35699500D01*
X150213389Y-35699500D01*
X150173728Y-35705781D01*
X150042302Y-35726597D01*
X149877552Y-35780128D01*
X149723211Y-35858768D01*
X149643256Y-35916859D01*
X149583072Y-35960586D01*
X149583070Y-35960588D01*
X149583069Y-35960588D01*
X149460588Y-36083069D01*
X149460588Y-36083070D01*
X149460586Y-36083072D01*
X149438635Y-36113285D01*
X149358768Y-36223211D01*
X149280128Y-36377552D01*
X149226597Y-36542302D01*
X149199500Y-36713389D01*
X149199500Y-36886611D01*
X149226598Y-37057701D01*
X149280127Y-37222445D01*
X149358768Y-37376788D01*
X149460586Y-37516928D01*
X149583072Y-37639414D01*
X149723212Y-37741232D01*
X149877555Y-37819873D01*
X150042299Y-37873402D01*
X150213389Y-37900500D01*
X150213390Y-37900500D01*
X150386610Y-37900500D01*
X150386611Y-37900500D01*
X150557701Y-37873402D01*
X150722445Y-37819873D01*
X150876788Y-37741232D01*
X151016928Y-37639414D01*
X151139414Y-37516928D01*
X151241232Y-37376788D01*
X151319873Y-37222445D01*
X151373402Y-37057701D01*
X151400500Y-36886611D01*
X151400500Y-36713389D01*
X151373402Y-36542299D01*
X151319873Y-36377555D01*
X151272275Y-36284139D01*
X151259380Y-36215472D01*
X151285656Y-36150731D01*
X151342762Y-36110474D01*
X151412568Y-36107482D01*
X151430213Y-36113285D01*
X151566498Y-36169735D01*
X151566503Y-36169737D01*
X151721153Y-36200499D01*
X151721156Y-36200500D01*
X151721158Y-36200500D01*
X151878844Y-36200500D01*
X151878845Y-36200499D01*
X152033497Y-36169737D01*
X152179179Y-36109394D01*
X152310289Y-36021789D01*
X152421789Y-35910289D01*
X152509394Y-35779179D01*
X152569737Y-35633497D01*
X152600500Y-35478842D01*
X152600500Y-35321158D01*
X152600500Y-35321155D01*
X152600499Y-35321153D01*
X152569738Y-35166510D01*
X152569737Y-35166503D01*
X152569735Y-35166498D01*
X152509397Y-35020827D01*
X152509390Y-35020814D01*
X152421789Y-34889711D01*
X152421786Y-34889707D01*
X152310292Y-34778213D01*
X152310288Y-34778210D01*
X152179185Y-34690609D01*
X152179172Y-34690602D01*
X152033501Y-34630264D01*
X152033489Y-34630261D01*
X151878845Y-34599500D01*
X151878842Y-34599500D01*
X151721158Y-34599500D01*
X151721155Y-34599500D01*
X151566511Y-34630260D01*
X151566502Y-34630263D01*
X151510814Y-34653329D01*
X151441345Y-34660796D01*
X151378866Y-34629520D01*
X151375683Y-34626448D01*
X150936818Y-34187583D01*
X150903333Y-34126260D01*
X150900499Y-34099902D01*
X150900499Y-31824500D01*
X150920184Y-31757461D01*
X150972988Y-31711706D01*
X151024499Y-31700500D01*
X156675500Y-31700500D01*
X156742539Y-31720185D01*
X156788294Y-31772989D01*
X156799500Y-31824500D01*
X156799500Y-33799901D01*
X156779815Y-33866940D01*
X156763181Y-33887582D01*
X151587584Y-39063181D01*
X151526261Y-39096666D01*
X151499903Y-39099500D01*
X144196670Y-39099500D01*
X144196654Y-39099499D01*
X144189058Y-39099499D01*
X144030943Y-39099499D01*
X143954579Y-39119961D01*
X143878214Y-39140423D01*
X143878209Y-39140426D01*
X143741290Y-39219475D01*
X143741282Y-39219481D01*
X143212181Y-39748583D01*
X143150858Y-39782068D01*
X143081166Y-39777084D01*
X143025233Y-39735212D01*
X143000816Y-39669748D01*
X143000500Y-39660902D01*
X143000500Y-33204427D01*
X143000816Y-33195581D01*
X143015130Y-32995443D01*
X143015131Y-32995434D01*
X143017646Y-32977938D01*
X143059356Y-32786200D01*
X143064335Y-32769242D01*
X143132911Y-32585382D01*
X143140251Y-32569310D01*
X143234294Y-32397083D01*
X143243850Y-32382214D01*
X143361443Y-32225128D01*
X143373017Y-32211771D01*
X143511771Y-32073017D01*
X143525128Y-32061443D01*
X143682214Y-31943850D01*
X143697083Y-31934294D01*
X143869310Y-31840251D01*
X143885382Y-31832911D01*
X144069242Y-31764335D01*
X144086200Y-31759356D01*
X144277938Y-31717646D01*
X144295436Y-31715130D01*
X144495582Y-31700816D01*
X144504428Y-31700500D01*
X144565892Y-31700500D01*
X146975500Y-31700500D01*
X147042539Y-31720185D01*
G37*
%TD.AperFunction*%
%TD*%
M02*
